<svg xmlns="http://www.w3.org/2000/svg" width="483" height="473" viewBox="0 0 483 473" fill="none"><path fill-rule="evenodd" clip-rule="evenodd" d="M83.41 144.601c21.795-32.57 57.67-53.986 95.792-63.069 32.946-7.85 64.141 12.077 97.652 16.98 33.579 4.913 69.064-4.937 98.623 11.737 34.798 19.63 72.815 47.908 77.456 87.59 4.632 39.601-28.799 72.92-55.187 102.808-20.9 23.671-49.68 35.896-78.558 48.67-26.803 11.856-53.567 19.686-82.724 22.669-39.068 3.996-81.161 17.634-114.908-2.453-36.18-21.534-58-63.144-65.039-104.654-7.04-41.521 3.474-85.278 26.894-120.278z" fill="#fff"/><path fill="#83D4FF" d="M64 322h48v75H64z"/><path fill-rule="evenodd" clip-rule="evenodd" d="M329 256h-48v141h81V292h-33v-36zm-128 36l-16 17.08V397h32v-87.92L201 292zm204 85h-38v20h38v-20z" fill="#83D4FF"/><path fill-rule="evenodd" clip-rule="evenodd" d="M277 322l-30 19.192V397h60v-55.808L277 322zm-120 30.08L173 335l16 17.08V397h-32v-44.92zM201 341h40v56h-40v-56z" fill="#DEF4FF"/><path fill="#FFB08E" d="M221.19 270.633l39.549-22.833 14.172 24.547-39.549 22.833z"/><path fill="#FF7F71" d="M237.556 261.186l8.182-4.724 2.362 4.091-8.182 4.724z"/><path fill="#FFF2E5" d="M260.642 269.676l6.82-3.937 1.18 2.046-6.819 3.937zm1.967 3.408l6.82-3.937 1.18 2.046-6.819 3.937z"/><path fill="#FFB08E" d="M218.855 253.836l30.89-17.834 7.873 13.637-30.89 17.834z"/><path fill="#FF7F71" d="M230.448 247.144l8.182-4.724 2.362 4.091-8.182 4.724z"/><path fill="#FFF2E5" d="M246.854 246.75l4.924-2.843.853 1.477-4.924 2.843zm1.422 2.462l4.924-2.843.853 1.477-4.924 2.843z"/><path d="M219.222 234.414v19.29l1.968 16.929 14.173 24.408m-16.141-60.232l15.353 9.842m0 0l20.078 38.975m-20.078-38.975l-2.756-15.747m.001.393l18.11 6.692 11.023 11.811 14.172 24.408" stroke="#423C5A" stroke-width=".5"/><path d="M180.017 254.249l6.104-2.297 3.6 9.566-12.207 4.595-1.306-3.468a6.52 6.52 0 003.809-8.396z" fill="#FF3645"/><path d="M173.775 256.881l12.581-4.735-5.086-13.513-12.581 4.735 5.086 13.513z" fill="#423B57"/><path d="M200.583 247.515l-5.342 3.741 5.862 8.373 10.687-7.483-2.126-3.035a6.52 6.52 0 01-9.081-1.596z" fill="#FF3645"/><path d="M195.399 251.467l10.603-7.425-8.281-11.827-10.604 7.425 8.282 11.827z" fill="#423B57"/><path d="M215.359 211.048c0 19.411-15.749 35.147-35.178 35.147-19.43 0-35.179-15.736-35.179-35.147 0-19.411 15.749-35.148 35.179-35.148 19.429 0 35.178 15.737 35.178 35.148z" fill="#FF3645"/><path d="M180.439 199.976c-24.032-3.388-35.561-22.754-40.637-34.532l-1.483-3.675 14.443-5.829m33.784 34.24c21.817 2.166 34.932 20.461 41.192 31.678l1.864 3.505-11.937 6.349" fill="#FF3645"/><path fill-rule="evenodd" clip-rule="evenodd" d="M224.459 227.537l-1.758.936-3.078 1.636-2.198 1.169 2.338 4.396.005-.002a1.57 1.57 0 002.758-.106l1.072 2.016.102-.054a1.57 1.57 0 003.012-.426 1.568 1.568 0 002.289-1.222 1.57 1.57 0 002.128-2.11 1.572 1.572 0 001.436-2.661l-3.268-6.145-2.2 1.17-2.638 1.403zm-54.874-66.384c3.572-9.812 14.995-16.534 25.713-12.633 10.717 3.901 15.147 16.392 11.575 26.205l-.679 1.867c-3.484 9.573-14.441 16.204-24.925 12.9l.528 4.568-5.433-1.977 3.342-3.16c-10.154-4.21-14.284-16.331-10.8-25.903l.679-1.867z" fill="#FFB08E"/><path d="M192.599 177.702c-1.328 3.649-5.536 5.466-9.4 4.06-3.865-1.407-5.921-5.503-4.592-9.153l7.507 1.146" fill="#fff"/><path fill-rule="evenodd" clip-rule="evenodd" d="M216.629 149.497l-5.233 6.233c2.972 4.263 3.956 7.971 2.517 9.683-2.322 2.766-10.863.218-19.336-6.888-8.474-7.106-12.47-15.071-10.147-17.837 1.438-1.714 5.263-1.388 9.98.797l5.243-6.245h.001c1.34-1.591 6.258-.124 11.14 3.969 4.882 4.094 7.183 8.682 5.845 10.276l-.01.012z" fill="#423B57"/><path d="M211.375 155.754c-1.337 1.593-6.259.125-11.141-3.969-4.881-4.093-7.183-8.683-5.845-10.276l-2.673 3.186c-1.338 1.593.962 6.181 5.845 10.276 4.882 4.094 9.803 5.561 11.141 3.968" fill="#FF3645"/><path fill-rule="evenodd" clip-rule="evenodd" d="M177.637 161.26c4.23-2.525 8.53-2.55 8.71-2.551h.159l.002 1.937h-.159c-.039-.001-3.972.04-7.717 2.277l-.137.083-.995-1.663.137-.083zm14.234 1.139c.229.004 5.659.149 8.601 4.272l.093.129-1.578 1.124-.091-.129c-2.365-3.314-7.014-3.459-7.06-3.459l-.158-.005.035-1.935.158.003zm2.145 5.69a1.571 1.571 0 00-2.012.936 1.571 1.571 0 002.951 1.074 1.571 1.571 0 00-.939-2.01zm-12.325-2.819a1.571 1.571 0 012.951 1.074 1.57 1.57 0 01-2.951-1.074zm7.766 6.927a2.607 2.607 0 10-1.784 4.899l7.548 2.747s-1.99-6.273-5.764-7.646zm-14.235.366s5.558-3.526 9.33-2.153a2.606 2.606 0 11-1.783 4.899l-7.547-2.746z" fill="#423B57"/><path d="M125.126 125.368c7.469 17.177 19.722 16.254 23.649 24.645 5.477 11.7 2.739 20.412.996 31.117" stroke="#000" stroke-width=".5"/><path d="M133.59 94.75c1.494 28.876 11.021 34.851 14.19 48.293 4.392 18.633 4.978 24.894 0 39.83" stroke="#000" stroke-width=".5"/><path d="M154.25 110.183c-9.21 27.88-3.485 30.121-3.485 44.808 0 14.936 0 14.438-4.481 24.147" stroke="#000" stroke-width=".5"/><path fill-rule="evenodd" clip-rule="evenodd" d="M140.936 86.185c2.495-9.256 12.414-16.303 22.524-13.578 10.109 2.724 15.144 13.801 12.65 23.057l-.475 1.76c-2.433 9.031-11.933 15.958-21.781 13.762l.842 4.137-5.124-1.381 2.808-3.154c-9.62-3.05-14.352-13.813-11.918-22.842l.474-1.761z" fill="#FFB08E"/><path fill-rule="evenodd" clip-rule="evenodd" d="M109.837 71.64c-2.608-13 5.339-27.834 19.538-30.684 14.197-2.849 27.252 7.77 29.861 20.77l.496 2.473c2.545 12.683-4.957 27.111-18.509 30.453l3.594 4.611-7.197 1.444 1.538-5.641c-13.792 2.145-26.279-8.272-28.824-20.954l-.497-2.473z" fill="#FF3645"/><path fill-rule="evenodd" clip-rule="evenodd" d="M97.858 99.597c-.939-13.226 8.825-26.932 23.271-27.957 14.444-1.026 26.047 11.163 26.986 24.389l.178 2.515c.919 12.941-8.409 26.341-22.341 27.874l3.1 5.233-7.321.52 2.332-5.621c-13.997.433-25.108-11.507-26.026-24.437l-.179-2.516z" fill="#8CD7FF"/><path fill-rule="evenodd" clip-rule="evenodd" d="M151.265 148.527v-.004h-4.979v13.44h6.95a1.572 1.572 0 001.68-2.515 1.571 1.571 0 00.874-2.869 1.568 1.568 0 00-.001-2.595 1.57 1.57 0 00-1.039-2.86v-.109h-2.29a1.572 1.572 0 00-1.195-2.488z" fill="#FFB08E"/><path fill-rule="evenodd" clip-rule="evenodd" d="M176.236 199.799a1.57 1.57 0 00-1.571 1.569 1.571 1.571 0 003.14 0 1.57 1.57 0 00-1.569-1.569zm-1.993 7.454c-.867 0-1.571.704-1.571 1.57a1.57 1.57 0 003.14 0c0-.866-.704-1.57-1.569-1.57zm-.577 8.556a1.57 1.57 0 013.14 0 1.571 1.571 0 01-3.14 0z" fill="#423B57"/><ellipse cx="146.035" cy="155.24" rx="4.73" ry="6.721" fill="#FFB08E"/></svg>