<svg width="226" height="485" viewBox="0 0 226 485" fill="none" xmlns="http://www.w3.org/2000/svg"><path d="M121.5 103c-36.5 46.5-32.205 75.882-49.002 91.24-15.396 14.076-63.783 22.873-63.783 43.987" stroke="#000" stroke-width=".5"/><path fill-rule="evenodd" clip-rule="evenodd" d="M103.839 67.34c3.45-12.805 17.172-22.553 31.158-18.783 13.984 3.768 20.948 19.091 17.498 31.895l-.657 2.436c-3.366 12.491-16.507 22.073-30.13 19.036l1.165 5.723-7.089-1.91 3.885-4.363c-13.307-4.22-19.853-19.108-16.487-31.599l.657-2.436z" fill="#FFB08E"/><path d="M85 80.5c2.066 39.946 20 60.5-11.934 110.66-5.471 8.595-55.264 28.605-62.151 49.267" stroke="#000" stroke-width=".5"/><path fill-rule="evenodd" clip-rule="evenodd" d="M45.142 49.3c-3.61-17.982 7.384-38.502 27.026-42.444 19.64-3.941 37.699 10.749 41.307 28.731l.687 3.421c3.521 17.545-6.857 37.504-25.604 42.126l4.972 6.38-9.956 1.997 2.128-7.804c-19.08 2.967-36.353-11.442-39.874-28.986l-.687-3.42z" fill="#FF3645"/><path d="M39.5 126.5c4.5 26 50 24 34.317 65.54-6.881 18.229-44.427 0-63.342 64.223" stroke="#000" stroke-width=".5"/><path fill-rule="evenodd" clip-rule="evenodd" d="M2.57 92.142C1.273 73.847 14.779 54.887 34.763 53.468c19.98-1.419 36.03 15.443 37.33 33.738l.247 3.48c1.27 17.901-11.633 36.438-30.906 38.558l4.29 7.239-10.13.719 3.227-7.774c-19.361.598-34.732-15.919-36.002-33.806l-.247-3.48z" fill="#8CD7FF"/><path fill-rule="evenodd" clip-rule="evenodd" d="M137.067 461.406h-30.651V339.723h30.651v121.683zm43.877 0h-30.651V339.723h30.651v121.683z" fill="#423C5A"/><path fill-rule="evenodd" clip-rule="evenodd" d="M136.726 460.992h-15.325c0 8.452-6.862 15.305-15.326 15.305V485h30.651v-24.008zm13.219 0h15.325c0 8.452 6.866 15.305 15.33 15.305V485h-30.655v-24.008z" fill="#FF3645"/><path d="M226 323.977c0 45.594-37.008 82.556-82.663 82.556-45.658 0-82.666-36.962-82.666-82.556 0-45.595 37.008-82.557 82.666-82.557 45.655 0 82.663 36.962 82.663 82.557z" fill="#FF3645"/><path fill-rule="evenodd" clip-rule="evenodd" d="M96.713 218.092c0-24.529 19.821-48.541 46.624-48.541 26.8 0 46.621 24.012 46.621 48.541v4.665c0 23.929-18.864 47.366-44.667 48.498l4.837 9.662h-13.585l4.84-9.662c-25.807-1.133-44.67-24.57-44.67-48.498v-4.665z" fill="#FFB08E"/><path d="M124.997 296.032c-47.403-12.953-65.41-54.569-72.471-79.38l-2.001-7.716 30.589-7.911" fill="#FF3645"/><path fill-rule="evenodd" clip-rule="evenodd" d="M143.337 293.818a3.692 3.692 0 00-3.691 3.687 3.69 3.69 0 007.379 0 3.691 3.691 0 00-3.688-3.687zm0 17.5a3.692 3.692 0 00-3.691 3.686 3.69 3.69 0 007.379 0 3.691 3.691 0 00-3.688-3.686zm-3.691 21.186a3.69 3.69 0 017.379 0 3.69 3.69 0 01-7.379 0z" fill="#423C5A"/><path d="M160.83 236.126c0 9.122-7.831 16.513-17.493 16.513-9.665 0-17.496-7.391-17.496-16.513l17.496-3.503" fill="#fff"/><path fill-rule="evenodd" clip-rule="evenodd" d="M170.073 136.552c-14.072-5.114-26.114-4.4-27.791.191l-.013.035-6.546 17.965c-12.171-1.034-20.878 1.32-22.677 6.259-2.905 7.97 12.319 22.341 36.741 31.216 24.423 8.879 45.33 7.641 48.235-.329 1.801-4.937-3.353-12.33-13.342-19.352l6.558-17.999c1.674-4.595-7.094-12.872-21.165-17.986z" fill="#423C5A"/><path d="M184.654 172.606c-1.674 4.591-13.72 5.305-27.792.19-14.068-5.114-22.838-13.395-21.165-17.985l-3.343 9.177c-1.673 4.591 7.094 12.872 21.165 17.986 14.072 5.115 26.118 4.4 27.792-.19" fill="#FF3645"/><path fill-rule="evenodd" clip-rule="evenodd" d="M69.731 204.77v.001l-5.92 1.453v.001l-5.922 1.454v.001l-7.16 1.758-3.066-12.435a3.69 3.69 0 012.7-4.459 3.673 3.673 0 012.554.298 3.687 3.687 0 016.053-3.599 3.682 3.682 0 015.919-1.454 3.687 3.687 0 012.575-2.296 3.695 3.695 0 014.488 2.816l1.394 5.654a3.673 3.673 0 012.128-1.448 3.695 3.695 0 014.477 2.768l1.622 6.578-5.921 1.454v.001l-5.92 1.454z" fill="#FFB08E"/><path d="M186.675 332.407a3.594 3.594 0 00-3.59-3.589 3.594 3.594 0 00-3.59 3.589v6.994a2.051 2.051 0 01-2.047 2.045h-4.725a3.69 3.69 0 00-3.687 3.683 3.69 3.69 0 001.613 3.047 3.68 3.68 0 000 6.09 3.675 3.675 0 00-1.613 3.043 3.691 3.691 0 003.669 3.686 3.65 3.65 0 00-.903 2.404 3.692 3.692 0 003.692 3.686h20.237v-25.639c-4.994 0-9.056-4.056-9.056-9.039z" fill="#FFB08E"/><path fill-rule="evenodd" clip-rule="evenodd" d="M114.577 211.856c7.31-8.972 16.785-12.483 17.182-12.628l.352-.127 1.561 4.273-.352.127c-.086.03-8.737 3.278-15.21 11.226l-.235.292-3.534-2.871.236-.292zm32.343-8.92c.509-.176 12.615-4.217 22.427 2.52l.307.209-2.579 3.75-.307-.213c-7.884-5.414-18.268-2-18.369-1.963l-.352.116-1.479-4.299.352-.12zm9.314 10.834a3.69 3.69 0 00-3.691 3.683 3.69 3.69 0 007.378 0 3.69 3.69 0 00-3.687-3.683zm-29.484 3.683a3.69 3.69 0 017.379 0 3.69 3.69 0 01-7.379 0zm22.715 9.047a6.125 6.125 0 00-6.128 6.123 6.125 6.125 0 006.128 6.124h18.875s-9.437-12.247-18.875-12.247zm-31.134 12.247s9.437-12.247 18.871-12.247a6.126 6.126 0 016.132 6.123 6.126 6.126 0 01-6.132 6.124h-18.871z" fill="#423C5A"/></svg>