<svg width="234" height="340" viewBox="0 0 234 340" fill="none" xmlns="http://www.w3.org/2000/svg"><path fill-rule="evenodd" clip-rule="evenodd" d="M0 195.324C0 139.021 45.512 83.902 107.054 83.902c61.534 0 107.046 55.119 107.046 111.422v10.71c0 54.927-43.314 108.726-102.561 111.324l11.107 22.178H91.454l11.113-22.178C43.313 314.759 0 260.96 0 206.034v-10.71z" fill="#FFB08E"/><path d="M147.22 236.722c0 20.938-17.981 37.904-40.166 37.904-22.193 0-40.174-16.966-40.174-37.904l40.174-8.041" fill="#fff"/><path fill-rule="evenodd" clip-rule="evenodd" d="M168.441 8.153c-32.31-11.74-59.961-10.1-63.811.438l-.03.082-15.029 41.236c-27.945-2.372-47.938 3.03-52.07 14.368-6.67 18.295 28.287 51.283 84.363 71.655 56.075 20.381 104.08 17.541 110.75-.755 4.137-11.333-7.698-28.302-30.634-44.421l15.059-41.317c3.842-10.547-16.288-29.546-48.598-41.286z" fill="#423C5A"/><path d="M201.92 90.913c-3.842 10.538-31.502 12.178-63.811.438-32.302-11.74-52.44-30.747-48.598-41.285l-7.676 21.067c-3.842 10.538 16.288 29.546 48.598 41.286 32.31 11.739 59.969 10.1 63.811-.438" fill="#FF3645"/><path fill-rule="evenodd" clip-rule="evenodd" d="M41.017 181.01c16.786-20.595 38.54-28.653 39.452-28.988l.808-.292 3.584 9.809-.808.292c-.198.068-20.061 7.526-34.922 25.77l-.542.669-8.114-6.59.542-.67zm74.263-20.475c1.169-.404 28.966-9.68 51.494 5.784l.705.48-5.922 8.607-.705-.489c-18.102-12.426-41.945-4.591-42.177-4.505l-.808.266-3.395-9.869.808-.274zm21.385 24.869c-4.676 0-8.475 3.793-8.475 8.453 0 4.66 3.799 8.453 8.475 8.453 4.667 0 8.466-3.793 8.466-8.453 0-4.66-3.799-8.453-8.466-8.453zm-67.697 8.453c0-4.66 3.8-8.453 8.475-8.453 4.668 0 8.467 3.793 8.467 8.453 0 4.66-3.8 8.453-8.467 8.453-4.675 0-8.475-3.793-8.475-8.453zm52.157 20.767c-7.771 0-14.071 6.29-14.071 14.057 0 7.766 6.3 14.056 14.071 14.056h43.337s-21.669-28.113-43.337-28.113zm-71.487 28.113s21.668-28.113 43.328-28.113c7.779 0 14.079 6.29 14.079 14.057 0 7.766-6.3 14.056-14.079 14.056H49.638z" fill="#423C5A"/></svg>