<svg width="557" height="509" viewBox="0 0 557 509" fill="none" xmlns="http://www.w3.org/2000/svg"><path fill-rule="evenodd" clip-rule="evenodd" d="M13.01 204.091c3.883 16.128 27.729 27.821 51.515 36.599 19.465 7.182 44.973 4.619 68.067 7.53 23.018 2.901 43.028 11.881 66.838 9.476 26.877-2.716 55.957-9.843 69.914-23.293 13.815-13.311 1.666-28.914-.336-43.755-1.887-13.986 1.356-28.55-11.014-40.387-13.608-13.022-33.064-26.82-60.534-28.077-27.155-1.243-46.457 16.124-72.447 21.99-26.704 6.026-59.667 1.319-80.699 12.571C21.766 168.807 9.016 187.5 13.01 204.091z" fill="#83D4FF"/><path fill-rule="evenodd" clip-rule="evenodd" d="M490.952 295.133c2.487 51.224 30.18 111.924-28.448 145.443-58.529 33.462-141.426 3.295-215.625-5.901-74.225-9.2-164.009-2.932-203.455-46.038-41.338-45.173-20.309-106.43 21.582-152.709 36.395-40.209 108.248-50.313 174.651-64.085 70.8-14.683 150.178-44.377 209.05-15.493 59.108 28.999 39.825 88.925 42.245 138.783z" fill="#DEF4FF"/><path fill-rule="evenodd" clip-rule="evenodd" d="M422.892 172.462c1.605 8.3 10.876 14.459 20.104 19.122 7.552 3.815 17.368 2.671 26.289 4.32 8.893 1.643 16.667 6.384 25.829 5.31 10.342-1.213 21.505-4.674 26.794-11.48 5.236-6.736.448-14.822-.423-22.449-.821-7.188.331-14.637-4.517-20.793-5.333-6.772-12.926-13.981-23.523-14.811-10.476-.82-17.8 7.96-27.78 10.795-10.253 2.912-22.992.276-31.023 5.907-8.611 6.037-13.401 15.541-11.75 24.079z" fill="#83D4FF"/><path d="M192.274 169.053c-36.285 31 8.715 89-18.285 98" stroke="#000" stroke-width=".5"/><path fill-rule="evenodd" clip-rule="evenodd" d="M174.211 134.945c3.266-12.71 16.969-22.182 31.176-18.164 14.204 4.018 21.513 19.432 18.248 32.143l-.621 2.417c-3.227 12.557-16.64 21.953-30.66 18.304l1.397 6.266-7.193-2.035 4.224-4.695c-13.509-4.467-20.376-19.427-17.192-31.818l.621-2.418z" fill="#FFB08E"/><path d="M341.441 107.946c-43.359 37.044 10.414 106.352-21.85 117.107" stroke="#000" stroke-width=".5"/><path fill-rule="evenodd" clip-rule="evenodd" d="M319.856 66.325c3.902-15.189 20.277-26.507 37.254-21.706 16.974 4.801 25.708 23.221 21.806 38.41l-.743 2.889c-3.855 15.005-19.883 26.232-36.636 21.873l1.668 7.486-8.595-2.431 5.047-5.61c-16.143-5.338-24.348-23.216-20.543-38.022l.742-2.89z" fill="#FFB08E"/><path d="M513.527 62.283c-29.969 46.993 3.594 62.313-10.753 78.27" stroke="#000" stroke-width=".5"/><path fill-rule="evenodd" clip-rule="evenodd" d="M493.386 31.368c1.928-12.29 13.893-22.529 27.521-20.106 13.625 2.422 21.816 16.245 19.889 28.534l-.367 2.338c-1.899 12.11-13.546 22.23-26.923 20.204l1.81 5.62-6.901-1.226 3.44-4.705c-12.993-2.93-20.713-16.353-18.835-28.322l.366-2.337z" fill="#FFB08E"/><path d="M464.774 163.553c-30.586 55 39.914 90.5 8.415 140.5" stroke="#000" stroke-width=".5"/><path fill-rule="evenodd" clip-rule="evenodd" d="M422.482 134.742c-3.39-17.893 8.011-38.539 27.914-42.77 19.9-4.23 37.938 10.156 41.328 28.049l.645 3.404c3.302 17.431-7.432 37.475-26.388 42.409l5.323 6.79-10.079 2.142 2.432-8.411c-19.584 3.684-37.185-10.557-40.53-28.21l-.645-3.403z" fill="#FF3645"/><path d="M58.331 297.254c-36.55 65.728 20.443 102.299 0 136.799" stroke="#000" stroke-width=".5"/><path fill-rule="evenodd" clip-rule="evenodd" d="M7.79 263.368c-4.05-21.383 9.574-46.056 33.359-51.113 23.782-5.056 45.338 12.138 49.389 33.521l.77 4.067c3.947 20.831-8.881 44.785-31.535 50.682l6.362 8.113-12.044 2.561 2.906-10.053c-23.404 4.403-44.439-12.615-48.436-33.711l-.77-4.067z" fill="#FFB08E"/><path d="M103.774 96.053c-44 51 47.5 112.5-4.5 138.5" stroke="#000" stroke-width=".5"/><path fill-rule="evenodd" clip-rule="evenodd" d="M66.156 61.795c-1.204-18.333 12.48-37.42 32.577-38.961 20.094-1.542 36.135 15.265 37.339 33.597l.229 3.487c1.176 17.913-11.861 36.545-31.204 38.827l4.399 7.448-10.181.781 3.378-8.032c-19.61.9-35.125-15.643-36.308-33.66l-.229-3.487z" fill="#8CD7FF"/><path d="M241.995 41.527c-20.721 18.526 12.279 40.026-4.721 68.526" stroke="#000" stroke-width=".5"/><path fill-rule="evenodd" clip-rule="evenodd" d="M221.115 23.434c-.678-10.313 7.02-21.05 18.326-21.918 11.304-.867 20.329 8.588 21.006 18.902l.129 1.961c.662 10.078-6.673 20.56-17.556 21.843l2.475 4.19-5.727.44 1.901-4.52c-11.032.505-19.76-8.801-20.425-18.937l-.129-1.961z" fill="#8CD7FF"/><path d="M382.601 128.241c-25.949 23.199 15.376 50.123-5.913 85.812" stroke="#000" stroke-width=".5"/><path fill-rule="evenodd" clip-rule="evenodd" d="M356.453 105.889c-.849-12.915 8.791-26.36 22.949-27.446 14.156-1.086 25.457 10.754 26.305 23.669l.162 2.457c.829 12.619-8.357 25.746-21.985 27.352l3.099 5.248-7.171.551 2.38-5.661c-13.815.633-24.744-11.021-25.578-23.713l-.161-2.457z" fill="#8CD7FF"/><path d="M226.736 67.848c-21.199 38.121 27.665 62.726 5.832 97.382" stroke="#000" stroke-width=".5"/><path fill-rule="evenodd" clip-rule="evenodd" d="M197.424 47.847c-2.35-12.401 5.552-26.711 19.347-29.644 13.793-2.932 26.295 7.04 28.644 19.441l.447 2.36c2.289 12.081-5.151 25.974-18.29 29.394l3.69 4.706-6.985 1.485 1.685-5.83c-13.574 2.553-25.773-7.318-28.091-19.553l-.447-2.359z" fill="#FF3645"/><path d="M495.651 226.848c-21.199 38.121 27.665 62.726 5.832 97.382" stroke="#000" stroke-width=".5"/><path fill-rule="evenodd" clip-rule="evenodd" d="M466.338 207.99c-2.349-12.402 5.552-26.712 19.347-29.645 13.794-2.932 26.296 7.04 28.645 19.442l.447 2.359c2.289 12.082-5.151 25.974-18.29 29.394l3.689 4.706-6.984 1.485 1.685-5.83c-13.574 2.553-25.774-7.317-28.092-19.552l-.447-2.359z" fill="#FFB08E"/><path fill-rule="evenodd" clip-rule="evenodd" d="M303.319 485.33h-29.453V368.141h29.453V485.33zm42.161 0h-29.453V368.141h29.453V485.33z" fill="#423C5A"/><path fill-rule="evenodd" clip-rule="evenodd" d="M302.991 484.931h-14.726c0 8.141-6.593 14.74-14.726 14.74v8.382h29.452v-23.122zm12.702 0h14.726c0 8.141 6.597 14.74 14.73 14.74v8.382h-29.456v-23.122z" fill="#FF3645"/><path d="M290.488 319.387c-47.338-14.464-68.262-60.789-77.148-88.404l-2.573-8.588 29.243-8.769" fill="#FF3645"/><path fill-rule="evenodd" clip-rule="evenodd" d="M238.119 207.315l1.891 6.311-6.792 2.037v-.001l-5.613 1.684-5.613 1.683-5.61 1.682-5.616 1.684-3.528-11.777-.01-.034a3.555 3.555 0 012.379-4.42 3.526 3.526 0 012.462.162 3.545 3.545 0 015.639-3.751 3.544 3.544 0 012.36-2.329 3.541 3.541 0 013.251.646 3.548 3.548 0 012.362-2.329 3.548 3.548 0 014.413 2.382l1.641 5.479a3.535 3.535 0 011.971-1.491 3.548 3.548 0 014.413 2.382z" fill="#FFB08E"/><path d="M388.774 352.976c0 43.911-35.56 79.508-79.43 79.508-43.873 0-79.434-35.597-79.434-79.508 0-43.91 35.561-79.507 79.434-79.507 43.87 0 79.43 35.597 79.43 79.507z" fill="#FF3645"/><path fill-rule="evenodd" clip-rule="evenodd" d="M264.543 251.002c0-23.622 19.046-46.748 44.801-46.748 25.751 0 44.798 23.126 44.798 46.748v4.493c0 23.045-18.127 45.617-42.921 46.707l4.648 9.305h-13.054l4.651-9.305c-24.797-1.091-42.923-23.662-42.923-46.707v-4.493z" fill="#FFB08E"/><path fill-rule="evenodd" clip-rule="evenodd" d="M309.344 323.932a3.55 3.55 0 00-3.547 3.55 3.55 3.55 0 003.547 3.546 3.55 3.55 0 000-7.096zm0 16.853a3.551 3.551 0 00-3.547 3.55 3.55 3.55 0 003.547 3.547 3.55 3.55 0 003.543-3.547 3.55 3.55 0 00-3.543-3.55zm-3.547 20.404a3.55 3.55 0 013.547-3.55 3.55 3.55 0 010 7.096 3.55 3.55 0 01-3.547-3.546z" fill="#423C5A"/><path d="M326.153 268.37c0 8.785-7.525 15.903-16.809 15.903-9.288 0-16.813-7.118-16.813-15.903l16.813-3.373" fill="#fff"/><path fill-rule="evenodd" clip-rule="evenodd" d="M335.034 172.474c-13.521-4.926-25.093-4.238-26.705.183a1.302 1.302 0 01-.012.034l-6.29 17.301c-11.695-.995-20.061 1.272-21.79 6.028-2.792 7.676 11.838 21.516 35.305 30.064 23.467 8.551 43.556 7.359 46.348-.317 1.731-4.755-3.222-11.874-12.82-18.637l6.302-17.335c1.607-4.425-6.817-12.396-20.338-17.321z" fill="#423C5A"/><path d="M349.044 207.196c-1.607 4.421-13.183 5.109-26.704.184-13.518-4.926-21.946-12.901-20.338-17.322l-3.212 8.839c-1.608 4.421 6.817 12.396 20.338 17.322 13.521 4.925 25.096 4.237 26.704-.184m4.834 70.791c41.196 27.453 47.945 77.837 48.531 106.842v8.965h-30.53" fill="#FF3645"/><path fill-rule="evenodd" clip-rule="evenodd" d="M374.527 417.629v-5.72a3.535 3.535 0 01-2.317.863 3.55 3.55 0 01-3.543-3.55v-6.589h30.53v12.331a3.553 3.553 0 01-3.547 3.55 3.526 3.526 0 01-2.313-.862 3.551 3.551 0 01-3.547 3.527 3.546 3.546 0 01-2.931-1.554 3.54 3.54 0 01-2.929 1.554 3.541 3.541 0 01-2.929-1.554 3.543 3.543 0 01-2.931 1.554 3.55 3.55 0 01-3.543-3.55z" fill="#FFB08E"/><path fill-rule="evenodd" clip-rule="evenodd" d="M281.708 244.997c7.025-8.641 16.129-12.022 16.51-12.163l.338-.122 1.5 4.115-.338.123c-.083.029-8.395 3.157-14.615 10.812l-.226.281-3.396-2.766.227-.28zm31.078-8.591c.49-.169 12.122-4.061 21.55 2.427l.295.201-2.478 3.611-.295-.205c-7.576-5.213-17.554-1.926-17.651-1.89l-.338.112-1.421-4.141.338-.115zm8.95 10.434a3.55 3.55 0 00-3.547 3.546 3.55 3.55 0 003.547 3.547 3.55 3.55 0 003.543-3.547 3.55 3.55 0 00-3.543-3.546zm-28.331 3.546a3.55 3.55 0 013.547-3.546 3.55 3.55 0 013.543 3.546 3.55 3.55 0 01-3.543 3.547 3.55 3.55 0 01-3.547-3.547zm21.827 8.713a5.893 5.893 0 00-5.888 5.898 5.892 5.892 0 005.888 5.897h18.137s-9.069-11.795-18.137-11.795zm-29.916 11.795s9.068-11.795 18.132-11.795a5.893 5.893 0 015.892 5.898 5.893 5.893 0 01-5.892 5.897h-18.132z" fill="#423C5A"/><path d="M142.774 249.053c0-11.046 8.954-20 20-20h90c11.045 0 20 8.954 20 20s-8.955 20-20 20h-90c-11.046 0-20-8.954-20-20z" fill="#fff"/><path d="M247.927 267.351c-1.189-2.037-.493-4.496 1.556-5.493 2.049-.997 4.673-.154 5.862 1.883l6.63 11.359s-10.733-2.069-14.048-7.749z" fill="#fff"/><path d="M167.826 244.765v9.8h-1.792v-8.26h-5.082v8.26h-1.792v-9.8h8.666zm6.711 2.24c.728 0 1.377.158 1.946.476a3.416 3.416 0 011.358 1.344c.327.578.49 1.246.49 2.002 0 .756-.163 1.428-.49 2.016a3.429 3.429 0 01-1.358 1.344c-.569.317-1.218.476-1.946.476-1.008 0-1.806-.336-2.394-1.008v3.626h-1.75v-10.192h1.666v.98a2.71 2.71 0 011.064-.798 3.656 3.656 0 011.414-.266zm-.196 6.16c.644 0 1.171-.215 1.582-.644.42-.43.63-.994.63-1.694s-.21-1.265-.63-1.694c-.411-.43-.938-.644-1.582-.644-.42 0-.798.098-1.134.294a2.02 2.02 0 00-.798.812c-.196.354-.294.765-.294 1.232 0 .466.098.877.294 1.232.196.354.462.63.798.826.336.186.714.28 1.134.28zm5.732-6.076h1.75v4.928l4.13-4.928h1.596v7.476h-1.75v-4.928l-4.116 4.928h-1.61v-7.476zm15.248 3.584c.924.28 1.386.877 1.386 1.792 0 .672-.252 1.19-.756 1.554-.504.364-1.251.546-2.24.546h-3.808v-7.476h3.654c.915 0 1.629.168 2.142.504.513.336.77.812.77 1.428 0 .382-.103.714-.308.994-.196.28-.476.499-.84.658zm-3.752-.462h1.834c.905 0 1.358-.313 1.358-.938 0-.607-.453-.91-1.358-.91h-1.834v1.848zm2.002 3.08c.961 0 1.442-.313 1.442-.938 0-.327-.112-.57-.336-.728-.224-.168-.574-.252-1.05-.252h-2.058v1.918h2.002zm12-2.422c0 .121-.009.294-.028.518h-5.866c.103.55.369.989.798 1.316.439.317.98.476 1.624.476.821 0 1.498-.271 2.03-.812l.938 1.078a3.172 3.172 0 01-1.274.91c-.513.205-1.092.308-1.736.308-.821 0-1.545-.164-2.17-.49a3.598 3.598 0 01-1.456-1.358c-.336-.588-.504-1.251-.504-1.988 0-.728.163-1.382.49-1.96a3.556 3.556 0 011.386-1.372c.588-.327 1.251-.49 1.988-.49.728 0 1.377.163 1.946.49a3.3 3.3 0 011.344 1.358c.327.578.49 1.25.49 2.016zm-3.78-2.464c-.56 0-1.036.168-1.428.504-.383.326-.616.765-.7 1.316h4.242c-.075-.542-.303-.98-.686-1.316-.383-.336-.859-.504-1.428-.504zm11.343.168h-2.618v5.992h-1.75v-5.992h-2.632v-1.484h7v1.484zm4.343 6.09c-.775 0-1.47-.164-2.086-.49a3.618 3.618 0 01-1.442-1.358c-.346-.588-.518-1.251-.518-1.988 0-.738.172-1.396.518-1.974a3.625 3.625 0 011.428-1.358c.616-.327 1.316-.49 2.1-.49.737 0 1.381.149 1.932.448.56.298.98.728 1.26 1.288l-1.344.784a2.068 2.068 0 00-.812-.77 2.112 2.112 0 00-1.05-.266c-.654 0-1.195.214-1.624.644-.43.42-.644.984-.644 1.694 0 .709.21 1.278.63 1.708.429.42.975.63 1.638.63.382 0 .732-.084 1.05-.252.326-.178.597-.439.812-.784l1.344.784c-.29.56-.714.994-1.274 1.302-.551.298-1.19.448-1.918.448zm10.586-6.09h-2.618v5.992h-1.75v-5.992h-2.632v-1.484h7v1.484zm6.688 2.1c.924.28 1.386.877 1.386 1.792 0 .672-.252 1.19-.756 1.554-.504.364-1.251.546-2.24.546h-3.808v-7.476h3.654c.914 0 1.628.168 2.142.504.513.336.77.812.77 1.428 0 .382-.103.714-.308.994-.196.28-.476.499-.84.658zm-3.752-.462h1.834c.905 0 1.358-.313 1.358-.938 0-.607-.453-.91-1.358-.91h-1.834v1.848zm2.002 3.08c.961 0 1.442-.313 1.442-.938 0-.327-.112-.57-.336-.728-.224-.168-.574-.252-1.05-.252h-2.058v1.918h2.002zm12.056-6.202l-3.5 8.078c-.327.812-.724 1.381-1.19 1.708-.467.336-1.032.504-1.694.504-.374 0-.742-.061-1.106-.182a2.46 2.46 0 01-.896-.504l.7-1.288c.168.158.364.284.588.378.233.093.466.14.7.14.308 0 .56-.08.756-.238.205-.159.392-.425.56-.798l.126-.294-3.262-7.504h1.82l2.352 5.53 2.366-5.53h1.68zm8.047-.084c.747 0 1.414.163 2.002.49.588.317 1.05.77 1.386 1.358.336.578.504 1.236.504 1.974 0 .737-.168 1.4-.504 1.988a3.596 3.596 0 01-1.386 1.358c-.588.326-1.255.49-2.002.49a4.194 4.194 0 01-1.792-.378 3.678 3.678 0 01-1.344-1.092 3.717 3.717 0 01-.686-1.624h-1.26v2.996h-1.75v-7.476h1.75v2.898h1.288a3.522 3.522 0 01.7-1.554 3.48 3.48 0 011.33-1.05 4.068 4.068 0 011.764-.378zm0 6.174c.411 0 .779-.094 1.106-.28.327-.196.583-.472.77-.826.187-.364.28-.78.28-1.246 0-.71-.205-1.274-.616-1.694-.401-.43-.915-.644-1.54-.644s-1.139.214-1.54.644c-.401.42-.602.984-.602 1.694 0 .709.201 1.278.602 1.708.411.429.924.644 1.54.644zm5.357-8.414h2.072l-.35 6.552h-1.386l-.336-6.552zm1.036 9.898a1.13 1.13 0 01-.812-.308 1.07 1.07 0 01-.322-.784c0-.308.108-.565.322-.77.215-.206.486-.308.812-.308.318 0 .579.102.784.308.215.205.322.462.322.77s-.107.569-.322.784a1.062 1.062 0 01-.784.308z" fill="#423C5A"/></svg>