<svg width="567" height="394" viewBox="0 0 567 394" fill="none" xmlns="http://www.w3.org/2000/svg"><path fill-rule="evenodd" clip-rule="evenodd" d="M545.334 179.492c-.516 28.672-5.209 57.334-26.235 83.816-21.669 27.293-52.855 51.661-93.328 66.772-41.407 15.459-87.848 19.777-132.687 17.613-47.07-2.271-88.975-13.54-126.959-30.142-47.168-20.616-113.99-37.639-117.472-76.692-3.49-39.145 61.413-68.971 101.644-100.849 31.928-25.298 67.052-46.15 107.645-64.983 47.974-22.257 94.539-57.373 149.363-54.254C462.246 23.898 495.5 59.34 522.216 90.06c22.725 26.131 23.686 57.847 23.118 89.431z" fill="#F6F6F6"/><path fill-rule="evenodd" clip-rule="evenodd" d="M423.721 347.652c-4.832 14.547-48.011 24.267-99.345 30.363-48.35 5.743-107.953 7.792-164.948 1.024-54.209-6.437-82.116-20.353-108.014-33.436-27.884-14.088-64.43-29.663-40.617-41.653 24.828-12.503 91.462-14.711 153.255-15.068 63.629-.368 133.384 1.298 185.575 13.11 54.201 12.267 79.29 30.014 74.094 45.66z" fill="#E5E3E7"/><path fill-rule="evenodd" clip-rule="evenodd" d="M474.973 206.041c2.223 3.608-.357 10.362-2.942 16.493-2.105 4.995-6.357 9.803-10.228 14.749-3.682 4.705-6.916 9.764-11.758 13.344-5.065 3.746-10.196 5.281-15.071 6.497-5.511 1.375-11.79 3.411-14.728.939-2.987-2.513-1.698-8.396-.5-13.751 1.156-5.174 3.053-10.719 7.2-16.223 4.128-5.478 9.835-9.76 15.451-13.841 6.029-4.381 12.267-9.048 18.056-10.507 6.205-1.563 12.229-1.419 14.52 2.3z" fill="#FF3645"/><path fill-rule="evenodd" clip-rule="evenodd" d="M381.363 334.839c-.527-6.244 11.087-13.377 16.38-20.346 5.026-6.617 3.797-14.616 13.805-19.397 10.2-4.871 20-1.004 30.504-1.767 8.102-.589 16.357-2.458 23.929-2.186 10.563.379 24.368-1.172 28.418 4.063 4.076 5.27-2.265 13.938-8.916 21.148-6.068 6.58-15.873 12.079-26.059 16.772-9.103 4.194-18.674 6.213-28.387 8.315-10.63 2.301-21.846 5.632-30.645 4.463-9.604-1.276-18.492-4.689-19.029-11.065z" fill="#8CD7FF"/><path d="M307.5 259c4-11 18.1-31.8 42.5-27 30.5 6 44 18 47.5 33.5 2.8 12.4 11.333 23.333 16 28" stroke="#423B57" stroke-width=".5"/><path d="M313.5 258.5c-.333-8.667 4.313-20.92 15-25.5 14-6 24.115-2.164 31.5 10 8.5 14 17.244 34.274 31.5 30.5 17-4.5 20.167-39.5 18-48" stroke="#423B57" stroke-width=".5"/><path d="M314.5 265c-.333-8.667 3.313-27.42 14-32 14-6 23.615 11.336 31 23.5 8.5 14 10.985 32.395 25.5 35 19.5 3.5 40.167-26.5 38-35" stroke="#423B57" stroke-width=".5"/><path fill-rule="evenodd" clip-rule="evenodd" d="M439.856 181.903c7.064-5.695 15.724-7.097 23.498-9.47 8.337-2.544 18.397-6.833 23.104-4.753 4.692 2.074 1.277 9.319.04 14.98-1.086 4.972-2.924 10.056-6.757 15.766-4.352 6.484-8.953 13.223-16.689 19.165-8.574 6.586-18.844 12.709-27.82 15.024-8.943 2.306-14.17-.461-19.144-2.912-4.732-2.332-11.581-4.285-8.62-10.77 3.014-6.602 16.344-12.556 22.467-19.558 5.375-6.145 2.85-11.772 9.921-17.472z" fill="#FFB08E"/><path d="M408 293.143l5.88-4.143 1.115 7.966" fill="#8CD7FF"/><path d="M407.298 230.979L403 225.212l7.933-1.328" fill="#FFB08E"/><path d="M423.266 263.725L417 260.194l6.715-4.428" fill="#FF3645"/><g clip-path="url(#clip0)"><path fill-rule="evenodd" clip-rule="evenodd" d="M236.04 317.22h-29.58V199.665h29.665V317.22h-.085zm42.415 0H248.79V199.665h29.665V317.22z" fill="#423C5A"/><path fill-rule="evenodd" clip-rule="evenodd" d="M235.7 316.795h-14.79c0 8.16-6.63 14.79-14.79 14.79V340h29.58v-23.205zm12.835 0h14.79c0 8.16 6.63 14.79 14.79 14.79V340H248.45v-23.205h.085z" fill="#FF3645"/><path d="M321.975 184.45c0 44.03-35.785 79.73-79.9 79.73-44.115 0-79.9-35.7-79.9-79.73s35.785-79.73 79.9-79.73c44.115 0 79.9 35.7 79.9 79.73z" fill="#FF3645"/><path fill-rule="evenodd" clip-rule="evenodd" d="M199.745 70.295c5.355-23.12 29.24-41.395 54.485-35.53 25.245 5.865 38.675 32.81 33.32 55.845l-1.02 4.42c-5.185 22.525-28.135 40.46-52.615 35.87l2.465 10.115-12.75-2.975 6.63-8.075c-24.055-6.715-36.72-32.895-31.45-55.42l.935-4.25z" fill="#FFB08E"/><path d="M197.79 118.15c-41.395 27.54-48.195 78.03-48.79 107.1v9.01h30.685" fill="#FF3645"/><path fill-rule="evenodd" clip-rule="evenodd" d="M242.075 155.295c-1.955 0-3.57 1.615-3.57 3.57 0 1.955 1.615 3.57 3.57 3.57 1.955 0 3.57-1.615 3.57-3.57 0-1.955-1.615-3.57-3.57-3.57zm0 16.915c-1.955 0-3.57 1.615-3.57 3.57 0 1.955 1.615 3.57 3.57 3.57 1.955 0 3.57-1.615 3.57-3.57 0-1.955-1.615-3.57-3.57-3.57zm-3.57 20.485c0-1.955 1.615-3.57 3.57-3.57 1.955 0 3.57 1.615 3.57 3.57 0 1.955-1.615 3.57-3.57 3.57-1.955 0-3.57-1.615-3.57-3.57zm48.11-183.09c-12.155-7.905-23.63-9.86-26.18-5.95l-10.115 15.47c-11.22-3.655-19.975-3.315-22.695.935-4.505 6.885 6.715 23.715 27.795 37.4 21.08 13.685 40.97 17.085 45.475 10.2 2.805-4.25-.425-12.325-8.33-21.08l10.115-15.47c2.465-3.91-3.91-13.685-16.065-21.505z" fill="#423C5A"/><path d="M292.48 46.665c-2.55 3.995-14.11 1.955-26.18-5.865-12.155-7.905-18.615-17.595-15.98-21.505l-5.185 7.905c-2.55 3.995 3.91 13.685 15.98 21.505 12.155 7.905 23.63 9.86 26.18 5.865" fill="#FF3645"/><path fill-rule="evenodd" clip-rule="evenodd" d="M179.685 234.26v6.63c0 1.955-1.615 3.57-3.57 3.57-.85 0-1.7-.34-2.295-.85v5.695c0 1.955-1.615 3.57-3.57 3.57a3.703 3.703 0 01-2.975-1.53c-.68.935-1.7 1.53-2.975 1.53a3.703 3.703 0 01-2.975-1.53c-.68.935-1.7 1.53-2.975 1.53-1.955 0-3.57-1.615-3.57-3.57-.595.51-1.445.85-2.295.85-1.955 0-3.57-1.615-3.57-3.57v-12.41h30.77v.085z" fill="#FFB08E"/><path d="M303.955 234.26h30.685v-9.01c-.595-29.07-7.395-79.645-48.79-107.185" fill="#FF3645"/><path fill-rule="evenodd" clip-rule="evenodd" d="M309.82 234.26h24.99v12.41c0 1.955-1.615 3.57-3.57 3.57-.85 0-1.7-.34-2.295-.85 0 1.955-1.615 3.57-3.57 3.57a3.703 3.703 0 01-2.975-1.53c-.68.935-1.7 1.53-2.975 1.53a3.703 3.703 0 01-2.975-1.53c-.68.935-1.7 1.53-2.975 1.53-1.955 0-3.57-1.615-3.57-3.57v-5.695c-.595.51-1.445.85-2.295.85-1.955 0-3.57-1.615-3.57-3.57v-6.63h5.78v-.085z" fill="#FFB08E"/><path fill-rule="evenodd" clip-rule="evenodd" d="M217.935 68.34c8.84-6.885 18.53-8.075 18.955-8.16l.34-.085.51 4.335-.34.085c-.085 0-8.925 1.19-16.745 7.225l-.255.255-2.72-3.485.255-.17zm37.315-6.375c.51.255 11.645 5.525 13.94 16.745l.085.34-4.335.85-.085-.34c-1.87-9.01-11.39-13.6-11.475-13.685l-.34-.17 1.87-3.995.34.255zm1.445 17.255c-1.955-.425-3.825.765-4.25 2.635-.425 1.87.765 3.825 2.635 4.25 1.955.425 3.825-.765 4.25-2.635.51-1.87-.68-3.825-2.635-4.25zm-28.56-2.975c.425-1.87 2.38-3.145 4.25-2.635 1.955.425 3.145 2.38 2.635 4.25-.425 1.87-2.38 3.145-4.25 2.635-1.87-.425-3.06-2.38-2.635-4.25zm19.465 13.43c-3.145-.765-6.375 1.275-7.14 4.42-.765 3.145 1.275 6.375 4.42 7.14l17.765 4.08c0 .085-6.205-13.515-15.045-15.64zm-32.045 4.76s11.56-9.435 20.4-7.395c3.23.765 5.185 3.91 4.42 7.14-.765 3.145-3.91 5.185-7.14 4.42l-17.68-4.165z" fill="#423C5A"/></g><defs><clipPath id="clip0"><path fill="#fff" transform="translate(149)" d="M0 0h185.64v340H0z"/></clipPath></defs></svg>