<svg width="204" height="400" viewBox="0 0 204 400" fill="none" xmlns="http://www.w3.org/2000/svg"><path fill-rule="evenodd" clip-rule="evenodd" d="M102.408 373.189H67.557V234.912h34.851v138.277zm49.889 0h-34.851V234.912h34.851v138.277z" fill="#423C5A"/><path fill-rule="evenodd" clip-rule="evenodd" d="M102.021 372.718H84.595c0 9.605-7.802 17.392-17.425 17.392V400h34.851v-27.282zm15.029 0h17.426c0 9.605 7.806 17.392 17.429 17.392V400H117.05v-27.282z" fill="#FF3645"/><path d="M203.526 217.019c0 51.812-42.078 93.814-93.989 93.814-51.914 0-93.993-42.002-93.993-93.814 0-51.812 42.079-93.815 93.993-93.815 51.911 0 93.989 42.003 93.989 93.815z" fill="#FF3645"/><path fill-rule="evenodd" clip-rule="evenodd" d="M56.525 96.695c0-27.872 22.537-55.16 53.012-55.16 30.472 0 53.009 27.288 53.009 55.16v5.302c0 27.191-21.449 53.825-50.788 55.111l5.501 10.979h-15.447l5.503-10.979c-29.342-1.287-50.79-27.92-50.79-55.111v-5.302z" fill="#FFB08E"/><path d="M57.423 138.966C8.679 171.359.693 230.809 0 265.033v10.578h36.124" fill="#FF3645"/><path fill-rule="evenodd" clip-rule="evenodd" d="M109.537 182.748a4.196 4.196 0 00-4.196 4.189 4.194 4.194 0 004.196 4.184 4.193 4.193 0 004.193-4.184 4.195 4.195 0 00-4.193-4.189zm0 19.886a4.196 4.196 0 00-4.196 4.189 4.195 4.195 0 008.389 0 4.195 4.195 0 00-4.193-4.189zm-4.196 24.075a4.196 4.196 0 018.389 0 4.195 4.195 0 01-8.389 0z" fill="#423C5A"/><path d="M129.427 117.189c0 10.366-8.904 18.764-19.89 18.764-10.99 0-19.894-8.398-19.894-18.764l19.894-3.981" fill="#fff"/><path fill-rule="evenodd" clip-rule="evenodd" d="M139.936 4.036c-15.999-5.811-29.692-5-31.599.217l-.015.04-7.442 20.415c-13.839-1.175-23.74 1.5-25.785 7.112-3.303 9.057 14.008 25.388 41.776 35.473 27.769 10.09 51.541 8.683 54.843-.374 2.049-5.61-3.811-14.01-15.169-21.99l7.457-20.454c1.902-5.221-8.066-14.627-24.066-20.439z" fill="#423C5A"/><path d="M156.515 45.007c-1.903 5.217-15.6 6.028-31.599.216-15.996-5.811-25.968-15.221-24.066-20.438l-3.8 10.43c-1.903 5.216 8.065 14.626 24.065 20.438 15.999 5.811 29.696 5 31.599-.217" fill="#FF3645"/><path fill-rule="evenodd" clip-rule="evenodd" d="M36.124 275.611v7.774a4.195 4.195 0 01-6.934 3.171v6.749a4.195 4.195 0 01-7.66 2.356 4.193 4.193 0 01-6.931 0 4.196 4.196 0 01-7.665-2.329 4.178 4.178 0 01-2.737 1.018A4.199 4.199 0 010 290.161v-14.55h36.124z" fill="#FFB08E"/><path d="M158.813 226.599a4.085 4.085 0 00-4.081-4.079 4.085 4.085 0 00-4.082 4.079v7.948a2.332 2.332 0 01-2.329 2.324h-5.371a4.195 4.195 0 00-4.193 4.184c0 1.436.728 2.707 1.835 3.463a4.182 4.182 0 00-1.835 3.458 4.19 4.19 0 001.835 3.462 4.177 4.177 0 00-1.835 3.458 4.196 4.196 0 004.172 4.189 4.146 4.146 0 00-1.026 2.732 4.196 4.196 0 004.197 4.189h23.009v-29.135c-5.677 0-10.296-4.609-10.296-10.272z" fill="#FFB08E"/><path fill-rule="evenodd" clip-rule="evenodd" d="M76.836 89.61c8.313-10.197 19.085-14.186 19.537-14.352l.4-.144 1.775 4.856-.4.144c-.099.034-9.935 3.726-17.294 12.758l-.268.331-4.018-3.263.268-.33zm36.775-10.137c.579-.2 14.344-4.793 25.5 2.863l.349.238-2.933 4.26-.349-.241c-8.964-6.152-20.771-2.273-20.886-2.23l-.4.131-1.681-4.885.4-.136zm10.59 12.311a4.195 4.195 0 00-4.197 4.185 4.195 4.195 0 008.389 0 4.194 4.194 0 00-4.192-4.185zM90.678 95.97a4.195 4.195 0 018.389 0 4.195 4.195 0 01-8.39 0zm25.827 10.281c-3.848 0-6.968 3.114-6.968 6.958 0 3.845 3.12 6.959 6.968 6.959h21.461s-10.731-13.917-21.461-13.917zm-35.4 13.917s10.73-13.917 21.456-13.917c3.852 0 6.972 3.114 6.972 6.958 0 3.845-3.12 6.959-6.972 6.959H81.105z" fill="#423C5A"/></svg>