<svg width="45" height="100" viewBox="0 0 45 100" fill="none" xmlns="http://www.w3.org/2000/svg"><path d="M14.303 94.185l2.546 1.783-2.794 3.99-5.091-3.566 1.012-1.446a3.106 3.106 0 004.327-.76z" fill="#FF3645"/><path d="M11.589 92.438l5.247 3.674 3.947-5.636-5.248-3.674-3.946 5.636z" fill="#423B57"/><path d="M34.73 94.173l-2.546 1.783 2.794 3.99 5.092-3.566-1.013-1.447a3.107 3.107 0 01-4.327-.76z" fill="#FF3645"/><path d="M32.258 96.057l5.053-3.538-3.947-5.637-5.052 3.539 3.946 5.636z" fill="#423B57"/><path d="M40.98 76.781c0 9.251-7.504 16.75-16.762 16.75-9.259 0-16.763-7.499-16.763-16.75 0-9.251 7.504-16.75 16.763-16.75 9.258 0 16.762 7.499 16.762 16.75z" fill="#FF3645"/><path fill-rule="evenodd" clip-rule="evenodd" d="M19.169 53c1.702-4.676 7.145-7.878 12.252-6.018 5.106 1.86 7.217 7.813 5.515 12.489l-.324.889c-1.66 4.561-6.88 7.72-11.876 6.146l.252 2.179-2.59-.943 1.595-1.507c-4.84-2.006-6.808-7.783-5.148-12.345l.324-.89z" fill="#FFB08E"/><path d="M30.135 60.888c-.633 1.739-2.638 2.604-4.48 1.934-1.841-.67-2.82-2.623-2.188-4.362l3.577.546" fill="#fff"/><path fill-rule="evenodd" clip-rule="evenodd" d="M38.805 42.544c-2.327-1.952-4.671-2.651-5.31-1.892l-.01.014-2.488 2.963c-2.247-1.041-4.07-1.197-4.755-.38-1.107 1.318.797 5.114 4.835 8.5 4.037 3.387 8.107 4.602 9.213 3.284.686-.816.217-2.584-1.2-4.615l2.5-2.977c.637-.76-.459-2.946-2.785-4.897z" fill="#423B57"/><path d="M39.082 50.43c-.638.758-2.983.059-5.31-1.893-2.325-1.95-3.422-4.138-2.784-4.897l-1.274 1.518c-.637.759.459 2.946 2.785 4.897s4.671 2.65 5.309 1.892" fill="#FF3645"/><path fill-rule="evenodd" clip-rule="evenodd" d="M23.005 53.051c2.016-1.203 4.065-1.215 4.15-1.215h.076l.001.923h-.075c-.019 0-1.893.019-3.678 1.085l-.065.039-.474-.793.065-.039zm6.782.543c.11.002 2.697.071 4.099 2.036l.044.061-.752.536-.044-.062c-1.126-1.578-3.342-1.648-3.364-1.648l-.075-.003.017-.922.075.002zm1.023 2.712a.748.748 0 00-.959.446.749.749 0 001.406.512.749.749 0 00-.447-.958zm-5.873-1.343a.748.748 0 011.406.512.748.748 0 01-1.406-.512zm3.7 3.3a1.242 1.242 0 10-.85 2.335l3.597 1.31s-.948-2.99-2.747-3.645zm-6.782.175s2.648-1.68 4.445-1.025a1.243 1.243 0 11-.85 2.335l-3.595-1.31z" fill="#423B57"/><path d="M13.386 43.184c2.017 9.728 7.268 14.954 9.727 25.389 2.093 8.88 1.542 15.778 2.254 23.252" stroke="#000" stroke-width=".3"/><path d="M16.352 31.914c.711 13.761 5.488 26.936 7.947 37.37 2.093 8.88-.712 14.711 0 22.186" stroke="#000" stroke-width=".3"/><path d="M27.502 35.71c-6.05 8.305-6.385 20.682-3.915 33.693 1.78 9.372-.711 11.39 0 18.863" stroke="#000" stroke-width=".3"/><path fill-rule="evenodd" clip-rule="evenodd" d="M24.018 77.589h-2.329v6.406h3.315a.749.749 0 001.214-2.567.748.748 0 000-1.236.749.749 0 00-.495-1.363v-.054h-1.09a.749.749 0 00-.57-1.186h-.045zm1.145-.438h2.331v-6.406H24.18a.749.749 0 00-1.214 2.567.748.748 0 000 1.236.749.749 0 00.495 1.363v.054h1.09a.749.749 0 00.57 1.186h.043zm-3.75-53.236c1.19-4.411 5.916-7.769 10.733-6.47 4.817 1.3 7.216 6.578 6.027 10.989l-.226.839c-1.16 4.303-5.687 7.604-10.38 6.557l.402 1.972-2.442-.658 1.34-1.504c-4.585-1.454-6.84-6.583-5.68-10.886l.226-.84z" fill="#FFB08E"/><path fill-rule="evenodd" clip-rule="evenodd" d="M6.594 16.986C5.351 10.791 9.137 3.722 15.903 2.363c6.765-1.358 12.985 3.702 14.229 9.896l.236 1.179c1.213 6.044-2.36 12.92-8.818 14.513l1.712 2.196-3.43.688.733-2.686C13.993 29.17 8.044 24.208 6.83 18.164l-.237-1.178z" fill="#FF3645"/><path fill-rule="evenodd" clip-rule="evenodd" d="M.886 30.413C.438 24.11 5.091 17.578 11.974 17.089c6.882-.49 12.411 5.32 12.859 11.622l.085 1.199c.437 6.149-3.98 12.516-10.587 13.277l1.419 2.395-3.489.248 1.067-2.572C6.68 43.438 1.408 37.76.971 31.612l-.085-1.2z" fill="#8CD7FF"/></svg>