<svg width="17" height="12" viewBox="0 0 17 12" fill="none" xmlns="http://www.w3.org/2000/svg"><path fill-rule="evenodd" clip-rule="evenodd" d="M11.284.638c-2.526-.919-4.688-.79-4.99.035L5.119 3.908c-2.185-.186-3.748.237-4.071 1.125-.522 1.433 2.211 4.016 6.595 5.611 4.385 1.596 8.138 1.374 8.659-.059.323-.887-.602-2.216-2.395-3.479l1.173-3.224.004-.01c.3-.826-1.273-2.314-3.8-3.234z" fill="#423C5A"/><path d="M13.9 7.119c-.3.825-2.462.954-4.988.034-2.526-.919-4.1-2.407-3.8-3.233l-.6 1.65c-.3.825 1.274 2.314 3.8 3.233 2.526.92 4.688.791 4.988-.034" fill="#FF3645"/></svg>