<svg width="33" height="41" viewBox="0 0 33 41" fill="none" xmlns="http://www.w3.org/2000/svg"><path d="M16.5 38.012l.567.823h.001l.003-.002.01-.007.035-.024.129-.092a45.585 45.585 0 002.163-1.67 50.74 50.74 0 005.098-4.805C28.178 28.24 32.027 22.6 32 16.41c-.001-8.498-6.96-15.398-15.5-15.398S1.001 7.912 1 16.4c-.027 6.185 3.674 11.73 7.285 15.686 3.524 3.861 7.117 6.378 7.601 6.717l.038.026.569.401.574-.394-.567-.824zm0-15.4c-3.46 0-6.25-2.781-6.25-6.2 0-3.42 2.79-6.2 6.25-6.2s6.25 2.78 6.25 6.2c0 3.419-2.79 6.2-6.25 6.2z" fill="#00A6FF" stroke="#fff" stroke-width="2"/></svg>