<svg width="173" height="32" viewBox="0 0 173 32" fill="none" xmlns="http://www.w3.org/2000/svg"><path fill-rule="evenodd" clip-rule="evenodd" d="M90.392 13.351l-2.118 6.92h4.237l-2.119-6.92zm7.037 8.344c.021.062.04.123.057.187l1.236 4.038a2.141 2.141 0 01-2.05 2.77 2.144 2.144 0 01-2.048-1.516l-.8-2.618h-6.861l-.802 2.618a2.144 2.144 0 01-4.097-1.254l1.26-4.118a.735.735 0 01.014-.044L88.34 5.415c.011-.037.024-.075.037-.112l.01-.026.004-.008.005-.013a1.666 1.666 0 01.037-.092l.01-.024c.005-.008.008-.016.012-.025l.04-.08a1.573 1.573 0 01.052-.094l.003-.005a3.109 3.109 0 01.054-.085l.001-.002a1.92 1.92 0 01.054-.078l.007-.008.052-.069.006-.007.007-.009a.914.914 0 01.049-.057 2.44 2.44 0 01.064-.07l.016-.017.017-.018.016-.015.017-.016c.014-.015.03-.028.044-.042l.002-.002.012-.01.012-.01.054-.046.004-.004.008-.006.007-.006a2.372 2.372 0 01.156-.113l.002-.002.086-.053V4.19h.002l.086-.05.004-.001.004-.002.013-.007a1.853 1.853 0 01.22-.098l.024-.01.013-.005a2.11 2.11 0 01.522-.118l.017-.001.017-.002.033-.002.036-.003h.046l.03-.001h.108l.023.001.036.003.034.002.017.002.017.001a1.664 1.664 0 01.104.013c.143.02.283.056.418.105l.008.003.03.012a2.938 2.938 0 01.127.054l.013.005.01.004a4.346 4.346 0 01.178.096l.085.053h.001l.001.001.08.055a2.34 2.34 0 01.054.04l.023.019a.105.105 0 00.009.008l.005.004.059.05.023.02.024.022.023.022.032.031.034.036a2.542 2.542 0 01.065.07l.012.014.035.042.007.008.007.009.017.022.035.046.007.009a2.13 2.13 0 01.055.08l.001.001.052.083.002.005c.017.027.033.055.048.084l.005.01.04.08.007.015.005.011.006.012.023.055c.01.02.017.041.024.062a2.82 2.82 0 01.05.145l4.985 16.28zm8.909-17.5h8.382c1.183 0 2.143.96 2.143 2.143v20.209a2.143 2.143 0 01-4.286 0V8.48h-4.096v4.83c0 .029 0 .057-.002.086l-.029.844v.005l-.003.074c-.13 4.168-.35 11.143-4.937 14.038a2.14 2.14 0 01-2.955-.668c-.632-1-.333-2.323.668-2.955 1.073-.678 1.859-2.106 2.337-4.246.473-2.119.546-4.44.605-6.304l.001-.056c.01-.303.019-.59.03-.86v-6.93c0-1.184.959-2.144 2.142-2.144zm26.786 0h-8.382c-1.183 0-2.143.96-2.143 2.143v6.93l-.016.505-.014.412c-.058 1.865-.133 4.185-.604 6.304-.48 2.14-1.264 3.568-2.339 4.246a2.141 2.141 0 00-.667 2.956 2.14 2.14 0 002.956.667c4.586-2.895 4.805-9.868 4.936-14.037l.001-.001c.01-.328.021-.638.031-.923.002-.029.002-.057.002-.086v-4.83h4.096v18.066a2.143 2.143 0 004.286 0V6.338c0-1.183-.96-2.143-2.143-2.143zm34.865 1.837a2.143 2.143 0 014.285 0v20.515a2.143 2.143 0 01-4.285 0V14.739h-5.582v11.808a2.142 2.142 0 11-4.285 0V6.032a2.143 2.143 0 014.285 0v4.422h5.582V6.032zm-17.585 14.665a3.71 3.71 0 01-3.707 3.707 3.71 3.71 0 01-3.706-3.707v-8.815a3.71 3.71 0 013.706-3.707 3.71 3.71 0 013.707 3.707v8.815zm-3.707-16.808c-4.406 0-7.991 3.586-7.991 7.993v8.815c0 4.407 3.585 7.992 7.991 7.992 4.408 0 7.993-3.585 7.993-7.992v-8.815c0-4.407-3.585-7.993-7.993-7.993zM71.29 24.098h3.027a2.28 2.28 0 002.278-2.278 2.28 2.28 0 00-2.278-2.277H71.29v4.555zm0-8.84h3.027a6.57 6.57 0 016.563 6.562 6.57 6.57 0 01-6.563 6.563h-5.169a2.143 2.143 0 01-2.142-2.143V6.338a2.181 2.181 0 01.096-.637 2.146 2.146 0 012.046-1.506H77.7a2.143 2.143 0 110 4.286h-6.41v6.777zM52.569 3.89c-1.182 0-2.142.96-2.142 2.142v4.422h-5.58V6.032a2.144 2.144 0 00-4.286 0v20.515a2.142 2.142 0 104.286 0V14.739h5.58v11.808a2.143 2.143 0 004.285 0V6.032a2.142 2.142 0 00-2.143-2.143zm-39.91 20.209H6.884c.343-.806.631-1.72.861-2.74.613-2.721.729-5.672.805-7.624l.013-.338.002-.086v-4.83h4.096V24.1zm4.52 0h-.234V6.339c0-1.184-.96-2.143-2.142-2.143H6.42c-1.183 0-2.142.96-2.142 2.142v6.931l-.012.3v.009c-.071 1.796-.177 4.505-.703 6.84-.48 2.128-1.229 3.503-2.057 3.776a2.3 2.3 0 00-.217.08l-.001.002h-.001l-.09.042-.008.004-.023.012-.025.012a.913.913 0 00-.084.047l-.011.007a1.66 1.66 0 00-.088.055l-.02.013-.071.051-.006.005-.004.002a2.266 2.266 0 00-.152.126l-.003.003-.003.002a1.429 1.429 0 00-.076.073l-.058.06-.015.017a3.488 3.488 0 00-.049.056l-.022.026a1.788 1.788 0 00-.066.086l-.006.009-.022.03-.034.05-.018.03c-.014.02-.026.041-.039.063l-.006.01-.006.009-.04.074-.003.006-.003.006-.006.011a1.535 1.535 0 00-.075.166l-.003.007a1.931 1.931 0 00-.033.088l-.002.006-.002.006a1.981 1.981 0 00-.034.106l-.002.008a1.279 1.279 0 00-.027.106l-.012.057-.006.035-.006.03a.558.558 0 01-.004.029l-.001.005a2.341 2.341 0 00-.013.097v.004a1.963 1.963 0 00-.01.247v3.521a2.143 2.143 0 104.285 0v-1.407h10.75v1.407a2.143 2.143 0 104.286 0v-3.55c0-1.183-.96-2.142-2.143-2.142zm12.029.306a3.711 3.711 0 003.707-3.708v-8.815a3.712 3.712 0 00-3.707-3.707 3.712 3.712 0 00-3.707 3.707v8.815a3.711 3.711 0 003.707 3.708zm-7.992-12.523c0-4.407 3.585-7.993 7.992-7.993S37.2 7.475 37.2 11.882v8.815c0 4.407-3.585 7.993-7.992 7.993s-7.992-3.586-7.992-7.993v-8.815z" fill="#FF3645"/></svg>