<svg width="25" height="16" viewBox="0 0 25 16" fill="none" xmlns="http://www.w3.org/2000/svg"><path d="M15.287 2.788H8.906V13.21h6.381V2.788z" fill="#FF5F00"/><path d="M9.563 8a6.617 6.617 0 012.532-5.21 6.628 6.628 0 100 10.422A6.618 6.618 0 019.563 8z" fill="#EB001B"/><path d="M22.187 12.108v-.214h.092v-.044h-.22v.044h.087v.214h.04zm.425 0v-.258h-.066l-.078.184-.077-.184h-.066v.258h.048v-.196l.071.168h.05l.072-.168v.196h.046zM22.82 8a6.628 6.628 0 01-10.725 5.21 6.63 6.63 0 000-10.423A6.629 6.629 0 0122.82 7.998V8z" fill="#F79E1B"/></svg>