<svg width="46" height="14" viewBox="0 0 46 14" fill="none" xmlns="http://www.w3.org/2000/svg"><g clip-path="url(#clip0)" fill-rule="evenodd" clip-rule="evenodd"><path d="M12.85.778v.005c-.005 0-1.75-.005-2.215 1.63-.426 1.5-1.628 5.641-1.661 5.755H8.64s-1.229-4.233-1.66-5.76C6.514.772 4.764.778 4.764.778H.778v12.444h3.987v-7.39h.332l2.326 7.39h2.769l2.326-7.385h.332v7.385h3.987V.778H12.85zm14.564 0s-1.168.103-1.717 1.304l-2.824 6.086h-.332V.778h-3.987v12.444h3.765s1.224-.108 1.772-1.304l2.77-6.086h.331v7.39h3.988V.778h-3.766zm5.538 5.652v6.792h3.987V9.255h4.32a4.31 4.31 0 004.07-2.826H32.951z" fill="#4DB45E"/><path d="M41.258.778h-8.865c.443 2.37 2.253 4.271 4.596 4.89.532.142 1.09.218 1.667.218h6.833c.061-.283.089-.57.089-.87 0-2.342-1.933-4.238-4.32-4.238z" fill="url(#paint0_linear)"/></g><defs><linearGradient id="paint0_linear" x1="32.394" y1="3.332" x2="45.578" y2="3.332" gradientUnits="userSpaceOnUse"><stop offset=".3" stop-color="#00B4E6"/><stop offset="1" stop-color="#088CCB"/></linearGradient><clipPath id="clip0"><path d="M.778.778h44.8v12.444H.778V.778z" fill="#fff"/></clipPath></defs></svg>