<svg width="42" height="40" viewBox="0 0 42 40" fill="none" xmlns="http://www.w3.org/2000/svg"><circle opacity=".2" cx="21" cy="20" fill="#83D4FF" r="20"/><path fill-rule="evenodd" clip-rule="evenodd" d="M11.002 20.257c0-4.974 4.018-9.843 9.45-9.843 5.433.001 9.45 4.871 9.451 9.845v.946c0 4.853-3.824 9.606-9.055 9.834l.981 1.96h-2.753l.981-1.96c-5.23-.23-9.054-4.984-9.055-9.836v-.946z" fill="#FFB08E"/><path d="M24 23.916c0 1.85-1.588 3.348-3.546 3.348-1.96 0-3.547-1.499-3.547-3.349l3.547-.71" fill="#fff"/><path fill-rule="evenodd" clip-rule="evenodd" d="M25.872 3.721c-2.852-1.037-5.293-.893-5.633.038v.001h-.001l-1.33 3.65c-2.467-.21-4.232.268-4.596 1.27-.59 1.615 2.497 4.53 7.447 6.33 4.95 1.8 9.189 1.55 9.777-.066.365-1.001-.68-2.5-2.704-3.924l1.32-3.626a.579.579 0 00.01-.025c.34-.932-1.438-2.61-4.29-3.648z" fill="#423B57"/><path d="M28.827 11.033c-.339.931-2.78 1.076-5.633.039-2.852-1.038-4.63-2.717-4.29-3.648l-.678 1.861c-.34.93 1.438 2.61 4.29 3.648 2.853 1.037 5.294.892 5.634-.039" fill="#FF3645"/><path fill-rule="evenodd" clip-rule="evenodd" d="M14.623 18.993c1.482-1.82 3.403-2.531 3.483-2.56l.071-.026.317.866-.072.026c-.017.006-1.77.665-3.083 2.276l-.047.06-.717-.583.048-.059zm6.555-1.81c.103-.035 2.557-.854 4.546.512l.062.043-.523.76-.062-.043c-1.598-1.098-3.703-.406-3.723-.399l-.072.024-.3-.872.072-.024zm1.888 2.198a.748.748 0 00-.748.747.748.748 0 001.496 0 .748.748 0 00-.748-.747zm-5.976.747a.748.748 0 011.496 0 .748.748 0 01-1.496 0zm4.605 1.835a1.242 1.242 0 100 2.483h3.826s-1.913-2.483-3.826-2.483zm-6.312 2.483s1.913-2.483 3.826-2.483a1.242 1.242 0 110 2.484h-3.825z" fill="#423B57"/></svg>