<svg width="30" height="31" viewBox="0 0 30 31" fill="none" xmlns="http://www.w3.org/2000/svg"><path d="M26.615 17.058c-.008.044-.013.088-.022.132l-.042-.252c.023.04.042.08.064.12.13-.706.196-1.422.197-2.14a11.755 11.755 0 00-3.459-8.347 11.763 11.763 0 00-8.346-3.458c-.751 0-1.503.07-2.235.211l-.006.001c.041.022.083.041.123.064l-.248-.04.125-.024a6.998 6.998 0 00-3.277-.82 6.942 6.942 0 00-4.942 2.048A6.945 6.945 0 002.5 9.495c0 1.186.303 2.352.88 3.388.007-.043.012-.086.02-.128l.043.247-.064-.119a11.888 11.888 0 00-.177 2.035c0 1.594.312 3.14.928 4.595a11.75 11.75 0 002.529 3.752 11.74 11.74 0 003.753 2.53 11.71 11.71 0 004.595.928c.694 0 1.389-.063 2.067-.183l-.12-.066.252.044c-.043.009-.087.014-.132.022a6.983 6.983 0 003.438.906 6.937 6.937 0 004.941-2.047 6.94 6.94 0 002.047-4.941 6.98 6.98 0 00-.885-3.4zm-11.561 5.09c-4.194 0-6.07-2.062-6.07-3.608 0-.792.585-1.348 1.392-1.348 1.794 0 1.33 2.577 4.678 2.577 1.714 0 2.66-.93 2.66-1.883 0-.573-.282-1.208-1.41-1.486l-3.73-.931c-3.005-.754-3.55-2.378-3.55-3.905 0-3.17 2.984-4.36 5.787-4.36 2.582 0 5.625 1.427 5.625 3.329 0 .815-.705 1.289-1.512 1.289-1.531 0-1.25-2.12-4.335-2.12-1.53 0-2.379.693-2.379 1.685 0 .99 1.21 1.307 2.26 1.546l2.76.613c3.025.673 3.792 2.44 3.792 4.102 0 2.576-1.978 4.5-5.968 4.5zm1.9 4.326c.04.024.08.044.12.066.045-.008.089-.013.132-.022l-.252-.044zm9.64-9.284l.021-.132c-.022-.04-.041-.08-.064-.12l.042.252zM3.4 12.754c-.008.043-.013.086-.02.13.021.039.04.08.063.118l-.043-.248zm9.49-9.365c-.041-.023-.083-.042-.124-.064l-.125.025.248.039z" fill="#00AFF0"/></svg>