<svg width="0" height="0" style="position:absolute"><symbol fill="none" viewBox="0 0 10 10" id="arrow-right-usage" xmlns="http://www.w3.org/2000/svg"><path d="M1 5.083h8.167M5.083 1l4.083 4.083-4.083 4.084"/></symbol><symbol fill="none" viewBox="0 0 10 13" id="ball-usage" xmlns="http://www.w3.org/2000/svg"><path d="M4.64.33C1.973.52.17 3.05.343 5.493l.033.465C.55 8.4 2.692 10.652 5.36 10.462c2.667-.19 4.47-2.721 4.297-5.164l-.033-.464C9.45 2.39 7.308.14 4.64.33z" fill="#00A6FF"/><path d="M7.143 12.214l-3.1.22 1.33-3.208" fill="#00A6FF"/></symbol><symbol viewBox="0 0 17 18" id="bell-usage" xmlns="http://www.w3.org/2000/svg"><path fill-rule="evenodd" clip-rule="evenodd" d="M9.655 17.506A2.69 2.69 0 015.563 16.2h5.072a2.68 2.68 0 01-.98 1.306zM14.4 7.2v4.127l1.536 1.536a.909.909 0 01.265.636v.9a.9.9 0 01-.9.9H.9a.903.903 0 01-.9-.9v-.9c0-.117.023-.235.067-.344a.909.909 0 01.196-.292L1.8 11.328V7.2c0-2.896 1.967-5.334 4.63-6.068A1.793 1.793 0 018.1 0a1.79 1.79 0 011.669 1.133c2.665.734 4.63 3.172 4.63 6.068zm.11 6.5H1.69l1.71-1.71V7.2a4.705 4.705 0 013.455-4.525l.768-.212.293-.74A.193.193 0 018.1 1.6a.19.19 0 01.182.123l.294.74.769.212A4.703 4.703 0 0112.799 7.2v4.79l1.71 1.71z"/></symbol><symbol viewBox="0 0 18 20" id="calendar-usage" xmlns="http://www.w3.org/2000/svg"><path d="M16 18H2V7h14v11zM13 0v2H5V0H3v2H2C.89 2 0 2.89 0 4v14a2 2 0 002 2h14a2 2 0 002-2V4a2 2 0 00-2-2h-1V0"/></symbol><symbol fill="none" viewBox="0 0 19 18" id="cart-usage" xmlns="http://www.w3.org/2000/svg"><path d="M7.206 17a.756.756 0 00.749-.762.756.756 0 00-.75-.762.756.756 0 00-.748.762c0 .42.335.762.749.762zM15.44 17a.755.755 0 00.75-.762.755.755 0 00-.75-.762.755.755 0 00-.748.762c0 .42.335.762.749.762zM1.211 1h2.996l2.008 10.202c.068.35.256.666.53.89.274.224.616.343.968.337h7.28c.351.006.694-.113.968-.337.274-.224.461-.54.53-.89l1.198-6.392H4.956"/></symbol><symbol viewBox="0 0 34 30" id="cash-card-usage" xmlns="http://www.w3.org/2000/svg"><path d="M15.9 3.75c-2.48 0-4.488 2.35-4.488 5.25s2.009 5.25 4.487 5.25S20.387 11.9 20.387 9s-2.01-5.25-4.488-5.25zm1.869 7.875a.374.374 0 01-.374.375h-2.992a.374.374 0 01-.373-.375v-.75c0-.207.167-.375.373-.375h.748V7.901l-.022.015a.372.372 0 01-.518-.104l-.415-.624a.375.375 0 01.104-.52l.716-.48c.184-.122.401-.188.622-.188h.635c.207 0 .374.168.374.375V10.5h.748c.207 0 .374.168.374.375v.75zM29.361 0H2.437C1.611 0 .941.672.941 1.5v15c0 .828.67 1.5 1.496 1.5h26.924c.826 0 1.496-.672 1.496-1.5v-15c0-.828-.67-1.5-1.496-1.5zm-.748 12.75a2.996 2.996 0 00-2.991 3H6.177c0-1.657-1.34-3-2.992-3v-7.5a2.996 2.996 0 002.992-3h19.445c0 1.657 1.34 3 2.991 3v7.5z"/><g clip-path="url(#afclip0)"><path fill="#fff" d="M7.922 9h23.933v19H7.922z"/><path d="M31.6 7.5H9.174a2.248 2.248 0 00-2.248 2.25v16.5a2.248 2.248 0 002.248 2.25h22.428a2.248 2.248 0 002.248-2.25V9.75a2.248 2.248 0 00-2.248-2.25zM9.455 9.75H31.32c.154 0 .28.127.28.281V12H9.174v-1.969c0-.154.126-.281.28-.281zm21.866 16.5H9.454a.282.282 0 01-.28-.281V18H31.6v7.969a.282.282 0 01-.28.281zM15.9 21.562v1.875c0 .31-.253.563-.561.563h-3.366a.563.563 0 01-.56-.563v-1.875c0-.309.252-.562.56-.562h3.366c.308 0 .56.253.56.563zm8.974 0v1.875c0 .31-.252.563-.56.563h-6.358a.563.563 0 01-.56-.563v-1.875c0-.309.252-.562.56-.562h6.357c.309 0 .561.253.561.563z"/></g><defs><clipPath id="afclip0"><path fill="#fff" transform="translate(6.925 6)" d="M0 0h26.924v24H0z"/></clipPath></defs></symbol><symbol viewBox="0 0 30 24" id="cash-usage" xmlns="http://www.w3.org/2000/svg"><path d="M15 6.75c-2.485 0-4.5 2.35-4.5 5.25s2.015 5.25 4.5 5.25c2.484 0 4.5-2.35 4.5-5.25S17.485 6.75 15 6.75zm1.875 7.875A.375.375 0 0116.5 15h-3a.375.375 0 01-.375-.375v-.75c0-.207.168-.375.375-.375h.75v-2.599l-.022.015a.376.376 0 01-.52-.104l-.416-.624a.374.374 0 01.104-.52l.718-.48c.185-.122.402-.188.624-.188h.637c.207 0 .375.168.375.375V13.5h.75c.207 0 .375.168.375.375v.75zM28.5 3h-27A1.5 1.5 0 000 4.5v15A1.5 1.5 0 001.5 21h27a1.5 1.5 0 001.5-1.5v-15A1.5 1.5 0 0028.5 3zm-.75 12.75a3 3 0 00-3 3H5.25a3 3 0 00-3-3v-7.5a3 3 0 003-3h19.5a3 3 0 003 3v7.5z"/></symbol><symbol viewBox="0 0 22 28" id="cashless-usage" xmlns="http://www.w3.org/2000/svg"><path d="M20.79 0H1.21a.95.95 0 00-.95.95v20.284c0 .252.1.493.279.671l5.818 5.817a.95.95 0 00.671.278H20.79a.95.95 0 00.95-.95V.95a.949.949 0 00-.95-.95zM3.502 22.183h2.577v2.577l-2.577-2.577zm16.34 3.919H7.976v-4.868a.95.95 0 00-.949-.949H2.16V1.898h17.682v24.204z"/><path d="M4.473 6.793h8.159a.949.949 0 000-1.898H4.473a.949.949 0 100 1.898zM15.895 6.793h1.632a.949.949 0 100-1.898h-1.632a.95.95 0 100 1.898zM4.473 11.686h8.159a.949.949 0 000-1.898H4.473a.949.949 0 000 1.898zM15.895 11.686h1.632a.949.949 0 000-1.898h-1.632a.95.95 0 100 1.898zM4.473 16.58h8.159a.949.949 0 000-1.897H4.473a.949.949 0 000 1.898zM15.895 16.58h1.632a.949.949 0 100-1.897h-1.632a.95.95 0 000 1.898zM14.263 21.474h3.264a.949.949 0 100-1.898h-3.264a.949.949 0 000 1.898z"/></symbol><symbol fill="none" viewBox="0 0 22 17" id="catalog-usage" xmlns="http://www.w3.org/2000/svg"><path fill-rule="evenodd" clip-rule="evenodd" d="M0 1a1 1 0 011-1h16a1 1 0 110 2H1a1 1 0 01-1-1zm0 6a1 1 0 011-1h16a1 1 0 110 2H1a1 1 0 01-1-1zm18 6a1 1 0 00-1-1H1a1 1 0 100 2h16a1 1 0 001-1z" fill="#00A6FF"/><mask id="aia" maskUnits="userSpaceOnUse" x="8" y="3" width="14" height="14" fill="#000"><path fill="#fff" d="M8 3h14v14H8z"/><path fill-rule="evenodd" clip-rule="evenodd" d="M17.961 13.775a5.5 5.5 0 111.027-1.095l1.525 1.525a.75.75 0 01-1.06 1.061l-1.492-1.491zM18 9.5a3.5 3.5 0 11-7 0 3.5 3.5 0 017 0z"/></mask><path fill-rule="evenodd" clip-rule="evenodd" d="M17.961 13.775a5.5 5.5 0 111.027-1.095l1.525 1.525a.75.75 0 01-1.06 1.061l-1.492-1.491zM18 9.5a3.5 3.5 0 11-7 0 3.5 3.5 0 017 0z" fill="#00A6FF"/><path d="M17.961 13.775l.707-.707-.637-.637-.7.567.63.777zm1.027-1.095l-.816-.579-.488.689.597.597.707-.707zm1.525 2.586l-.707-.707.707.707zM14.5 16c1.55 0 2.974-.543 4.09-1.449l-1.259-1.553A4.477 4.477 0 0114.5 14v2zM8 9.5a6.5 6.5 0 006.5 6.5v-2A4.5 4.5 0 0110 9.5H8zM14.5 3A6.5 6.5 0 008 9.5h2A4.5 4.5 0 0114.5 5V3zM21 9.5A6.5 6.5 0 0014.5 3v2A4.5 4.5 0 0119 9.5h2zm-1.197 3.759A6.475 6.475 0 0021 9.5h-2c0 .97-.306 1.867-.828 2.601l1.631 1.158zm-1.522.128l1.525 1.525 1.414-1.414-1.525-1.525-1.414 1.414zm1.525 1.525a.25.25 0 010-.353l1.414 1.414a1.75 1.75 0 000-2.475l-1.414 1.414zm0-.353a.25.25 0 01.354 0l-1.415 1.414a1.75 1.75 0 002.475 0l-1.414-1.414zm.354 0l-1.492-1.491-1.414 1.414 1.491 1.491 1.415-1.414zM14.5 14A4.5 4.5 0 0019 9.5h-2a2.5 2.5 0 01-2.5 2.5v2zM10 9.5a4.5 4.5 0 004.5 4.5v-2A2.5 2.5 0 0112 9.5h-2zM14.5 5A4.5 4.5 0 0010 9.5h2A2.5 2.5 0 0114.5 7V5zM19 9.5A4.5 4.5 0 0014.5 5v2A2.5 2.5 0 0117 9.5h2z" fill="#fff" mask="url(#aia)"/><circle cx="14.5" cy="9.5" r="3.5" fill="#fff"/></symbol><symbol viewBox="0 0 20 20" fill="none" id="chat-usage" xmlns="http://www.w3.org/2000/svg"><path d="M19 9.5a8.381 8.381 0 01-.9 3.8 8.5 8.5 0 01-7.6 4.7 8.38 8.38 0 01-3.8-.9L1 19l1.9-5.7A8.38 8.38 0 012 9.5a8.5 8.5 0 014.7-7.6 8.38 8.38 0 013.8-.9h.5a8.48 8.48 0 018 8v.5z"/></symbol><symbol viewBox="0 0 12 9" id="check-usage" xmlns="http://www.w3.org/2000/svg"><path d="M11.087 1.689L4.345 8.377a.469.469 0 01-.663-.003L.136 4.799a.469.469 0 01.003-.663l.887-.88a.469.469 0 01.663.003l2.336 2.354L9.546.136a.469.469 0 01.663.003l.88.887a.469.469 0 01-.002.663z"/></symbol><symbol viewBox="0 0 8 13" id="chevron-right-usage" xmlns="http://www.w3.org/2000/svg"><path d="M2.225.694a1 1 0 00-1.406 0l-.1.1a1 1 0 000 1.421L4.944 6.4.718 10.585a1 1 0 00.001 1.422l.1.099a1 1 0 001.406 0L7.28 7.11a1 1 0 000-1.422L2.225.694z"/></symbol><symbol viewBox="0 0 16 16" fill="none" id="clock-usage" xmlns="http://www.w3.org/2000/svg"><circle cx="8" cy="8" r="7.25"/><path d="M8 4v4.5l2.5 2"/></symbol><symbol fill="none" viewBox="0 0 14 14" id="cross-thin-usage" xmlns="http://www.w3.org/2000/svg"><path d="M1.032 13.032l12-12M13.064 13L1 1.064" stroke="#8E899A" stroke-linecap="round"/></symbol><symbol viewBox="0 0 13 12" id="cross-usage" xmlns="http://www.w3.org/2000/svg"><path fill-rule="evenodd" clip-rule="evenodd" d="M.397.289a1 1 0 011.406 0l4.275 4.223L10.353.29a1 1 0 011.405 0l.1.099a1 1 0 01.002 1.422L7.633 5.994l4.227 4.185a1 1 0 01-.001 1.422l-.1.099a1 1 0 01-1.406 0L6.078 7.476 1.803 11.7a1 1 0 01-1.406 0l-.1-.1a1 1 0 010-1.421l4.226-4.185L.296 1.81A1 1 0 01.297.388l.1-.1z"/></symbol><symbol viewBox="0 0 10 15" id="cursor-usage" xmlns="http://www.w3.org/2000/svg"><path d="M9.16 9.21H5.655l1.96 4.046c.11.22.124.44.04.664a.856.856 0 01-.461.492.87.87 0 01-.683.034.895.895 0 01-.51-.438l-1.877-3.896-2.65 2.625a.868.868 0 01-.634-.26.837.837 0 01-.262-.615V.828c0-.137.08-.232.242-.287a.968.968 0 01.558 0c.212.055.391.15.538.287l7.12 7.055c.12.119.218.283.296.492.078.21.106.401.083.575-.023.173-.108.26-.255.26z"/></symbol><symbol viewBox="0 0 14 15" id="download-usage" xmlns="http://www.w3.org/2000/svg"><path d="M4.406 5.1a.7.7 0 100 1.4h.7a.7.7 0 100-1.4h-.7zm3.5 8.4h-4.9a.7.7 0 01-.7-.7V3a.7.7 0 01.7-.7h3.5v2.1a2.1 2.1 0 002.1 2.1h2.1v1.4a.7.7 0 001.4 0V5.756a.913.913 0 00-.042-.189v-.063a.747.747 0 00-.133-.196l-4.2-4.2a.749.749 0 00-.196-.133.203.203 0 00-.07 0A.77.77 0 007.248.9H3.006A2.1 2.1 0 00.906 3v9.8a2.1 2.1 0 002.1 2.1h4.9a.7.7 0 000-1.4zm0-10.214L9.72 5.1H8.606a.7.7 0 01-.7-.7V3.286zm.7 4.613h-4.2a.7.7 0 100 1.4h4.2a.7.7 0 100-1.4zm4.697 4.403a.7.7 0 00-.994 0l-.203.21V10.7a.7.7 0 10-1.4 0v1.813l-.203-.21a.703.703 0 10-.994.994l1.4 1.4a.702.702 0 00.231.147.659.659 0 00.532 0 .702.702 0 00.231-.147l1.4-1.4a.7.7 0 000-.994zM7.206 12.1a.7.7 0 000-1.4h-2.8a.7.7 0 100 1.4h2.8z"/></symbol><symbol viewBox="0 0 16 16" id="edit-usage" xmlns="http://www.w3.org/2000/svg"><path d="M3.033 12.688c.04 0 .078-.004.117-.01l3.286-.576a.191.191 0 00.103-.055l8.28-8.28a.195.195 0 000-.275L11.571.244a.193.193 0 00-.138-.056.193.193 0 00-.139.056l-8.28 8.28a.198.198 0 00-.054.103l-.576 3.285a.654.654 0 00.183.582.662.662 0 00.465.194zM4.35 9.28L11.434 2.2l1.431 1.432-7.084 7.082-1.736.307.305-1.739z"/><rect y="14" width="16" height="1.5" rx=".75"/></symbol><symbol viewBox="0 0 20 20" id="facebook-usage" xmlns="http://www.w3.org/2000/svg"><path d="M14.167 1.667V5H12.5c-.575 0-.833.675-.833 1.25v2.083h2.5v3.334h-2.5v6.666H8.334v-6.666h-2.5V8.333h2.5V5a3.333 3.333 0 013.333-3.333h2.5z"/></symbol><symbol viewBox="0 0 18 18" id="filter-usage" xmlns="http://www.w3.org/2000/svg"><path fill-rule="evenodd" clip-rule="evenodd" d="M9.874 3.5H18v2H9.874a4.002 4.002 0 01-7.748 0H0v-2h2.126a4.002 4.002 0 017.748 0zM8 4.5a2 2 0 11-4 0 2 2 0 014 0zm7.874 8H18v2h-2.126a4.002 4.002 0 01-7.748 0H0v-2h8.126a4.002 4.002 0 017.748 0zM14 13.5a2 2 0 11-4 0 2 2 0 014 0z"/></symbol><symbol viewBox="0 0 11 12" id="handset-usage" xmlns="http://www.w3.org/2000/svg"><path d="M9.617 8.303c-.702-.6-1.414-.964-2.108-.364l-.414.362c-.303.263-.866 1.492-3.044-1.013-2.177-2.502-.881-2.891-.578-3.152l.417-.363c.69-.6.429-1.357-.068-2.136l-.3-.471C3.021.389 2.476-.121 1.785.479l-.374.326A3.508 3.508 0 00.045 3.126c-.25 1.65.537 3.54 2.34 5.612 1.8 2.074 3.563 3.116 5.233 3.097a3.517 3.517 0 002.487-1.03l.375-.327c.69-.6.261-1.21-.44-1.812l-.423-.363z"/></symbol><symbol fill="none" viewBox="0 0 29 22" id="hat-usage" xmlns="http://www.w3.org/2000/svg"><mask id="ava" maskUnits="userSpaceOnUse" x="0" y="0" width="29" height="22" fill="#000"><path fill="#fff" d="M0 0h29v22H0z"/><path fill-rule="evenodd" clip-rule="evenodd" d="M18.402 2.94c-3.777-1.354-7.01-1.165-7.46.051a.777.777 0 00-.011.033L9.182 7.76c-3.267-.274-5.604.35-6.087 1.658-.78 2.111 3.307 5.918 9.862 8.27 6.556 2.351 12.168 2.023 12.948-.088.483-1.308-.9-3.266-3.581-5.126l1.76-4.767c.448-1.218-1.905-3.41-5.682-4.765z"/></mask><path d="M10.942 2.991l-1.876-.694V2.3l1.876.692zm7.46-.05l.675-1.883-.675 1.883zm-7.471.083l1.876.693a1.95 1.95 0 00.027-.078l-1.903-.615zM9.182 7.76l-.167 1.993a2 2 0 002.044-1.3l-1.877-.693zM3.095 9.417l1.876.693-1.876-.693zm9.862 8.27l.676-1.883-.675 1.882zm12.948-.088l-1.876-.694v.001l1.876.693zm-3.581-5.126l-1.877-.693a2 2 0 00.737 2.336l1.14-1.643zm1.76-4.767l1.876.692a2 2 0 00-1.154-2.558l-.722 1.866zm0 0l-1.877-.693a2 2 0 001.154 2.557l.722-1.865zm-11.266-4.02c-.165.445-.475.517-.319.455.132-.052.442-.128.97-.14 1.04-.023 2.547.209 4.258.822l1.35-3.765C17.011.318 15.012-.034 13.38.003c-.809.018-1.628.133-2.347.416-.694.273-1.576.824-1.967 1.878l3.752 1.389zm.016-.047l-.016.045-3.752-1.385a2.843 2.843 0 00-.038.11l3.806 1.23zm-1.775 4.813l1.748-4.735-3.753-1.385-1.748 4.734 3.753 1.386zM4.97 10.11c-.098.266-.194.043.646-.185.754-.204 1.904-.298 3.398-.173l.334-3.986c-1.772-.148-3.424-.068-4.777.298-1.266.343-2.772 1.086-3.353 2.66L4.97 10.11zm8.662 5.694c-3.101-1.112-5.531-2.54-7.048-3.854-.766-.662-1.221-1.229-1.443-1.637-.234-.428-.086-.432-.17-.203L1.218 8.724c-.475 1.285-.109 2.55.41 3.502.53.973 1.359 1.9 2.337 2.748 1.97 1.705 4.861 3.356 8.316 4.595l1.35-3.765zm10.396 1.102c.082-.223.182-.118-.288.067-.444.175-1.169.321-2.189.344-2.024.045-4.819-.401-7.92-1.513l-1.35 3.765c3.455 1.24 6.744 1.805 9.36 1.747 1.3-.03 2.534-.214 3.566-.621 1.007-.397 2.1-1.125 2.573-2.403l-3.752-1.386zm-2.845-2.79c1.225.85 2.04 1.648 2.48 2.275.488.698.263.79.365.514l3.752 1.388c.585-1.584-.09-3.125-.842-4.198-.802-1.144-2.02-2.255-3.475-3.265l-2.28 3.286zm1.024-7.103l-1.76 4.767 3.752 1.386 1.76-4.768-3.752-1.385zM23.36 9.57l1.445-3.73-1.445 3.73zm-5.634-4.747c1.711.614 3.014 1.39 3.791 2.064.396.342.579.592.642.707.073.135-.12-.13.047-.581l3.753 1.385c.391-1.06.072-2.056-.287-2.716-.37-.68-.927-1.292-1.536-1.82-1.231-1.065-2.994-2.063-5.06-2.804l-1.35 3.765z" fill="#423B57" mask="url(#ava)"/><path d="M9 8l.698-.716L8.627 6.24l-.555 1.388L9 8zm13 5l.928.371.558-1.394-1.502.023.016 1zm-1 2.5l.555.832c.168-.112.298-.273.373-.46L21 15.5zm-13-5l-.928-.371-.1.248.038.264L8 10.5zm.302-1.784c2.122 2.066 3.994 3.44 6.158 4.266 2.159.823 4.52 1.065 7.556 1.018l-.032-2c-2.928.046-4.996-.195-6.811-.887-1.81-.69-3.454-1.862-5.475-3.83L8.302 8.717zm12.77 3.913l-1 2.5 1.857.742 1-2.5-1.857-.742zm-.627 2.039c-.468.312-1.346.486-2.595.39-1.208-.093-2.598-.426-3.934-.931-1.338-.505-2.57-1.164-3.48-1.875-.944-.74-1.377-1.408-1.446-1.893l-1.98.282c.18 1.265 1.123 2.347 2.194 3.185 1.107.867 2.53 1.615 4.005 2.172 1.477.558 3.055.944 4.488 1.054 1.392.107 2.826-.032 3.858-.72l-1.11-1.664zM8.928 10.87l1-2.5-1.856-.742-1 2.5 1.856.742z" fill="#423B57"/></symbol><symbol viewBox="0 0 24 22" id="heart-filled-usage" xmlns="http://www.w3.org/2000/svg"><path d="M22.996 4.687a6.956 6.956 0 00-1.522-2.215A7.098 7.098 0 0016.487.444a7.145 7.145 0 00-4.486 1.582A7.145 7.145 0 007.515.445a7.098 7.098 0 00-4.987 2.027A6.914 6.914 0 00.444 7.413c0 .891.182 1.82.543 2.764.303.79.736 1.608 1.29 2.434.877 1.308 2.084 2.673 3.582 4.056 2.483 2.293 4.941 3.876 5.045 3.94l.634.407c.281.18.643.18.923 0l.634-.406a40.564 40.564 0 005.046-3.941c1.498-1.383 2.704-2.748 3.582-4.056.554-.826.99-1.645 1.29-2.434.36-.944.542-1.873.542-2.764a6.81 6.81 0 00-.559-2.726z"/></symbol><symbol viewBox="0 0 19 18" id="heart-stroked-usage" xmlns="http://www.w3.org/2000/svg"><mask id="axa" fill="#fff"><path d="M19 6.5c0-5-6-7.2-9.5-4.2C6-.7 0 1.5 0 6.5c0 4.355 3.278 7.305 8.927 11.297a.993.993 0 001.146 0C15.723 13.805 19 10.855 19 6.5z"/></mask><path d="M9.5 2.3l-.911 1.063.911.78.911-.78L9.5 2.3zm.573 15.497l.808 1.143-.808-1.143zm-1.146 0L8.12 18.94l.808-1.143zm1.484-14.434c1.303-1.117 3.107-1.293 4.617-.67 1.48.612 2.572 1.943 2.572 3.807h2.8c0-3.136-1.909-5.405-4.303-6.394-2.365-.977-5.311-.752-7.508 1.13l1.822 2.127zM17.6 6.5c0 1.768-.646 3.283-2.008 4.874-1.402 1.635-3.503 3.284-6.327 5.28l1.616 2.287c2.825-1.997 5.187-3.82 6.837-5.746C19.407 11.225 20.4 9.086 20.4 6.5h-2.8zM9.735 16.654c-2.824-1.996-4.926-3.645-6.327-5.28C2.046 9.783 1.4 8.268 1.4 6.5h-2.8c0 2.586.993 4.724 2.682 6.695 1.65 1.926 4.012 3.749 6.837 5.745l1.616-2.286zM1.4 6.5c0-1.864 1.091-3.195 2.572-3.806 1.51-.624 3.314-.448 4.617.669l1.822-2.126C8.214-.646 5.268-.871 2.903.106.51 1.095-1.4 3.364-1.4 6.5h2.8zm7.865 10.154c.14-.1.33-.1.47 0L8.12 18.94a2.393 2.393 0 002.762 0l-1.616-2.287z" mask="url(#axa)"/></symbol><symbol viewBox="0 0 20 20" id="instagram-usage" xmlns="http://www.w3.org/2000/svg"><path d="M6.5 1.667h7A4.837 4.837 0 0118.333 6.5v7a4.833 4.833 0 01-4.833 4.833h-7A4.837 4.837 0 011.667 13.5v-7A4.833 4.833 0 016.5 1.667zm-.167 1.666a3 3 0 00-3 3v7.334c0 1.658 1.342 3 3 3h7.333a3 3 0 003-3V6.333c0-1.658-1.341-3-3-3H6.333zm8.042 1.25a1.042 1.042 0 110 2.083 1.042 1.042 0 010-2.083zM10 5.833a4.167 4.167 0 110 8.334 4.167 4.167 0 010-8.334zM10 7.5a2.5 2.5 0 100 5 2.5 2.5 0 000-5z"/></symbol><symbol fill="none" viewBox="0 0 5 24" id="jivosite-usage" xmlns="http://www.w3.org/2000/svg"><path d="M.033 0c-.332 6.23 4.785 7.125 4.785 7.125C4.552.295.033 0 .033 0z" fill="#00C05A"/><path d="M4.311 7.91H.533a.505.505 0 00-.356.17.502.502 0 00-.17.363v1.326a.52.52 0 00.17.373.508.508 0 00.356.16h1.918v9.556a1.757 1.757 0 01-1.534 1.748H.533a.509.509 0 00-.372.161.5.5 0 00-.161.373v1.326c0 .138.052.27.144.373a.507.507 0 00.383.16h.188a4.12 4.12 0 004.099-3.857 1.22 1.22 0 00.02-.251V8.443a.509.509 0 00-.16-.373.47.47 0 00-.363-.16z" fill="#fff"/></symbol><symbol viewBox="0 0 16 16" id="logout-usage" xmlns="http://www.w3.org/2000/svg"><path d="M13.835.5H2.168C1.25.5.502 1.248.502 2.167V5.5h1.666V2.167h11.667v11.666H2.168V10.5H.502v3.333c0 .92.747 1.667 1.666 1.667h11.667c.92 0 1.667-.748 1.667-1.667V2.167c0-.92-.749-1.667-1.667-1.667z"/><path d="M7.167 11.333L11.333 8 7.167 4.667v2.5H.5v1.667h6.667v2.5z"/></symbol><symbol viewBox="0 0 17 17" id="loupe-usage" xmlns="http://www.w3.org/2000/svg"><path fill-rule="evenodd" clip-rule="evenodd" d="M13.705 12.277a7.5 7.5 0 10-1.06 1.061l3.03 3.031a.75.75 0 001.061-1.06l-3.031-3.032zm-1.565-8.99a6 6 0 11-8.485 8.486 6 6 0 018.485-8.485z"/></symbol><symbol fill="none" viewBox="0 0 19 23" id="map-marker-usage" xmlns="http://www.w3.org/2000/svg"><path d="M9.793 20l.57.822h0l.003-.002.005-.004.02-.013.067-.049.246-.18a25.788 25.788 0 003.438-3.126c1.844-2.02 3.865-4.962 3.851-8.25 0-4.521-3.678-8.198-8.2-8.198-4.52 0-8.198 3.676-8.2 8.193-.014 3.283 1.93 6.173 3.747 8.179a24.649 24.649 0 003.855 3.43l.02.013.57.406.578-.399-.57-.822zm0-8.2a2.599 2.599 0 110-5.2c1.437 0 2.6 1.163 2.6 2.6s-1.163 2.6-2.6 2.6z" stroke="#423B57" stroke-width="2"/></symbol><symbol viewBox="0 0 20 20" id="odnoklassniki-usage" xmlns="http://www.w3.org/2000/svg"><path d="M14.858 10.617c-.233-.475-.891-.875-1.766-.2-1.192.95-3.092.95-3.092.95s-1.9 0-3.092-.95c-.875-.675-1.533-.275-1.766.2-.417.833.05 1.241 1.108 1.916.908.584 2.15.8 2.95.884l-.667.666c-.95.942-1.866 1.85-2.491 2.484-.375.383-.375.991 0 1.35l.116.133a.97.97 0 001.367 0L10 15.567c.958.941 1.867 1.85 2.5 2.483a.97.97 0 001.367 0l.108-.133c.383-.359.383-.967 0-1.35l-2.483-2.484-.659-.675c.792-.075 2.017-.3 2.917-.875 1.058-.675 1.525-1.083 1.108-1.916zM10 3.808c1.15 0 2.083.934 2.083 2.075 0 1.15-.933 2.075-2.083 2.075a2.077 2.077 0 01-2.083-2.075c0-1.141.933-2.075 2.083-2.075zm0 6.292a4.21 4.21 0 004.217-4.217 4.217 4.217 0 10-8.434 0A4.21 4.21 0 0010 10.1z"/></symbol><symbol viewBox="0 0 27 24" id="online-pay-usage" xmlns="http://www.w3.org/2000/svg"><path d="M24.745 1.5H2.255A2.252 2.252 0 000 3.75v16.5a2.252 2.252 0 002.255 2.25h22.49A2.252 2.252 0 0027 20.25V3.75a2.252 2.252 0 00-2.255-2.25zM2.535 3.75h21.93c.154 0 .28.127.28.281V6H2.255V4.031c0-.154.126-.281.28-.281zm21.93 16.5H2.534a.282.282 0 01-.28-.281V12h22.49v7.969a.282.282 0 01-.28.281zM9 15.562v1.876c0 .309-.253.562-.563.562H5.063a.564.564 0 01-.563-.563v-1.875c0-.309.253-.562.563-.562h3.375c.309 0 .562.253.562.563zm9 0v1.876c0 .309-.253.562-.563.562h-6.375a.564.564 0 01-.562-.563v-1.875c0-.309.253-.562.563-.562h6.374c.31 0 .563.253.563.563z"/></symbol><symbol viewBox="0 0 10 10" id="pause-usage" xmlns="http://www.w3.org/2000/svg"><path class="bfcls-1" d="M4 0h2v10H4V0zM0 0h2v10H0V0z"/></symbol><symbol viewBox="0 0 16 17" id="person-usage" xmlns="http://www.w3.org/2000/svg"><path d="M10.81 10.094c-.952 0-1.41.531-2.975.531-1.563 0-2.018-.531-2.975-.531a4.464 4.464 0 00-4.462 4.462v.85c0 .88.714 1.594 1.594 1.594h11.687c.88 0 1.594-.714 1.594-1.594v-.85a4.464 4.464 0 00-4.463-4.462zm2.87 5.312H1.991v-.85a2.874 2.874 0 012.868-2.868c.485 0 1.272.53 2.975.53 1.717 0 2.487-.53 2.975-.53a2.874 2.874 0 012.87 2.868v.85zM7.834 9.562a4.782 4.782 0 000-9.562 4.782 4.782 0 000 9.563zm0-7.968a3.193 3.193 0 013.188 3.187A3.193 3.193 0 017.835 7.97 3.193 3.193 0 014.648 4.78a3.193 3.193 0 013.187-3.187z"/></symbol><symbol viewBox="0 0 10 10" id="play-usage" xmlns="http://www.w3.org/2000/svg"><path d="M-.01.138a1.321 1.321 0 011.24 0l7.48 4.476a.4.4 0 010 .746L1.23 9.836a1.321 1.321 0 01-1.24 0v-9.7z"/></symbol><symbol viewBox="0 0 15 14" id="print-usage" xmlns="http://www.w3.org/2000/svg"><path d="M12.41 4.1h-9.8c-1.162 0-2.1.938-2.1 2.1v4.2h2.8v2.8h8.4v-2.8h2.8V6.2c0-1.162-.938-2.1-2.1-2.1zm-2.1 7.7h-5.6V8.3h5.6v3.5zm2.1-4.9a.702.702 0 01-.7-.7c0-.385.315-.7.7-.7.385 0 .7.315.7.7 0 .385-.315.7-.7.7zm-.7-6.3h-8.4v2.8h8.4V.6z"/></symbol><symbol fill="none" viewBox="0 0 39 30" id="quote-usage" xmlns="http://www.w3.org/2000/svg"><path d="M16.36 2.139L14.97 0C5.346 6.47 0 14.332 0 20.802 0 27.06 4.598 30 8.5 30c4.92 0 8.395-4.171 8.395-8.556 0-3.69-2.353-6.845-5.507-8.021-.91-.321-1.765-.589-1.765-2.14 0-1.978 1.444-4.92 6.737-9.144zm21.225 0L36.195 0c-9.517 6.47-14.97 14.332-14.97 20.802 0 6.257 4.705 9.198 8.608 9.198 4.972 0 8.5-4.171 8.5-8.556 0-3.69-2.405-6.845-5.667-8.021-.909-.321-1.71-.589-1.71-2.14 0-1.978 1.496-4.92 6.629-9.144z" fill="#00A6FF"/></symbol><symbol fill="none" viewBox="0 0 20 20" id="skype-usage" xmlns="http://www.w3.org/2000/svg"><path d="M19.292 11.641c-.006.036-.01.071-.017.106l-.034-.201c.018.031.034.064.051.096a9.48 9.48 0 00.157-1.712 9.406 9.406 0 00-2.767-6.678A9.41 9.41 0 0010.006.486c-.6 0-1.202.056-1.788.169h-.004c.033.018.066.033.098.051l-.198-.03.1-.02A5.598 5.598 0 005.59 0a5.554 5.554 0 00-3.954 1.638 5.586 5.586 0 00-.934 6.664c.006-.034.01-.069.017-.103l.034.198-.05-.095A9.511 9.511 0 00.56 9.93c0 1.275.25 2.511.743 3.676a9.4 9.4 0 002.023 3.001 9.393 9.393 0 003.003 2.024 9.368 9.368 0 003.675.743c.555 0 1.112-.05 1.654-.147-.031-.018-.064-.034-.096-.052l.202.035c-.035.007-.07.01-.106.017a5.587 5.587 0 002.751.725 5.55 5.55 0 003.953-1.637 5.591 5.591 0 00.93-6.673zm-9.249 4.072c-3.355 0-4.856-1.65-4.856-2.885 0-.634.468-1.079 1.113-1.079 1.436 0 1.064 2.062 3.743 2.062 1.372 0 2.129-.745 2.129-1.507 0-.458-.226-.966-1.13-1.189L8.06 10.37c-2.404-.603-2.84-1.902-2.84-3.123 0-2.536 2.388-3.488 4.63-3.488 2.065 0 4.5 1.141 4.5 2.663 0 .652-.565 1.03-1.21 1.03-1.225 0-1-1.695-3.468-1.695-1.224 0-1.903.554-1.903 1.348 0 .792.967 1.045 1.807 1.236l2.21.49c2.419.54 3.032 1.952 3.032 3.283 0 2.06-1.582 3.6-4.774 3.6zm1.52 3.462c.032.018.065.034.096.052.036-.006.071-.01.106-.017l-.202-.035zm7.712-7.428c.006-.035.01-.07.017-.105-.017-.032-.033-.065-.052-.096l.035.201zM.72 8.2c-.006.034-.01.069-.017.103l.051.095-.034-.198zM8.311.706C8.28.688 8.246.673 8.213.656l-.1.02.198.03z" fill="#fff"/></symbol><symbol viewBox="0 0 20 20" id="telegram-usage" xmlns="http://www.w3.org/2000/svg"><path d="M8.15 15.542l.233-3.525 6.4-5.767c.284-.258-.058-.383-.433-.158l-7.9 4.991L3.033 10c-.733-.208-.741-.717.167-1.083l13.308-5.134c.609-.275 1.192.15.959 1.084L15.2 15.542c-.158.758-.617.941-1.25.591l-3.45-2.55-1.658 1.609c-.192.191-.35.35-.692.35z"/></symbol><symbol fill="none" viewBox="0 0 29 18" id="to-cart-usage" xmlns="http://www.w3.org/2000/svg"><path d="M9.5 9.004a.667.667 0 01-.667.667H5.701v3.116a.713.713 0 01-1.427 0V9.67H1.167a.667.667 0 010-1.334h3.107V5.213a.713.713 0 011.427 0v3.124h3.132c.369 0 .667.299.667.667z" fill="#fff"/><path d="M17.495 17a.756.756 0 00.75-.762.756.756 0 00-.75-.762.755.755 0 00-.749.762c0 .42.335.762.75.762zM25.73 17a.756.756 0 00.748-.762.756.756 0 00-.748-.762.755.755 0 00-.75.762c0 .42.336.762.75.762zM11.5 1h2.996l2.007 10.202c.069.35.256.666.53.89.274.224.617.343.968.337h7.28c.352.006.695-.113.969-.337.273-.224.461-.54.53-.89l1.198-6.392H15.245" stroke="#fff" stroke-width="1.5" stroke-linecap="round" stroke-linejoin="round"/></symbol><symbol viewBox="0 0 7 5" id="triangle-usage" xmlns="http://www.w3.org/2000/svg"><path d="M0 .708h7l-3.5 4.2L0 .708z"/></symbol><symbol viewBox="0 0 13 15" id="upload-usage" xmlns="http://www.w3.org/2000/svg"><path d="M3.5 4.6a.7.7 0 100 1.4h.7a.7.7 0 100-1.4h-.7zM7 13H2.1a.7.7 0 01-.7-.7V2.5a.7.7 0 01.7-.7h3.5v2.1A2.1 2.1 0 007.7 6h2.1v1.4a.7.7 0 101.4 0V5.256a.92.92 0 00-.042-.189v-.063a.751.751 0 00-.133-.196l-4.2-4.2a.749.749 0 00-.196-.133.203.203 0 00-.07 0A.77.77 0 006.342.4H2.1A2.1 2.1 0 000 2.5v9.8a2.1 2.1 0 002.1 2.1H7A.7.7 0 007 13zM7 2.785L8.813 4.6H7.7a.7.7 0 01-.7-.7V2.786zM7.7 7.4H3.5a.7.7 0 100 1.4h4.2a.7.7 0 000-1.4zm3.516 6.348l-.016-1.735V10.2a.7.7 0 00-1.4 0v3.548c.023.228.09.314.203.45a.702.702 0 00.23.146.659.659 0 00.533 0 .702.702 0 00.23-.147.626.626 0 00.22-.449zM6.3 11.6a.7.7 0 000-1.4H3.5a.7.7 0 100 1.4h2.8z"/><path d="M8.75 12.65a.656.656 0 110-1.313h3.5a.656.656 0 010 1.312h-3.5z"/></symbol><symbol fill="none" viewBox="0 0 25 24" id="viber-usage" xmlns="http://www.w3.org/2000/svg"><path d="M12.25.003c-2.027.024-6.387.34-8.825 2.463C1.611 4.172.978 6.694.904 9.813c-.062 3.107-.136 8.942 5.79 10.531v2.42s-.037.969.637 1.167c.83.25 1.304-.495 2.093-1.296l1.473-1.58c4.054.32 7.16-.418 7.517-.527.823-.25 5.457-.812 6.214-6.648.777-6.027-.378-9.825-2.463-11.543h-.013c-.629-.55-3.158-2.299-8.808-2.319 0 0-.42-.027-1.094-.015zm.07 1.695c.575-.004.925.02.925.02 4.783.012 7.065 1.378 7.604 1.838 1.756 1.429 2.66 4.852 1.998 9.884-.63 4.88-4.388 5.188-5.083 5.399-.296.09-3.031.73-6.477.519 0 0-2.566 2.94-3.368 3.696-.128.133-.276.172-.37.153-.137-.032-.178-.192-.17-.41l.025-4.017c-5.026-1.319-4.73-6.296-4.676-8.896.061-2.6.575-4.727 2.106-6.168 2.06-1.768 5.761-2.006 7.484-2.018h.002zm.379 2.6a.328.328 0 00-.224.085.298.298 0 00-.093.211c0 .168.144.3.317.3a6.215 6.215 0 012.289.392c.728.273 1.393.68 1.955 1.197 1.147 1.058 1.706 2.479 1.727 4.337 0 .164.14.3.317.3v-.011c.083 0 .163-.031.223-.087a.293.293 0 00.093-.21 6.16 6.16 0 00-.439-2.566 6.424 6.424 0 00-1.469-2.193c-1.25-1.16-2.834-1.756-4.696-1.756zm-4.162.687a1.033 1.033 0 00-.646.12h-.017a4.91 4.91 0 00-1.205.94c-.288.317-.444.637-.485.945-.025.184-.008.367.05.543l.02.012a13.2 13.2 0 001.267 2.596 15.339 15.339 0 002.443 3.17l.028.038.045.032.028.031.034.027a16.307 16.307 0 003.347 2.33c1.39.719 2.233 1.058 2.74 1.199v.007c.148.043.283.063.419.063.431-.03.84-.197 1.16-.473.39-.329.72-.716.979-1.147v-.007c.242-.434.16-.844-.19-1.121a14.592 14.592 0 00-2.262-1.542c-.539-.277-1.086-.11-1.308.172l-.473.566c-.242.28-.682.242-.682.242l-.013.007c-3.286-.796-4.162-3.954-4.162-3.954s-.041-.43.263-.648l.592-.453c.284-.219.481-.737.177-1.25a13.52 13.52 0 00-1.62-2.146.91.91 0 00-.53-.301v.002zm4.708.89c-.42 0-.42.601.004.601a4.15 4.15 0 011.514.31 3.98 3.98 0 011.274.837c.33.347.585.752.747 1.194.163.44.23.908.199 1.375a.295.295 0 00.095.21c.059.055.138.086.221.087l.013.015a.327.327 0 00.223-.088.295.295 0 00.094-.212c.028-1.191-.362-2.19-1.127-2.99-.769-.801-1.842-1.25-3.212-1.34h-.045zm.519 1.616c-.432-.012-.449.6-.02.613 1.04.05 1.545.55 1.612 1.577a.291.291 0 00.093.207.323.323 0 00.22.086h.012a.332.332 0 00.223-.1.3.3 0 00.08-.22c-.073-1.339-.842-2.093-2.208-2.162h-.012V7.49z" fill="#fff"/></symbol><symbol viewBox="0 0 18 18" id="view-block-usage" xmlns="http://www.w3.org/2000/svg"><path fill-rule="evenodd" clip-rule="evenodd" d="M8 0H0v8h8V0zm0 10H0v8h8v-8zm2-10h8v8h-8V0zm8 10h-8v8h8v-8z"/></symbol><symbol viewBox="0 0 18 18" id="view-list-usage" xmlns="http://www.w3.org/2000/svg"><path fill-rule="evenodd" clip-rule="evenodd" d="M0 0h18v4H0V0zm0 7h18v4H0V7zm18 7H0v4h18v-4z"/></symbol><symbol viewBox="0 0 20 20" id="vk-usage" xmlns="http://www.w3.org/2000/svg"><path d="M17.333 6.95c.109-.35 0-.617-.516-.617h-1.684c-.433 0-.625.225-.733.475 0 0-.858 2.092-2.075 3.459-.4.391-.575.516-.792.516-.108 0-.283-.125-.283-.483V6.95c0-.425-.1-.617-.458-.617H8.133c-.266 0-.425.2-.425.392 0 .4.625.5.667 1.642v2.483c0 .55-.1.65-.308.65-.567 0-1.967-2.108-2.792-4.508-.167-.467-.325-.659-.758-.659H2.825c-.475 0-.575.225-.575.475 0 .45.575 2.667 2.667 5.6 1.391 2.009 3.358 3.092 5.15 3.092 1.075 0 1.208-.242 1.208-.658v-1.517c0-.475.1-.575.442-.575.25 0 .675.125 1.675 1.083 1.15 1.15 1.333 1.667 1.983 1.667h1.683c.484 0 .725-.242.592-.717-.15-.475-.7-1.166-1.425-1.983-.392-.458-.983-.958-1.167-1.217-.25-.316-.175-.458 0-.75 0 0 2.059-2.891 2.275-3.883z"/></symbol><symbol fill="none" viewBox="0 0 3 12" id="vosklik-usage" xmlns="http://www.w3.org/2000/svg"><path d="M1.5 7V1" stroke="#00A6FF" stroke-width="2" stroke-linecap="round"/><circle cx="1.5" cy="10.5" r="1.5" fill="#00A6FF"/></symbol><symbol fill="none" viewBox="0 0 22 19" id="warning-usage" xmlns="http://www.w3.org/2000/svg"><path fill-rule="evenodd" clip-rule="evenodd" d="M11 2L2.34 17h17.32L11.024 2.042 11 2zm.866-1.5a1 1 0 00-1.732 0L.608 17a1 1 0 00.866 1.5h19.052a1 1 0 00.866-1.5L11.866.5zm.032 6.1h-1.776l.288 5.616h1.188l.3-5.616zm-1.584 8.22a.967.967 0 00.696.264.91.91 0 00.672-.264.915.915 0 00.276-.672.876.876 0 00-.276-.66.91.91 0 00-.672-.264.967.967 0 00-.696.264.876.876 0 00-.276.66c0 .264.092.488.276.672z" fill="#fff"/></symbol><symbol fill="none" viewBox="0 0 24 24" id="whatsapp-usage" xmlns="http://www.w3.org/2000/svg"><path d="M0 24l1.696-6.161a11.806 11.806 0 01-1.593-5.944C.103 5.334 5.466 0 12.055 0a11.88 11.88 0 018.45 3.486A11.77 11.77 0 0124 11.9c0 6.56-5.363 11.895-11.951 11.895h-.006c-1.996-.001-3.96-.5-5.712-1.45L0 24zm6.629-3.81l.36.216a9.99 9.99 0 005.054 1.38h.006c5.471 0 9.929-4.432 9.929-9.886a9.818 9.818 0 00-2.905-6.994 9.875 9.875 0 00-7.024-2.898c-5.478 0-9.935 4.433-9.935 9.887 0 1.865.521 3.685 1.518 5.26l.235.376-1.002 3.645 3.764-.987z" fill="#fff"/><path d="M9.063 6.914c-.223-.496-.458-.507-.67-.513-.172-.006-.373-.006-.573-.006a1.1 1.1 0 00-.796.371c-.276.297-1.043 1.016-1.043 2.482 0 1.46 1.071 2.875 1.22 3.075.149.2 2.068 3.297 5.1 4.49 2.52.992 3.036.792 3.58.74.55-.05 1.765-.718 2.017-1.414.246-.696.246-1.29.172-1.415-.075-.125-.275-.2-.573-.348-.298-.148-1.765-.867-2.04-.97-.275-.102-.476-.148-.67.149-.2.296-.774.964-.946 1.164-.172.2-.35.222-.647.074-.298-.149-1.26-.462-2.4-1.478-.889-.787-1.49-1.763-1.662-2.06-.172-.296-.017-.456.132-.604.131-.131.298-.348.447-.52.149-.17.2-.296.297-.495.098-.2.052-.371-.022-.52-.075-.148-.66-1.614-.923-2.202z" fill="#fff"/></symbol><symbol viewBox="0 0 20 20" id="youtube-usage" xmlns="http://www.w3.org/2000/svg"><path d="M8.333 12.5l4.325-2.5-4.325-2.5v5zm9.633-6.525c.109.392.184.917.234 1.583.058.667.083 1.242.083 1.742l.05.7c0 1.825-.133 3.167-.366 4.025-.209.75-.692 1.233-1.442 1.442-.392.108-1.108.183-2.208.233a55.573 55.573 0 01-2.992.083l-1.325.05c-3.492 0-5.667-.133-6.525-.366-.75-.209-1.234-.692-1.442-1.442-.108-.392-.183-.917-.233-1.583a20.045 20.045 0 01-.084-1.742l-.05-.7c0-1.825.134-3.167.367-4.025.208-.75.692-1.233 1.442-1.442.391-.108 1.108-.183 2.208-.233a55.545 55.545 0 012.992-.083L10 4.167c3.492 0 5.666.133 6.525.366.75.209 1.233.692 1.442 1.442z"/></symbol></svg>