<svg width="32" height="32" viewBox="0 0 32 32" fill="none" xmlns="http://www.w3.org/2000/svg"><path d="M7.9 29.666V26.6C3.907 25.275 2 23.5 1 19c-.533-3.658-.546-5.638 0-9 .42-2.626 1-4 2.79-6C7 1.5 10.544.842 16 .76 21.5 1 24.5 1.5 27.8 4c4.5 4 3.7 15 1.6 18.5-2 4-8.4 5.5-15.9 5l-2.8 3C9 31.9 8 31 7.9 29.666z" fill="#7D3DAF"/><path d="M15.063 1.004c-2.535.03-7.984.425-11.032 3.079C1.764 6.215.973 9.368.88 13.266.803 17.15.71 24.444 8.117 26.43v3.026s-.046 1.21.797 1.458c1.038.312 1.63-.62 2.616-1.62l1.84-1.976c5.069.4 8.95-.521 9.398-.658 1.028-.312 6.82-1.015 7.767-8.31.971-7.534-.472-12.281-3.079-14.428h-.016c-.786-.688-3.948-2.875-11.01-2.899 0 0-.524-.034-1.367-.02v.001zm.086 2.119c.72-.005 1.157.024 1.157.024 5.978.015 8.832 1.723 9.505 2.298 2.195 1.786 3.326 6.065 2.498 12.355-.787 6.099-5.485 6.485-6.354 6.748-.37.113-3.79.913-8.096.65 0 0-3.208 3.674-4.21 4.62-.16.166-.345.215-.464.19-.17-.04-.22-.239-.211-.512l.03-5.02c-6.281-1.65-5.911-7.871-5.844-11.121.077-3.25.72-5.909 2.632-7.71 2.575-2.21 7.202-2.507 9.356-2.522h.002zm.474 3.249a.41.41 0 00-.28.107.371.371 0 00-.116.264c0 .21.18.375.396.375a7.768 7.768 0 012.862.49c.91.34 1.74.85 2.443 1.496 1.434 1.322 2.133 3.099 2.16 5.42 0 .206.174.377.395.377v-.015a.406.406 0 00.279-.108.365.365 0 00.117-.263 7.7 7.7 0 00-.549-3.207 8.03 8.03 0 00-1.836-2.741c-1.563-1.45-3.543-2.196-5.87-2.196zm-5.202.859a1.291 1.291 0 00-.807.15h-.021a6.137 6.137 0 00-1.506 1.176c-.36.396-.556.796-.607 1.18-.03.23-.01.46.062.679l.026.015c.405 1.132.935 2.22 1.583 3.245a19.175 19.175 0 003.053 3.962l.036.049.056.04.036.038.041.034a20.384 20.384 0 004.185 2.913c1.737.897 2.791 1.322 3.424 1.498v.01c.185.053.354.077.524.077a2.486 2.486 0 001.45-.59 5.748 5.748 0 001.223-1.434v-.01c.303-.541.2-1.054-.236-1.4a18.245 18.245 0 00-2.828-1.928c-.673-.346-1.357-.136-1.634.215l-.592.707c-.303.352-.853.303-.853.303l-.016.01c-4.107-.997-5.203-4.944-5.203-4.944s-.05-.536.33-.81l.74-.566c.354-.273.6-.922.22-1.561a16.907 16.907 0 00-2.025-2.685 1.138 1.138 0 00-.663-.375l.002.002zm5.885 1.113c-.524 0-.524.751.005.751.652.01 1.295.142 1.893.388a4.974 4.974 0 011.592 1.046c.413.433.731.94.934 1.492.203.551.288 1.136.248 1.719a.368.368 0 00.119.262c.074.07.173.108.277.109l.016.02a.41.41 0 00.28-.111.369.369 0 00.116-.265c.035-1.489-.452-2.738-1.409-3.738-.96-1-2.302-1.562-4.015-1.673h-.056zm.649 2.02c-.54-.016-.561.75-.026.766 1.3.063 1.932.687 2.015 1.97a.368.368 0 00.117.26.403.403 0 00.274.107h.016a.412.412 0 00.278-.124.375.375 0 00.102-.276c-.093-1.673-1.054-2.616-2.76-2.703h-.016z" fill="#fff"/></svg>