<svg width="39" height="14" viewBox="0 0 39 14" fill="none" xmlns="http://www.w3.org/2000/svg"><path fill-rule="evenodd" clip-rule="evenodd" d="M27.954 1.29A7.676 7.676 0 0025.16.779c-3.076 0-5.242 1.64-5.255 3.985-.026 1.73 1.55 2.692 2.73 3.268 1.205.59 1.614.975 1.614 1.5-.012.807-.973 1.18-1.87 1.18-1.244 0-1.91-.193-2.923-.642l-.41-.192-.436 2.704c.73.333 2.077.628 3.474.641 3.268 0 5.396-1.615 5.422-4.114.012-1.371-.82-2.422-2.615-3.28-1.09-.552-1.757-.923-1.757-1.487.013-.513.565-1.038 1.794-1.038a5.293 5.293 0 012.32.461l.282.128.424-2.601zM16.662 13.044h-3.114L15.495.996h3.114l-1.948 12.047zm16.675-7.638l-1.243 3.37h2.589c-.128-.602-.718-3.486-.718-3.486l-.218-1.038c-.091.267-.224.634-.313.882-.06.169-.102.282-.096.272zm.193-4.41h2.41l2.513 12.047h-2.884s-.283-1.384-.372-1.807h-4l-.653 1.807h-3.268l4.627-11.047c.32-.782.884-1 1.627-1zm-22.583 0l-3.05 8.215-.334-1.666v-.001l-1.09-5.535c-.179-.77-.73-.987-1.41-1.013H.053L0 1.24c1.222.312 2.316.763 3.273 1.323L6.05 13.03h3.294L14.24.996h-3.294z" fill="#1A1F71"/></svg>