<svg width="32" height="32" viewBox="0 0 32 32" fill="none" xmlns="http://www.w3.org/2000/svg"><path d="M1.186 30.398l-.013.045v.501l.439-.115 7.509-1.963a14.818 14.818 0 006.933 1.725h.008c8.134 0 14.766-6.597 14.766-14.71 0-3.931-1.534-7.63-4.321-10.407l-.247.248.247-.248a14.7 14.7 0 00-10.446-4.31c-8.134 0-14.766 6.596-14.766 14.71 0 2.531.654 5.02 1.9 7.223l-2.009 7.3z" fill="url(#paint0_linear)" stroke="#35BC48" stroke-width=".7"/><path d="M1 31.012l2.12-7.705a14.768 14.768 0 01-1.991-7.433C1.129 7.67 7.832 1 16.069 1c3.995 0 7.748 1.548 10.562 4.359A14.721 14.721 0 0131 15.88c0 8.204-6.703 14.874-14.94 14.874h-.006a14.99 14.99 0 01-7.14-1.812L1 31.012zm8.286-4.766l.451.271a12.484 12.484 0 006.317 1.727h.007c6.84 0 12.41-5.543 12.41-12.363a12.28 12.28 0 00-3.63-8.746 12.342 12.342 0 00-8.78-3.624c-6.847 0-12.418 5.543-12.418 12.363 0 2.333.651 4.608 1.897 6.577l.294.471-1.253 4.558 4.705-1.234z" fill="#fff"/><path d="M12.33 9.646c-.28-.62-.573-.635-.838-.642-.215-.007-.466-.007-.717-.007-.25 0-.651.093-.995.464-.344.37-1.303 1.27-1.303 3.103 0 1.826 1.339 3.595 1.525 3.845.186.25 2.585 4.123 6.374 5.614 3.151 1.242 3.796.992 4.476.928.687-.064 2.206-.9 2.52-1.77.309-.87.309-1.612.216-1.769-.094-.157-.344-.25-.717-.435-.372-.185-2.205-1.084-2.549-1.212-.344-.129-.595-.186-.838.185-.25.37-.967 1.206-1.182 1.455-.215.25-.436.278-.809.093-.372-.186-1.575-.578-3-1.848-1.11-.984-1.863-2.204-2.078-2.575-.214-.37-.021-.57.165-.756.165-.164.373-.435.559-.65.186-.213.25-.37.372-.62s.065-.464-.028-.65c-.094-.185-.824-2.018-1.153-2.753z" fill="#fff"/><defs><linearGradient id="paint0_linear" x1="16" y1="30.489" x2="16" y2="1.512" gradientUnits="userSpaceOnUse"><stop stop-color="#20B038"/><stop offset="1" stop-color="#60D66A"/></linearGradient></defs></svg>