<?xml version="1.0" encoding="utf-8"?><svg width="17" height="18" xmlns="http://www.w3.org/2000/svg" viewBox="0 0 17 18"><path fill-rule="evenodd" clip-rule="evenodd" d="M9.655 17.506A2.69 2.69 0 015.563 16.2h5.072a2.68 2.68 0 01-.98 1.306zM14.4 7.2v4.127l1.536 1.536a.909.909 0 01.265.636v.9a.9.9 0 01-.9.9H.9a.903.903 0 01-.9-.9v-.9c0-.117.023-.235.067-.344a.909.909 0 01.196-.292L1.8 11.328V7.2c0-2.896 1.967-5.334 4.63-6.068A1.793 1.793 0 018.1 0a1.79 1.79 0 011.669 1.133c2.665.734 4.63 3.172 4.63 6.068zm.11 6.5H1.69l1.71-1.71V7.2a4.705 4.705 0 013.455-4.525l.768-.212.293-.74A.193.193 0 018.1 1.6a.19.19 0 01.182.123l.294.74.769.212A4.703 4.703 0 0112.799 7.2v4.79l1.71 1.71z"/></svg>