<?xml version="1.0" encoding="utf-8"?><svg width="30" height="24" xmlns="http://www.w3.org/2000/svg" viewBox="0 0 30 24"><path d="M15 6.75c-2.485 0-4.5 2.35-4.5 5.25s2.015 5.25 4.5 5.25c2.484 0 4.5-2.35 4.5-5.25S17.485 6.75 15 6.75zm1.875 7.875A.375.375 0 0116.5 15h-3a.375.375 0 01-.375-.375v-.75c0-.207.168-.375.375-.375h.75v-2.599l-.022.015a.376.376 0 01-.52-.104l-.416-.624a.374.374 0 01.104-.52l.718-.48c.185-.122.402-.188.624-.188h.637c.207 0 .375.168.375.375V13.5h.75c.207 0 .375.168.375.375v.75zM28.5 3h-27A1.5 1.5 0 000 4.5v15A1.5 1.5 0 001.5 21h27a1.5 1.5 0 001.5-1.5v-15A1.5 1.5 0 0028.5 3zm-.75 12.75a3 3 0 00-3 3H5.25a3 3 0 00-3-3v-7.5a3 3 0 003-3h19.5a3 3 0 003 3v7.5z"/></svg>