<?xml version="1.0" encoding="utf-8"?><svg width="22" height="28" xmlns="http://www.w3.org/2000/svg" viewBox="0 0 22 28"><path d="M20.79 0H1.21a.95.95 0 00-.95.95v20.284c0 .252.1.493.279.671l5.818 5.817a.95.95 0 00.671.278H20.79a.95.95 0 00.95-.95V.95a.949.949 0 00-.95-.95zM3.502 22.183h2.577v2.577l-2.577-2.577zm16.34 3.919H7.976v-4.868a.95.95 0 00-.949-.949H2.16V1.898h17.682v24.204z"/><path d="M4.473 6.793h8.159a.949.949 0 000-1.898H4.473a.949.949 0 100 1.898zM15.895 6.793h1.632a.949.949 0 100-1.898h-1.632a.95.95 0 100 1.898zM4.473 11.686h8.159a.949.949 0 000-1.898H4.473a.949.949 0 000 1.898zM15.895 11.686h1.632a.949.949 0 000-1.898h-1.632a.95.95 0 100 1.898zM4.473 16.58h8.159a.949.949 0 000-1.897H4.473a.949.949 0 000 1.898zM15.895 16.58h1.632a.949.949 0 100-1.897h-1.632a.95.95 0 000 1.898zM14.263 21.474h3.264a.949.949 0 100-1.898h-3.264a.949.949 0 000 1.898z"/></svg>