<?xml version="1.0" encoding="utf-8"?><svg width="34" height="30" xmlns="http://www.w3.org/2000/svg" viewBox="0 0 34 30"><path d="M15.9 3.75c-2.48 0-4.488 2.35-4.488 5.25s2.009 5.25 4.487 5.25S20.387 11.9 20.387 9s-2.01-5.25-4.488-5.25zm1.869 7.875a.374.374 0 01-.374.375h-2.992a.374.374 0 01-.373-.375v-.75c0-.207.167-.375.373-.375h.748V7.901l-.022.015a.372.372 0 01-.518-.104l-.415-.624a.375.375 0 01.104-.52l.716-.48c.184-.122.401-.188.622-.188h.635c.207 0 .374.168.374.375V10.5h.748c.207 0 .374.168.374.375v.75zM29.361 0H2.437C1.611 0 .941.672.941 1.5v15c0 .828.67 1.5 1.496 1.5h26.924c.826 0 1.496-.672 1.496-1.5v-15c0-.828-.67-1.5-1.496-1.5zm-.748 12.75a2.996 2.996 0 00-2.991 3H6.177c0-1.657-1.34-3-2.992-3v-7.5a2.996 2.996 0 002.992-3h19.445c0 1.657 1.34 3 2.991 3v7.5z"/><g clip-path="url(#afclip0)"><path fill="#fff" d="M7.922 9h23.933v19H7.922z"/><path d="M31.6 7.5H9.174a2.248 2.248 0 00-2.248 2.25v16.5a2.248 2.248 0 002.248 2.25h22.428a2.248 2.248 0 002.248-2.25V9.75a2.248 2.248 0 00-2.248-2.25zM9.455 9.75H31.32c.154 0 .28.127.28.281V12H9.174v-1.969c0-.154.126-.281.28-.281zm21.866 16.5H9.454a.282.282 0 01-.28-.281V18H31.6v7.969a.282.282 0 01-.28.281zM15.9 21.562v1.875c0 .31-.253.563-.561.563h-3.366a.563.563 0 01-.56-.563v-1.875c0-.309.252-.562.56-.562h3.366c.308 0 .56.253.56.563zm8.974 0v1.875c0 .31-.252.563-.56.563h-6.358a.563.563 0 01-.56-.563v-1.875c0-.309.252-.562.56-.562h6.357c.309 0 .561.253.561.563z"/></g><defs><clipPath id="afclip0"><path fill="#fff" transform="translate(6.925 6)" d="M0 0h26.924v24H0z"/></clipPath></defs></svg>