<?xml version="1.0" encoding="utf-8"?><svg width="22" height="17" fill="none" xmlns="http://www.w3.org/2000/svg" viewBox="0 0 22 17"><path fill-rule="evenodd" clip-rule="evenodd" d="M0 1a1 1 0 011-1h16a1 1 0 110 2H1a1 1 0 01-1-1zm0 6a1 1 0 011-1h16a1 1 0 110 2H1a1 1 0 01-1-1zm18 6a1 1 0 00-1-1H1a1 1 0 100 2h16a1 1 0 001-1z" fill="#00A6FF"/><mask id="aia" maskUnits="userSpaceOnUse" x="8" y="3" width="14" height="14" fill="#000"><path fill="#fff" d="M8 3h14v14H8z"/><path fill-rule="evenodd" clip-rule="evenodd" d="M17.961 13.775a5.5 5.5 0 111.027-1.095l1.525 1.525a.75.75 0 01-1.06 1.061l-1.492-1.491zM18 9.5a3.5 3.5 0 11-7 0 3.5 3.5 0 017 0z"/></mask><path fill-rule="evenodd" clip-rule="evenodd" d="M17.961 13.775a5.5 5.5 0 111.027-1.095l1.525 1.525a.75.75 0 01-1.06 1.061l-1.492-1.491zM18 9.5a3.5 3.5 0 11-7 0 3.5 3.5 0 017 0z" fill="#00A6FF"/><path d="M17.961 13.775l.707-.707-.637-.637-.7.567.63.777zm1.027-1.095l-.816-.579-.488.689.597.597.707-.707zm1.525 2.586l-.707-.707.707.707zM14.5 16c1.55 0 2.974-.543 4.09-1.449l-1.259-1.553A4.477 4.477 0 0114.5 14v2zM8 9.5a6.5 6.5 0 006.5 6.5v-2A4.5 4.5 0 0110 9.5H8zM14.5 3A6.5 6.5 0 008 9.5h2A4.5 4.5 0 0114.5 5V3zM21 9.5A6.5 6.5 0 0014.5 3v2A4.5 4.5 0 0119 9.5h2zm-1.197 3.759A6.475 6.475 0 0021 9.5h-2c0 .97-.306 1.867-.828 2.601l1.631 1.158zm-1.522.128l1.525 1.525 1.414-1.414-1.525-1.525-1.414 1.414zm1.525 1.525a.25.25 0 010-.353l1.414 1.414a1.75 1.75 0 000-2.475l-1.414 1.414zm0-.353a.25.25 0 01.354 0l-1.415 1.414a1.75 1.75 0 002.475 0l-1.414-1.414zm.354 0l-1.492-1.491-1.414 1.414 1.491 1.491 1.415-1.414zM14.5 14A4.5 4.5 0 0019 9.5h-2a2.5 2.5 0 01-2.5 2.5v2zM10 9.5a4.5 4.5 0 004.5 4.5v-2A2.5 2.5 0 0112 9.5h-2zM14.5 5A4.5 4.5 0 0010 9.5h2A2.5 2.5 0 0114.5 7V5zM19 9.5A4.5 4.5 0 0014.5 5v2A2.5 2.5 0 0117 9.5h2z" fill="#fff" mask="url(#aia)"/><circle cx="14.5" cy="9.5" r="3.5" fill="#fff"/></svg>