<?xml version="1.0" encoding="utf-8"?><svg width="14" height="15" xmlns="http://www.w3.org/2000/svg" viewBox="0 0 14 15"><path d="M4.406 5.1a.7.7 0 100 1.4h.7a.7.7 0 100-1.4h-.7zm3.5 8.4h-4.9a.7.7 0 01-.7-.7V3a.7.7 0 01.7-.7h3.5v2.1a2.1 2.1 0 002.1 2.1h2.1v1.4a.7.7 0 001.4 0V5.756a.913.913 0 00-.042-.189v-.063a.747.747 0 00-.133-.196l-4.2-4.2a.749.749 0 00-.196-.133.203.203 0 00-.07 0A.77.77 0 007.248.9H3.006A2.1 2.1 0 00.906 3v9.8a2.1 2.1 0 002.1 2.1h4.9a.7.7 0 000-1.4zm0-10.214L9.72 5.1H8.606a.7.7 0 01-.7-.7V3.286zm.7 4.613h-4.2a.7.7 0 100 1.4h4.2a.7.7 0 100-1.4zm4.697 4.403a.7.7 0 00-.994 0l-.203.21V10.7a.7.7 0 10-1.4 0v1.813l-.203-.21a.703.703 0 10-.994.994l1.4 1.4a.702.702 0 00.231.147.659.659 0 00.532 0 .702.702 0 00.231-.147l1.4-1.4a.7.7 0 000-.994zM7.206 12.1a.7.7 0 000-1.4h-2.8a.7.7 0 100 1.4h2.8z"/></svg>