<?xml version="1.0" encoding="utf-8"?><svg width="16" height="16" xmlns="http://www.w3.org/2000/svg" viewBox="0 0 16 16"><path d="M3.033 12.688c.04 0 .078-.004.117-.01l3.286-.576a.191.191 0 00.103-.055l8.28-8.28a.195.195 0 000-.275L11.571.244a.193.193 0 00-.138-.056.193.193 0 00-.139.056l-8.28 8.28a.198.198 0 00-.054.103l-.576 3.285a.654.654 0 00.183.582.662.662 0 00.465.194zM4.35 9.28L11.434 2.2l1.431 1.432-7.084 7.082-1.736.307.305-1.739z"/><rect y="14" width="16" height="1.5" rx=".75"/></svg>