<?xml version="1.0" encoding="utf-8"?><svg width="11" height="12" xmlns="http://www.w3.org/2000/svg" viewBox="0 0 11 12"><path d="M9.617 8.303c-.702-.6-1.414-.964-2.108-.364l-.414.362c-.303.263-.866 1.492-3.044-1.013-2.177-2.502-.881-2.891-.578-3.152l.417-.363c.69-.6.429-1.357-.068-2.136l-.3-.471C3.021.389 2.476-.121 1.785.479l-.374.326A3.508 3.508 0 00.045 3.126c-.25 1.65.537 3.54 2.34 5.612 1.8 2.074 3.563 3.116 5.233 3.097a3.517 3.517 0 002.487-1.03l.375-.327c.69-.6.261-1.21-.44-1.812l-.423-.363z"/></svg>