<?xml version="1.0" encoding="utf-8"?><svg viewBox="0 0 24 22" xmlns="http://www.w3.org/2000/svg" width="24" height="22"><path d="M22.996 4.687a6.956 6.956 0 00-1.522-2.215A7.098 7.098 0 0016.487.444a7.145 7.145 0 00-4.486 1.582A7.145 7.145 0 007.515.445a7.098 7.098 0 00-4.987 2.027A6.914 6.914 0 00.444 7.413c0 .891.182 1.82.543 2.764.303.79.736 1.608 1.29 2.434.877 1.308 2.084 2.673 3.582 4.056 2.483 2.293 4.941 3.876 5.045 3.94l.634.407c.281.18.643.18.923 0l.634-.406a40.564 40.564 0 005.046-3.941c1.498-1.383 2.704-2.748 3.582-4.056.554-.826.99-1.645 1.29-2.434.36-.944.542-1.873.542-2.764a6.81 6.81 0 00-.559-2.726z"/></svg>