<?xml version="1.0" encoding="utf-8"?><svg width="20" height="20" xmlns="http://www.w3.org/2000/svg" viewBox="0 0 20 20"><path d="M6.5 1.667h7A4.837 4.837 0 0118.333 6.5v7a4.833 4.833 0 01-4.833 4.833h-7A4.837 4.837 0 011.667 13.5v-7A4.833 4.833 0 016.5 1.667zm-.167 1.666a3 3 0 00-3 3v7.334c0 1.658 1.342 3 3 3h7.333a3 3 0 003-3V6.333c0-1.658-1.341-3-3-3H6.333zm8.042 1.25a1.042 1.042 0 110 2.083 1.042 1.042 0 010-2.083zM10 5.833a4.167 4.167 0 110 8.334 4.167 4.167 0 010-8.334zM10 7.5a2.5 2.5 0 100 5 2.5 2.5 0 000-5z"/></svg>