<?xml version="1.0" encoding="utf-8"?><svg width="5" height="24" fill="none" xmlns="http://www.w3.org/2000/svg" viewBox="0 0 5 24"><path d="M.033 0c-.332 6.23 4.785 7.125 4.785 7.125C4.552.295.033 0 .033 0z" fill="#00C05A"/><path d="M4.311 7.91H.533a.505.505 0 00-.356.17.502.502 0 00-.17.363v1.326a.52.52 0 00.17.373.508.508 0 00.356.16h1.918v9.556a1.757 1.757 0 01-1.534 1.748H.533a.509.509 0 00-.372.161.5.5 0 00-.161.373v1.326c0 .138.052.27.144.373a.507.507 0 00.383.16h.188a4.12 4.12 0 004.099-3.857 1.22 1.22 0 00.02-.251V8.443a.509.509 0 00-.16-.373.47.47 0 00-.363-.16z" fill="#fff"/></svg>