<?xml version="1.0" encoding="utf-8"?><svg width="19" height="23" fill="none" xmlns="http://www.w3.org/2000/svg" viewBox="0 0 19 23"><path d="M9.793 20l.57.822h0l.003-.002.005-.004.02-.013.067-.049.246-.18a25.788 25.788 0 003.438-3.126c1.844-2.02 3.865-4.962 3.851-8.25 0-4.521-3.678-8.198-8.2-8.198-4.52 0-8.198 3.676-8.2 8.193-.014 3.283 1.93 6.173 3.747 8.179a24.649 24.649 0 003.855 3.43l.02.013.57.406.578-.399-.57-.822zm0-8.2a2.599 2.599 0 110-5.2c1.437 0 2.6 1.163 2.6 2.6s-1.163 2.6-2.6 2.6z" stroke="#423B57" stroke-width="2"/></svg>