<?xml version="1.0" encoding="utf-8"?><svg width="20" height="20" xmlns="http://www.w3.org/2000/svg" viewBox="0 0 20 20"><path d="M14.858 10.617c-.233-.475-.891-.875-1.766-.2-1.192.95-3.092.95-3.092.95s-1.9 0-3.092-.95c-.875-.675-1.533-.275-1.766.2-.417.833.05 1.241 1.108 1.916.908.584 2.15.8 2.95.884l-.667.666c-.95.942-1.866 1.85-2.491 2.484-.375.383-.375.991 0 1.35l.116.133a.97.97 0 001.367 0L10 15.567c.958.941 1.867 1.85 2.5 2.483a.97.97 0 001.367 0l.108-.133c.383-.359.383-.967 0-1.35l-2.483-2.484-.659-.675c.792-.075 2.017-.3 2.917-.875 1.058-.675 1.525-1.083 1.108-1.916zM10 3.808c1.15 0 2.083.934 2.083 2.075 0 1.15-.933 2.075-2.083 2.075a2.077 2.077 0 01-2.083-2.075c0-1.141.933-2.075 2.083-2.075zm0 6.292a4.21 4.21 0 004.217-4.217 4.217 4.217 0 10-8.434 0A4.21 4.21 0 0010 10.1z"/></svg>