<?xml version="1.0" encoding="utf-8"?><svg width="27" height="24" xmlns="http://www.w3.org/2000/svg" viewBox="0 0 27 24"><path d="M24.745 1.5H2.255A2.252 2.252 0 000 3.75v16.5a2.252 2.252 0 002.255 2.25h22.49A2.252 2.252 0 0027 20.25V3.75a2.252 2.252 0 00-2.255-2.25zM2.535 3.75h21.93c.154 0 .28.127.28.281V6H2.255V4.031c0-.154.126-.281.28-.281zm21.93 16.5H2.534a.282.282 0 01-.28-.281V12h22.49v7.969a.282.282 0 01-.28.281zM9 15.562v1.876c0 .309-.253.562-.563.562H5.063a.564.564 0 01-.563-.563v-1.875c0-.309.253-.562.563-.562h3.375c.309 0 .562.253.562.563zm9 0v1.876c0 .309-.253.562-.563.562h-6.375a.564.564 0 01-.562-.563v-1.875c0-.309.253-.562.563-.562h6.374c.31 0 .563.253.563.563z"/></svg>