<?xml version="1.0" encoding="utf-8"?><svg width="16" height="17" xmlns="http://www.w3.org/2000/svg" viewBox="0 0 16 17"><path d="M10.81 10.094c-.952 0-1.41.531-2.975.531-1.563 0-2.018-.531-2.975-.531a4.464 4.464 0 00-4.462 4.462v.85c0 .88.714 1.594 1.594 1.594h11.687c.88 0 1.594-.714 1.594-1.594v-.85a4.464 4.464 0 00-4.463-4.462zm2.87 5.312H1.991v-.85a2.874 2.874 0 012.868-2.868c.485 0 1.272.53 2.975.53 1.717 0 2.487-.53 2.975-.53a2.874 2.874 0 012.87 2.868v.85zM7.834 9.562a4.782 4.782 0 000-9.562 4.782 4.782 0 000 9.563zm0-7.968a3.193 3.193 0 013.188 3.187A3.193 3.193 0 017.835 7.97 3.193 3.193 0 014.648 4.78a3.193 3.193 0 013.187-3.187z"/></svg>