<?xml version="1.0" encoding="utf-8"?><svg width="39" height="30" fill="none" xmlns="http://www.w3.org/2000/svg" viewBox="0 0 39 30"><path d="M16.36 2.139L14.97 0C5.346 6.47 0 14.332 0 20.802 0 27.06 4.598 30 8.5 30c4.92 0 8.395-4.171 8.395-8.556 0-3.69-2.353-6.845-5.507-8.021-.91-.321-1.765-.589-1.765-2.14 0-1.978 1.444-4.92 6.737-9.144zm21.225 0L36.195 0c-9.517 6.47-14.97 14.332-14.97 20.802 0 6.257 4.705 9.198 8.608 9.198 4.972 0 8.5-4.171 8.5-8.556 0-3.69-2.405-6.845-5.667-8.021-.909-.321-1.71-.589-1.71-2.14 0-1.978 1.496-4.92 6.629-9.144z" fill="#00A6FF"/></svg>