<?xml version="1.0" encoding="utf-8"?><svg width="20" height="20" fill="none" xmlns="http://www.w3.org/2000/svg" viewBox="0 0 20 20"><path d="M19.292 11.641c-.006.036-.01.071-.017.106l-.034-.201c.018.031.034.064.051.096a9.48 9.48 0 00.157-1.712 9.406 9.406 0 00-2.767-6.678A9.41 9.41 0 0010.006.486c-.6 0-1.202.056-1.788.169h-.004c.033.018.066.033.098.051l-.198-.03.1-.02A5.598 5.598 0 005.59 0a5.554 5.554 0 00-3.954 1.638 5.586 5.586 0 00-.934 6.664c.006-.034.01-.069.017-.103l.034.198-.05-.095A9.511 9.511 0 00.56 9.93c0 1.275.25 2.511.743 3.676a9.4 9.4 0 002.023 3.001 9.393 9.393 0 003.003 2.024 9.368 9.368 0 003.675.743c.555 0 1.112-.05 1.654-.147-.031-.018-.064-.034-.096-.052l.202.035c-.035.007-.07.01-.106.017a5.587 5.587 0 002.751.725 5.55 5.55 0 003.953-1.637 5.591 5.591 0 00.93-6.673zm-9.249 4.072c-3.355 0-4.856-1.65-4.856-2.885 0-.634.468-1.079 1.113-1.079 1.436 0 1.064 2.062 3.743 2.062 1.372 0 2.129-.745 2.129-1.507 0-.458-.226-.966-1.13-1.189L8.06 10.37c-2.404-.603-2.84-1.902-2.84-3.123 0-2.536 2.388-3.488 4.63-3.488 2.065 0 4.5 1.141 4.5 2.663 0 .652-.565 1.03-1.21 1.03-1.225 0-1-1.695-3.468-1.695-1.224 0-1.903.554-1.903 1.348 0 .792.967 1.045 1.807 1.236l2.21.49c2.419.54 3.032 1.952 3.032 3.283 0 2.06-1.582 3.6-4.774 3.6zm1.52 3.462c.032.018.065.034.096.052.036-.006.071-.01.106-.017l-.202-.035zm7.712-7.428c.006-.035.01-.07.017-.105-.017-.032-.033-.065-.052-.096l.035.201zM.72 8.2c-.006.034-.01.069-.017.103l.051.095-.034-.198zM8.311.706C8.28.688 8.246.673 8.213.656l-.1.02.198.03z" fill="#fff"/></svg>