<?xml version="1.0" encoding="utf-8"?><svg width="29" height="18" fill="none" xmlns="http://www.w3.org/2000/svg" viewBox="0 0 29 18"><path d="M9.5 9.004a.667.667 0 01-.667.667H5.701v3.116a.713.713 0 01-1.427 0V9.67H1.167a.667.667 0 010-1.334h3.107V5.213a.713.713 0 011.427 0v3.124h3.132c.369 0 .667.299.667.667z" fill="#fff"/><path d="M17.495 17a.756.756 0 00.75-.762.756.756 0 00-.75-.762.755.755 0 00-.749.762c0 .42.335.762.75.762zM25.73 17a.756.756 0 00.748-.762.756.756 0 00-.748-.762.755.755 0 00-.75.762c0 .42.336.762.75.762zM11.5 1h2.996l2.007 10.202c.069.35.256.666.53.89.274.224.617.343.968.337h7.28c.352.006.695-.113.969-.337.273-.224.461-.54.53-.89l1.198-6.392H15.245" stroke="#fff" stroke-width="1.5" stroke-linecap="round" stroke-linejoin="round"/></svg>