<?xml version="1.0" encoding="utf-8"?><svg width="13" height="15" xmlns="http://www.w3.org/2000/svg" viewBox="0 0 13 15"><path d="M3.5 4.6a.7.7 0 100 1.4h.7a.7.7 0 100-1.4h-.7zM7 13H2.1a.7.7 0 01-.7-.7V2.5a.7.7 0 01.7-.7h3.5v2.1A2.1 2.1 0 007.7 6h2.1v1.4a.7.7 0 101.4 0V5.256a.92.92 0 00-.042-.189v-.063a.751.751 0 00-.133-.196l-4.2-4.2a.749.749 0 00-.196-.133.203.203 0 00-.07 0A.77.77 0 006.342.4H2.1A2.1 2.1 0 000 2.5v9.8a2.1 2.1 0 002.1 2.1H7A.7.7 0 007 13zM7 2.785L8.813 4.6H7.7a.7.7 0 01-.7-.7V2.786zM7.7 7.4H3.5a.7.7 0 100 1.4h4.2a.7.7 0 000-1.4zm3.516 6.348l-.016-1.735V10.2a.7.7 0 00-1.4 0v3.548c.023.228.09.314.203.45a.702.702 0 00.23.146.659.659 0 00.533 0 .702.702 0 00.23-.147.626.626 0 00.22-.449zM6.3 11.6a.7.7 0 000-1.4H3.5a.7.7 0 100 1.4h2.8z"/><path d="M8.75 12.65a.656.656 0 110-1.313h3.5a.656.656 0 010 1.312h-3.5z"/></svg>