<?xml version="1.0" encoding="utf-8"?><svg width="25" height="24" fill="none" xmlns="http://www.w3.org/2000/svg" viewBox="0 0 25 24"><path d="M12.25.003c-2.027.024-6.387.34-8.825 2.463C1.611 4.172.978 6.694.904 9.813c-.062 3.107-.136 8.942 5.79 10.531v2.42s-.037.969.637 1.167c.83.25 1.304-.495 2.093-1.296l1.473-1.58c4.054.32 7.16-.418 7.517-.527.823-.25 5.457-.812 6.214-6.648.777-6.027-.378-9.825-2.463-11.543h-.013c-.629-.55-3.158-2.299-8.808-2.319 0 0-.42-.027-1.094-.015zm.07 1.695c.575-.004.925.02.925.02 4.783.012 7.065 1.378 7.604 1.838 1.756 1.429 2.66 4.852 1.998 9.884-.63 4.88-4.388 5.188-5.083 5.399-.296.09-3.031.73-6.477.519 0 0-2.566 2.94-3.368 3.696-.128.133-.276.172-.37.153-.137-.032-.178-.192-.17-.41l.025-4.017c-5.026-1.319-4.73-6.296-4.676-8.896.061-2.6.575-4.727 2.106-6.168 2.06-1.768 5.761-2.006 7.484-2.018h.002zm.379 2.6a.328.328 0 00-.224.085.298.298 0 00-.093.211c0 .168.144.3.317.3a6.215 6.215 0 012.289.392c.728.273 1.393.68 1.955 1.197 1.147 1.058 1.706 2.479 1.727 4.337 0 .164.14.3.317.3v-.011c.083 0 .163-.031.223-.087a.293.293 0 00.093-.21 6.16 6.16 0 00-.439-2.566 6.424 6.424 0 00-1.469-2.193c-1.25-1.16-2.834-1.756-4.696-1.756zm-4.162.687a1.033 1.033 0 00-.646.12h-.017a4.91 4.91 0 00-1.205.94c-.288.317-.444.637-.485.945-.025.184-.008.367.05.543l.02.012a13.2 13.2 0 001.267 2.596 15.339 15.339 0 002.443 3.17l.028.038.045.032.028.031.034.027a16.307 16.307 0 003.347 2.33c1.39.719 2.233 1.058 2.74 1.199v.007c.148.043.283.063.419.063.431-.03.84-.197 1.16-.473.39-.329.72-.716.979-1.147v-.007c.242-.434.16-.844-.19-1.121a14.592 14.592 0 00-2.262-1.542c-.539-.277-1.086-.11-1.308.172l-.473.566c-.242.28-.682.242-.682.242l-.013.007c-3.286-.796-4.162-3.954-4.162-3.954s-.041-.43.263-.648l.592-.453c.284-.219.481-.737.177-1.25a13.52 13.52 0 00-1.62-2.146.91.91 0 00-.53-.301v.002zm4.708.89c-.42 0-.42.601.004.601a4.15 4.15 0 011.514.31 3.98 3.98 0 011.274.837c.33.347.585.752.747 1.194.163.44.23.908.199 1.375a.295.295 0 00.095.21c.059.055.138.086.221.087l.013.015a.327.327 0 00.223-.088.295.295 0 00.094-.212c.028-1.191-.362-2.19-1.127-2.99-.769-.801-1.842-1.25-3.212-1.34h-.045zm.519 1.616c-.432-.012-.449.6-.02.613 1.04.05 1.545.55 1.612 1.577a.291.291 0 00.093.207.323.323 0 00.22.086h.012a.332.332 0 00.223-.1.3.3 0 00.08-.22c-.073-1.339-.842-2.093-2.208-2.162h-.012V7.49z" fill="#fff"/></svg>