<?xml version="1.0" encoding="utf-8"?><svg width="20" height="20" xmlns="http://www.w3.org/2000/svg" viewBox="0 0 20 20"><path d="M17.333 6.95c.109-.35 0-.617-.516-.617h-1.684c-.433 0-.625.225-.733.475 0 0-.858 2.092-2.075 3.459-.4.391-.575.516-.792.516-.108 0-.283-.125-.283-.483V6.95c0-.425-.1-.617-.458-.617H8.133c-.266 0-.425.2-.425.392 0 .4.625.5.667 1.642v2.483c0 .55-.1.65-.308.65-.567 0-1.967-2.108-2.792-4.508-.167-.467-.325-.659-.758-.659H2.825c-.475 0-.575.225-.575.475 0 .45.575 2.667 2.667 5.6 1.391 2.009 3.358 3.092 5.15 3.092 1.075 0 1.208-.242 1.208-.658v-1.517c0-.475.1-.575.442-.575.25 0 .675.125 1.675 1.083 1.15 1.15 1.333 1.667 1.983 1.667h1.683c.484 0 .725-.242.592-.717-.15-.475-.7-1.166-1.425-1.983-.392-.458-.983-.958-1.167-1.217-.25-.316-.175-.458 0-.75 0 0 2.059-2.891 2.275-3.883z"/></svg>