<?xml version="1.0" encoding="utf-8"?><svg width="22" height="19" fill="none" xmlns="http://www.w3.org/2000/svg" viewBox="0 0 22 19"><path fill-rule="evenodd" clip-rule="evenodd" d="M11 2L2.34 17h17.32L11.024 2.042 11 2zm.866-1.5a1 1 0 00-1.732 0L.608 17a1 1 0 00.866 1.5h19.052a1 1 0 00.866-1.5L11.866.5zm.032 6.1h-1.776l.288 5.616h1.188l.3-5.616zm-1.584 8.22a.967.967 0 00.696.264.91.91 0 00.672-.264.915.915 0 00.276-.672.876.876 0 00-.276-.66.91.91 0 00-.672-.264.967.967 0 00-.696.264.876.876 0 00-.276.66c0 .264.092.488.276.672z" fill="#fff"/></svg>