<?xml version="1.0" encoding="utf-8"?><svg width="24" height="24" fill="none" xmlns="http://www.w3.org/2000/svg" viewBox="0 0 24 24"><path d="M0 24l1.696-6.161a11.806 11.806 0 01-1.593-5.944C.103 5.334 5.466 0 12.055 0a11.88 11.88 0 018.45 3.486A11.77 11.77 0 0124 11.9c0 6.56-5.363 11.895-11.951 11.895h-.006c-1.996-.001-3.96-.5-5.712-1.45L0 24zm6.629-3.81l.36.216a9.99 9.99 0 005.054 1.38h.006c5.471 0 9.929-4.432 9.929-9.886a9.818 9.818 0 00-2.905-6.994 9.875 9.875 0 00-7.024-2.898c-5.478 0-9.935 4.433-9.935 9.887 0 1.865.521 3.685 1.518 5.26l.235.376-1.002 3.645 3.764-.987z" fill="#fff"/><path d="M9.063 6.914c-.223-.496-.458-.507-.67-.513-.172-.006-.373-.006-.573-.006a1.1 1.1 0 00-.796.371c-.276.297-1.043 1.016-1.043 2.482 0 1.46 1.071 2.875 1.22 3.075.149.2 2.068 3.297 5.1 4.49 2.52.992 3.036.792 3.58.74.55-.05 1.765-.718 2.017-1.414.246-.696.246-1.29.172-1.415-.075-.125-.275-.2-.573-.348-.298-.148-1.765-.867-2.04-.97-.275-.102-.476-.148-.67.149-.2.296-.774.964-.946 1.164-.172.2-.35.222-.647.074-.298-.149-1.26-.462-2.4-1.478-.889-.787-1.49-1.763-1.662-2.06-.172-.296-.017-.456.132-.604.131-.131.298-.348.447-.52.149-.17.2-.296.297-.495.098-.2.052-.371-.022-.52-.075-.148-.66-1.614-.923-2.202z" fill="#fff"/></svg>