<svg width="17" height="25" viewBox="0 0 17 25" fill="none" xmlns="http://www.w3.org/2000/svg"><path d="M9.36 6.88h3.77a3.2 3.2 0 002.46-1.11 3.48 3.48 0 001-2.38c0-2.26-1.246-3.39-3.74-3.39H5.46c-1.82 0-2.82.717-3 2.15l-1 7a4.82 4.82 0 00-.07.7c-.02 1.167.637 1.967 1.97 2.4l3.87.57c1.42.22 2.13.71 2.13 1.47s-.27 1.14-.81 1.14a3.83 3.83 0 01-1.75-.85 4.15 4.15 0 00-2.39-.85 3.5 3.5 0 00-3.5 3.49 4.23 4.23 0 00.3 1.48 5.89 5.89 0 003.07 3.22 10.15 10.15 0 004.05.95l-.77 1.15.07.12h2.54l-.81-1.28a7.1 7.1 0 005.23-2.67 9 9 0 002.19-6c.02-4.227-2.453-6.663-7.42-7.31z" fill="#A09DAB"/></svg>