<svg width="25" height="27" viewBox="0 0 25 27" fill="none" xmlns="http://www.w3.org/2000/svg"><path d="M22.91 11.96a5 5 0 00-1-.42 4.8 4.8 0 001.79-2.29 2.67 2.67 0 00-.44-2.71 3.071 3.071 0 00-.86-.7 4.14 4.14 0 00-3.63 0 4.74 4.74 0 00.09-2.22 3.15 3.15 0 00-1.56-2.14l-.19-.09a2.88 2.88 0 00-2.67.22 4.78 4.78 0 00-1.79 1.87 4.52 4.52 0 00-1.9-2.06A3.33 3.33 0 009.03 1a2.53 2.53 0 00-2.09 1.24 4.72 4.72 0 00-.48 3.37 4.64 4.64 0 00-3.5-.21 2.54 2.54 0 00-1.54 1.63 3.92 3.92 0 001.64 4.13 4.6 4.6 0 00-1.64.8 3.52 3.52 0 00-1.39 2.37A2.67 2.67 0 001.58 17c.79.41 1.671.61 2.56.58a4.74 4.74 0 00-.86 2.26 3 3 0 00.88 2.56c.164.149.345.276.54.38a3.22 3.22 0 002.54.14 4.92 4.92 0 001.79-1.06 4.19 4.19 0 002 3.35c.31.167.65.272 1 .31l-.87 1.32.07.12h2.54l-.93-1.48a3 3 0 001.66-1 4.8 4.8 0 001.07-2.49c.334.337.714.623 1.13.85a3.28 3.28 0 003.7-.07 2.822 2.822 0 001-2.1 4.76 4.76 0 00-.77-2.76 4.81 4.81 0 002.66-.53 2.79 2.79 0 001.57-2.26 3.37 3.37 0 00-2-3.16h.05z" fill="#A09DAB"/></svg>