<svg width="24" height="26" viewBox="0 0 24 26" fill="none" xmlns="http://www.w3.org/2000/svg"><path d="M14.37.13c-2-.8-2.87 2.42-.89 3.21 5.44 2.18 7.39 7.94 6.43 13.36-.77 4.34-4.54 5.88-8.56 5.77-6-.16-9.06-4.91-7.51-10.6a5.15 5.15 0 015.75-3.86c3.68.59 3 5.4 1.32 7.37a1.71 1.71 0 00-.11 2.08l-1.63.44v.13l1.89 1.69.31-1.7a1.37 1.37 0 001.92-.28c2.52-3 3.62-7 .91-10.3a7.1 7.1 0 00-8.82-2.07c-6.86 3.15-7.12 14.58-.86 18.53 5.69 3.58 14.84 2.46 17.88-4 3.55-7.52-.48-16.78-8-19.79l-.03.02z" fill="#A09DAB"/></svg>