<svg width="23" height="25" viewBox="0 0 23 25" fill="none" xmlns="http://www.w3.org/2000/svg"><path d="M21.75 17.57L14.63 2.45A4.55 4.55 0 0013.13.7a3.61 3.61 0 00-2.12-.7 3.75 3.75 0 00-3.52 2.52l-7 14.91a4.56 4.56 0 00-.48 1.94 3.47 3.47 0 001.12 2.58 3.73 3.73 0 001.74 1l-.94 1.45.07.12h2.54l-.9-1.46h.11c1.753 0 3.04-1.033 3.86-3.1h6.94c.753 2.087 2.04 3.13 3.86 3.13a3.769 3.769 0 002.67-1.14 3.42 3.42 0 001.18-2.57 4.411 4.411 0 00-.51-1.81zm-11.9-3l1.19-2.62 1.2 2.66H9.88l-.03-.04z" fill="#A09DAB"/></svg>