<svg width="24" height="24" viewBox="0 0 24 24" fill="none" xmlns="http://www.w3.org/2000/svg"><g clip-path="url(#clip0)"><path fill="#fff" d="M0 0h24v24H0z"/><path d="M13.814 8.492c-.719 0-1.307-.243-1.764-.728-.448-.495-.672-1.153-.672-1.974s.224-1.475.672-1.96c.457-.495 1.045-.742 1.764-.742.719 0 1.302.247 1.75.742.448.485.672 1.139.672 1.96s-.224 1.48-.672 1.974c-.448.485-1.031.728-1.75.728zM19.652 3.2h1.666L14.626 13H12.96l6.692-9.8zm-5.838 4.144c.317 0 .565-.13.742-.392.187-.261.28-.649.28-1.162 0-.513-.093-.9-.28-1.162a.847.847 0 00-.742-.392c-.308 0-.555.135-.742.406-.187.261-.28.644-.28 1.148 0 .504.093.891.28 1.162a.87.87 0 00.742.392zm6.65 5.768c-.467 0-.887-.107-1.26-.322a2.29 2.29 0 01-.854-.952c-.205-.41-.308-.887-.308-1.428 0-.541.103-1.017.308-1.428.205-.41.49-.723.854-.938a2.401 2.401 0 011.26-.336c.719 0 1.302.247 1.75.742.457.485.686 1.139.686 1.96s-.229 1.48-.686 1.974c-.448.485-1.031.728-1.75.728zm0-1.148c.317 0 .565-.13.742-.392.187-.27.28-.658.28-1.162 0-.504-.093-.887-.28-1.148a.84.84 0 00-.742-.406.87.87 0 00-.742.392c-.187.261-.28.649-.28 1.162 0 .513.093.9.28 1.162a.87.87 0 00.742.392z" fill="#00A6FF"/><path d="M12.05 7.764l-.37.336.006.007.364-.343zm0-3.934l-.367-.34.367.34zm3.514 0l-.37.336.003.003.367-.339zm0 3.934l.367.34.004-.004-.371-.336zM19.652 3.2v-.5h-.264l-.149.218.413.282zm1.666 0l.413.282.534-.782h-.947v.5zM14.626 13v.5h.264l.149-.218-.413-.282zm-1.666 0l-.413-.282-.534.782h.947V13zm1.596-6.048l-.407-.29-.007.01.414.28zm0-2.324l-.414.28.007.01.407-.29zm-1.484.014l.407.29.005-.006-.412-.284zm0 2.31l-.412.284.005.007.407-.291zm6.132 5.838l-.262.426.006.004.007.003.249-.433zm-.854-.952l.447-.224-.447.224zm0-2.856l.447.224-.447-.224zm.854-.938l.254.43.003-.001-.257-.429zm3.01.406l-.37.336.006.007.364-.343zm0 3.934l-.367-.34.367.34zm-1.008-.812l-.412-.284-.002.003.414.281zm0-2.31l-.418.274.005.008.006.009.407-.291zm-1.484-.014l.407.29-.407-.29zm-5.908-1.256c-.593 0-1.045-.194-1.4-.57l-.728.685c.56.594 1.284.885 2.128.885v-1zm-1.393-.564c-.347-.382-.543-.91-.543-1.638h-1c0 .915.252 1.703.801 2.31l.742-.672zm-.543-1.638c0-.728.196-1.249.54-1.62l-.735-.68c-.553.6-.805 1.385-.805 2.3h1zm.54-1.62c.355-.385.806-.582 1.396-.582v-1c-.848 0-1.572.298-2.131.903l.734.678zm1.396-.582c.59 0 1.034.196 1.38.578l.74-.672c-.55-.608-1.272-.906-2.12-.906v1zm1.383.581c.343.372.539.893.539 1.621h1c0-.915-.252-1.7-.805-2.3l-.734.68zm.539 1.621c0 .727-.196 1.256-.543 1.638l.742.672c.549-.607.801-1.395.801-2.31h-1zm-.54 1.635c-.344.373-.79.567-1.382.567v1c.845 0 1.566-.291 2.117-.889l-.734-.678zM19.653 3.7h1.666v-1h-1.666v1zm1.253-.782l-6.692 9.8.826.564 6.692-9.8-.826-.564zm-6.28 9.582H12.96v1h1.666v-1zm-1.253.782l6.692-9.8-.826-.564-6.692 9.8.826.564zm.441-5.438c.482 0 .885-.212 1.156-.611l-.828-.562a.351.351 0 01-.328.173v1zm1.149-.601c.274-.384.373-.893.373-1.453h-1c0 .467-.087.732-.187.871l.814.582zm.373-1.453c0-.56-.1-1.07-.373-1.453l-.814.582c.1.139.187.404.187.871h1zm-.366-1.443a1.347 1.347 0 00-1.156-.611v1a.35.35 0 01.328.173l.828-.562zm-1.156-.611c-.485 0-.881.227-1.154.622l.824.568c.1-.146.2-.19.33-.19v-1zm-1.149.615c-.273.382-.373.886-.373 1.439h1c0-.455.086-.717.187-.857l-.814-.582zm-.373 1.439c0 .555.101 1.058.368 1.446l.824-.568c-.106-.153-.192-.425-.192-.878h-1zm.373 1.453c.276.386.671.601 1.149.601v-1c-.139 0-.238-.046-.335-.183l-.814.582zm7.799 5.369a1.98 1.98 0 01-1.01-.255l-.5.867c.456.261.963.388 1.51.388v-1zm-.998-.248a1.792 1.792 0 01-.669-.75l-.894.448a2.8 2.8 0 001.039 1.154l.524-.852zm-.669-.75c-.165-.33-.255-.727-.255-1.204h-1c0 .605.115 1.16.36 1.652l.895-.448zm-.255-1.204c0-.478.09-.875.255-1.204l-.894-.448c-.246.492-.361 1.047-.361 1.652h1zm.255-1.204a1.69 1.69 0 01.661-.731l-.508-.862a2.696 2.696 0 00-1.047 1.145l.894.448zm.664-.733c.29-.174.62-.265 1.003-.265v-1a2.9 2.9 0 00-1.517.407l.514.858zm1.003-.265c.59 0 1.034.196 1.38.578l.74-.672c-.55-.608-1.272-.906-2.12-.906v1zm1.386.585c.35.372.55.892.55 1.617h1c0-.918-.258-1.704-.822-2.303l-.728.686zm.55 1.617c0 .724-.2 1.252-.553 1.635l.734.678c.56-.606.819-1.395.819-2.313h-1zm-.553 1.635c-.345.373-.79.567-1.383.567v1c.845 0 1.566-.291 2.117-.889l-.734-.678zm-1.383.419c.482 0 .885-.212 1.156-.611l-.828-.562a.351.351 0 01-.328.173v1zm1.154-.608c.267-.388.368-.891.368-1.446h-1c0 .453-.086.725-.192.878l.824.568zm.368-1.446c0-.553-.1-1.057-.373-1.439l-.814.582c.1.14.187.402.187.857h1zm-.362-1.422a1.338 1.338 0 00-1.16-.632v1c.145 0 .237.047.324.18l.836-.548zm-1.16-.632a1.37 1.37 0 00-1.149.601l.814.582c.097-.137.197-.183.335-.183v-1zm-1.149.601c-.274.384-.373.893-.373 1.453h1c0-.467.087-.732.187-.871l-.814-.582zm-.373 1.453c0 .56.1 1.07.373 1.453l.814-.582c-.1-.139-.187-.404-.187-.871h-1zm.373 1.453c.276.386.671.601 1.149.601v-1c-.138 0-.238-.046-.335-.183l-.814.582z" fill="#00A6FF"/><path d="M4.819 14.882c-.975 0-1.773-.33-2.394-.988-.608-.671-.912-1.564-.912-2.679 0-1.115.304-2.001.912-2.66.62-.671 1.419-1.007 2.394-1.007.975 0 1.767.336 2.375 1.007.608.659.912 1.545.912 2.66 0 1.115-.304 2.008-.912 2.679-.608.659-1.4.988-2.375.988zM12.742 7.7h2.261L5.921 21H3.66l9.082-13.3zm-7.923 5.624c.43 0 .766-.177 1.007-.532.253-.355.38-.88.38-1.577s-.127-1.222-.38-1.577a1.15 1.15 0 00-1.007-.532c-.418 0-.754.184-1.007.551-.253.355-.38.874-.38 1.558s.127 1.21.38 1.577c.253.355.589.532 1.007.532zm9.025 7.828a3.369 3.369 0 01-1.71-.437 3.11 3.11 0 01-1.159-1.292c-.279-.557-.418-1.203-.418-1.938 0-.735.14-1.38.418-1.938.279-.557.665-.982 1.159-1.273a3.26 3.26 0 011.71-.456c.975 0 1.767.336 2.375 1.007.62.659.931 1.545.931 2.66 0 1.115-.31 2.008-.931 2.679-.608.659-1.4.988-2.375.988zm0-1.558c.43 0 .766-.177 1.007-.532.253-.367.38-.893.38-1.577 0-.684-.127-1.203-.38-1.558-.24-.367-.576-.551-1.007-.551-.418 0-.754.177-1.007.532-.253.355-.38.88-.38 1.577s.127 1.222.38 1.577.589.532 1.007.532z" fill="#FF3645"/><path d="M2.425 13.894l-1.112 1.007.01.01.01.012 1.092-1.029zm0-5.339L1.324 7.537h-.001l1.102 1.018zm4.769 0L6.082 9.562l.005.005.005.005 1.102-1.017zm0 5.339l1.102 1.017.005-.005.005-.005-1.112-1.007zM12.742 7.7V6.2h-.792l-.447.654 1.239.846zm2.261 0l1.239.846L17.844 6.2h-2.841v1.5zM5.921 21v1.5h.792l.447-.654L5.92 21zM3.66 21l-1.239-.846L.82 22.5h2.84V21zm2.166-8.208l-1.22-.872-.011.015-.01.015 1.241.842zm0-3.154l-1.241.842.01.015.01.015 1.221-.872zm-2.014.019l1.22.872.008-.01.007-.01-1.235-.852zm0 3.135l-1.235.852.007.01.007.01 1.221-.872zm8.322 7.923l-.786 1.277.019.012.02.011.747-1.3zm-1.159-1.292l1.342-.67-1.342.67zm0-3.876l1.342.67-1.342-.67zm1.159-1.273l.762 1.292.01-.006-.772-1.286zm4.085.551l-1.112 1.007.01.01.01.012 1.092-1.029zm0 5.339l-1.101-1.018h-.001l1.102 1.018zm-1.368-1.102l-1.235-.852-.006.01 1.241.842zm0-3.135l-1.255.822.017.025.017.025 1.221-.872zm-2.014-.019l1.22.872-1.22-.872zm-8.018-2.526c-.598 0-.989-.184-1.302-.517l-2.184 2.058c.928.984 2.133 1.459 3.486 1.459v-3zm-1.282-.495c-.304-.335-.524-.84-.524-1.672h-3c0 1.397.388 2.679 1.3 3.686l2.224-2.014zm-.524-1.672c0-.834.22-1.324.514-1.643L1.323 7.538C.4 8.537.013 9.819.013 11.215h3zm.513-1.642c.317-.342.705-.525 1.293-.525v-3c-1.362 0-2.57.488-3.495 1.489l2.202 2.036zm1.293-.525c.588 0 .963.183 1.263.514l2.224-2.014c-.916-1.011-2.125-1.5-3.487-1.5v3zm1.273.524c.294.319.514.81.514 1.643h3c0-1.396-.388-2.678-1.31-3.677L6.092 9.572zm.514 1.643c0 .832-.22 1.337-.524 1.672l2.224 2.014c.912-1.007 1.3-2.289 1.3-3.686h-3zm-.514 1.662c-.297.322-.675.505-1.273.505v3c1.353 0 2.558-.475 3.477-1.47l-2.204-2.035zm6.65-3.677h2.261v-3h-2.261v3zm1.022-2.346l-9.082 13.3 2.478 1.692 9.082-13.3-2.478-1.692zM5.921 19.5H3.66v3h2.261v-3zm-1.022 2.346l9.082-13.3-2.478-1.692-9.082 13.3L4.9 21.846zm-.08-7.022c.925 0 1.727-.421 2.248-1.19L4.585 11.95s.032-.045.108-.085c.076-.04.13-.041.126-.041v3zm2.228-1.16c.514-.72.659-1.612.659-2.449h-3c0 .262-.024.445-.053.565-.029.12-.056.152-.048.14l2.442 1.744zm.659-2.449c0-.837-.145-1.728-.66-2.449l-2.44 1.744c-.01-.012.018.02.047.14.029.12.053.303.053.565h3zm-.639-2.42A2.648 2.648 0 004.82 7.607v3c.004 0-.05 0-.126-.04s-.109-.087-.108-.086l2.482-1.684zM4.82 7.607c-.95 0-1.73.458-2.242 1.2l2.47 1.703c.016-.023-.004.013-.073.05a.403.403 0 01-.155.047v-3zm-2.228 1.18c-.512.716-.659 1.598-.659 2.429h3c0-.254.024-.43.052-.547.028-.115.055-.148.049-.14L2.59 8.786zm-.659 2.429c0 .837.15 1.71.645 2.429l2.47-1.704c-.011-.016-.115-.194-.115-.725h-3zm.66 2.449c.52.729 1.3 1.16 2.227 1.16v-3a.33.33 0 01.135.04c.067.036.09.072.079.056L2.59 13.664zm11.252 5.988c-.394 0-.702-.088-.962-.237l-1.496 2.6a4.867 4.867 0 002.458.637v-3zm-.924-.215a1.613 1.613 0 01-.603-.685l-2.684 1.342a4.607 4.607 0 001.715 1.898l1.572-2.555zm-.603-.685c-.158-.315-.26-.724-.26-1.267h-3c0 .926.176 1.809.576 2.609l2.684-1.342zm-.26-1.267c0-.543.102-.952.26-1.267l-2.684-1.342c-.4.8-.576 1.683-.576 2.609h3zm.26-1.267c.16-.322.356-.52.579-.652l-1.524-2.584c-.765.45-1.342 1.102-1.739 1.894l2.684 1.342zm.589-.658c.256-.154.556-.242.938-.242v-3a4.76 4.76 0 00-2.482.67l1.544 2.572zm.938-.242c.588 0 .963.183 1.263.514l2.224-2.014c-.916-1.011-2.125-1.5-3.487-1.5v3zm1.283.536c.301.319.523.806.523 1.631h3c0-1.404-.399-2.69-1.34-3.689l-2.183 2.058zm.523 1.631c0 .824-.222 1.325-.532 1.66l2.202 2.037c.93-1.006 1.33-2.292 1.33-3.697h-3zm-.533 1.662c-.298.322-.675.505-1.273.505v3c1.353 0 2.559-.475 3.477-1.47l-2.204-2.035zm-1.273 1.947c.925 0 1.727-.421 2.248-1.19L13.61 18.22s.032-.045.108-.085c.076-.04.13-.041.126-.041v3zm2.242-1.18c.495-.719.645-1.592.645-2.429h-3c0 .531-.104.71-.115.725l2.47 1.704zm.645-2.429c0-.831-.148-1.713-.66-2.43l-2.44 1.744c-.007-.01.02.024.048.139.028.116.052.293.052.547h3zm-.625-2.38c-.512-.78-1.314-1.229-2.262-1.229v3s-.016 0-.044-.007a.415.415 0 01-.101-.04c-.079-.042-.108-.088-.103-.08l2.51-1.644zm-2.262-1.229c-.926 0-1.707.431-2.228 1.16l2.442 1.744c.01-.016-.011.02-.079.055a.327.327 0 01-.135.041v-3zm-2.228 1.16c-.514.72-.659 1.612-.659 2.449h3c0-.262.024-.445.053-.565.029-.12.056-.152.048-.14l-2.442-1.744zm-.659 2.449c0 .837.145 1.729.66 2.449l2.44-1.744c.01.012-.018-.02-.047-.14a2.473 2.473 0 01-.053-.565h-3zm.66 2.449c.52.729 1.3 1.16 2.227 1.16v-3a.33.33 0 01.135.04c.068.036.09.072.079.056l-2.442 1.744z" fill="#fff"/><path d="M4.819 14.882c-.975 0-1.773-.33-2.394-.988-.608-.671-.912-1.564-.912-2.679 0-1.115.304-2.001.912-2.66.62-.671 1.419-1.007 2.394-1.007.975 0 1.767.336 2.375 1.007.608.659.912 1.545.912 2.66 0 1.115-.304 2.008-.912 2.679-.608.659-1.4.988-2.375.988zM12.742 7.7h2.261L5.921 21H3.66l9.082-13.3zm-7.923 5.624c.43 0 .766-.177 1.007-.532.253-.355.38-.88.38-1.577s-.127-1.222-.38-1.577a1.15 1.15 0 00-1.007-.532c-.418 0-.754.184-1.007.551-.253.355-.38.874-.38 1.558s.127 1.21.38 1.577c.253.355.589.532 1.007.532zm9.025 7.828a3.369 3.369 0 01-1.71-.437 3.11 3.11 0 01-1.159-1.292c-.279-.557-.418-1.203-.418-1.938 0-.735.14-1.38.418-1.938.279-.557.665-.982 1.159-1.273a3.26 3.26 0 011.71-.456c.975 0 1.767.336 2.375 1.007.62.659.931 1.545.931 2.66 0 1.115-.31 2.008-.931 2.679-.608.659-1.4.988-2.375.988zm0-1.558c.43 0 .766-.177 1.007-.532.253-.367.38-.893.38-1.577 0-.684-.127-1.203-.38-1.558-.24-.367-.576-.551-1.007-.551-.418 0-.754.177-1.007.532-.253.355-.38.88-.38 1.577s.127 1.222.38 1.577.589.532 1.007.532z" fill="#FF3645"/><path d="M2.425 13.894l-.37.336.006.007.364-.343zm0-5.339l-.367-.34.367.34zm4.769 0l-.37.336.003.003.367-.339zm0 5.339l.367.34.004-.004-.371-.336zM12.742 7.7v-.5h-.264l-.149.218.413.282zm2.261 0l.413.282.534-.782h-.947v.5zM5.921 21v.5h.264l.149-.218L5.92 21zM3.66 21l-.413-.282-.534.782h.947V21zm2.166-8.208l-.407-.29-.007.01.414.28zm0-3.154l-.414.28.007.01.407-.29zm-2.014.019l.407.29.005-.006-.412-.284zm0 3.135l-.412.284.005.007.407-.291zm8.322 7.923l-.262.426.006.004.007.003.249-.433zm-1.159-1.292l.447-.224-.447.224zm0-3.876l.447.224-.447-.224zm1.159-1.273l.254.43.003-.001-.257-.429zm4.085.551l-.37.336.006.007.364-.343zm0 5.339l-.367-.34.367.34zm-1.368-1.102l-.412-.284-.002.003.414.281zm0-3.135l-.418.274.005.008.006.009.407-.291zm-2.014-.019l.407.29-.407-.29zm-8.018-1.526c-.85 0-1.512-.28-2.03-.83l-.728.685c.723.767 1.657 1.145 2.758 1.145v-1zm-2.023-.824c-.507-.559-.783-1.322-.783-2.343h-1c0 1.209.332 2.231 1.041 3.015l.742-.672zm-.783-2.343c0-1.021.276-1.776.78-2.32l-.735-.68c-.713.773-1.045 1.792-1.045 3h1zm.78-2.32c.518-.562 1.18-.847 2.026-.847v-1c-1.104 0-2.039.386-2.761 1.168l.734.678zm2.026-.847c.846 0 1.5.285 2.004.843l.742-.672c-.711-.784-1.642-1.171-2.746-1.171v1zm2.008.846c.503.545.779 1.3.779 2.321h1c0-1.208-.332-2.227-1.045-3l-.734.68zm.779 2.321c0 1.02-.276 1.784-.783 2.343l.742.672c.709-.784 1.041-1.806 1.041-3.015h-1zm-.78 2.34c-.504.546-1.157.827-2.007.827v1c1.101 0 2.03-.378 2.742-1.149l-.734-.678zM12.743 8.2h2.261v-1h-2.261v1zm1.848-.782l-9.082 13.3.826.564 9.082-13.3-.826-.564zM5.921 20.5H3.66v1h2.261v-1zm-1.848.782l9.082-13.3-.826-.564-9.082 13.3.826.564zm.746-7.458c.595 0 1.086-.259 1.42-.751l-.827-.562a.653.653 0 01-.593.313v1zm1.414-.741c.34-.477.473-1.125.473-1.868h-1c0 .65-.12 1.054-.287 1.286l.814.582zm.473-1.868c0-.743-.133-1.391-.473-1.868l-.814.582c.166.232.287.636.287 1.286h1zM6.24 9.357a1.649 1.649 0 00-1.421-.751v1c.266 0 .446.096.593.313l.828-.562zm-1.421-.751c-.595 0-1.08.275-1.419.767l.824.568c.167-.243.354-.335.595-.335v-1zm-1.414.76c-.34.476-.473 1.116-.473 1.849h1c0-.635.12-1.033.287-1.267l-.814-.582zm-.473 1.849c0 .735.134 1.376.468 1.86l.824-.567c-.173-.25-.292-.66-.292-1.293h-1zm.473 1.868c.343.48.827.741 1.414.741v-1c-.249 0-.436-.093-.6-.323l-.814.582zm10.439 7.569a2.868 2.868 0 01-1.46-.37l-.5.866a3.868 3.868 0 001.96.504v-1zm-1.448-.363a2.61 2.61 0 01-.974-1.09l-.894.448a3.608 3.608 0 001.344 1.494l.524-.852zm-.974-1.09c-.238-.476-.365-1.043-.365-1.714h-1c0 .799.152 1.524.47 2.162l.895-.448zm-.365-1.714c0-.67.127-1.238.365-1.714l-.894-.448c-.32.638-.471 1.363-.471 2.162h1zm.365-1.714c.24-.48.562-.828.966-1.066l-.508-.862c-.584.345-1.034.845-1.352 1.48l.894.448zm.97-1.068a2.76 2.76 0 011.452-.385v-1c-.717 0-1.377.173-1.967.527l.514.858zm1.452-.385c.846 0 1.5.285 2.004.843l.742-.672c-.711-.784-1.642-1.171-2.746-1.171v1zm2.011.85c.514.545.795 1.299.795 2.317h1c0-1.211-.34-2.231-1.067-3.003l-.728.686zm.795 2.317c0 1.018-.28 1.78-.798 2.34l.734.678c.724-.783 1.064-1.806 1.064-3.018h-1zm-.798 2.34c-.505.546-1.159.827-2.008.827v1c1.101 0 2.03-.378 2.742-1.149l-.734-.678zm-2.008.269c.595 0 1.087-.259 1.42-.751l-.827-.562a.653.653 0 01-.593.313v1zm1.419-.748c.334-.485.468-1.126.468-1.861h-1c0 .633-.119 1.043-.292 1.293l.824.568zm.468-1.861c0-.733-.134-1.373-.473-1.849l-.814.582c.167.234.287.632.287 1.267h1zm-.462-1.832c-.33-.505-.822-.777-1.425-.777v1c.258 0 .438.095.589.325l.836-.548zm-1.425-.777c-.587 0-1.071.262-1.414.741l.814.582c.164-.23.351-.323.6-.323v-1zm-1.414.741c-.34.477-.473 1.125-.473 1.868h1c0-.65.12-1.054.287-1.286l-.814-.582zm-.473 1.868c0 .743.133 1.391.473 1.868l.814-.582c-.166-.232-.287-.636-.287-1.286h-1zm.473 1.868c.343.48.827.741 1.414.741v-1c-.248 0-.436-.093-.6-.323l-.814.582z" fill="#FF3645"/></g><defs><clipPath id="clip0"><path fill="#fff" d="M0 0h24v24H0z"/></clipPath></defs></svg>