<svg width="24" height="24" viewBox="0 0 24 24" fill="none" xmlns="http://www.w3.org/2000/svg"><path fill="#fff" d="M0 0h24v24H0z"/><g clip-path="url(#clip0)"><path d="M18.368 12.887a.374.374 0 00.316.182.34.34 0 00.154-.036l2.902-1.388a.395.395 0 00.202-.237.412.412 0 00-.04-.325l-.51-.85a.368.368 0 00-.264-.178.361.361 0 00-.297.092l-2.413 2.2a.406.406 0 00-.07.502l.02.038zm3.514 3.862l-3.047-1.458a.29.29 0 00-.374.115l-.097.162a.314.314 0 00.054.392l2.535 2.309a.292.292 0 00.194.075c.015 0 .027 0 .042-.003a.295.295 0 00.21-.14l.61-1.016a.309.309 0 00-.127-.436zm.388-3.222a.38.38 0 00-.138-.29.344.344 0 00-.286-.071l-3.207.643a.389.389 0 00-.31.365v.06c0 .193.166.357.35.37l3.207.262.032.001a.358.358 0 00.241-.095.378.378 0 00.12-.282l-.009-.963z" fill="#FF3645"/><path d="M17.674 14.853c-.126-.182-.525-.043-1.468-.01-.438.014-.661-.319-.661-.319s.481-.187 1.437-.57c.45-.18.739-.36.809-.749a.578.578 0 00-.05-.34c-.06-.174-.133-.213-.159-.34a.422.422 0 01.107-.4c.167-.163.546-.287.612-.866.12-1.047-1.856-1.168-1.63-2.837.013-.088.01-.022.186-1.166.02-.122.034-.223.044-.291 0 0 .006-.126-.016-.256-.142-.858-1.05-2.413-1.05-2.413-.427-.726-.456-.785-.483-.828a.108.108 0 00-.01-.016l-.029-.034c.196-.159.428-.403.419-.63-.011-.26-.4-.492-.63-.596-.69-.307-7.812-3.45-11.6.636C1.601 4.875 1.328 6.767 1.2 7.606c-.996 6.465 4.722 9.222 5.277 11.505.05.21.09.65.09 1.026 0 1.756-.209 2.863-.209 2.863l6.947.047s-.124-3.747.223-4.015c.22-.17 2.154-.31 2.354-.337.327-.045.934-.225 1.186-.496.938-1.014-.054-1.718.273-2.24.021-.033.115-.134.21-.3.043-.073.081-.14.113-.231.024-.07.151-.372.011-.575z" fill="#00A6FF"/></g><defs><clipPath id="clip0"><path fill="#fff" d="M0 0h23v23H0z"/></clipPath></defs></svg>