<svg width="24" height="24" viewBox="0 0 24 24" fill="none" xmlns="http://www.w3.org/2000/svg"><path fill="#fff" d="M0 0h24v24H0z"/><g clip-path="url(#clip0)"><path d="M23.59 7.737l-2.968-5.143A1.188 1.188 0 0019 2.16l-3.837 2.215H11.37c-.445 0-.88.126-1.258.36l-1.243.776a1.18 1.18 0 00-.556 1.005v4.687a1.484 1.484 0 102.968 0V7.938h6.828a2.08 2.08 0 012.078 2.078v1.057l2.97-1.714c.567-.33.76-1.054.433-1.622z" fill="#FF3645"/><path d="M18.11 9.125h-5.641v2.078a2.675 2.675 0 01-2.672 2.672 2.675 2.675 0 01-2.672-2.672V6.691L4.717 8.138a2.37 2.37 0 00-1.155 2.034v1.755L.594 13.64a1.185 1.185 0 00-.434 1.622l2.968 5.143a1.188 1.188 0 001.622.434l3.837-2.215h5.07a2.377 2.377 0 002.374-2.375h.594c.657 0 1.188-.53 1.188-1.188v-2.374h.296a.89.89 0 00.891-.891v-1.781a.889.889 0 00-.89-.891z" fill="#00A6FF"/></g><defs><clipPath id="clip0"><path fill="#fff" transform="translate(0 2)" d="M0 0h23.75v19H0z"/></clipPath></defs></svg>