<svg width="57" height="62" viewBox="0 0 57 62" fill="none" xmlns="http://www.w3.org/2000/svg"><path d="M0 0h38.4v54H0V0z" fill="#F6F6F6"/><path d="M0 0h38.4v4.8H0V0zm9 12.6h20.4V15H9v-2.4zm3.6 6.6h13.2v2.4H12.6v-2.4zm0 6h13.2v2.4H12.6v-2.4zm0 6h13.2v2.4H12.6v-2.4zm0 6h13.2v2.4H12.6v-2.4zm0 6h13.2v2.4H12.6v-2.4zm14.4-24h8.4v2.4H27v-2.4zm0 6h8.4v2.4H27v-2.4zm0 6h8.4v2.4H27v-2.4zm0 6h8.4v2.4H27v-2.4zm0 6h8.4v2.4H27v-2.4zm-24-24h2.4v2.4H3v-2.4zm0 6h2.4v2.4H3v-2.4zm0 6h2.4v2.4H3v-2.4zm0 6h2.4v2.4H3v-2.4zm0 6h2.4v2.4H3v-2.4zm3.6-24h4.8v2.4H6.6v-2.4zm0 6h4.8v2.4H6.6v-2.4zm0 6h4.8v2.4H6.6v-2.4zm0 6h4.8v2.4H6.6v-2.4zm0 6h4.8v2.4H6.6v-2.4z" fill="#FF3645"/><circle cx="41.4" cy="46.8" r="14.2" fill="#FF3645" stroke="#fff" stroke-width="2"/><path d="M34.764 47.577V49.8h-1.17v-2.205L31.12 43.5h1.251l1.845 3.069 1.863-3.069h1.152l-2.466 4.077zm8.931 2.223l-.009-4.176-2.07 3.456h-.522l-2.07-3.402V49.8h-1.116v-6.3h.963l2.502 4.176L43.83 43.5h.963l.01 6.3h-1.108zm2.809-6.3h1.17v5.31h3.294v.99h-4.464v-6.3z" fill="#fff"/></svg>