<svg width="56" height="62" viewBox="0 0 56 62" fill="none" xmlns="http://www.w3.org/2000/svg"><path d="M0 12.388L12.371 0H43.3v55.67H0V12.388z" fill="#F6F6F6"/><path d="M14.845 16.701H34.64v2.474H14.845v-2.474zm0 6.186H34.64v2.474H14.845v-2.474zm0 6.185H34.64v2.474H14.845v-2.474zm0 6.186H34.64v2.474H14.845v-2.474zm0 6.185H34.64v2.474H14.845v-2.474zM8.66 16.701h4.948v2.474H8.66v-2.474zm0 6.186h4.948v2.474H8.66v-2.474zm0 6.185h4.948v2.474H8.66v-2.474zm0 6.186h4.948v2.474H8.66v-2.474zm0 6.185h4.948v2.474H8.66v-2.474z" fill="#4CD596"/><circle cx="39.588" cy="46.392" r="14.608" fill="#4CD596" stroke="#fff" stroke-width="2"/><path d="M35.273 50.103l-1.763-2.468-1.744 2.468h-1.373l2.412-3.312-2.283-3.183h1.364l1.661 2.31 1.642-2.31h1.309l-2.274 3.137 2.44 3.358h-1.391zm2.124-6.495h1.206v5.475H42v1.02h-4.602v-6.495zm7.523 6.588a5 5 0 01-1.457-.213c-.464-.143-.832-.331-1.105-.566l.418-.938c.266.21.59.384.974.52.39.13.78.195 1.17.195.482 0 .84-.077 1.076-.232.24-.155.361-.359.361-.612a.573.573 0 00-.204-.455 1.32 1.32 0 00-.5-.288 11.295 11.295 0 00-.836-.232 10.002 10.002 0 01-1.206-.352 2.042 2.042 0 01-.789-.548c-.216-.253-.324-.593-.324-1.02 0-.359.096-.684.287-.974.198-.297.492-.532.882-.706.396-.173.878-.26 1.447-.26.396 0 .786.05 1.17.149.383.099.714.241.992.427l-.38.937a3.752 3.752 0 00-.891-.38c-.31-.087-.61-.13-.9-.13-.476 0-.832.08-1.067.24a.747.747 0 00-.343.641c0 .186.065.337.194.455.136.117.307.21.51.278.205.068.483.146.836.232.482.111.878.229 1.187.353.31.117.573.3.79.547.222.247.333.581.333 1.002 0 .359-.099.684-.297.974-.192.291-.485.523-.881.696-.396.173-.879.26-1.448.26z" fill="#fff"/><path d="M0 12.371L12.371 0v12.371H0z" fill="#4CD596"/></svg>