<svg width="52" height="55" viewBox="0 0 52 55" fill="none" xmlns="http://www.w3.org/2000/svg"><path d="M0 14.286L14.286 0h28.571v50H0V14.286z" fill="#F6F6F6"/><path d="M17.143 19.286h18.571v2.857H17.143v-2.857zm0 7.143h18.571v2.857H17.143v-2.857zm0 7.142h18.571v2.858H17.143V33.57zM10 19.286h5.714v2.857H10v-2.857zm0 7.143h5.714v2.857H10v-2.857zm0 7.142h5.714v2.858H10V33.57z" fill="#4CD596"/><circle cx="41.429" cy="44.286" r="9.571" fill="#4CD596" stroke="#fff" stroke-width="2"/><path d="M40.134 39.571h1.903l-.322 6.018h-1.273l-.308-6.018zm.951 9.09c-.3 0-.548-.094-.745-.282a.98.98 0 01-.296-.72c0-.283.098-.519.296-.708.197-.188.445-.282.745-.282.292 0 .532.094.72.282a.938.938 0 01.296.708.98.98 0 01-.296.72.976.976 0 01-.72.282z" fill="#fff"/><path d="M0 14.286L14.286 0v14.286H0z" fill="#4CD596"/></svg>