<svg width="50" height="45" viewBox="0 0 50 45" fill="none" xmlns="http://www.w3.org/2000/svg"><path d="M0 14.305V0h50v35.714H0v-21.41z" fill="#F6F6F6"/><path d="M2.857 14.873V2.857h44.286v30H2.857V14.873z" fill="#F6F6F6"/><path d="M0 1.713v1.144h50V0H0v1.713zm10 7.573h30.714v2.857H10V9.286zm0 7.143h30.714v2.857H10v-2.857zm0 7.142h22.857v2.858H10V23.57z" fill="#4CD596"/><path d="M35 31.857h-1V41.97a1.5 1.5 0 002.277 1.283l2.651-1.607 2.652 1.607a1.5 1.5 0 002.277-1.283V31.857H35z" fill="#4CD596" stroke="#fff" stroke-width="2"/><circle cx="38.929" cy="28.928" r="7.071" fill="#4CD596" stroke="#F6F6F6" stroke-width="2"/></svg>