<svg width="54" height="60" viewBox="0 0 54 60" fill="none" xmlns="http://www.w3.org/2000/svg"><path fill="#fff" stroke="#00A6FF" stroke-width="4" d="M2.317 26.27l40.84-7.201 5.539 31.412-40.84 7.201z"/><circle cx="20.447" cy="32.325" r="5.983" transform="rotate(-10 20.447 32.325)" fill="#FFF48E"/><path d="M14.698 47.655a5 5 0 017.051-1.243l9.404 6.764-22.978 4.051 6.523-9.572z" fill="#00A6FF"/><path d="M29.162 42.4a5 5 0 017.248-1.278l11.83 9.04-27.103 4.78L29.162 42.4z" fill="#83D4FF"/><path fill="#fff" stroke="#00A6FF" stroke-width="4" d="M10.376 2h41.47v31.897h-41.47z"/><circle cx="27.179" cy="11.111" r="5.983" fill="#FFF48E"/><path d="M18.856 25.21a5 5 0 017.16 0l8.087 8.294H10.77l8.086-8.294z" fill="#00A6FF"/><path d="M34.013 22.547a5 5 0 017.36 0l10.08 10.957H23.932l10.08-10.957z" fill="#83D4FF"/></svg>