<svg width="57" height="62" viewBox="0 0 57 62" fill="none" xmlns="http://www.w3.org/2000/svg"><path d="M0 0h38.4v54H0V0z" fill="#F6F6F6"/><path d="M0 0h38.4v4.8H0V0zm9 12.6h20.4V15H9v-2.4zm3.6 6.6h13.2v2.4H12.6v-2.4zm0 6h13.2v2.4H12.6v-2.4zm0 6h13.2v2.4H12.6v-2.4zm0 6h13.2v2.4H12.6v-2.4zm0 6h13.2v2.4H12.6v-2.4zm14.4-24h8.4v2.4H27v-2.4zm0 6h8.4v2.4H27v-2.4zm0 6h8.4v2.4H27v-2.4zm0 6h8.4v2.4H27v-2.4zm0 6h8.4v2.4H27v-2.4zm-24-24h2.4v2.4H3v-2.4zm0 6h2.4v2.4H3v-2.4zm0 6h2.4v2.4H3v-2.4zm0 6h2.4v2.4H3v-2.4zm0 6h2.4v2.4H3v-2.4zm3.6-24h4.8v2.4H6.6v-2.4zm0 6h4.8v2.4H6.6v-2.4zm0 6h4.8v2.4H6.6v-2.4zm0 6h4.8v2.4H6.6v-2.4zm0 6h4.8v2.4H6.6v-2.4z" fill="#4CD596"/><circle cx="41.4" cy="46.8" r="14.2" fill="#4CD596" stroke="#fff" stroke-width="2"/><path d="M37.215 50.4l-1.71-2.394-1.692 2.394H32.48l2.34-3.213-2.214-3.087h1.323l1.61 2.241 1.594-2.24h1.269l-2.205 3.041 2.367 3.258h-1.35zm2.06-6.3h1.17v5.31h3.294v.99h-4.464v-6.3zm7.297 6.39c-.486 0-.957-.069-1.413-.207-.45-.138-.807-.32-1.071-.549l.405-.909c.258.204.573.372.945.504.378.126.756.19 1.134.19.468 0 .816-.076 1.044-.226.234-.15.35-.348.35-.594a.556.556 0 00-.197-.44 1.279 1.279 0 00-.486-.28 10.935 10.935 0 00-.81-.225 9.706 9.706 0 01-1.17-.342 1.981 1.981 0 01-.765-.53c-.21-.247-.315-.577-.315-.99 0-.349.093-.664.279-.946.192-.288.477-.516.855-.684.384-.168.852-.252 1.404-.252.384 0 .762.048 1.134.144.372.096.693.234.963.414l-.37.91a3.64 3.64 0 00-.863-.37 3.232 3.232 0 00-.873-.126c-.462 0-.807.078-1.035.234a.724.724 0 00-.333.621c0 .18.063.327.189.441.132.114.297.204.495.27.198.066.468.141.81.225.468.108.852.222 1.152.342.3.114.555.291.765.531.216.24.324.564.324.972 0 .348-.096.663-.288.945-.186.282-.471.507-.855.675-.384.168-.852.252-1.404.252z" fill="#fff"/></svg>