<svg width="24" height="24" viewBox="0 0 24 24" fill="none" xmlns="http://www.w3.org/2000/svg"><g clip-path="url(#clip0)"><path d="M0 0h24v24H0V0z" fill="#fff"/><mask id="path-2-outside-1" maskUnits="userSpaceOnUse" x="3.008" y="-.171" width="22.993" height="26.168" fill="#000"><path fill="#fff" d="M3.008-.171h22.993v26.168H3.008z"/><path fill-rule="evenodd" clip-rule="evenodd" d="M6.473 9.667c.824-4.37 5.157-7.982 9.928-7.081 4.77.9 7.49 5.846 6.667 10.216l-.157.832c-.81 4.299-5.016 7.864-9.693 7.122l.481 1.689-2.074-.392 1.065-1.4c-4.587-1.044-7.18-5.875-6.374-10.155l.157-.83z"/></mask><path fill-rule="evenodd" clip-rule="evenodd" d="M6.473 9.667c.824-4.37 5.157-7.982 9.928-7.081 4.77.9 7.49 5.846 6.667 10.216l-.157.832c-.81 4.299-5.016 7.864-9.693 7.122l.481 1.689-2.074-.392 1.065-1.4c-4.587-1.044-7.18-5.875-6.374-10.155l.157-.83z" fill="#00A6FF"/><path d="M16.4 2.586l.186-.983-.185.983zM6.474 9.667l.983.185-.983-.185zm16.595 3.135l.983.185-.983-.185zm-.157.832l.983.185-.983-.186zm-9.693 7.122l.157-.988-1.548-.246.43 1.508.96-.274zm.481 1.689l-.185.982 1.59.301-.443-1.557-.962.274zm-2.074-.392l-.795-.606-.98 1.288 1.59.3.185-.982zm1.065-1.4l.796.606.94-1.235-1.514-.345-.222.975zM6.316 10.499l-.982-.185.982.185zm10.27-8.895C11.193.584 6.4 4.653 5.49 9.482l1.966.37c.737-3.912 4.612-7.067 8.759-6.284l.371-1.965zm7.465 11.384c.91-4.828-2.072-10.365-7.465-11.384l-.371 1.965c4.146.784 6.607 5.137 5.87 9.049l1.966.37zm-.157.832l.157-.832-1.966-.37-.156.831 1.965.37zm-10.833 7.924c5.286.84 9.937-3.172 10.833-7.924l-1.965-.37c-.725 3.845-4.487 6.964-8.554 6.319l-.314 1.975zm-.805-.713l.482 1.689 1.923-.548-.481-1.69-1.924.549zm1.629.432l-2.074-.392-.371 1.965 2.074.392.37-1.965zM12.42 22.66l1.065-1.4-1.592-1.21-1.064 1.398 1.591 1.212zM5.334 10.313c-.892 4.732 1.95 10.135 7.134 11.316l.444-1.95c-3.99-.91-6.334-5.168-5.613-8.995l-1.965-.37zm.156-.831l-.156.831 1.965.37.157-.83-1.966-.371z" fill="#fff" mask="url(#path-2-outside-1)"/><mask id="path-4-outside-2" maskUnits="userSpaceOnUse" x="-2.176" y="3.696" width="18.23" height="20.585" fill="#000"><path fill="#fff" d="M-2.176 3.696h18.23v20.585h-18.23z"/><path fill-rule="evenodd" clip-rule="evenodd" d="M.31 13.976c-.65-3.328 1.398-7.114 5.031-7.826 3.632-.713 6.957 2.018 7.608 5.346l.124.633c.638 3.259-1.313 6.956-4.804 7.778l.819 1.06-1.58.31.358-1.29c-3.563.593-6.79-2.104-7.431-5.378l-.124-.633z"/></mask><path fill-rule="evenodd" clip-rule="evenodd" d="M.31 13.976c-.65-3.328 1.398-7.114 5.031-7.826 3.632-.713 6.957 2.018 7.608 5.346l.124.633c.638 3.259-1.313 6.956-4.804 7.778l.819 1.06-1.58.31.358-1.29c-3.563.593-6.79-2.104-7.431-5.378l-.124-.633z" fill="#FF3645"/><path d="M5.341 6.15l.193.98-.193-.98zm-5.03 7.826l.981-.192-.981.192zm12.638-2.48l-.981.192.981-.192zm.124.633l.982-.192-.982.192zM8.27 19.907l-.23-.974-1.51.356.948 1.229.792-.611zm.819 1.06l.192.982 1.588-.312-.989-1.28-.791.61zm-1.58.31l-.963-.267-.434 1.561 1.59-.312-.193-.981zm.358-1.29l.964.268.42-1.51L7.702 19l.163.987zM.435 14.61l-.982.192.982-.192zm4.714-9.44c-4.255.834-6.56 5.213-5.82 9l1.963-.385c-.562-2.87 1.23-6.062 4.242-6.653l-.385-1.963zm8.782 6.135c-.741-3.786-4.528-6.97-8.782-6.136l.385 1.963c3.01-.59 5.872 1.687 6.434 4.557l1.963-.384zm.124.633l-.124-.633-1.963.384.124.633 1.963-.384zM8.498 20.88c4.087-.962 6.283-5.233 5.557-8.943l-1.963.384c.55 2.808-1.157 5.93-4.052 6.612l.458 1.947zm-1.02-.362l.818 1.06 1.583-1.221-.818-1.061-1.584 1.222zm1.417-.532l-1.58.31.386 1.963 1.58-.31-.386-1.963zm-.423 1.56l.358-1.29-1.927-.536-.358 1.29 1.927.535zM-.547 14.8c.73 3.728 4.405 6.866 8.577 6.173L7.703 19c-2.955.49-5.735-1.763-6.287-4.584l-1.963.384zm-.124-.633l.124.633 1.963-.384-.124-.633-1.963.384z" fill="#fff" mask="url(#path-4-outside-2)"/></g><defs><clipPath id="clip0"><path d="M0 0h24v24H0V0z" fill="#fff"/></clipPath></defs></svg>