<svg width="24" height="24" viewBox="0 0 24 24" fill="none" xmlns="http://www.w3.org/2000/svg"><path d="M0 0h24v24H0V0z" fill="#fff"/><path d="M11.44 3.876C11.44 2.842 10.578 2 9.518 2s-1.92.842-1.92 1.876V7.53c0 .589-.494 1.07-1.097 1.07H3.973C2.885 8.6 2 9.463 2 10.524c0 .66.343 1.244.863 1.592-.52.348-.863.93-.863 1.59 0 .661.343 1.245.863 1.593A1.91 1.91 0 002 16.89c0 1.06.88 1.921 1.963 1.927-.3.338-.483.776-.483 1.256 0 1.063.886 1.927 1.976 1.927h10.83V8.6c-2.673 0-4.846-2.12-4.846-4.724z" fill="#FF3645"/><path fill="#00A6FF" d="M16 8.6h5V22h-5z"/></svg>