<svg width="24" height="24" viewBox="0 0 24 24" fill="none" xmlns="http://www.w3.org/2000/svg"><path d="M0 0h24v24H0V0z" fill="#fff"/><path d="M17.006 17.966h-2.012c-.135 0-.244.143-.244.319 0 .176.11.32.244.32h2.012c.135 0 .244-.144.244-.32 0-.176-.11-.32-.244-.32z" fill="#00A6FF" stroke="#00A6FF"/><rect x="2.77" y="6.615" width="18.462" height="15.385" rx="1" fill="#00A6FF"/><path d="M11.027 12H5.281c-.113 0-.204.114-.204.256v4.873c0 .141.091.256.204.256h5.747c.112 0 .203-.115.203-.256v-4.873c0-.142-.091-.256-.204-.256zm2.511 1a1 1 0 011-1h3.385a1 1 0 011 1v9h-5.385v-9z" fill="#fff"/><rect x="14.308" y="12.769" width="3.846" height="3.846" rx=".5" fill="#00A6FF"/><rect x="14.308" y="17.385" width="3.846" height=".769" rx=".385" fill="#00A6FF"/><path d="M2 2.705c0-.39.316-.705.705-.705h6.218v5A3.462 3.462 0 012 7V2.705zM8.923 2h6.154v5.385a3.077 3.077 0 01-6.154 0V2zm6.154 0h6.154a.77.77 0 01.77.77V7a3.462 3.462 0 01-6.924 0V2z" fill="#FF3645"/><rect x="3.875" y="4.356" width="16.25" height="1.25" rx=".625" fill="#fff"/></svg>