<svg width="19" height="18" viewBox="0 0 19 18" fill="none" xmlns="http://www.w3.org/2000/svg"><path d="M7.206 17a.756.756 0 00.749-.762.756.756 0 00-.75-.762.756.756 0 00-.748.762c0 .42.335.762.749.762zm8.234 0a.755.755 0 00.75-.762.755.755 0 00-.75-.762.755.755 0 00-.748.762c0 .42.335.762.749.762zM1.211 1h2.996l2.008 10.202c.068.35.256.666.53.89.274.224.616.343.968.337h7.28a1.49 1.49 0 00.968-.337c.274-.224.461-.54.53-.89l1.198-6.392H4.956" stroke-width="1.5" stroke-linecap="round" stroke-linejoin="round"/></svg>