<svg width="29" height="22" viewBox="0 0 29 22" fill="none" xmlns="http://www.w3.org/2000/svg"><mask id="path-1-outside-1" maskUnits="userSpaceOnUse" x="0" y="0" width="29" height="22" fill="#000"><path fill="#fff" d="M0 0h29v22H0z"/><path fill-rule="evenodd" clip-rule="evenodd" d="M18.402 2.94c-3.777-1.354-7.01-1.165-7.46.051a.777.777 0 00-.011.033L9.182 7.76c-3.267-.274-5.604.35-6.087 1.658-.78 2.111 3.307 5.918 9.862 8.27 6.556 2.351 12.168 2.023 12.948-.088.483-1.308-.9-3.266-3.581-5.126l1.76-4.767c.448-1.218-1.905-3.41-5.682-4.765z"/></mask><path d="M10.942 2.991l-1.876-.694V2.3l1.876.692zm7.46-.05l.675-1.883-.675 1.883zm-7.471.083l1.876.693a1.95 1.95 0 00.027-.078l-1.903-.615zM9.182 7.76l-.167 1.993a2 2 0 002.044-1.3L9.182 7.76zM3.095 9.417l1.876.693-1.876-.693zm9.862 8.27l.676-1.883-.675 1.882zm12.948-.088l-1.876-.694v.001l1.876.693zm-3.581-5.126l-1.877-.693a2 2 0 00.737 2.336l1.14-1.643zm1.76-4.767l1.876.692a2 2 0 00-1.154-2.558l-.722 1.866zm0 0l-1.877-.693a2 2 0 001.154 2.557l.722-1.865zm-11.266-4.02c-.165.445-.475.517-.319.455.132-.052.442-.128.97-.14 1.04-.023 2.547.209 4.258.822l1.35-3.765C17.011.318 15.012-.034 13.38.003c-.809.018-1.628.133-2.347.416-.694.273-1.576.824-1.967 1.878l3.752 1.389zm.016-.047l-.016.045-3.752-1.385a2.843 2.843 0 00-.038.11l3.806 1.23zm-1.775 4.813l1.748-4.735-3.753-1.385-1.748 4.734 3.753 1.386zM4.97 10.11c-.098.266-.194.043.646-.185.754-.204 1.904-.298 3.398-.173l.334-3.986c-1.772-.148-3.424-.068-4.777.298-1.266.343-2.772 1.086-3.353 2.66L4.97 10.11zm8.662 5.694c-3.101-1.112-5.531-2.54-7.048-3.854-.766-.662-1.221-1.229-1.443-1.637-.234-.428-.086-.432-.17-.203L1.218 8.724c-.475 1.285-.109 2.55.41 3.502.53.973 1.359 1.9 2.337 2.748 1.97 1.705 4.861 3.356 8.316 4.595l1.35-3.765zm10.396 1.102c.082-.223.182-.118-.288.067-.444.175-1.169.321-2.189.344-2.024.045-4.819-.401-7.92-1.513l-1.35 3.765c3.455 1.24 6.744 1.805 9.36 1.747 1.3-.03 2.534-.214 3.566-.621 1.007-.397 2.1-1.125 2.573-2.403l-3.752-1.386zm-2.845-2.79c1.225.85 2.04 1.648 2.48 2.275.488.698.263.79.365.514l3.752 1.388c.585-1.584-.09-3.125-.842-4.198-.802-1.144-2.02-2.255-3.475-3.265l-2.28 3.286zm1.024-7.103l-1.76 4.767 3.752 1.386 1.76-4.768-3.752-1.385zM23.36 9.57l1.445-3.73-1.445 3.73zm-5.634-4.747c1.711.614 3.014 1.39 3.791 2.064.396.342.579.592.642.707.073.135-.12-.13.047-.581l3.753 1.385c.391-1.06.072-2.056-.287-2.716-.37-.68-.927-1.292-1.536-1.82-1.231-1.065-2.994-2.063-5.06-2.804l-1.35 3.765z" fill="#423B57" mask="url(#path-1-outside-1)"/><path d="M9 8l.698-.716L8.627 6.24l-.555 1.388L9 8zm13 5l.928.371.558-1.394-1.502.023.016 1zm-1 2.5l.555.832a1 1 0 00.373-.46L21 15.5zm-13-5l-.928-.371-.1.248.038.264L8 10.5zm.302-1.784c2.122 2.066 3.994 3.44 6.158 4.266 2.159.823 4.52 1.065 7.556 1.018l-.032-2c-2.928.046-4.996-.195-6.811-.887-1.81-.69-3.454-1.862-5.475-3.83L8.302 8.717zm12.77 3.913l-1 2.5 1.857.742 1-2.5-1.857-.742zm-.627 2.039c-.468.312-1.346.486-2.595.39-1.208-.093-2.598-.426-3.934-.931-1.338-.505-2.57-1.164-3.48-1.875-.944-.74-1.377-1.408-1.446-1.893l-1.98.282c.18 1.265 1.123 2.347 2.194 3.185 1.107.867 2.53 1.615 4.005 2.172 1.477.558 3.055.944 4.488 1.054 1.392.107 2.826-.032 3.858-.72l-1.11-1.664zM8.928 10.87l1-2.5-1.856-.742-1 2.5 1.856.742z" fill="#423B57"/></svg>