<svg width="19" height="18" viewBox="0 0 19 18" xmlns="http://www.w3.org/2000/svg"><mask id="path-1-inside-1" fill="#fff"><path d="M19 6.5c0-5-6-7.2-9.5-4.2C6-.7 0 1.5 0 6.5c0 4.355 3.278 7.305 8.927 11.297a.993.993 0 001.146 0C15.723 13.805 19 10.855 19 6.5z"/></mask><path d="M9.5 2.3l-.911 1.063.911.78.911-.78L9.5 2.3zm.573 15.497l.808 1.143-.808-1.143zm-1.146 0L8.12 18.94l.808-1.143zm1.484-14.434c1.303-1.117 3.107-1.293 4.617-.67 1.48.612 2.572 1.943 2.572 3.807h2.8c0-3.136-1.909-5.405-4.303-6.394-2.365-.977-5.311-.752-7.508 1.13l1.822 2.127zM17.6 6.5c0 1.768-.646 3.283-2.008 4.874-1.402 1.635-3.503 3.284-6.327 5.28l1.616 2.287c2.825-1.997 5.187-3.82 6.837-5.746C19.407 11.225 20.4 9.086 20.4 6.5h-2.8zM9.735 16.654c-2.824-1.996-4.926-3.645-6.327-5.28C2.046 9.783 1.4 8.268 1.4 6.5h-2.8c0 2.586.993 4.724 2.682 6.695 1.65 1.926 4.012 3.749 6.837 5.745l1.616-2.286zM1.4 6.5c0-1.864 1.091-3.195 2.572-3.806 1.51-.624 3.314-.448 4.617.669l1.822-2.126C8.214-.646 5.268-.871 2.903.106.51 1.095-1.4 3.364-1.4 6.5h2.8zm7.865 10.154c.14-.1.33-.1.47 0L8.12 18.94a2.393 2.393 0 002.762 0l-1.616-2.287z" mask="url(#path-1-inside-1)"/></svg>