<svg xmlns="http://www.w3.org/2000/svg" width="309.895" height="310.937" viewBox="0 0 748 751" shape-rendering="geometricPrecision" text-rendering="geometricPrecision" image-rendering="optimizeQuality" fill-rule="evenodd" clip-rule="evenodd"><defs><style>.fil7{fill:#7688a1}.fil3{fill:#2b2a29}.fil2{fill:#434242}.fil1{fill:#5b5b5b}.fil9{fill:#e68600}.fil6{fill:#fadeff}.fil8{fill:#ff9803}.fil10{fill:#ffa930}</style></defs><g id="Слой_x0020_1"><g id="_687204224"><path d="M4 337zm84-41c-13 4-26 7-39 11-2 1-4 5-7 6-5 2-10 4-16 6s-13 7-19 9c-7 3-10 5-3 10v-1s1 0 2-1c6-5 6-6 7-6l123-48c-3 1-16 1-23 3-8 3-16 9-25 11z" fill="#01b2aa"/><path class="fil1" d="M234 227c0-1 1-3 1-4 2-3 2-7 4-10 11-23 21-50 32-72 5-8 9-16 13-23 4-5 7-9 10-15 2-5 0-10 2-15 7-21 17-43 26-64 1-3 0-8 1-11s2-4 6-4c3 0 5 0 6-2 0-1 1-1 1-2 1-8 10 0 13 4s8 10 13 18c2 2 4 1 6 3 4 6 7 15 10 21 1 5 2 5 5 9 3 2 5 5 8 8 2 2 9 4 11 7 21 22 40 41 60 63 12 13 23 28 36 41 5 6 8 7 16 8 10 1 24 0 34 1 29 3 61 4 89 8 11 1 21 2 29 5 6 3 12 1 19 0 9-1 17-2 24-2 6 1 10 2 14 5 4 2 4 4 7 1 2-2 5-3 7-3 8-2 13 2 11 10-2 6-7 11-13 16-3 3-4 4-6 7-2 5-5 11-7 15-11 17-22 32-32 48-3 4-6 3-8 8-3 8-4 13-9 21-11 20-24 44-36 65-4 7-10 13-12 19-4 9-4 18-2 31 8 36 17 74 26 113 4 15 12 32 15 46 2 9 2 18 3 25 0 8-1 8 5 13 3 3 6 5 7 8 1 2 0 4 0 6-1 5-4 12-11 11-2-1-2-7-4-7-5-1-10 2-16 2-12-1-26-5-35-6-15-3-20-8-36-10-11-1-24-1-35-3-23-3-47-10-70-14-7-1-7-3-12 2-6 5-11 10-17 13-15 10-24 6-38-1-2-1-5-2-7-3-57 33-114 66-172 99-4 3-7 7-11 10-4 4-7 6-12 4-10-6-1-15-2-22 0-5-3-10-4-15-4-56-3-117-6-173-1-9-3-22-7-29-3-7-8-13-12-20-20-19-48-41-67-60-8-8-6-12-13-20-6-4-2-1-3-2-13-8-27-15-39-23-6-5-26-19-38-30-6-6-8-10-7-13 0-1 1-2 1-4-1 0-1-1-2-1-7-5-4-7 3-10 6-2 13-7 19-9s11-4 16-6c3-1 5-5 7-6 13-4 26-7 39-11 9-2 17-8 25-11 7-2 20-2 23-3 11-6 15-12 26-17s26-12 40-17c9-3 17-5 25-9 2-4 4-8 7-12z"/><path class="fil2" d="M512 234c-2 11 3 25 10 20 3-2 60-4 104-8 51-5 62-25 42 21-20 44-123 184-134 121-2-15-10-40-17-61-28-78-82-27-167-17-23 3-37-11-39-9-4 3-5 33 16 54 19 20 59 30 87 39 56 17 132 25 157 85 20 46 45 112 69 148 2-10-8-40-21-81-11-34-28-77-21-112l-13 1c3-3 4-1 6-4-2-5-8-5-15-4 4 2 6 1 11 2-2 1-27 0-32 0 3-2 17-1 22-1l-4-3c-1 0-2 0-3-1l24-4c1-6 0-3 2-6 2-2 3-5 4-7l16-32c1-1 1-1 1-2 19-32 27-45 48-75h1c3-6 1-3 4-5 3-3 2-4 5-7 7-12 29-39 40-49 4-4 9-6 11-11 3-5 6-9 6-17-3-2-5 0-5-1-8 2-18 6-27 8-6 2-12 3-17 4-4 1-3 3-8 2h-3l-1 5-5-4c-38 4-152-2-154 11z"/><path class="fil3" d="M293 96c1 8 2 2 8 3 0-5 16-53 23-71 3-10 3-8 1 0l-4 23v3c0 2-2 3-2 5h-1v6l-6 35-5-1c2 4 6 5 9 8-4 0-7-2-11-4-1 2-1 0 0 1s2 1 2 2h-2c-2 2 0 1-2 2 3 4 1 7 0 11-4 14-9 24-15 39v1c-9 26-18 51-26 77v1c0 1 0 3 2 5-10-9-21-12-26-18 16-38 37-75 55-113 3-5 4-2 5-7-1-1 0-2-3-3 0 1-18 27-21 33-5 9-37 77-39 84s-4 13-6 18c5-5 5-15 16-6 5 5 12 8 13 10-6 8-31 27-30 33-5-10-12-11-14-26 1 0 12-7 12-8-7 2-19 7-25 9-8 3-15 6-23 9-14 6-28 13-39 22 2 1 0 1 2 0h2l50-21c5-3 13-7 18-9 1 3 4 8 6 10 2 4 5 5 6 9-7 5-91 33-105 37-5 1-10 2-14 4-10 2-20 6-27 8-19 5-45 7-62 14-4 2-7 3-10 6-1 1-2 7 4 6-4-4 0-4 4-6 14-5 116-15 174-30 17-5 45-7 47-13 2 0 1-2 3 1l1 1c2 2 4 4 5 6 4-5 2 3-3-11-3-11 24-27 37-30 6-1 17 10 17 9-6-6-12-11-18-18-7-9 13-16 14-16l2-8c4-11 7 3 14-9 11-15 23-55 28-105 1-9-3-19-2-29 1-13 0-27 1-37l1-13c0-5 2-17-1-23 0-1-1-1-1-2-1-1-2 0-3 0-6 7-15 32-19 42-5 9-16 33-17 44zm433 111c1 3 3 0 6 2 0 8-3 12-6 17-2 5-7 7-11 11-11 10-33 37-40 49-3 3-2 4-5 7-3 2-1-1-4 5h-1c-21 30-29 43-48 75 0 1 0 1-1 2-4 8-21 38-22 45l-24 4c18 8-9 1-15 5 5 0 30 1 32 0-22-4 2-4 4 2-1 2 0 25 2 41 2 13 5 30 10 47 6 21 37 105 37 108-1 3-5 1-15-3-87-35-133-46-149-40-8 3-4 15 2 22 3 3 141 31 157 38 6 2 11 4 17 7 15 8 8 7 19 5 0 2 1 9-4 8 2 1 8-2 10-4 1-2 1-11 0-13-1-3-5-6-7-7 0 0-1 0-1 1v5c-7-11-10-23-14-35-11-36-24-67-35-106-9-34-8-46-13-78-1 0 1-2-5 0 1-1 2-1 4-2h1l2-2-5-1c2-2 2 0 3-3 6-12 21-36 28-49l38-61c3-5 1-3 6-6 0-3-1-5-1-7 1-3 1 0 5-1 1-1 4-7 6-9l13-19c9-12 19-25 25-37l4-1c4-5 8-4 13-12 5-9 2-9-1-15-8 0-12 0-17 5z"/><path class="fil3" d="M11 349c8 5 19 13 26 17 2 2 53 29 52 37l6-1v5c3 1 5 1 8 0 4-2 5-4 8-2-2 1-2 1-4 3-1 1-2 3-2 5l11-8c-1 4-7 7-9 10 1 1 2 0 4 2 2 1 1 2 4 4 2 1 1 0 3 2l5 4 1 1c2 2 1 2 4 3 6 3 48 39 63 50 5 5 9 4 8 5-3 1-14 4-20 4s-7-4-11-6l-7-4c6 6 9 11 12 13 3-1 16-2 19-1 6 0 6 3 7 4l10-2c-3 4-5 2-10 5h-1c9 10 17 19 19 28 7 2 10 2 9 3-4 3-35 1-42-19h1c1 6 2 8 3 14 1 12 2 79 3 92 0 17 2 35 2 52 0 11 1 43 6 51 1 0-1-128-1-140 1-13 1-37 0-49 4 1 5 1 10 1 3 0 6 1 9 3 7-1 8 3 14 3 2 1-6 36-8 68-2 33 2 42-8 77-3 10 0 20-4 32-3 9-5 11-4 15 33-38 29-164 39-196 6-3 26-6 4-4 0 0 1 0 2-1 4-4-4-3-7-3 0 0-2 0-5-1 12-3 24-7 36-10-11 2-23 5-34 7-4-4-20-34-21-34 4-7 7-7 15-11 3-1 12-5 13-7-7 3-19 8-24 11-8 3 11-6-4-4-5 1-2-1-8 0l4-4c-5 1-5 0-8-2l-14-12-1-1-58-47h-1l-4-3-1-1c-5-4-4 0-4-7-17 3-12 0-11-4-7-2-8-2-14-6l-37-22-51-23s-9-5-8-2c0 1 5 5 6 6zM335 5c10 17 20 53 32 77 7-1 30 32 58 65 22 26 49 52 58 67 2 3 2 4 7 6l-9 34c6-13 15-21 23-23 14-3 27 8 31 21l5-18c7-4 93-7 126-11l5 4 1-5h3c5 1 4-1 8-2 5-1 11-2 17-4 12-3 25-9 31-9-3-3-5 0-5-2h-2c-2 1-3-1-12 0-6 1-11 2-16 3-27 4-18-1-24 9 0-6-124-6-127-4-1 0-47-13-51-7-3-6 3 4-1-1 0-1-1-2-1-3-39-44-76-95-115-138-3-2-4 0-6 1 2-10 2-6-4-15-7-14-19-30-26-45-1-3-2-6-6-5-2 0-3 2 0 5z"/><path class="fil2" d="M281 258c-14-15 1-18 7-14 2 1 3 3 3 5s-2 4-3 6c0 2 1 2 2 2 6 6 24 15 20 10 21 12 36-73 37-151 0-47-12-101-12-102-1-3 1-2-4-4 4 4 3 21 3 25l-1 13c-6 37-18 85-30 121-6 19-11 38-18 55-3 8-7 13-10 20-4 8 1 8 6 14z"/><path d="M254 316l6-1-9-10c-2-3-3-4-4-6l-5-7c34-1 22-16 35-31h-2c-13 0-38 19-35 30 7 20 3 2-7 1 0 1-84 22-94 25 8 1 110 0 115-1z" fill="#d67ee6"/><path class="fil3" d="M207 739c3 0 58-37 63-40l16-10c10-6 22-15 32-21 21-13 43-28 65-41 2-2 14-10 15 1 0 7-1-38-3-29-4 16-22 26-61 49-48 29-119 71-127 91z"/><path class="fil2" d="M205 751c5 1 15-8 18-12-15-5-22 25 3-8-2-9-28 23-15-16 4-12 5-20 8-30 1-2 1-1 1-3l5-24c1-4 2-4 2-8 0-3-1-1 0-4 0-3 9-103 10-105 1-3 4-6 0-7-6 0-13 0-20 1-8 33-6 87-8 119-2 24-6 56-6 59-1 8-1 16 0 23 1 3 2 13 2 15z"/><path class="fil3" d="M213 381c5 7 36 71 36 71 10 8-2 9 18 16 11 3-2 3 11 9 2 1 0 14 8 18 1 1 5 10-2 14-2 1 17 22 23 48 2 11 1 25-2 34-8 23-24 50-29 60-2 6 47-56 52-81 0-2 4-2 11-1 18 3 50 7 54 8 20-27 75-25 75-27 1-1 19-21 35-47 8-13 16-28 22-42 38-81-10 4-97-35-15-6-27-16-38-27-36-35-61-82-117-72-26 4-79 26-60 54z"/><path class="fil1" d="M404 637c-3-1-3-16 0-16 2-1 5 1 7 2 7 4 6 7 16 11 5 3 8 8 2 9-1 1-3 1-6 1-6-1-14-5-19-7zm34 4c-4-2 4-7 4-9 0-3 0-5-1-8-2-3 24-17 28-19s4 1 3 4c-2 5-4 10-9 13-3 2-5 4-7 7-1 1-15 13-18 12z"/><path class="fil3" d="M438 641c-4-2 4-7 4-9 0-3 0-5-1-8-2-3 24-17 28-19s4 1 3 4c-2 5-4 10-9 13-3 2-5 4-7 7-1 1-15 13-18 12zm-27-18c7 4 6 7 16 11 5 3 8 8 2 9-1 1-3 1-6 1-6-1-14-5-19-7-3-1-3-16 0-16 2-1 5 1 7 2zm-13 15v-1c2 1 5 2 7 3 14 7 23 11 38 1 6-3 11-8 17-13 4-4 5-4 9-3 4-6 7-15 8-25 0 0 0-1-1-1l1-1c1-9-1-23-4-28-1-2-1 1-2 5 0 3 0 7-1 12 0 2-61 46-75-12-1 1-4 1-4 2 3 5 9 56 7 61z"/><path class="fil2" d="M258 330c5-1 11-3 15-3 56-10 81 37 117 72 11 11 23 21 38 27 81 36 129-36 103 22 5-11 8-17 8-21 5-27-12-62-30-81-17-19-36-22-68-5-33 18-73 21-94 9-12-6-25-20-13-31 3-4-14-19-17-21s-48-44-34-28c49 53 7 8-25 60z"/><path class="fil2" d="M347 116c0 12-4 51-10 87-6 44-16 82-47 54-3-2 2-6 1-10 0 6-7 7-2 10 2 1 33 38 34 39 4 7 1-8-1-10-2-3-5-13 2-7 4 2 8 0 8-6 1-10 7-20 15-25 24-15 22-44 21-71-1-91 71 66 82 61 6-2 12-11 7 3-1 3 7 11 13 6 4-3-3 29 7 3 3-6 7-22 1-34-13-28-54-64-89-117-19-29-35-59-54-93v1c-3 5-9-1-12 6-1 2-1 7-1 10 2-5 4-9 5-12 2-3 6-1 7 1 1 1 1 3 2 4 2 12 11 59 11 100z"/><path class="fil3" d="M469 571c0 2 0 6 1 1 1-3 0 11 1 11 2-1 5-5 5 1 0-9-2-20-3-29-1-11 6-16 11-25-8 10-15 15-15 16 0 10-11-2-15 2-7 6-7-4-10 0-1 1-2 2-3 2 5 12 19-4 24 7 0 2 4 4 4 14z"/><path class="fil2" d="M278 649c-19 24-54 63-70 85 1 1 1 1 2 1 19-22 81-62 124-87 39-23 57-33 61-49-1-11-3-20-4-22-9-2-36-6-52-8-5 0-9-1-11 0 0 1 0 2-1 2-4 22-39 67-49 78z"/><path class="fil1" d="M383 627c-22 13-44 28-65 41-10 6-22 15-32 21l-16 10c-19 11-30 22-37 27-42 33-14 12-11 13 2-1 3-2 4-3l172-98v-10c-1-11-13-3-15-1z"/><path class="fil2" d="M464 601c4-3 5-6 6-14 2-13 1-23-4-29-8-11-26-13-60 8-7 4-8 6-11 9 5 21 6 41 32 38 15-1 33-10 37-12z"/><path class="fil1" d="M477 600c-1 10-4 19-8 25 1 1 2 1 3 1 23 4 47 11 70 14 11 2 24 2 35 3 16 2 21 7 36 10 9 1 23 5 35 6 5 0 9-2 14-2-2-1-4-3-10-6s-11-5-17-7c-18-7-140-45-155-41v-5c-2 2-3 2-3 2z"/><path class="fil2" d="M625 624c9 4 14 6 15 3-139-66-79-149-101-219 0-1 0 19-9 42-12 30-35 67-46 80-5 9-12 14-11 25 1 9 3 20 3 29 1 5 1 10 1 14l2-4 3-10c4 3 40-1 143 40zM402 75c-2-3-9-5-11-7l-8-8c35 39 73 78 107 118 9 10 11 10 26 11 49 4 98 8 146 11-7-2-16-3-25-4-28-4-60-5-89-8-10-1-24 0-34-1-8-1-11-2-16-8-13-13-24-28-36-41-20-22-39-41-60-63zm-24-24c-3-6-6-15-10-21-2-2-4-1-6-3-5-8-10-14-13-18-2-2-7-7-10-7 1 1 2 2 2 3 1 2 2 3 2 5 13 14 24 30 36 44-1 0-1-1-1-3zM167 480c-42-44-77-75-109-100l-21-14c-7-4-18-12-26-17-1-1-6-5-6-6-1 3 1 7 7 13 12 11 32 25 38 30 12 8 26 15 39 23 1 1-3-2 3 2 7 8 5 12 13 20 16 15 38 33 56 49l7 4c3 1 4 4 8 6-3-3-5-6-9-10z"/><path d="M173 493c4 6 8 12 11 18h1c0 1 0 2 1 3 2 4 5 7 9 10-4-15-9-23-16-32-3 1-5 1-6 1zM15 331c1 0 2-1 3-1l-3 1zm-1 1l1-1-1 1zm102-42c6-3 13-6 19-8-5 1-16 1-22 3-8 3-16 9-25 11-13 4-26 7-39 11-2 1-4 5-7 6-5 2-10 4-16 6s-13 7-19 9c-7 3-10 5-4 10l1-1c1 0 2-1 2-1 1-1 1-1 2-1l6-3s1 0 1-1c2 0 3-1 5-2-1 1-2 1-2 1l4-2c21-9 58-24 94-38z" fill="#e087f0"/><path class="fil6" d="M214 247c2 15 9 16 14 26-1-6 24-25 30-33-1-2-8-5-13-10-11-9-11 1-16 6l-2 3h-1c0 1-11 8-12 8z"/><path class="fil1" d="M305 104c-1 0-1-1 0 0zm-67 120c5 6 16 9 26 18-2-2-2-4-2-5v-1c8-26 17-51 26-77v-1c6-15 11-25 15-39 1-4 3-7 0-11 2-1 0 0 2-2h2c0-1-1-1-2-2v-1c4 2 7 4 11 4-3-3-7-4-9-8l5 1 6-35v-6h1c0-2 2-3 2-5v-3l4-23c2-8 2-10-1 0-7 18-23 66-23 71-3-1-5 1-6 1v1c3 1 2 2 3 3-1 5-2 2-5 7-18 38-39 75-55 113z"/><path class="fil6" d="M217 259c-2-2-5-7-6-10-5 2-13 6-18 9l-50 21h-3c-1 1-2 2-4 3h-1l-19 8c-36 14-73 29-94 38l-4 2 2-1c16-5 40-7 57-12 7-2 17-6 27-8 4-2 9-3 14-4 14-4 98-32 105-37-1-4-4-5-6-9z"/><path class="fil7" d="M333 309c62-14 125-33 187-54-6 1-9-11-8-21 0-1 1-2 2-3-3-1-6-1-10 0-8 2-17 10-23 23l9-34c-5-2-5-3-7-6-9-15-36-41-58-67 24 28 44 50 53 69 6 12 2 28-1 34-10 26-3-6-7-3-6 5-14-3-13-6 5-14-1-5-7-3-11 5-83-152-82-61 1 27 3 56-21 71-8 5-14 15-15 25 0 6-4 8-8 6-7-6-4 4-2 7 2 2 5 17 1 10-1-1-32-38-34-39-5-3 2-4 2-10-1-1-2-3-3-3-5-4-18-1-10 11 5 5 10 10 16 15 0 1-11-10-17-9-13 15-1 30-35 31l5 7c1 2 2 3 4 6l9 10-6 1c-5 1-107 2-115 1-54 10-116 17-126 20-4 1-6 2-5 4 47-1 98-4 123-4 41-1 85-6 131-14 32-41 67-2 21-53-14-16 31 26 34 28 1 1 6 5 11 10 1 0 3 1 5 1z"/><path class="fil8" d="M22 328c21-9 58-24 94-38l19-8c-5 1-16 1-22 3-8 3-16 9-25 11-13 4-26 7-39 11-2 1-4 5-7 6-5 2-10 4-16 6s-13 7-19 9c-7 3-10 5-4 10l1-1h1l1-1s1-1 2-1l6-3 1-1c1 0 2-1 3-1l4-2z"/><path class="fil9" d="M240 291zm40-34l1 1-1-1zM48 323c-6 1-11 2-16 3 5-1 11-2 16-3zm92-44h3-3zm-1 38c8 1 110 0 115-1l6-1-9-10c-2-3-3-4-4-6l-5-7c34-1 22-16 35-31 6-1 17 10 17 9-6-5-11-10-16-15 1 0 1 1 2 2-5-5-9-5-5-13 3-7 7-12 10-20 7-17 12-36 18-55 1-2 2-3 2-5-7 2-14 3-20 4-8 23-16 45-23 68v1c0 1 0 3 2 5-10-9-21-12-26-18 8-18 16-35 25-53-2 1-4 1-6 1h-1c-10 20-20 42-21 46-2 7-4 13-6 18 5-5 5-15 16-6 5 5 12 8 13 10-6 8-31 27-30 33-5-10-12-11-14-26 1 0 12-7 12-8-7 2-19 7-25 9-8 3-15 6-23 9-14 6-28 13-39 22h1c-1 1-2 2-4 3h-1l-19 8c-36 14-73 29-94 38l-4 2s1 0 2-1l-5 2-1 1-8 4-1 1s0 1-1 1v3h4c-1-2 1-3 5-4 10-3 72-10 126-20z"/><path class="fil7" d="M291 249c-1 3-4 6-1 8 4 4 8 7 12 8 22 9 30-25 35-62 3-16 5-34 7-49-6 2-11 3-17 5-7 2-15 3-22 5 0 2-1 3-2 5-6 19-11 38-18 55-3 8-7 13-10 20-4 8 0 8 5 13-1-1-1-2-2-2-8-12 5-15 10-11 1 0 2 2 3 3v2z"/><path class="fil9" d="M494 206s1 0 0 0c-2-4 0-1 0 0zm4 28c5-3 10-4 15-3h1c-3-1-7-1-10 0-2 1-4 1-6 3zm-73-87c24 28 44 50 53 69 6 12 2 28-1 34-10 26-3-6-7-3-6 5-14-3-13-6 5-14-1-5-7-3-11 5-83-152-82-61 1 27 3 56-21 71-8 5-14 15-15 25 0 6-4 8-8 6-7-6-4 4-2 7 2 2 5 17 1 10-1-1-32-38-34-39-3-2-2-3-1-4 1-2 3-3 3-6-1-1-2-3-3-3-5-4-18-1-10 11 5 5 10 10 16 15 0 1-11-10-17-9-13 15-1 30-35 31l9 13 9 10-6 1c-5 1-107 2-115 1-54 10-116 17-126 20-4 1-6 2-5 4 47-1 98-4 123-4 41-1 85-6 131-14 32-41 67-2 21-53-14-16 31 26 34 28 1 1 6 5 11 10 1 0 3 1 5 1 62-14 125-33 187-54-6 1-9-11-8-21 0-1 1-2 2-3 9 3 17 10 21 19h1l4-16c4-2 28-4 55-6 3-1 5-2 8-3l33-12c9-4 19-8 29-12-1 0-2-1-3-1-48-3-97-7-146-11-15-1-17-1-26-11-16-20-34-39-53-59-3 2-6 3-10 5l-15 6c4 6 9 12 13 17z"/><path class="fil8" d="M437 119c19 20 37 39 53 59 9 10 11 10 26 11 49 4 98 8 146 11-7-2-16-3-25-4-28-4-60-5-89-8-10-1-24 0-34-1-8-1-11-2-16-8-13-13-24-28-36-41-7-7-13-14-20-21-1 1-3 1-5 2zm-12 28zM302 265c-4-1-8-4-12-8 4 4 8 7 12 8zm-11-16zm0 0zm187-33c-9-19-29-41-53-69-4-5-9-11-13-17-21 9-44 17-67 23 0 1-1 1-1 1-6 2-11 3-17 5-7 2-15 3-22 5 0 2-1 3-2 5-6 19-11 38-18 55-3 8-7 13-10 20-4 8 0 8 5 13-1-1-1-2-2-2-8-12 5-15 10-11 1 0 2 2 3 3 0 3-2 4-3 6-1 1-2 2 0 4h1c2 1 33 38 34 39 4 7 1-8-1-10-2-3-5-13 2-7 4 2 8 0 8-6 1-10 7-20 15-25 24-15 22-44 21-71-1-91 71 66 82 61 6-2 12-11 7 3-1 3 7 11 13 6 4-3-3 29 7 3 3-6 7-22 1-34zm36 15c-1 1-2 2-2 3-1 10 2 22 8 21 1 0 2 0 2-1h2c3-1 7-3 11-4-4-9-12-16-21-19zm26 3l-4 16c20-7 39-14 59-22-27 2-51 4-55 6zm-212 74c-5-5-10-9-11-10-3-2-48-44-34-28 46 51 11 12-21 53 16-2 31-5 47-8 7-2 14-3 21-5l-2-2zm-100-35c-1-6 24-25 30-33-1-2-8-5-13-10-11-9-11 1-16 6l-2 3h-1c0 1-11 8-12 8 2 15 9 16 14 26z"/><path class="fil8" d="M238 224c5 6 16 9 26 18-2-2-2-4-2-5v-1c7-23 15-45 23-68-8 1-15 3-22 3-9 18-17 35-25 53z"/><path class="fil9" d="M406 566zm-8 5c2-1 4-3 8-5-3 1-5 3-8 5zm10-7c-1 1-2 1-2 2 0-1 1-1 2-2zm22-137c-58 18-113 32-158 43 0 2-3 3 6 7 2 1 0 14 8 18 1 1 5 10-2 14-2 1 17 22 23 48 2 11 1 25-2 34-2 8-5 15-9 23 4-1 7-2 11-3 9-14 18-30 20-40l1-1v-1c2-1 6 0 11 0 16 2 43 6 52 8 0-1 2-1 3-2 2-1 3-3 4-4-1 1-2 3-3 4 1 4 1 8 2 11h1c23-7 47-15 70-23 0-1 0-1 1-1-1-2-2-3-3-4-2-3-4-5-7-6-5-2-11-3-18-1v-1c1 0 2-1 3-2 3-4 3 6 10 0 4-4 15 8 15-2 0-1 7-6 15-16s22-32 34-54c2-5 4-9 6-14l6-12c1-4 3-9 4-14 1-4 2-8 3-11-2-1-8 1-16 3-18 7-50 16-91-1z"/><path class="fil8" d="M305 591c3-9 4-23 2-34-6-26-25-47-23-48 7-4 3-13 2-14-8-4-6-17-8-18-9-4-6-5-6-7-16 4-30 7-42 10-4 2-6 3-9 8 1 0 17 30 21 34l34-7-36 10c3 1 5 1 5 1 3 0 11-1 7 3-1 1-2 1-2 1 22-2 2 1-4 4-5 15-6 51-10 90 19-3 39-6 60-10 4-8 7-15 9-23z"/><path class="fil8" d="M229 624c3-30 7-81 8-83 1-3 4-6 0-7l-20 1c-6 25-6 61-7 91 4-1 8-1 12-1 2 0 5-1 7-1z"/><path class="fil10" d="M210 626c1-30 1-66 7-91-3-2-6-3-9-3-5 0-6 0-10-1 1 12 1 36 0 49 0 5 1 23 1 46h11z"/><path class="fil8" d="M195 524c11 8 28 8 31 6 1-1-2-1-9-3-2-9-10-18-19-28h1c5-3 7-1 10-5l-10 2c-1-1-1-4-7-4-2-1-9 0-13 0 7 9 12 17 16 32z"/><path class="fil10" d="M195 524c-4-15-9-23-16-32-3 1-5 1-6 1 4 6 8 12 11 18h1c0 1 0 2 1 3 2 4 5 7 9 10z"/><path class="fil9" d="M198 499c9 10 17 19 19 28 7 2 10 2 9 3-3 2-20 2-31-6-4-3-7-6-9-10 0 0-1-1-1-2 1 5 2 7 3 13 1 12 2 79 3 92v9h8c0-23-1-41-1-46 1-13 1-37 0-49 4 1 5 1 10 1 3 0 6 1 9 3l20-1c4 1 1 4 0 7-1 2-5 53-8 83h7c4-39 5-75 10-90 6-3 26-6 4-4 0 0 1 0 2-1 4-4-4-3-7-3 0 0-2 0-5-1l36-10-34 7c-4-4-20-34-21-34 3-5 5-6 9-8-13 3-24 5-33 7-2 0-4 1-6 1-3 1-7 2-11 2-2 1-5 1-8 2l1 1c1 0 3 0 6-1 4 0 11-1 13 0 6 0 6 3 7 4l10-2c-3 4-5 2-10 5h-1z"/><path class="fil8" d="M327 571zm1-2l-1 2v1c-2 10-11 25-20 39 27-6 57-14 86-23-1-6-2-10-2-11-9-2-36-6-52-8-5 0-9-1-11 0z"/><path class="fil10" d="M545 444c1 29-4 59 3 88 13-5 26-10 39-16-6-13-11-25-16-37-6-14-15-26-26-35z"/><path class="fil8" d="M548 532c-7-29-2-59-3-88-1-12-2-25-6-36 0-1 0 6-2 17-1 3-2 7-3 11-1 5-3 10-4 14l-6 12c-1 3-2 5-3 7-1 3-3 6-4 9-11 21-24 41-33 52-2 3-4 5-5 8-4 5-6 9-6 17 0 2 0 4 1 5 25-9 50-18 74-28z"/><path class="fil9" d="M545 444c11 9 20 21 26 35 5 12 10 24 16 37 4-1 9-3 14-5 2-1 4-2 5-3 5-2 9-3 14-5-9-32-8-44-13-76 0-2-2-2-1-2h1l2-2-5-1c2-2 2 0 3-3 6-12 21-36 28-49l9-15-21 9-33 12c-23 23-44 37-53 21 1 4 2 7 2 11 4 11 5 24 6 36z"/><path class="fil8" d="M607 427c5 32 4 44 13 76 5-2 10-5 15-7-4-18-8-37-12-54-2-13-2-22 2-31 2-6 8-12 12-19 8-14 17-29 25-44-6 3-12 5-18 7l-9 15c-7 13-22 37-28 49-1 3-1 1-3 3l5 1-2 2h-1c-2 1-3 1-4 2 6-2 4 0 5 0zm-177 0c41 17 73 8 91 1 8-2 14-4 16-3 2-11 2-18 2-17 0-4-1-7-2-11 0-1 0-2-1-3-19 6-37 12-56 18-16 5-33 11-50 15z"/><path class="fil10" d="M537 397c9 16 30 2 53-21l-54 18c1 1 1 2 1 3zm-77 155c4 2 7 5 9 10 1 0 3-1 5-2-1-1-1-3-1-5 0-8 2-12 6-17 1-3 3-5 5-8-8 10-15 15-15 16 0 10-11-2-15 2-7 6-7-4-10 0-1 1-2 2-3 2v1c6-1 13-1 18 1h1zm-63 34c-1-3-1-7-2-11h-1c-1 1-3 1-3 2s1 5 2 11c2-1 3-1 4-2z"/></g></g></svg>