<svg xmlns="http://www.w3.org/2000/svg" width="200.783" height="203.271" viewBox="0 0 1148 895" shape-rendering="geometricPrecision" text-rendering="geometricPrecision" image-rendering="optimizeQuality" fill-rule="evenodd" clip-rule="evenodd"><defs><style>.fil1{fill:#de64a1}.fil0{fill:#f280b9}.fil3{fill:#ff8fc7}.fil2{fill:#ffcce6}</style></defs><g id="Слой_x0020_1"><g id="_687203040"><path class="fil0" d="M266 268c-10 29-20 57-35 89-3 7-8 23-6 7 6-49 14-100 28-149 7-28 19-67 30-91 15-33 16-16 15 9-2 53-15 87-32 135zM64 551c-15 27-29 45-41 71-2 7-28 57-18 75 4 5 12 12 24 7 9-4 14-11 23-20 12-13 29-31 40-40 7-5 15-10 24-14 7-3 13 5 14 11 3 38 8 74 20 109 8 23 26 60 48 83 19 20 41 29 64 30 14 1 28-3 41-9 38-22 44-57 72-77 13-9 25-10 38-10 56 2 97 1 126-39 14-18 21-38 30-59 2-7 5-12 5-12 2-1 6 1 14 3 2 1 4 2 6 4 7 25 10 72 24 116 12 37 33 71 49 85 24 21 60 24 81 8 34-28 54-61 80-131 10-26 21-57 31-82 2 1 4 3 7 3 1 0 3 0 5-1-3 17-3 38-1 65 3 32 10 61 23 87 22 40 61 71 107 72 18 0 36-3 57-12 24-12 48-32 69-71 9-22 10-38 5-50-7-20-29-42-50-26-9 6-13 12-18 22-6 14-13 27-22 34-17 15-41 22-57 2-9-12-14-33-14-64 0-5-1-5 4-5 19-1 37-2 55-9 23-8 47-24 63-43 24-28 47-76 49-125 1-38-10-79-47-92-24-9-56-8-76-1-21 7-42 20-66 44-11 11-22 24-33 41l-11-3c-16-37-68-53-98-29-18 14-26 40-35 69l-37 148c-2 11-8 50-22 50-14-1-14-35-16-45l-16-120c-4-31-6-61-11-92-3-18-6-38-17-48-12-10-32-15-56 4-9 6-18 15-28 27-18-2-46-1-53 2-17-6-60-25-118-4-43 16-70 49-82 92-7 25-8 51-5 78-3 2-6 5-9 8-11 13-13 53-25 68-3 4-7 6-12 5-12-3-21-17-29-42-8-26-14-63-17-111 17-6 15-15 22-32 54-129 199-466 90-540-23-16-58-16-94 16-52 48-80 147-100 242-13 61-24 117-26 193-18 23-35 58-50 84zm366 38c17-10 41-4 49 17 8 20-2 56-27 59-16 2-37-12-41-35-3-17 6-34 19-41zm592-38c13-17 26-25 20 7-4 20-30 85-56 87-2 0-6 0-6-1-2-4 2-12 3-15 9-26 24-57 39-78z"/><path class="fil1" d="M483 730c-5-16-13-31-1-39 60-35 41-144-41-144-56 0-78 41-69 83 4 21 16 46 32 59 26 20 23 7 48 12 6 1 11 3 15 9 6 11 12 31 11 40-1 13-11 17-42 12-44-7-84-47-95-92-22-86 10-142 60-159 35-13 84-15 116 10 55 42 58 130 29 184-13 23-45 56-60 51-6-3 1-15-3-26zM240 119c-3 12-6 24-9 31-16 49-39 144-49 243-9 95-6 200 8 259 3 10 8 43 15 65 8 24 17 38 14 43-5 11-16 21-27 1-26-45-55-186-42-377 3-47 9-93 21-142 7-25 29-95 45-132 9-20 31-57 39-62 8-4 14 13 14 18 0 1-8 7-15 22-6 9-12 25-14 31z"/><path class="fil2" d="M533 509c-5-6-14-15-17-16h-1c-5-2-10-4-16-6 17 6 34 26 38 32 2 3 1-3-4-10z"/><path class="fil3" d="M468 568c-38-12-91 16-85 62 6 39 52 72 67 61 6-4 5-21 10-21 56 5 43-91 8-102zm11 38c8 20-2 56-27 59-16 2-37-12-41-35-3-17 6-34 19-41 17-10 41-4 49 17zm-76 31c5 15 20 27 35 33 12 5 0 12-7 8-8-4-24-15-30-29-2-5-5-17-1-20 3-4 2 4 3 8z"/><path d="M591 662c4 47 10 91 25 127 7 16 15 31 26 43m35-296c2 2 5 8 7 16 7 31 11 100 16 165m4 32c1 4 3 7 6 9 9 6 12-5 15-12 7-19 15-61 25-106 4-16 10-34 16-51 2-4 2-4 2-9 1-5 2-8 3-10 2-2 2 0 1-4 0-5 1-9 3-9s1-6 3-10c1-3 3-4 5-4" fill="none"/><path class="fil1" d="M244 556c-7 17-5 26-22 32 29-1 12-12 22-20 18-12-3-12 16-33 7-8 5-23 6-30-8 19-16 36-22 51zm90-540c95 65-4 331-66 482 8-17 66-138 88-211 10-35 20-72 24-100 5-32 2-52 2-53 6-18-7-26-4-29 6-8-3-22-3-24 0-6 1-12 0-15-2-6-7-4-7-7 1-23-7-9-7-16 1-16-10-9-11-13-3-16 2-15-18-15 1 0 1 0 2 1zm-72 0c26-14 50-13 68-3-3-5-6-19-19-10-8 5-3-3-19-3-21 0-20 8-30 16zM68 544c-2 1-4 2-5 3-12 10-7 27-21 27-9 0 0 12-7 13-15 1 2 13-4 13-7 0-11 4-12 12-1 5 1 14-1 19-1 2-3 5-4 7-3 3 0 10-9 17-6 5-5 15-4 23 1 13-5 17 6 21-1-1-1-2-2-2-10-18 16-68 18-75 12-26 26-44 41-71 1-2 2-4 4-7zm24 100c-11 9-28 27-40 40 3 0 12 1 15-9 4-10 8-5 16-13 18-17 1-24 35-19 12 2 11 31 13 42 3 15 6 28 8 33 7 25 19 58 38 87-12-19-22-40-27-55-12-35-17-71-20-109-1-6-7-14-14-11-9 4-17 9-24 14zm-49 57c2-4 6-9 7-15-8 8-13 14-21 18-10 4-17 0-21-4-11 11 5 11 9 14 0 0 10 4 10-4 0-1 0-4 1-5 5 0 11 9 15-4zm211 161c-11-1-22-4-32-10 7 5 14 9 18 12 9 5 8 6 14-2zm6 1v1c5 10 14 4 19-2 2 0 6 7 8 1 0-1 1-3 2-3 4 0 13 4 16 1 0-1 4-7 8-10s9-3 9-6c0-2 0-4 2-4 12 0 9-1 13-11 3-10 13-3 20-14 5-8 11-19 18-25 12-13 26-19 45-19 5 0 3-5 16 0 7 3 20-6 30-2 5 1 11 4 14-1 1 0 6-4 11-7-22 6-48 6-78 5-13 0-25 1-38 10-28 20-34 55-72 77-13 6-27 10-41 9h-2zm279-135c-13 18-29 28-47 34 3 0 10 3 12 1 1-1 6-3 8-3 4 0 12 0 15-3 5-3 2-13 6-14 4-2 14 1 19-7 1-4 0-8-2-11-3-8-4-5 5-6 6 0 10-3 10-10 0-9-10-6 0-10 3-1 6-4 6-6 0-6-7-7-2-12 2-2 8-4 11-6 2-4-2-13 2-14 1-1 2-1 4-1-7-3-10-4-12-3 0 0-3 5-5 12-9 21-16 41-30 59zm52-66c4 47 10 91 25 127 7 16 15 31 26 43-9-15-18-33-24-52-14-44-17-91-24-116-1-1-2-1-3-2zm157 211c-21 16-57 13-81-8l-7-7c3 6 6 15 7 16 4 2 14-1 15 3 3 6 4 15 14 8 4-4 8 4 10 6 4 8 10-11 16-4 1 2 8 8 10 4 2-3 4-10 6-10 3 0 4 2 8 3s0-13 9-14c4 0 12 0 12-4v-11c-6 6-12 12-19 18z"/><path d="M656 853c-4-5-8-11-12-18 0 3 1 7 1 9 1 4 7 6 11 9z" fill="#7688a1"/><path class="fil1" d="M796 814c-8 14-16 26-25 36 18-4 23-22 25-36zM319 582c5-21 15-40 28-55h-4c-9 0-10 9-10 16 0 5-7 8-10 9-5 2-1 11-1 15 0 2-3 6-6 7s-2 10-1 13c4 10-13 11-6 23 10 18-8 14-2 27l5 5c-1-21 1-41 7-60zm28-55c14-16 32-29 54-37 54-20 95-4 114 3-2-2-3-4-4-6-10-18-26 0-32-8-5-5-15-10-20-6-17 13-22-2-27 2-20 14-10 7-24 7-7 0-10 3-13 9-3 4-7-1-13 5-7 7-21-7-29 3-16 20-4 20-6 28zm253-62c24-19 44-14 56-4 6 6 10 14 12 24 4-2 7-4 4-7-5-8-2-2-1-8 0-14-12-9-14-10-5-28-26-9-27-11-3-7-21-4-22 3-2 16-14 0-17 18 0 1-8 4-16 10-4 2-9 8-11 12h8c10-12 19-21 28-27zm70 25c1 6 2 13 3 19l3 21c1-1 1-2 2-4 6-9 2-33-8-36zm7 46c3 22 5 44 7 65l16 116c-5-65-9-134-16-165-2-8-5-14-7-16zm48 210c-3 7-6 18-15 12-3-2-5-5-6-9 2 9 5 17 12 17 14 0 20-39 22-50l37-148c3-9 5-17 8-25-2 0-4 1-5 4-2 4-1 10-3 10s-3 4-3 9c1 4 1 2-1 4-1 2-2 5-3 10 0 5 0 5-2 9-6 17-12 35-16 51-10 45-18 87-25 106zm85-247c7-5 15-9 24-10-5-3-11-5-16-4-11 3-6 12-13 11-15-2-7 16-13 17-10 2 0 11-8 14-6 3 1 10 1 12 6-17 13-31 25-40zm30-11c7-1 14 0 21 2l-1-1c-5-9-14-6-20-1zm33 0c-5 0-7 2-9 3 5 1 9 3 14 5-2-2 0-8-5-8zm21 20c0-8 0-17-12-12-2 1-3 1-3 1 5 3 11 7 15 11zm32 2c-2 7-9 19-18 18l11 3c11-17 22-30 33-41 24-24 45-37 66-44 20-7 52-8 76 1 17 6 28 18 36 33v-10c-2-4-10-7-11-11 0-4-6-8-7-8-7 0-7-15-23-12-12 3-16-8-22-5-14 7-10-2-19 0-8 3-12 6-20 5-12-1-14 6-16 6-10 1-6 5-18 6-11 1-8 11-16 12-12 0-8 12-16 14-16 4-8 14-18 17-12 5-14 6-18 16zm204-30c2 3 3 6 4 8 2-6-1-7-4-8z"/><path class="fil0" d="M1145 515c4-12 0-23-11-27v1c5 15 7 33 7 50-1 33-12 65-26 91 10-4 19-5 17-23-1-2-1-7-1-9 2-6 10-6 9-13-4-21 8-12 3-28-2-8 0-6 4-13 6-11-6-20-2-29z"/><path class="fil1" d="M1111 643v-6c-6 10-12 19-19 27-16 19-40 35-63 43-18 7-36 8-55 9-5 0-4 0-4 5v11c2-2 4-3 6-5 3-2 6-4 8-6s6 1 9 2c10 7 8-9 22-4 18 7 14-11 21-11 17 3 24 0 30-16 4-10 17-1 18-8 3-13 6-5 9-11 1-2 3-7 4-8 6-11 13-2 14-22zm-37 87c-10 0-13 10-14 18-1 4-4 14-9 23 5-6 9-14 12-22 5-10 9-16 18-22 21-16 43 6 50 26 5 12 4 28-5 50-7 12-14 23-21 31 7 0 13-1 16-7 4-8-1-14 5-17 7-4 8-2 7-12 0-3-1-6 1-7 4-2 11-12 10-16s-6-5-7-7c-6-6 4-4 4-15 0-3-1-8-3-11-8-12-13-4-17-9-1-2 0-4-1-8-2-5-11-15-14-10-6 12-5-2-13-3-7-1-5 14-9 9-4-4-7-4-7 3 1 2 1 6-3 6zm29 107c-14 18-30 29-46 37-21 9-39 12-57 12-43-1-78-27-101-63 2 4 3 8 3 9 2 11 10 9 12 14 2 8-2 5 3 14s21 18 26 22c13 11 22 5 31 5 3 0 5-2 9 2 3 2 6 5 9 6 6 1 12-5 13-5 3 1 6 4 9 4s7-6 10-6c4-1 12 5 16 3 6-2 8-7 10-10s5-4 7-3c13 5 11 0 13-4 3-3 2-6 6-6 20 0 11-15 21-17 3-1 5-9 6-14zm-219-43l-6-18c-1 5-4 9-3 12 1 2 6 4 9 6zm-14-64c-1 8-3 20 3 23-1-8-2-16-3-23zm-6-43c0 2 2 3 2 5 1 2-4 1-1 11 1 3 3 5 4 6-1-19 0-34 2-47-2 1-4 1-5 1h-2c0 8-1 18 0 24zm5 26c-1 1-6 3 0 8l1 1c0-3-1-6-1-9z"/><path d="M645 784c1 0 2-1 3-1 3-2 0-7-2-15-6-22-9-52-12-75-5-37-9-79-14-118-1-12-7-65-16-70-3-2-7-3-6 3 0 13 6 27 10 50 6 37 11 85 15 110 4 32 9 60 12 83 3 13 7 32 10 33z" fill="#ffc4e2"/><path class="fil2" d="M668 774c3-1 5-2 8-2-6-56-12-112-16-166-2-34-4-68-6-101 0-7 0-11-1-12-3-6-10 10-9 21 1 31 4 64 7 97 2 17 15 160 17 163zm101 18c5-13 10-27 14-42 14-47 27-99 41-147 3-9 8-29 14-44 4-16 9-28 17-33 22-14 12 5 3 24-12 22-15 33-21 58-4 12-7 24-9 31-11 34-22 69-32 105-5 17-9 39-20 53-6 8-12 6-7-5zm-21-12c6-20 24-111 36-161 7-29 11-37 12-30 2 13-4 29-7 42-8 31-17 73-23 102 0 1-8 45-13 52-1 2-5 1-5-5z"/><path class="fil1" d="M750 789c-4-6-21 5-38 2-4-1-8-3-12-6-7-6-14-14-18-14-2 0-4 0-6 1-3 0-5 1-8 2-7 3-15 7-20 9-1 0-2 1-3 1s-2 0-3-1c-4-10-14-36-15-38-7-9-7-1-5 13 5 22 12 41 22 60 8 15 19 29 30 43 11 12 22 19 44 22 11 0 22-4 30-10 7-6 13-12 19-18 1-2 3-3 4-5 9-10 17-22 25-36 7-12 13-26 20-43 0-3-2-4-7-1-25 14-37 54-59 19z"/><path class="fil2" d="M932 777c-9-37-10-74-5-112 10-64 29-108 59-151 7-11 17-21 25-29 5-5 6-9 9-3 3 9 2 11-3 16-4 4-10 10-15 17-24 31-45 76-55 114-7 27-12 64-11 96 1 12 3 30 6 41 2 8 5 11 4 15-2 4-10 13-14-4zm7 17c1-2 7-7 11-3 2 1 4 5 4 6 2 4-1 6-6 9-8 3-9-12-9-12zm9 18c0-2 8-6 10-5 4 1 6 7 10 11 2 3-1 4-2 6-6 6-12-2-15-8-2-2-3-4-3-4zm29 12c4 2 9 5 11 6l2 2c1 1 0 3 0 6-2 7-4 9-8 7-7-3-17-12-17-13-1-2 2-6 5-8 2-2 4-2 7 0zm17 25c0-12 1-15 14-15 14 0 17 1 18 5 2 5 4 14 1 14h-25c-5 0-8 1-8-4zm38-8c-1-3-1-5 1-6 4 0 9 11 6 13-6 3-5 3-7-7zm26-10c-3 2 9-6 12-9 19-19 30-46 29-73 0-13 11-12 16-1 14 28-31 73-57 83zm-161-95c-13-23-4-123 15-147 9-10 9-2 7 7-3 9-7 19-12 39-6 24-8 58-9 78-1 11 1 26-1 23zm206-173c-4 26-15 48-15 49 10-9 17-20 24-40 6-22 14-88-17-94-4-1-7 3-7 5-2 3 7 9 13 20 9 18 6 41 2 60z"/><path class="fil1" d="M987 603c10-21 24-45 33-50 1 0 1-1 2-2 13-17 26-25 20 7-2 6-4 13-7 20 7-6 15-22 16-35 2-10 0-17-7-17-27 0-51 44-60 67-5 13-10 32-11 40 1 1 7-17 14-30z"/><path class="fil2" d="M1049 627c3-7 8-23 14-39 4-11 10-25 13-35 2-9 1-16 3-23 2-3 8-6 7 5-1 20-1 20-5 30-3 6-9 21-15 33-7 14-14 26-16 28l-1 1zm-96 109c1 11 4 27 7 38 7 23 26 38 51 35 23-3 43-22 52-42 2-4 2-8 1-11 0 0-4 10-10 18-5 7-11 13-18 18-8 5-18 9-28 9-12 0-24-7-31-17-6-8-10-20-14-32-1-7-2-16-4-21-3-13-6-2-6 5zm-80-47c0-18 3-25-2-27-2 13-3 28-2 47v4c0 3 1 6 1 9v8c1 7 2 15 3 23 2 7 3 15 5 23l6 18c3 7 6 13 9 20l6 9c15 24 36 44 62 54-26-15-48-37-63-63-21-37-25-83-25-125z"/><path class="fil3" d="M954 730c-5-48 11-119 41-159 9-18 23-37 38-43-5 0-16 1-18-5-2-5 11-10 14-16 2-5-4-9-4-9-2-1-6 0-9 1-4 4-10 10-14 16-24 31-45 76-55 114-7 27-12 64-11 96 1 12 3 30 6 41 0 2 1 3 1 5l1 1c0 1 1 2 1 4 7 18 23 37 40 42 45 13 71-13 84-41 7-15 7-29 9-40 2-5 4-10 6-12-1 0-2 1-3 2-8 6-12 11-16 19-2 6-3 12-4 16 2-3 3-6 3-6 1 3 1 7-1 11-9 20-29 39-52 42-25 3-44-12-51-35-3-11-6-27-7-38 0-2 0-4 1-6z"/><path class="fil3" d="M980 639c-10 15-20 92-2 39 9-25 32 6 41-19 2-7 16-6 20-22 6-22 55-110 16-126-3-2-7-2-7 0 0 8-2 10-1 10 3 2 10 6 9 18-2 17-10 48-20 71-10 25-22 38-43 40-14 1-14-1-10-5-2 0-3-1-3-1-1-1-1-3 0-5z"/><path class="fil2" d="M1039 479c5 0 8-1 13-2 10 0 19 4 24 5 4 1 6-2 7-4 1-3 0-4-7-7-5-3-12-4-19-5-1 0-4 0-10 1-11 0-13 1-13 4 1 4 5 8 5 8z"/><path class="fil3" d="M974 716c19-1 37-2 55-9 19-6 38-18 53-32-19 14-44 26-62 30-14 2-26 4-36 5-7 1-13 0-14 7 1-1 2-1 4-1z"/><path class="fil1" d="M899 556c2 0 0 20 7 19 11-1-7 21-8 24-15 38-27-2-19-23 2-6 6-10 11-11 2-1 7-10 9-9z"/><path class="fil1" d="M900 560c-2-1-8 6-9 4-3-7 9-26 13-31 2-4 13-2 12 8-1 4-10 20-14 19 0 0-1 1-2 1v-1zm-46 60c4-4 14-4 20 0 5 3 4 7 4 13-1 9-3 20-11 13-1-1-10-11-13-18-2-3-3-5 0-8z"/><path class="fil0" d="M859 660c-7-5-11-18-11-26 0-22 12-19 9-27-7-15-1-11 3-21 4-11 14-36 24-39 13-4-3-25 24-19-3-8-8-14-14-20-3-4-8-7-12-10 2 6 0 21-4 27-6 12-12 13-17 19l-3 6c-12 22-15 33-21 58-4 12-7 24-9 31-9 27-17 54-25 82 0 1-1 1-1 2s-2 9-6 19v2c-5 16-9 37-19 51v4c9-7 19-22 32-29 5-3 7-2 7 1 4-9 8-19 12-29 10-26 21-57 31-82z"/><path class="fil3" d="M771 670c0-1 13-59 15-65 5-24 17-97 43-115-7 2-13 5-19 9-12 9-19 23-25 40-1 1-1 2-2 4-3 8-5 16-8 25l-37 148c-2 11-8 50-22 50-7 0-10-8-12-17-3-10-3-23-4-28v-4l-16-116c-2-21-4-43-7-65 0-2-1-4-1-6l-3-21c-1-6-2-13-3-19-1-2-1-4-2-5-2-10-6-18-12-24-2-2-5-3-7-5 3 5 6 10 9 19 13 40 17 109 19 133 2 26 5 128 16 171 6 5 12 11 19 12 6 1 13 0 19-1 23-32 40-108 40-120z"/><path class="fil1" d="M599 594c11 1 17 98-17 47-31-46 15-53 17-47zm-35-66c36-17 32 51 27 54-17 7-21-4-24-21-3-11-11-29-3-33z"/><path class="fil1" d="M570 520c1 2 2 6-6 8-8 3-2 23 5 33 11 15 29 21 31 20 1 0-19-85-5-105 1-2-5 1-10 6-6 6-12 15-13 14-9-3-48-9-45 1 1 4 8 10 16 15 5 4 25 6 27 8z"/><path class="fil2" d="M538 574c1 3 4 7 5 13 3 10 3 23 3 34-1 18-5 32-2 36 2 2 5 7 7 3 5-11 9-46 5-69-2-13-6-20-15-22-5-1-6 0-3 5zm-197 3c4-10 10-21 18-30 4-4 12-12 22-18 9-5 19-10 24-11 12-2 8 2-3 5-5 2-16 9-24 17-11 9-28 31-29 46 0 0-3 2-5 11-2 12-4 32-1 34 7 4 0 9-5 2-8-11-2-44 3-56z"/><path class="fil3" d="M377 659c-5-4-18-26-1-26 6 1 4 8 7 13 5 7 6 9 4 12-2 2-7 4-10 1zm-10-31c-2-3-4-13-2-20 1-5 4-8 9-6s4 5 4 11c0 4 1 10 1 14 1 3-4 3-7 3s-4 0-5-2z"/><path class="fil2" d="M513 638c-2 4-3 10-6 18-3 7-7 18-13 23-15 16 1 33 2 32 1-3 4-13 7-23 5-11 10-23 13-33 3-7 4-14 3-14-1-1-5-4-6-3zm9-1c-2 0-5-1-6-2-4-2-2-7-2-12 0-4 0-6 2-7 3 0 6 1 7 1 1 1 1 20-1 20zm-3-60c-2 1-4 1-6 3s1 17 1 20c0 8 0 12 6 12 4 0 3-36-1-35z"/><path class="fil3" d="M505 548c1 1 5 6 8 11 6 9 3 12 1 12-3 0-4-3-11-10-2-2-9-8-14-13-10-8 4-14 16 0z"/><path class="fil2" d="M408 759c9 4 20 8 23 8 11 1 22 0 32 0-17-2-33-7-48-14-7-2-14-6-18-7-8-1-9 2-3 6 4 2 8 5 14 7zm23-81c-8-4-24-15-30-29-2-5-5-17-1-20 3-4 2 4 3 8 5 15 20 27 35 33 12 5 0 12-7 8zM285 796c-15-23 21-12 21-50 0-2-1-10-1-19-1-17-1-38 5-35 2 1 4 16 5 30 1 20 3 32-4 46-4 8-12 19-22 27-1 0-3 1-4 1zm-32 12c-1-4-2-8 2-12 4-3 14-7 18-5 6 3 6 9 6 11 0 6-13 7-18 9-6 2-8-2-8-3zm-35-10c-1-5 9-12 16-2 4 6 14 9 4 17-4 3-19-7-20-13v-2z"/><path class="fil3" d="M200 783c-4 0-8-4-14-14-2-5-9-14-10-22-3-21 14 4 23 18 1 1 4 5 6 8 1 2 4 3 3 5s-4 5-8 5z"/><path class="fil2" d="M214 750c-1-3-2-7-4-11-1-4 6-5 10-8 2 0 5 7 8 13 4 8 8 9 0 16s-10-1-14-10zm-8-28c-26-99-35-193-30-285 5-103 34-233 68-330 9-26 15-30 15-25s-5 14-10 30c-35 115-58 227-63 335-4 93 4 183 29 269 5 16-5 18-9 6z"/><path class="fil2" d="M229 467c-1-7-1-15-1-22 0-17 0-18 6-34 31-82 69-165 83-245 4-25 6-49 5-73-3-5-5-10-5-16-5-4-8-11-10-17-4-1-7-1-12-2-9-4-13-3-15-7-1-2-1-8 0-9 1-2 5-2 15 0 5 1 10 3 15 6 4 3 8 7 11 12 1 2 3 5 4 8 1 1 3 4 4 7 2 3 3 6 4 11 1 4 1 9 1 14-1 18-3 40-8 64 0 2-1 4-1 7-16 83-52 161-79 241-5 14-8 32-10 44-3 23-4 49-7 11z"/><path class="fil3" d="M303 323c22-33 39-88 49-137 6-36 9-68 6-84-1-9-8-28-7-5 2 25-1 52-6 81-8 45-23 94-42 145z"/><path class="fil2" d="M235 75c-44 76-71 158-84 245-15 102-12 211 6 326-8-115-9-229 9-342 13-77 35-153 69-229zM52 620c8-15 15-31 17-35 7-12 13-22 9-20-8 4-21 23-29 35-1 2-9 16-14 29-8 18-5 23-1 21 5-4 12-17 18-30zm52-89c-1 6-8 35-11 50-2 13 1 16 8 18 2 1 0-13 1-28 0-17 2-40 2-40z"/><path class="fil3" d="M191 819c-8-17-22-37-28-49-7-14-15-38-17-48-8-23-9-43-14-54 4 28 9 56 18 82 5 15 15 36 27 55 6 9 12 18 19 26-1-4-3-8-5-12z"/><path class="fil1" d="M253 215c7-28 19-67 30-91 12-27 15-21 15-5 0-5 2-18-1-22-7-12-15-4-22 7-6 10-11 22-12 26-11 23-29 99-40 161-8 42-14 109-8 116 2 3-2-22 10-36 0-1-1-2 0-7 6-49 14-100 28-149z"/><path class="fil1" d="M134 418c2-46 15-136 37-217 3-9 16-57 39-101 24-45 58-87 70-50-1-3-1-7 0-8 1-2 5-2 15 0 5 1 10 3 15 6 4 3 8 7 11 12 1 2 3 5 4 8 1 1 3 4 4 7 2 3 3 6 4 11 1 4 1 9 1 14-1 18-3 40-8 64 0 2-1 4-1 7-16 83-52 161-79 241-5 14-8 32-10 44-3 19-2 36-5 34-9-6-20-103-20-62 0 15 9 148 11 160 9-1 9-3 11-7 5-10 5-45 12-77 17-70 45-132 70-202-4 8-8 15-12 21 19-51 34-100 42-145 5-29 8-56 6-81-1-18 3-10 6-2-1-37-10-62-27-75-12-10-27-14-46-13-7 2-14 5-22 9-7 4-15 10-22 16-52 48-80 147-100 242-13 58-23 112-26 182 7 52 16 115 18 75 1-33 0-82 2-113zM39 619c-81 153 45 11 74 1 7-2 10 3 12 12 2 2 4 6 5 9 0 9 1 17 2 26 1-26 2-62-5-69-12-13-25 17-38 4-14-14 23-120 23-133-15 21-31 51-44 75-2 3-3 5-4 7-13 23-25 40-35 60 0-1 13-17 16-22 3-4 31-46 34-47 1 6-11 26-25 50 8-11 18-24 24-27 4-2-2 8-9 20-2 4-9 20-17 35-6 13-13 26-18 30-4 2-7-3 1-21 1-3 3-7 4-10z"/><path class="fil1" d="M118 583c-7-11-8-97-1-67 3 12 5 72 1 67zm84 254c39 23 91 24 134-13 13-17 21-35 39-47 13-9 25-10 38-10h11c-41-5-74-44-91-69-8-13-8-19-13-19-7 0-6 15-6 34 0 3 0 6 1 9 1 20 3 32-4 46-4 8-12 19-22 27-1 0-3 1-4 1 0-1 0-2-1-2-1 1-3 2-5 3v5c0 6-13 7-18 9-6 2-8-2-8-3v-2h-5c-2 1-4 1-6 1 0 2-1 4-4 6s-11-2-16-7c-21-4-41-16-60-37 1 0 1 1 1 1 6 12 20 32 28 49 2 4 4 8 5 12l2 2 4 4zm228-248c17-10 41-4 49 17 8 20-2 56-27 59-16 2-37-12-41-35-3-17 6-34 19-41zm-24 42c5 27 28 43 47 41 29-4 40-46 31-69-10-24-37-31-57-19-14 8-25 27-21 47z"/><path class="fil1" d="M217 523c2 33-3 62 1 98 4 35 13 86 31 111 10 14 28 26 39 5 8-16 5-36 10-53-6 17-9 41-18 52-3 4-7 6-12 5-12-3-21-17-29-42-8-26-14-63-17-111-1-5-3-34-5-65zm390 118c-2 15-8 23-23 4-2 5-4 10-7 12 2 0 4 1 9 3h2c1 1 2 1 3 2s2 1 3 2c7 25 10 72 24 116 3 9 6 18 10 27-24-60-18-109-21-166zm-17-48c4-1 8 0 9 1 1 0 3 2 4 5-2-16-5-31-9-34 0 9-1 16-3 17 0 5 0 8-1 11zm30-18c5 39 9 81 14 118 3 23 6 53 12 75 2 8 5 13 2 15 5-2 13-6 20-9-2-3-15-146-17-163-3-33-6-66-7-97-1-9 3-20 6-22-1-32-35-34-44-8-2 6-3 14-2 20v1c9 5 15 58 16 70z"/><path class="fil0" d="M695 821c14 10 46 7 41-14-2-8-2-12-5-13 0 0-19 2-23 1-9-1-11-4-14-1-8 6-7 23 1 27zm-4-30c1-1-4-11-11-9-6 2-8 3-7 6 0 2 3 6 6 7s5-2 12-4z"/><path class="fil1" d="M796 589c2 13-4 29-7 42-8 31-17 73-23 102 0 1-8 45-13 52-1 2-5 1-5-5 6-20 24-111 36-161 7-29 11-37 12-30zm-10 16c-2 6-15 64-15 65 0 12-17 88-40 120 9-2 16-5 19-1 10 17 18 16 27 10v-4c0 1-1 1-1 2-6 8-12 6-7-5 5-13 10-27 14-42 14-47 27-99 41-147 3-9 8-29 14-44 4-16 9-28 17-33 19-13 14 1 6 18 5-6 11-7 17-19 4-6 6-21 4-27-1 0-2-1-3-1l-1-1c-5-2-9-4-14-5-1-1-2-1-3-1-7-2-14-3-21-2-2 0-4 0-6 1-1 0-3 0-5 1-26 18-38 91-43 115z"/><path class="fil0" d="M767 646c-6 29-13 75-23 101-16 44-46 46-57-2 2 13 4 25 6 34 3 2 5 4 7 6 4 3 8 5 12 6 6 1 13 0 19-1 23-32 40-108 40-120 0-1 13-59 15-65 4-20 13-73 31-102-17 22-30 59-40 97-4 15-7 31-10 46z"/><path class="fil1" d="M927 665c10-64 29-108 59-151 7-10 16-21 25-29 1-2 2-3 4-5 1 0 1 0 1-1 3-2 11-9 19-12 5-3 10-4 14-5 18-3 5-9-5-10-8-1-20 1-28 2-21 4-35 13-44 20s-18 14-26 22c-9 10-18 21-27 35-2 4-3 25-8 37-3 8-10 7-11 14v3c0 9 3 23 2 26 3-9 6-17 10-22 9-10 9-2 7 7-3 9-7 19-12 39-6 24-8 58-9 78-1 11 1 26-1 23-10-19-7-86 5-124-11 26-13 118-20 59-3-21 4-41 9-59-4 4-7 4-10 0-1 7-4 10-12 6 0 1-9 18-9 19 7 9 16 21 11 25 5 2 2 9 2 27 0 42 4 88 25 125 15 26 37 48 63 63 12 6 25 9 39 9 18 0 36-3 57-12 16-8 32-19 46-37 1-1 2-2 2-3 7-8 14-19 21-31 9-22 7-37 3-50-2-4-9-8-14-5 13 29-31 73-57 83 0 1 0 1 0 0-6 3-13 6-20 9 2 3 3 7 1 8-6 3-5 3-7-7-2 1-3 1-5 1 2 5 3 11 0 11h-25c-5 0-8 1-8-4 0-3 0-6 1-8-2 0-4-1-6-2-2 6-3 8-7 6-7-3-17-12-17-13-1-1 1-4 3-7-1 0-2-1-2-1-6 6-12-2-15-8-2-2-3-4-3-4 0-1 3-3 5-4 0-2-1-3-2-4-1 0-2 1-3 2-8 3-9-12-9-12 1-1 3-3 5-4-1-1-1-3-2-4-3 2-8 2-10-9-3-13-5-26-7-39-2-24-1-48 2-73z"/><path class="fil1" d="M1069 777c-13 28-39 54-84 41-2-1-5-2-7-3 30 26 74 12 97-16 13-17 22-39 23-55 0-7-1-14-6-17-9-8-12 3-14 10-2 11-2 25-9 40zm-93-69c16 3 27 0 44-3 18-4 43-16 62-30 4-4 7-8 10-11 7-8 13-17 19-27 1-2 3-5 4-7 14-26 25-58 26-91 0-14-1-28-5-42-2-5-5-10-8-14-8-9-23-23-35-20s-1 8 0 8c10 9 13 12 13 13 18 18 11 69 6 88-7 20-14 31-24 40 0-1 11-23 15-49 4-19 7-42-2-60-3-5-6-9-9-13v1c0 1-18 2-16-2 1-3 1-5 0-7-5-1-14-5-24-5-5 1-8 2-13 2 0 0-2-1-3-3-3 2-5 6-5 10 0 3 4 25 9 25h8c0-2 4-2 7 0 39 16-10 104-16 126-4 16-18 15-20 22-7 19-22 5-33 9-8 3-21 38-10 40zm73-81c3-7 8-23 14-39 4-11 10-25 13-35 2-9 1-16 3-23 2-3 8-6 7 5-1 20-1 20-5 30-3 6-9 21-15 33-7 14-14 26-16 28l-1 1zm-199 17c-5 13-24 111-50 132l9-6c5-3 7-2 7 1 4-9 8-19 12-29 10-26 21-57 31-82-5-3-8-10-9-16z"/><path class="fil1" d="M995 571c-30 40-46 111-41 159 1-5 3-8 5 1 2 5 3 14 4 21 4 12 8 24 14 32 7 10 19 17 31 17 10 0 20-4 28-9 7-5 13-11 18-18 3-4 6-9 7-12 1-4 2-10 4-16-1 1-1 2-2 3-3 8-7 16-12 22-3 5-6 9-10 12-17 15-41 22-57 2-8-11-13-28-14-53v-15c1-7 7-6 14-7 2 0 5 0 7-1-5 1-9 0-15-1-5-1-5-9-3-17-11 25-2-38 7-52 1-4 3-8 3-10 8-25 23-55 37-76-9 5-23 29-33 50-7 13-13 31-14 30 1-8 6-27 11-40 3-6 6-14 11-22z"/></g></g></svg>