<svg xmlns="http://www.w3.org/2000/svg" width="220.815" height="328.452" viewBox="0 0 2006 2984" shape-rendering="geometricPrecision" text-rendering="geometricPrecision" image-rendering="optimizeQuality" fill-rule="evenodd" clip-rule="evenodd"><defs><clipPath id="id0"><path d="M744 948c80 170 212 333 328 410 88 58 186 58 274 0 116-77 248-240 328-410 70-148 95-310 66-462-19-100-59-195-119-274-212-280-605-283-821-5-62 80-103 176-122 279-28 152-4 314 66 462z"/></clipPath><clipPath id="id1"><path d="M121 1677c100 164 253 315 380 381 96 49 196 38 279-31 109-91 226-272 288-454 55-158 62-326 16-478-30-101-81-193-151-266-248-262-649-221-837 86-55 89-86 192-94 298-12 159 31 321 119 464z"/></clipPath><style>.fil4{fill:none}.fil5{fill:#fefefe}.fil7{fill:#0243a9}.fil23{fill:#0366c3}.fil14{fill:#5ecbf2}.fil10{fill:#82deff}.fil13{fill:#baedff}.fil8{fill:#d67ee6}.fil19{fill:#de81b3}.fil0{fill:#e6e6e6}.fil15{fill:#ebfaff}.fil17{fill:#f299c8}.fil18{fill:#ffb5dc}.fil20{fill:#ffc9e6}.fil21{fill:#ffdbee}</style></defs><g id="Слой_x0020_1"><g id="_687255968"><path class="fil0" d="M1214 2586c48 4 73 26 74 51 2 22-15 46-40 64-69 50-213 73-221 96-14 46 295 95 271 187 23-88-302-138-288-186 7-23 162-49 235-99 58-39 53-106-31-113z"/><path d="M1189 1401c-4 28-13 31-34 48-12 11 37 29 52 30 17 0 32-3 25-14-14-21-12-52-13-64-10 1-20 1-30 0z" fill="#e494f2"/><path d="M744 948c80 170 212 333 328 410 88 58 186 58 274 0 116-77 248-240 328-410 70-148 95-310 66-462-19-100-59-195-119-274-212-280-605-283-821-5-62 80-103 176-122 279-28 152-4 314 66 462z" fill="#187ddb"/><g clip-path="url(#id0)"><path id="1" d="M1473 120c-38-30-80-53-124-69s-90-25-137-25c-110-1-207 33-282 91-75 59-129 142-155 241-29 110 3 213 69 293 66 79 166 136 273 153 98 16 247-3 363-65s200-166 165-320c-14-59-36-118-65-170s-66-98-107-129z" fill="#3996ed"/></g><path class="fil4" d="M744 948c80 170 212 333 328 410 88 58 186 58 274 0 116-77 248-240 328-410 70-148 95-310 66-462-19-100-59-195-119-274-212-280-605-283-821-5-62 80-103 176-122 279-28 152-4 314 66 462z"/><path class="fil5" d="M1048 562c12 2 4 10 20 18 10 5 23 9 34 13l205 80c26 10 47 22 64 17 18-6 33 23 29 38l-31 58c-77 146-132 294-175 452-18 69-9 86-63 82-104-7-215-48-303-112-55-40-47-42-16-98 53-94 104-218 140-320 20-59 41-135 55-196 6-25 19-35 41-32zm109-93c-37-13-40-4-53 31-35-7-34 10-51 53-49-5-49 22-61 66-10 38-20 75-31 113-42 141-99 264-167 393-9 17-19 31-13 49 13 39 147 105 180 117 47 18 179 54 211 32 17-11 18-32 23-51 4-18 9-37 14-56 46-166 102-295 180-448 13-24 43-58-6-88 11-34 32-54-2-73 8-30 27-39-23-61-65-29-132-58-201-77z"/><path d="M1235 443c13-10 48 6 42 18-5 10-29 1-37-7-5-4-5-6-5-11zm99-135c-6 2-11 6-19 2-6-4-8-11-4-18 6-10 32-8 23 16zm-177 161c69 19 136 48 201 77 0-24 33-48-22-103-9-8-12-14-6-34 18-56 33-29 46-64 9-25-2-53-27-63-35-14-79 12-66 62 3 13-5 29-11 42-15 34-25 16-64 25-41 10-36 38-51 58z" fill="#5cc1e6"/><path class="fil5" d="M1062 938l21-54c22 8 119 49 128 48 0-6 1-3-4-7l-121-47 18-47c15 3 49 23 60 21 1-6 4-1-3-6-1 0-7-3-9-3l-46-19 25-54c8 1 85 32 100 38s20 10 26 6c-2-2 0-1-4-3-5-4 3 1-2-2l-120-46 16-43c11 4 54 23 60 22 0-7 3-2-4-6l-54-22c4-11 23-52 21-60-10 2-17 39-27 58-7-2-18-9-25-7 2 5-2 1 3 5 1 1 4 2 6 3 5 1 9 3 14 5l-17 42c-28-11-53-22-82-30-2 7 5 7 13 10l67 26-22 56c-5-1-9-3-13-5-3-1-5-2-7-2-5 0-1-1-5 1 1 7 4 4 23 12l-19 48-65-25c-20-7-14-8-18-3 3 5 67 28 81 34l-21 54c-18-6-19-11-26-5 4 6 16 8 24 12l-22 56c-19-8-83-35-90-33 0 5-3 2 5 7 1 0 7 3 9 3l74 29-20 51c-8-2-18-9-25-7 0 5-1 1 2 5l21 8-22 55c-13-5-75-31-82-31-1 8 2 7 11 10l69 27-22 58c-5-2-9-3-14-5-8-3-7-5-12-2 1 8 5 6 23 13-4 10-8 21-12 31-7 18-11 22-6 27 3-2 4-4 5-6 0-1 2-5 2-6l17-44 44 17c12 5 12 6 17 3l-7-6c-1 0-6-2-7-3l-44-17 22-57c14 2 49 18 65 24 11 4 22 9 33 13 14 5 25 12 30 8 0-5 3-1-4-5-5-3-106-39-122-48l22-53c10 3 21 8 32 12l15 6c13 5 12 2 14 0-4-4-51-22-59-25l20-51c16 5 44 17 61 24 10 4 21 8 31 12 29 11 25 13 29 4l-119-46 22-56c12 4 51 23 60 21 0-6 4-1-3-6-2-1-7-3-9-4l-46-18zm173-495c0 5 0 7 5 11 8 8 32 17 37 7 6-12-29-28-42-18zm99-135c9-24-17-26-23-16-4 7-2 14 4 18 8 4 13 0 19-2z"/><path class="fil7" d="M1254 1315c-307 55-621-384-577-825-27 151-2 312 67 458 80 170 212 333 328 410 38 25 77 39 117 43 10 1 20 1 30 0 43-1 86-16 127-43 116-77 248-240 328-410 41-86 66-178 75-269-38 242-243 590-495 636z"/><path class="fil8" d="M1189 1401c-1 7-3 13-5 18-5 16-21 32-20 32 7 1 25-23 29-30 11-16 5 8 4 14-2 14-4 30-3 29 1 0 7-13 10-27 3-10 3-35 6-14 0 6 1 13 3 19 2 10 7 18 9 23 1 1-2-13-4-28-1-11 0-24 1-26v-10c-10 1-20 1-30 0z"/><path d="M1157 1451c2 2 4 3 6 5 15 12 37 20 57 16 2 0 4 0 6-1 1 0-1 3-6 4s-12 1-15 1c-10-1-31-6-43-18-3-3-4-5-5-7z" fill="#f3adff"/><path class="fil8" d="M1359 1349c-148 70-254 35-347-37 21 17 41 33 60 46 38 25 77 39 117 43 10 1 20 1 30 0 43-1 86-16 127-43 4-3 9-6 13-9z"/><path class="fil10" d="M1540 381c-36-51-115-120-138-158-25-40 37-40 60-28 62 30 117 103 149 174 9 20 8 30 2 37-17 19-49 10-62-9-5-7-9-12-11-16zm96 69c1 5 2 11 2 16 1 12 1 24 0 33-3 17-11 21-16 20-13-1-28-46-31-52-4-8-9-19-8-29 1-13 46-31 53 12z"/><path d="M963 1206c-29-36-77-85-114-142-58-91-108-199-129-284-19-80-2-103 4-84 21 76 61 184 107 278 63 128 132 232 132 232z" fill="#f5baff"/><path class="fil10" d="M1470 1168c29-36 77-85 114-142 58-91 109-199 129-284 19-80 2-103-4-84-21 76-61 184-107 278-63 128-132 232-132 232zM721 408c113-415 811-516 985 24-31-124-100-245-193-311-85-60-187-96-292-97-249-1-433 140-491 345-4 13-7 26-9 39zm-97 1680c-1 29-10 34-28 54-12 12 41 25 56 24 17-2 32-6 23-17-17-20-17-52-20-63-10 1-20 2-31 2z"/><path d="M121 1677c100 164 253 315 380 381 96 49 196 38 279-31 109-91 226-272 288-454 55-158 62-326 16-478-30-101-81-193-151-266-248-262-649-221-837 86-55 89-86 192-94 298-12 159 31 321 119 464z" fill="#9ce5ff"/><g clip-path="url(#id1)"><path id="1" class="fil13" d="M812 749c-94-53-201-78-309-67-253 26-425 190-461 406-40 237 193 418 442 427 227 9 675-156 559-472-44-123-129-238-231-294z"/><path class="fil5" d="M447 1031c27 26 30 65 15 87-21 33-61 19-79-1-57-59 4-146 64-86zm117-59c67 62 6 189-65 126-44-39-39-129 17-142 19-5 33 3 48 16zm-296 183c5 14-3 7 9 6 1-1-2-6 2-10 1-1 1-2 1-3 2-15 1-34 27-42 18-6 38 4 49 13 39 31 28 93-15 87l2 3s1 1 1 2l16 20c55-114 254-168 291-6 16 72 14 113 57 189 38 67 92 98 102 181 7 53-14 125-88 139-120 22-216-109-292-187-106-108-80-144-97-170l-5-8-8 9c-3 16 14 62 23 81 31 62 119 147 170 196 43 42 79 70 127 89 37 14 110 14 151-31 35-38 43-92 30-143-17-69-62-102-96-159-37-59-44-106-55-166-5-27-10-54-28-81-20-32-38-34-61-49 2-4 0-1 3-6 1-1 2-3 3-4 2-3 4-4 6-8 28-41 16-107-22-139-21-18-49-26-75-11-33 18-33 43-43 66-24-13-55-31-87-2-31 27-17 64-18 82-17 1-37-13-63 7-16 12-26 38-17 55z"/><path class="fil5" d="M591 1518c-5 3-15 7-20 11-9 7-5 7-12 15-18 1-39-12-15-26 14-9 36-8 47 0zm-67-12c-12 23-18 46 16 56 13 3 21 0 33 6 14 7 15 10 31 8 1 14-1 3-4 17-1 7 1 13 5 20 9 3 45 7 54 4-20 13-94 19-86 52 9 2 60-6 70-8 40-6 65-3 72-17-9-3-65-2-74 0 24-14 93-16 93-44-18-13-92 12-112-8 23-19 79 5 72-33-33-19-73 18-103 0 48-28 23-19 37-37 0-1 2-2 6-7-11-25-38-28-56-29-32-3-50 21-66-2 16-5 28-13 36-24-8-16-19-16-34-12-29 6-25 18-36 23-13 6-28-5-18-21 11-17 67-11 114-20 18-3 89-28 41-39-37-7-120-3-161 36-20 18-41 52-2 61 13 3 27 0 38 3l34 15zm-236-142c-35 3-80-58-22-69 12-3 37 9 46 24 10 17-1 42-24 45zm22-151c51 35 11 92-45 55-38-24-20-85 32-65 12 5 7 5 13 10zm31-7c-17-5-23-6-38-16-18-14-18-24-23-42 0 1 0 2-1 3-4 4-1 9-2 10-12 1-4 8-9-6-4 10 0 12 7 26-28 12-38 12-45 40s3 38 22 59c-29 18-42 47-15 78 21 26 47 27 80 10l3 10 8-9 5 8c3-11 0-9-1-21l4-57c10-40 23-58 24-68l-16-20c0-1-1-2-1-2l-2-3z"/></g><path class="fil4" d="M121 1677c100 164 253 315 380 381 96 49 196 38 279-31 109-91 226-272 288-454 55-158 62-326 16-478-30-101-81-193-151-266-248-262-649-221-837 86-55 89-86 192-94 298-12 159 31 321 119 464z"/><path class="fil10" d="M681 1994C375 2084 5 1671 2 1217c-11 157 32 318 119 460 100 164 253 315 380 381 41 21 83 31 123 30 11 0 21-1 31-2 44-7 86-27 125-59 109-91 226-272 288-454 32-93 48-189 47-283-12 251-182 629-434 704z"/><path class="fil14" d="M624 2088c0 8-1 14-2 20-4 16-18 34-18 34 8 1 24-26 27-34 9-17 5 9 5 14v31c2-1 6-15 8-30 2-10-1-36 4-14 2 5 3 12 6 19 3 10 9 18 12 22 1 1-4-12-7-28-3-11-4-24-2-26-1-4-1-8-2-10-10 1-20 2-31 2z"/><path class="fil15" d="M598 2143c2 2 4 3 6 4 17 11 40 17 60 11 3-1 4-1 6-2 1 0-1 3-6 5-4 1-12 2-14 2-11 0-33-3-46-13-4-3-5-5-6-7z"/><path class="fil14" d="M792 2016c-143 89-255 64-357 1 22 16 44 30 66 41 41 21 83 31 123 30 11 0 21-1 31-2 44-7 86-27 125-59 4-3 8-7 12-11z"/><path class="fil15" d="M868 1011c-42-49-130-111-158-147-29-38 33-44 59-35 66 23 131 92 171 161 11 19 12 30 6 38-15 21-49 15-65-3-5-6-10-11-13-14zm106 58c2 6 3 12 4 17 2 12 4 24 3 33 0 18-8 23-13 23-14 0-34-44-38-50-4-8-11-19-11-29 0-13 43-36 55 6z"/><path class="fil13" d="M373 1916c-34-35-88-79-132-133-69-86-133-191-163-275-29-79-14-105-6-86 31 75 83 181 140 271 79 123 161 223 161 223z"/><path d="M37 1128c69-435 769-615 1006-85-44-123-129-238-231-294-94-53-201-78-309-67-253 26-425 190-461 406-3 14-4 27-5 40z" fill="#cff2ff"/><path class="fil17" d="M1234 2586c-11 27-21 28-45 40-15 8 30 38 45 42 16 4 32 5 27-8-9-24 1-55 3-66-11-2-21-5-30-8z"/><path class="fil18" d="M900 2027c39 189 131 383 228 488 73 79 171 103 273 66 134-48 305-179 426-329 106-131 169-286 178-445 6-105-11-209-52-302-144-331-536-429-818-204-81 65-145 151-189 249-65 145-80 313-46 477z"/><path class="fil17" d="M1319 2516c-318-19-526-534-375-962-64 144-78 310-44 473 39 189 131 383 228 488 31 34 67 58 106 71 9 3 19 6 30 8 43 8 90 4 137-13 134-48 305-179 426-329 62-76 109-161 140-251-96 233-385 531-648 515z"/><path class="fil19" d="M1234 2586c-3 7-7 13-9 17-9 15-29 27-29 27 8 3 31-17 38-23 14-14 2 10-1 15-5 13-10 29-10 29 2 0 10-12 18-26 5-9 11-34 8-12 0 6-1 13-1 20 0 11 3 20 4 25 0 2 0-13 2-28 2-12 6-25 8-26 1-4 1-8 2-10-11-2-21-5-30-8z"/><path class="fil18" d="M1190 2629c2 1 3 3 4 5 13 16 33 29 54 31h6c1 0-2 2-7 2s-12-1-15-2c-10-3-29-14-39-28-2-4-3-7-3-8z"/><path class="fil19" d="M1416 2575c-164 35-261-26-337-121 16 23 33 43 49 61 31 34 67 58 106 71 9 3 19 6 30 8 43 8 90 4 137-13l15-6z"/><path class="fil20" d="M1866 1388c-70-80-163-141-267-167-248-62-466 34-573 225-119 209 39 459 271 553 210 85 688 82 687-254 0-131-41-268-118-357z"/><path class="fil21" d="M1830 1654c-23-60-85-148-99-191-15-46 47-31 67-14 55 45 92 132 106 210 4 22 2 32-6 38-22 15-51-2-60-25-4-8-6-14-8-18zm80 92c-1 5-1 11-2 17-2 12-5 23-8 32-7 17-16 18-20 17-14-4-18-53-19-60-2-9-5-21-1-31 4-13 53-20 50 25z"/><path class="fil20" d="M1056 2337c-20-43-57-103-79-169-36-105-60-225-60-315 0-84 23-103 24-82 3 80 16 198 39 303 32 142 76 264 76 263zm515 85c37-29 97-66 147-114 80-77 157-173 198-252 38-75 27-103 17-85-40 70-106 169-175 251-93 112-187 200-187 200z"/><path class="fil21" d="M1008 1482c213-386 933-317 976 263 0-131-41-268-118-357-70-80-163-141-267-167-248-62-466 34-573 225-7 12-13 24-18 36z"/><path class="fil0" d="M624 2088c48 7 73 52 75 102 1 44-15 92-40 128-70 99-214 145-222 192-14 91 295 191 272 373 22-175-303-276-289-371 7-46 162-98 236-199 57-78 52-211-32-225z"/><path d="M882 1858c0-64 7-126 22-186 10-41 23-80 40-118 1-1 1-3 2-4 26-59 61-115 102-163 8-10 17-19 25-28l5-5c11-12 24-25 37-35 1-21-1-52-2-72-3-29-7-57-7-58-11 120-63 168-102 213-54 61-105 138-134 226-29 87-45 185-43 283 19-16 38-34 55-53z" fill="#72d7fc"/><path class="fil14" d="M882 1858c-17 19-36 37-55 53 1 23 3 74-41 111 35-28 81-84 98-106-1-20-2-39-2-58z"/><path class="fil23" d="M1140 1088c-60-189-199-342-367-407-31-12-63-21-96-27 0 7 1 13 2 20 28 7 56 18 83 30 62 29 120 70 171 125 70 73 121 165 151 266 6 17 10 34 14 52 10 47 16 95 17 143v17c3 1 6 2 10 3 3-3 7-6 10-9 12-9 25-18 37-27-2-64-13-127-32-186z"/><path class="fil23" d="M1469 1134c-106-4-241 24-304 62 4 26 7 52 7 78 97-66 205-96 310-94h7c13-13 26-26 38-40-31-6-44-6-58-6z"/><path class="fil7" d="M1098 1147c10 47 16 95 17 143v17l10 3c3-3 7-6 10-9 12-9 25-18 37-27 0-11-1-23-2-34-11 6-21 13-30 20 0-37-8-85-23-136-39-134-126-292-250-355 23 18 45 37 66 60 70 73 121 165 151 266 6 17 10 34 14 52z"/><path class="fil7" d="M1366 1170c-61 9-138 36-196 70 1 11 2 23 2 34 97-66 205-96 310-94 11 0 36 2 46 3-24-15-125-18-162-13zm-241 140c-4-1-7-2-10-3v12c3-3 6-6 10-9z"/><path class="fil5" d="M1185 2240c-5 5-21 2-27-1-11-4-14-8-22-13 6-9 30-28 40-36l5-3c2-1-1 0 2-1 0 4 2 37 2 38 3-1 7 0 9 4 1 2 0 1 1 4l-2-1c-2 10-5 5-8 9zm253 119c-10 0-21-10-29-14-28-21-48-51-51-86-5-43 11-79 38-104 22-20 58-35 103-23 21 7 34 15 49 27 10 7 31 32 32 38 12 13 11 47 5 67-15 51-55 97-110 100-9 1-30 1-37-5zm-310-143c-9-14-15-30-9-54 9 3 18 7 28 9 12 1 15 1 26 6-2 3-8 7-12 9-9 8-29 28-33 30zm19-90c15 8 14 6 20 0l15 10-2 31c-12-4-13-6-27-8-10-2-19-5-29-7 3-11 15-22 23-26zm76 31c12-3 16 3 16 15-26-7-35 0-46-3-1-7 0-19 1-27 2 1 9 4 11 6 3 2 6 12 18 9zm-41-58c4-12 13-20 22-26 2-2 5-5 8-6 8 17 7 25 1 49l-6 19c-7 1-27-15-35-18 2-5 7-16 10-18zm-3 154c-1-5-3-4-3-9l4 2c3-2 3-3 8-2-3 5-11 6-3 8 2 0 7-2 9-2l8-4c-2-3-3-6-5-7-2-3-1-4-1-8v-22c0-18-2-17-2-29 14 3 20-1 44 4-2 7-3 12-6 19-3 4-7 9-8 14 1 2 0 0 5 2l-1 7c10-11 22-32 22-49 0-6-2-14-1-17 13 2 21 0 33 0l12-3c4 20-3 46-12 65-10 20-19 34-33 47-20 19-47 31-76 31-14 0-22-4-35-6l-3-2c-7 10-21 7-15-8-33-23-54-54-57-96-2-23 3-47 15-67 7-13 17-24 28-33 4-4 8-6 11-9 3 2 8 8 10 11-2 3-4 4-7 7-15 20 8 20 16 23-1 3-9 8-14 15-16 20-20 45-11 68 5 14 12 24 23 34 15 13 25 14 45 16zm-52-146c2-5 11-12 15-15 13-11 35-32 54-28-4 3-7 6-11 11-8 10-22 33-27 44-5-2-7-5-13-8-7-3-13-2-18-4zm90 37c0-5 9-33 10-42 2-6 2-14 1-20-1-8-3-11-4-16 6 1 6 3 8 7l12 22c6 13 12 32 8 48-25-10-23 5-35 1zm-8-123c-2 4-12 14-3 17 7 1 6-5 14-12 14-12 19 8 12 26-3 8-10 4-19 2-7-1-16-1-19-6-5-7 1-36 15-27zm-44 39c-15 3-31-3-38-17-2-6-4-16 0-23 4-6 12-7 15-14 5-9 3-13 14-15 23-3 33 18 36 21-1 3-3 5-5 7-6-1-11-4-15-8s-6-8-12-2c-2 8 13 17 23 20-2 9-3 19 2 25l-20 6zm79-36c3-2 17-9 21-10 16-7 36-9 52 0 15 8-7 18-13 48-2 12-4 19-15 20-16 0-37-13-48-22 3-8 3-10 5-19 9 2 19 1 26-2s15-10 12-19c-11-6-7 5-16 10-5 2-16 3-22 0l-2-6zm-144-90l103 27 10 2 27 7 15 3c24 6 50 11 75 17 12 3 25 7 38 9 12 2 27 1 25 15-1 13-18 52-25 63-5 10-27 43-35 45-6 8-22 17-32 20-8 2-30 8-39 6l2-13c0-14-3-20-6-31-2-6-10-25-12-27 3 0 29 22 54 13 19-7 9-30 26-50 16-18 5-34-16-40-25-6-36 1-54 6-3 2-6 4-9 5l-10 4c-3 1-3 0-7 2-8 3-17 3-25 0-14-7-15-16-17-25l1-1c-14-8-29-15-44-7-12 6-4 11-19 23-3 2-5 5-7 6-8 14-6 27 1 38 6 10 12 19 31 20-2 3-11 11-15 13-11-11-20-26-29-39-9-14-16-26-23-41-6-14-12-29-15-46-8-41 15-28 31-24zm217-101c1 4 6 9 9 12 9 8 22 10 33 6 3-1 5-2 7-3 3-2 2-3 6-5 2 7 4 11 9 17 11 10 24 12 37 3 7-5 10-10 14-13 4 4 6 14 18 17 14 4 22-3 27-4 3 8 12 20 25 24 18 5 25-5 32-11 9 10 23 21 39 18 5-1 8-3 12-4 9 24 35 23 45 10 5 3 8 13 20 17 6 2 11 2 15 1 5-2 6-4 10-7 3 3 6 13 18 17 11 6 19-2 22-4-9 56-41 119-74 152-27 27-57 44-92 57-10 4-8 5-18 0-5-3-13-5-18-9-14-3-22-7-38-7-23-2-49 4-67 16l-17 11c-2 3-9 10-13 10-9 1-51-6-58-9 1-1 8-6 10-7 10-7 21-18 29-27 18-22 26-46 31-50 1-6 6-14 8-21 20-52-7-48-40-54-8-1-16-4-24-5-47-12-102-23-146-35-31-8-63-14-94-24-11-4-9-1-11-11-9-35-13-93-6-126 4 5 4 8 11 13 21 19 38-5 45-5 14 5 7 21 25 27 8 2 15 1 20-3 9-5 11-8 14-11 7 6 8 21 28 25 15 3 24-8 33-14 2 3 2 5 4 8 21 32 49 5 57 2l3 6zm-132-36c-4 5-13 11-22 10-9-2-13-10-14-17l36 7zm62 11c-5 5-16 14-26 13-10-2-19-17-19-21l45 8zm-123-25c-1 2-9 6-11 7-20 10-29-3-28-18l39 11zm502 105c-9 17-31 12-32-7l32 7zm-44-9c-4 4-14 7-23 4-7-3-14-10-18-15l41 11zm89 17c-4 5-11 11-19 10-7-1-12-11-13-16l32 6zm-362-79c-6 3-17 11-26 10-10 0-21-11-21-17l47 7zm406 84c-7 32-28 11-30 8-1-3-3-9-3-12l33 4zm-187-36c-5 10-13 16-26 11-8-4-16-15-17-22l43 11zm-158-38c-5 10-14 18-26 15-12-2-20-13-20-23l46 8zm104 24c-4 3-11 8-20 7s-13-9-14-16l34 9zm-48-12c-2 9-19 20-28 19-15-1-20-22-18-29l46 10zm-307-68c-10-1-28-9-38-12 13-51 14-50 33-97l2 2c11 13 16 20 32 32 7 5 14 10 21 14 7 5 16 9 22 14 5 2 12 6 18 10 3 1 5 3 8 5 13 8 26 19 38 29 35 28 54 28 70 39-2 1 0 1-3 1-1 0-3 0-4-1l-95-14c-14-2-99-17-104-22zm-49-14c-2-2-4-5-3-9s4-5 6-5l-3 14zm273 50c1-13 3-34 7-47 2 3 2 4 4 8 8 16 21 40-11 39zm19-98c3 3 5 14 4 18-1 6-8 10-11 12l7-30zm327 178c7-34 30-53 56-66 7-4 19-6 29-6-3 2-6 3-9 6-10 6-16 10-23 21-9 14-15 31-18 49-7 0-28-2-35-4zm-559-250c5-10 17-24 24-32 8-11 17-18 27-26 14-13 49-35 64-37l11 38c6 19 39 98 38 105 5 6 12 42 14 53 1 4 1 9 2 13 2 17 7 30 9 41-14-5-47-23-57-31-8-6-15-12-23-19l-11-9c-17-12-46-25-66-40-32-23-32-31-42-40 2-6 6-13 10-16zm-24 18c-1-5-2-10 5-8l-4 7-1 1zm268 2c3 4 6 13 5 20-2 8-8 13-12 16l7-36zm16-74c2 3 3 9 4 12 3 13 1 23-10 30-2 2-2 1-4 3l10-45zm-121-48c13-5 39-9 55-10 21-3 43-1 65 6 2 5-5 26-6 34l-21 100c-9 44-24 90-29 133l-5-12c-7-22-14-81-18-86-9 0-12-12-12-14 4 0 2 0 4 1l4-2-28-83c-1-4-2-5-4-9-4-12-18-43-18-55l13-3zm-27-2c1-7 5-8 9-3-2 2-5 3-9 3zm158 5c7 7 0 22-7 28l7-28zm432 291c7-1-1-2 9-4l1-1c-16-12-27-19-52-20-33-1-67 10-89 34-19 22-19 39-23 46l-1 2c-12 3-137-28-159-34-53-14-105-28-159-38 6-6 11-6 13-20 5-24-15-29-7-45 5-9 18-18 14-31-4-15-10-4 6-29 13-20 5-27-2-43 3-8 15-18 21-25 7-11 4-26 0-34-3-7-3-9 1-17 2-4 6-10 8-15 2-7 1-13-2-18-10-24-64-25-85-23-36 4-40 8-64 13-5-6-10-14-21-9-8 3-10 10-8 20-42 14-97 63-116 99-11-3-18-3-21 7-4 10 0 19 4 22-2 9-9 22-13 32-4 11-8 22-11 34-22-1-28 25-8 37-8 39-8 78-2 116 1 9 7 28 6 34-13 4-19 23-16 40 4 28 19 54 32 77l23 34c-3 3-4 3-7 5l-18 15c-7 8-15 17-20 27-14 24-18 49-15 75 5 42 34 86 70 106 42 24 98 15 132-16 23-21 48-57 54-91 3-17 1-23 0-37 22 6 43 7 64 11-7 13-13 19-19 35-6 15-8 30-7 45 1 67 66 149 150 128 47-12 84-53 101-98 11-29 9-55-2-78-16-35-42-51-44-54 22-5 60-29 79-44 50-39 80-99 95-163 11-43 14-92 53-109 7-4 17-6 26-6 18-1 22 5 29 8z"/><path class="fil5" d="M1423 2280c-4-3-9-16-10-23-2-10-2-19 0-30 9 3 19 7 28 8 12 2 15 1 26 6-2 3-1 2-6 5l-38 34zm65-35c8 0 36 1 44 4-5 21-21 49-41 53-2-12 2-37-3-57zm-70-29c7-20 35-38 60-32l-4 48c-12-5-13-6-27-8-10-2-19-5-29-8zm72-30c16 7 23 13 32 24 7 8 11 16 11 27-9-2-15-4-24-4-4 1-19 2-21-1s0-40 2-46zm-65 113h2c3-3 6-2 10-4l-6-5c2-3 8-8 11-11 10-9 20-18 31-27 3-2 1-1 4-2 3 8 2 46 1 57h-6c-1 4 2 8 5 10 7 0 17-4 22-7 20-11 38-34 44-57 9-34-17-64-48-75-33-13-68 0-85 30-10 17-11 35-7 52 4 18 13 27 22 39zm166-792c1 2 2 3 3 6l2 3s0 1 1 1c4 13 11 27 8 45-2 15-15 33-24 40-1 1-26 25-29 26l-26 28c-5-20-3-28-17-52-5-7-11-15-16-22-6-7-11-15-15-23-11-21 5-40 23-45 10-2 20-2 31 4 5 3 7 5 11 9 2 2 2 4 4 5 7 5 13-6-2-15 8-26 30-37 46-10zm16 5c-5 3-9 0-11-4-2-5 1-5 2-10-1-2-4-4-6-6s-6-5-8-6c-7-4-15-4-22-3-11 4-20 13-26 27-48-24-88 21-62 61l12 17c15 20 22 30 28 56 2 11 2 28 5 30 7 3 13-10 18-14 6-7 11-12 17-18 22-21 53-49 60-79 4-16 0-42-7-51zm235 326c1 3 9 9 14 18 12 21 15 48 8 74-8 29-44 59-76 43-43-21 5-75 28-59 6 4 10 12 11 19 0 4 0 11-3 14-4 4-7 1-11 2-8 2-4 15 12 11 22-7 15-52-10-59-37-10-64 39-49 67 7 13 26 20 46 19 37-2 58-29 65-64 5-30-3-58-20-81-3-3-4-5-7-8l-3 2c-4-4-2-7-9-8 0 6 1 3 4 10zm-269-101c3 2 7 3 11 4-2-29-13-67 19-77 14-4 31-1 42 10 18 17 5 33 20 28 3-7-1-9-1-15 5-5 20-13 30-12 13 2 16 15 15 27 2 9-5 31-10 40-6 12-15 19-24 23-17 9-48 16-68 18l-10 3c-7 12-6 8-8 11-2 2 0-3-1 2 10-2 21-5 32-8 29-6 66-16 85-39 24-31 23-86-15-86-15 0-21 6-30 11-8-9-14-19-31-23-16-4-29 0-39 7-30 20-16 50-17 76zm-376 502c2 1 3 4 5 7 3-1 5-1 8-3 6-5 9-6 14-12 2-2 2-2 4-5l1-7c-5-2-4 0-5-2-3 1-10 10-12 12-7 6-11 6-15 10zm40-224l-13-4c-1 2 0 1-1 2l-6 2c-16-12-12-2-17-10-3-5-6-10-12-13 2 9 3 18 17 25 8 3 17 3 25 0 4-2 4-1 7-2z"/><path class="fil5" d="M1427 2299l7 8h1c1-1 0-3 8-2 4 0 7 1 10 2 5 2 11 6 12 11h12v-1c-3-2-6-6-5-10-16 0-24-4-35-12-4 2-7 1-10 4zm157-509c-2 0-1 0-2 1-8 7-14 10-27 9l-2 6c6 4 10 1 15-1 4-1 12-3 14-5 1-4 4-6 6-11-2 0-2 0-4 1zm-21-5l-3 7c5 1 7-1 11-2 2-4 5-9 6-15 1-7 0-8-5-11l-2 8c1 3 3 4 1 8-1 3-5 5-8 5z"/><path class="fil5" d="M1563 1785c3 0 7-2 8-5 2-4 0-5-1-8l2-8c5 3 6 4 5 11l2-3v-3c1-3 2-5 2-8l1-1-9-5c-2 4-3 10-5 15-1 6-3 10-5 15zm-128 522l6 4c9 3 16 5 24 7-1-5-7-9-12-11-3-1-6-2-10-2-8-1-7 1-8 2zm136-517c-4 1-6 3-11 2l-5 8c13 1 19-2 27-9l-12 3 1-4zm-433 504c-1-1-9-6-11-6-2-1-5-3-7-4-6 15 8 18 15 8l3 2zm47-70c-1 2-1 14 0 16 3-4 6 1 8-9l2 1c-1-3 0-2-1-4-2-4-6-5-9-4zm125-524c-1-7-1-9-4-15l-4 2c-2-1 0-1-4-1 0 2 3 14 12 14zm263 55l1-7c4 2 5 2 9 5v-9l1-3c-4-1-8-2-11-4 1 3 1 6 0 9v5c-1 3-1 1 0 4zm34-243c-2-4-2-5-4-8-1-2-3-3-5-6-1 5-4 5-2 10 2 4 6 7 11 4zm225 317c2 3 7 7 10 9-3-7-4-4-4-10 7 1 5 4 9 8l3-2c-1-3-1-3-3-5l-5-5-1 1c-10 2-2 3-9 4zm-242-41l-2 1c-2 5-5 7-6 11 3 0 1 1 4 0 4-1 0 0 2-1 1-5-1 0 1-2 2-3 1 1 8-11l-7 2z"/><path class="fil5" d="M1573 1755l9 5 1-7c-4-3-5-3-9-5l-1 7zm-394 498l6-1c-8-2 0-3 3-8-5-1-5 0-8 2l-4-2c0 5 2 4 3 9z"/></g></g></svg>