<svg xmlns="http://www.w3.org/2000/svg" width="223.248" height="281.188" viewBox="0 0 1122 1413" shape-rendering="geometricPrecision" text-rendering="geometricPrecision" image-rendering="optimizeQuality" fill-rule="evenodd" clip-rule="evenodd"><defs><style>.fil7{fill:#2b2a29}.fil8{fill:#045918}.fil9{fill:#66a240}.fil3{fill:#970007}.fil1{fill:#f25a07}.fil5{fill:#ffda96}</style></defs><g id="Слой_x0020_1"><g id="_687256000"><path d="M458 115c-2-47-24-81 13-101 21-13 41-20 56-8 9 8 17 24 21 51 2 27 3 56 9 78 9 40 23 27 63 33 165 27 345 153 429 332 59 123 72 267 4 433-52 127-153 215-242 265-38 21-76 35-112 42-48 10-47 18-59 67-12 54-16 78-28 88-4 4-93 19-82-16 8-24 13-50 11-78-3-42 0-47-36-52-137-21-237-70-309-139C87 1006 18 854 15 705c-5-261 180-440 410-521 43-15 36-18 33-69z" fill="#ff9803"/><path class="fil1" d="M88 886l16 65 59 5 28 91 90 6 57 81 99-15 75 57 89-47 92 35 62-76 99 9 37-84 82-15 29-88 48-21 3-69-47 12-22 68-73-3-30 85-85-25-48 80-78-41-63 74-80-59-79 50-63-72-86 27-48-77-77 17-23-68z"/><path class="fil1" d="M197 660c6 2 13 15 15 52 7 99 76 252 77 267 1 22-70 84-86-49-3-22-56-287-6-270z"/><path d="M525 189c-3 112-5 299 42 355 6 6-103-9-117-106-8-62 17-158 35-218 14-49 18-155 4-215-6 2-12 5-18 9-1 0-2 0-2 1 15 48 28 142-23 169-15 8-34 12-52 12-23 9-45 19-66 30-20 22-27 47-28 69 0 8 1 16 2 23 1 5 3 9 4 14 12 36 43 59 43 59-3-25 3-42 5-44 11 111 162 252 276 248 21-1-5-6-5-48 0-17 4-33 11-48 4-10 9-19 15-28 21-35 49-69 61-105 7-19 19-51 13-75 17 16 34 57 27 78 28-40 40-60 41-89v-9c0-7 0-14-1-22 17 10 70 47 81 65-5-14-13-30-31-53 86 58 161 141 207 239l6 12c-2-6-1-12 0-14 5-25-26-28-24-72 0-17-15-34-31-33-21 1-2-28-13-28-2-2-8-5-15-8-35-14-16-26-39-45-12-10-41-13-41-20-4-25-40-21-44-40-2-16-26-22-38-23h-1c-7-1-11-7-12-11-5-10-21-17-31-16-22 0-26-11-44-19-12-6-31-2-36-6-9-7-20-11-32-13-1-1-16 0-17 1-15-10-34-7-51-7-2 0-19 1-19 1-4-4-8-12-10-24-6-22-7-51-9-78-4-27-12-43-21-51-5-4-10-6-16-6 4 61 15 126 14 189zm189 31c-29-9-111-25-139-23-43 1-8-37 84-8 64 21 130 56 55 31zm-347 45c-44 41-47 18-36-13 15-44 100-52 109-41 5 7-63 45-73 54z" fill="#176d08"/><path class="fil3" d="M162 344c48-47 104-87 166-118 24-13 49-24 74-33-3-3-11-5-15-5-63 0-22 31-65 25-31-3-64 27-63 46-22 0-34-3-48 11-13 12-13 36-26 40-27 8-12 22-23 34zm-22 24c-30 5-24 11-41 30-15 16-9 34-10 38 15-24 32-47 51-68zM14 633c2 3 3 9 3 10v-1c2-16 5-32 8-48-11 10-19 25-11 39zm1 72c0-14 0-28 1-41 0 0-10 13-11 15-15 27 10 40 11 54-1-9-1-19-1-28zm10 94c-3-17-6-33-7-50l-6 10c-8 14 3 32 13 40zm74 190c-2-4-4-7-6-11-4 32 18 35 27 42-7-10-14-20-21-31zm83 112c6 25 7 16 26 20-4-3-8-7-12-11-5-5-10-10-15-14 0 0 1 4 1 5zm37 32c16 31 4 18 34 23-13-8-25-17-36-27 0 3 2 2 2 4zm172 100c3-1 6-2 9-5-1-1-2-2-2-3-5-2-10-3-15-5-32-10-60-23-87-37 15 33 7 35 55 33 18-1 15 22 40 17z"/><path class="fil3" d="M539 1283c-1-22-3-28-23-32-3-1-7-2-11-2-39-6-74-14-107-24 0 1 1 2 2 3 7 12 18 17 31 21 15 6 37-1 40 2 23 19 39-7 46 5 8 16 11 16 22 27z"/><path d="M793 1221c2-3 9-18 11-20-28 15-56 26-82 34-8 2-15 4-23 5-10 3-19 5-25 7-23 9-25 22-34 60-12 54-16 78-28 88-4 4-93 19-82-16l3-9c-1 1-7 6-7 6-30 16-6 25 6 36 4 3 41-1 46-2 24-5 17 4 42-10 30-19 9-33 16-43 4-4 8-30 8-36 0-15 7-25 11-37 9-27 75-30 85-44 6-7 1-2 9-10 13-13 28 6 44-9z" fill="#80050b"/><path class="fil3" d="M897 1139c-29 23-58 43-86 59 3-1 18 6 30 1 37-14 25-28 32-33 15-11 13-15 24-27zm-55-878c86 58 161 141 207 239l6 12c-2-6-1-12 0-14 5-25-26-28-24-72 0-17-15-34-31-33-21 1-2-28-13-28-2-2-8-5-15-8-35-14-16-26-39-45-12-10-41-13-41-20-4-25-40-21-44-40-2-16-26-22-38-23h-1c-7-1-11-7-12-11-5-10-21-17-31-16-22 0-26-11-44-19-12-6-31-2-36-6-9-7-20-11-32-13-1-1-16 0-17 1-15-10-34-7-51-7-2 0-19 1-19 1 10 10 25 4 53 9 75 12 152 45 222 93z"/><path class="fil5" d="M241 468c-36 95-56 199-44 300 7 53 67 10 67-24 0-60-2-60 6-120 11-93 56-100 6-144-20-17-27-33-35-12z"/><path d="M567 159s17-1 19-1c17 0 36-3 51 7 1-1 16-2 17-1 12 2 23 6 32 13 5 4 24 0 36 6 18 8 22 19 44 19 10-1 26 6 31 16 2 4 6 11 13 11m-635 860c-11 1-23-8-24-19-1-2-4-12-4-13" fill="none"/><path class="fil7" d="M88 857l16 66 59 5 28 91 90 6 57 81 99-15 75 57 89-47 92 35 62-77 99 10 37-84 82-15 29-88 48-22 3-68-47 12-22 68-73-3-30 85-85-25-48 80-78-41-63 73-80-58-79 49-63-71-86 27-48-77-77 17-23-69z"/><path class="fil3" d="M636 499c27 160 38 317 34 469 8 4 16 9 25 13-9-190-24-357-44-510-5 10-10 19-15 28zm157-219c135 179 184 376 149 590h13c34-226-24-424-162-599v9zM572 788c7 2 20 13 36 36 26 37 51 92 14 104-23 7-72 10-91 6-58-13 8-156 41-146zm64 418c9 122-86 107-112 17-1-5 2 10-8 28 20 4 22 10 23 32 1 5 1 11 2 18 1 24-2 47-8 68v1l-3 9c-11 35 78 20 82 16 12-10 16-34 28-88 9-38 11-51 34-60-29-8-38-41-38-41z"/><path class="fil1" d="M524 1223c26 90 121 105 112-17 0 0 9 33 38 41 6-2 15-4 25-7 8-1 15-3 23-5 26-8 54-19 82-34h1l6-3c28-16 57-36 86-59 5-4 9-8 14-12 57-49 110-114 142-194 42-103 53-198 41-284-6-47-19-91-37-133-1-1-1-3-2-4l-6-12c-46-98-121-181-207-239 18 23 26 39 31 53-11-18-64-55-81-65 1 8 1 15 1 22 138 175 196 373 162 599l29 2 22-68 47-12-3 68-48 22-29 88-52 10c-15 42-43 91-61 113-41 50-97 93-132 67-14-9-34 35-78 8-94-60-76 86-262-24-80-47-39-1-69-7-1-1-3-1-5-1 21 30 44 59 69 84 5 2 10 3 15 5 33 10 68 18 107 24 4 0 8 1 11 2 10-18 7-33 8-28z"/><path class="fil1" d="M383 1220c-29-27-55-56-78-86-87-21-144-63-206-145 7 11 14 22 21 32 1 1 2 2 2 3 8 12 17 23 25 33 9 11 18 22 28 32 2 2 4 4 6 7 5 4 10 9 15 14 4 4 8 8 12 11 3 3 6 6 9 8 11 10 23 19 36 27 13 10 28 19 43 27 27 14 55 27 87 37z"/><path class="fil3" d="M1057 516c18 42 31 86 37 133 21-9 9-70 5-84-11-30-32-31-42-49zm37 133c12 86 1 181-41 284-32 80-85 145-142 194 8-2 47-7 75-42 17-21 33-95 42-95 23 1 32-44 26-53 2-7 40-13 20-42-2-3 29-34 29-69 0-26-16-26-1-39 26-23 29-115-8-138zm-943 421c1 11 13 20 24 19-10-10-19-21-28-32 0 1 3 11 4 13zm149-775c-85 110-130 256-131 405 6-2 11-4 14-6 3-125 39-254 119-376-1-7-2-15-2-23zm-87 624c-20-66-30-136-30-209-5 0-9-1-14-2 0 72 10 145 31 214l13-3zm101 217c-23-35-45-73-63-113l-13-1c19 39 41 77 67 112 23 30 49 59 78 86-25-25-48-54-69-84z"/><path class="fil8" d="M446 184c51-27 38-121 23-169-35 21-13 54-11 100 3 51 10 54-33 69-7 3-15 6-23 9-2 1-5 2-8 3 18 0 37-4 52-12z"/><path class="fil8" d="M489 5c14 60 10 166-4 215-18 60-43 156-35 218 14 97 123 112 117 106-47-56-45-243-42-355 1-63-10-128-14-189-7 0-14 1-22 5z"/><path class="fil9" d="M659 189c64 21 130 56 55 31-29-9-111-25-139-23-43 1-8-37 84-8zm-328 63c-11 31-8 54 36 13 10-9 78-47 73-54-9-11-94-3-109 41z"/><path class="fil5" d="M762 435c-89 58-22 80 25 161 30 52 148 8 102-57-17-23-41-84-74-107-27-19-29-13-53 3z"/><path class="fil5" d="M830 660c-9 74 2 121 87 124 34 2 44-215-29-169-9 6-56 23-58 45zm9 228c-36-26-64-52 0-93 18-11 48 9 54 40 6 35-7 85-54 53zm-615-11c0-38 2-22 38-42 13-7 40 24-13 47-17 7-24 13-25-5z"/><path class="fil7" d="M572 803c6 2 16 10 29 29 21 29 41 73 11 82-18 6-57 9-72 5-46-10 6-124 32-116zm87-3c10-7 16-13 20-18 3-57 18-146 62-188 65-3 103 17 131 38 48 35 29 38 86 37-43 10-77 29-78 29 0 1-41-52-112-52-19 26-35 39-41 114-3 2-76 46-68 40zm-199-24c-11-6-19-10-23-14-15-55-47-140-98-172-65 9-98 37-121 62-40 44-21 44-78 54 45 1 82 14 83 13 0 1 30-59 99-73 24 22 42 31 63 104 4 1 84 30 75 26z"/><path class="fil8" d="M567 466c-29-45 7-313 114-146 18 28-109 155-114 146z"/><path class="fil9" d="M517 112c1 38 0 66 19 56 4-2 5-54-3-97-24-133-17 11-16 41z"/><path d="M263 303c-47 38-108 92-155 188-50 103-82 248-16 311 60 56 47 0 56-115 8-107 36-266 121-373 15-19 4-19-6-11z" fill="#fc7b03"/></g></g></svg>