<svg xmlns="http://www.w3.org/2000/svg" width="316.954" height="271.32" viewBox="0 0 1070 916" shape-rendering="geometricPrecision" text-rendering="geometricPrecision" image-rendering="optimizeQuality" fill-rule="evenodd" clip-rule="evenodd"><defs><style>.fil0{fill:#349cc2}.fil4{fill:#5ecbf2}.fil3{fill:#82deff}.fil2{fill:#9ce5ff}.fil1{fill:#baedff}.fil5{fill:#ebfaff}.fil7{fill:#349cc2;fill-rule:nonzero}</style></defs><g id="Слой_x0020_1"><g id="_764111024"><path class="fil0" d="M1030 230c-3-2-27 16-31 18-16 10-31 18-47 28-6 4-31 12-32 14 2 2 16 9 20 7 10-4 14-5 24-4 21 2 19-3 35-4 5 0 14 6 22-2 4-5 11-1 12-10 0-1 10-7 6-12-2-2 6-7 0-14-4-5-7-15-9-21zm-464 55c2-20 4-38 6-51-2 13-4 31-6 51zm6-55c3-24 4-40 6-51-5 4-12 4-7 17 8 21-5 24-7 28 0 2 9 36-1 41-3 2 1 11 3 20 0 1 1 2 1 2 0 2 12-43 23-87-4 0-9 5-13 18-1 2-3 6-5 12zm211 252zM561 316c-1 2-1 3-2 5v2c-1 1-1 3-1 4 0 2-1 15-2 22 2 12 6 24 3 35-4 16 6 21 6 42 0 14-1 13 9 22 5 6 6 2 9 9 10 27 25 1 50 21 4 3 24 2 30-1 2 6 5 8 12 9 27 4 13-13 53-3 25 6 31-9 49 4 7 6 21 2 36 2h1c9 0 19 1 28 7 1-2 1-3 2-3 13 2-30-17-35-17-32 0-81-17-111-28-12-5-21-11-29-16-13 2-26 4-31 7-15 11-8-1-25-1-2 0-4-2-5-4-3-2-5-4-6-10 0-1 0-3 1-5-1-3-3-6-5-8 0 0 1-14 2-34-1-2-2-5-4-9-5-9-21-80-20-86-1 3-11 23-15 34z"/><path class="fil1" d="M572 234c11-83-5-76 80-93 86-17 198-32 308-44 39-5 51-11 59 15 4 13 4 35 6 56 3 25 9 48 10 68 2 41-1 48-37 52s-163 5-188 25c-10 8-17 25-13 45 2 6 5 15 12 21 27 23 88 21 123 31 32 8 78 39 97 66 44 65 49 153 25 229-21 64-69 108-131 138-14 7-32 10-47 16-13 5-23 12-30 21-12 14-10 31-22 34-16 3-18-10-25-23-10-17-24-21-42-25-103-23-155-84-171-156-8-34-14-48 10-55 31-8 94-2 133 2 25 2 26 16 45 27 14 7 27 8 38 7 57-6 85-99 4-125-50-16-118-11-161-18-21-3-41-7-59-12-6-2-11-7-15-12-32-45-18-224-9-290z"/><path class="fil2" d="M916 188c21 1 49 2 68 9 10 3 11 4 16 14 4 11 8 26 4 27-2 1-17-4-36-9 36 11 67 32 41 58 25-5 28-15 26-51-1-20-7-43-10-68-2-21-2-43-6-56-8-26-20-20-59-15-93 10-187 22-266 36-14 11-18 22 7 30 28 9 154-19 169 27 13-1 30-2 46-2z"/><path class="fil3" d="M774 684c-19-11-20-25-45-27-39-4-102-10-133-2-24 7-18 21-10 55 16 72 68 133 171 156 18 4 32 8 42 25 7 13 9 26 25 23 12-3 10-20 22-34 7-9 17-16 30-21 1 0 3-1 5-2-10 3-18 0-35 15-12 11-30 15-42 1-5-5-19-17-33-26v-1c-30-12-59-24-86-43-28-17-53-37-69-63-15-23-26-50-20-64 1-3 4-6 8-7 17-6 53 3 76 2 28 0 43 3 62 22 12 12 41 116 58 121 13 4 87-19 100-20 25-2-23-86-12-103 3-3 9-17 7-25-1-10-9-1-16 8-4 4-9 8-11 9-9 8-18 13-26 16-6 3-17 3-19-2-2-8 12-10 19-14 14-8 15-20 18-27-3 5-6 10-9 14-7 8-14 13-22 16-16 8-38 7-55-2z"/><path class="fil3" d="M902 435c66 20 120 48 123 164 0-1 1-2 3-2 16 3 10 44 9 53-1 18-11 52-20 69-1 2-2 6 3-2 5-7 15-27 16-25 3 4-14 43-19 52-9 16-27 43-52 64-11 10-31 21-49 29-17 6-61 16-74 25-13 10-3 12-25 1-15-7-31-11-46-16 14 9 28 21 33 26 12 14 30 10 42-1 17-15 25-12 35-15 14-4 29-8 42-14 62-30 110-74 131-138 24-76 19-164-25-229-19-27-65-58-97-66-7-2-15-4-24-5-2 0-28 0-41-1-21-1-41-6-40-5 0 3 32 9 59 14 20 3 35 6 42 8 13 5 17 11 3 8-7-2-37-6-67-10-17-2-34-4-46-6-13-3-16-9-17-10-1 5 4 11 23 14 33 6 53 10 78 18z"/><path class="fil1" d="M91 290c64 11 86 15 101 10 17-6 14-18 35-51 9-13 22-26 47-27 36-2 66 14 73 50 4 20-4 40-37 59-25 14-55 17-84 26-77 21-141 83-168 157-20 58-20 123-2 182 19 62 19 53 77 61 41 6 82 11 124 17 27 4 13 14 31 33 14 15 17 7 27-6 2-4 5-7 9-11 8-9 46-17 58-18 38-2 77-5 115-7 36-2 63 7 73-27 10-41 0-75-2-126-2-19 0-25-7-30-20-15-94-4-142 3-36 5-73 10-95-26-7-11-6-25 0-35 19-29 60-36 105-53 43-17 88-44 117-109 17-38 21-82 17-120-11-101-51-163-146-208C362 7 302 6 242 5 125 21 74 64 28 167c-12 28-22 55-24 76-4 45 47 41 87 47z"/><path class="fil4" d="M429 471c43-17 88-44 117-109 7-16 12-33 15-50 0-22 1-44 2-65v-5c-4-32-10-61-21-86 4 28 8 67 5 100-1 21-11 53-20 72-13 26-25 34-13-4 3-10 5-20 6-27 0-21-18-22-19-7-2 17-20 70-34 70-5 0 8-20 13-52 1-5 1-9-1-19 5-19 4-58-4-61-11-3 3 38-10 85-12 41-43 86-116 109-33 10-66 16-88 24-2 0-13-4-13-3 0 2 6 7 11 12 7 6 6 7 4 17-3 11-16 36-31 55-1 1 47-3 44 54 0 1 11 3 22 9 7 4 14 12 15 12 45 13 30 23 81 14 52-8 93-32 153-23 5 1 14 4 20 6 0-10-1-13-6-17-21-14-94-4-142 3-36 5-73 10-95-26-7-11-6-25 0-35 19-29 60-36 105-53zM60 253c-35 15-72 11 1 26 37 8 87 15 110 23 9 0 15 0 21-2 28-9-51-85 32-116 24-9 73-10 99 0 9 3 18 10 21 12 14 7 22 19 28 17 0 0 8-10 14-15 10-10 18-17 7-29-37-36-78-63-132-60-17 1-29 3-41 7-32 10-54 40-78 62-23 19-49 29-70 47-10 9 2 21-12 28z"/><path class="fil3" d="M306 179c-26-4-62-2-82 5-83 31-4 107-32 116 6-2 9-5 12-9 10-24 19-56 44-69 27-15 53-13 70-7 18 6 38 24 44 42 10 30-2 52-22 68-62 50-145 33-218 98-20 18-34 37-49 58l-15 33v2c15-28 38-61 60-79 12-11 32-25 56-36 15-7 50-16 81-25 37-10 100-22 122-58 9-15 10-38 7-55-2-15-9-36-14-40-2-2-4 0-6 4-8 10-4 10-14 1-10-7-26-18-37-22-7-1-6-15-7-27z"/><path class="fil5" d="M425 282c0-1-1-6-2-16-2-11-2-24-4-24-4 0-14 4-22 6-7 3-8 5-9 9-1 7 1 15 3 21 3 5 5 7 8 7 3 1 26 0 26-3zm-37 33c0-9 2-19 5-26 2-4 16-2 25-1 5 0 5 1 5 5s-1 11-2 18c0 5-1 10-2 14-3 17-9 8-24 0-5-3-8-4-7-10zm4-70c6-1 15-5 18-7 6-4 4-5-1-17-2-5-5-14-8-22-1-5-3-9-9-7l-6 6c-6 5-14 15-14 15h-1c0 3 1 6 1 8 3 9 8 26 20 24z"/><path class="fil2" d="M393 92c15 11 5 14-14 25-9 5-20 12-28 17 14 10 28 22 42 35 5 5 6 10 5 14 15-4 41-19 52-2 7 11 18 37 21 62-1-11 0-16 4-15 8 3 9 42 4 61 2 10 2 14 1 19-5 32-18 52-13 52 14 0 32-53 34-70 1-15 19-14 19 7-1 7-3 17-6 27-12 38 0 30 13 4 9-19 19-51 20-72 3-33-1-72-5-100-21-53-60-92-125-122-32-16-65-22-99-26-7 6-9 15-8 21 5 22 68 53 83 63z"/><path class="fil3" d="M436 747c-15 8 29 16 36 17 8 0 15 1 17 1h8c36-2 63 7 73-27 10-41 0-75-2-126-1-5-1-10-1-13-2-1-5-2-8-3 5 5 7 33-4 40-4 3-16 13-18 23-2 13 2 19 5 22s3 5 3 8c-3 25-99 52-109 58z"/><path class="fil4" d="M436 747c23-13 104-24 109-61-3 14-62 16-62 4 1-10 11-26 4-23-18 8-111 12-135 12-10 0-24-3-23 8 0 7-24 6-46 0-14-3-29-11-31-12-14-6-31-17-42-27s-16-18-18-13c-10 23 36 49 53 55 3 2 15 7 26 10 18 5 33 0 27 14-15 32 81 28 125 33 33 4-57 14-59 14-1 1 0 1 1 2 3 2 72 0 107 1-7-1-51-9-36-17z"/><path class="fil3" d="M147 752c64 6 180 6 257 4 20-3 37-7 19-9-44-5-140-1-125-33 6-14-9-9-27-14-11-3-23-8-26-10-15-5-55-27-55-49-11-6-22-12-32-17-19-8-50 24-70 51-46 61-6 70 59 77z"/><path class="fil4" d="M257 774c27 4 13 14 31 33 14 15 17 7 27-6 2-4 5-7 9-11 7-8 42-16 55-17-28-2-56-1-64 10-6 8-18 4-20 1-11-13-56-17-87-17l49 7z"/><path class="fil5" d="M218 427c-31 30-52 65-75 101-5 8-28-5-22 6 1 4 13-1 8 20-3 16-10 44-1 60 5 10-8 14-16 23-7 7-21 14-29 25-16 22-27-81 2-154 46-116 153-101 133-81zM12 249C7 218 74 76 117 72c17-2 76 4 45 34-4 4-40 28-66 51-12 12-27 34-34 51s-8 31-8 31c-5 2-15 8-24 11-10 3-18 3-18-1zm206 276c-8 4 7 2 14 2 15-19 28-44 31-55 2-10 3-11-4-17l-6-6c7 24-18 66-35 76z"/><path class="fil3" d="M207 532c-1-5 6-5 9-5 0-1 0-1 2-2 17-10 42-52 35-76-3-3-5-5-5-6s11 3 13 3c22-8 55-14 88-24 73-23 104-68 116-109 8-28 6-55 6-70-3-25-14-51-21-62-2-3-5-5-8-6 5 5 9 13 12 22 12 33 16 85 1 93 9 13-9 64-25 57 2 3 1 7-1 11-12 19-41 45-48 38 6 6-19 14-33 16-3 1-4 0-7-2s2 7-1 8c-7 2-19 7-26 7-5 0-5-4-12-4-2 0-7 0-15 2-41 12-45 12-48 17-4 5-10 15-19 26-15 20-33 46-42 57-10 13-8 44-1 68 5 18 14 31 20 36 0 1-1 3 6 14l7 7c11 10 28 21 42 27 2 1 17 9 31 12 22 6 46 7 46 0 0-2 0-4 1-6-8-2-18-5-27-8-14-6-32-14-32-14-1-10-44-33-48-42-2-5 7-11-5-46-4-14-9-30-11-39z"/><path class="fil5" d="M552 639c-53 4-20 40-39 58 14 0 29-4 32-10 0-2 0-4-3-6-3-3-7-9-5-22 1-8 9-16 15-20z"/><path class="fil4" d="M4 243c2-21 12-48 24-76 10-23 20-42 32-59-1 0-1 1-2 1-5 3-7 7-10 12-2 7-6 14-11 19-1 1-2 4-3 7-1 5-1 7-2 8s-2 1-6 5c-4 6-6 13-6 20 0 1-8 11-8 15-1 4-5 12-5 14 0 4 3 6 2 8-4 5-5 2-7 8-1 3-3 15-1 18 2 1-2 17 5 20h1c-2-5-3-11-3-20zm87 47c-31-5-69-3-82-23 0 1-1 2-1 2 0 3 3 4 6 8 5 6 15 4 18 9 2 3 16 4 25 4s8-1 14 3c8 5 13 3 22 7 13 5 13-9 27 2 10 8 17-4 26 4 2 1 12 3 14 1 3-3 9 6 15-3 2-2 10 6 16-2 3-4 17 0 20-9 4-12-2-12 9-27 1-1 1-6 2-9-10 16-13 27-18 34-3 4-6 7-12 9s-12 2-21 2c-16-1-39-5-80-12zM203 8c-9 0-20 4-27 11 20-6 41-10 66-14 26 1 51 1 76 3 24 3 48 7 71 14-6-5-13-9-17-11-7-5-20-2-29-2-9 1-21-8-25-5-6 4-17-4-23-1-9 4-23-7-28-2-3 3-13 2-15 1-13-5-20 2-31 5-7 1-11 1-18 1z"/><path d="M546 362c-17 39-41 65-66 82 4-1 4 1 11-2 14-6 11-14 15-15 13-2 7-6 14-10 9-6 6-14 10-16 7-3 7-14 9-16 12-6 6-15 7-19 1-2 6-9 8-12 2-2 4-25 4-27-3 12-7 24-12 35zm-79 90c-12 8-25 14-38 19-6 2-11 4-16 6 8-1 17 1 21-3 14-14 19-7 24-11 3-2 6-7 9-11zm-91 38c9 6 12-2 17-7-7 3-13 5-19 7h2z" fill="none"/><path class="fil3" d="M45 543c-3 8-5 30-1 38 2-22 7-44 14-65v-2l15-33c24-44 60-81 104-104-17 0-16 14-27 14-27 3-14 16-26 20-17 6-17 21-23 23-14 4-10 15-18 20-14 10-11 26-14 28-10 5-7 16-13 24-19 27-5 20-11 37z"/><path class="fil4" d="M574 627c5-15-4-26-7-34v6c0 3 0 8 1 13 1 24 4 45 5 64 1-2 2-4 3-5 3-2 1-19 0-23-3-12-7-9-2-21zm6 83c1-3-1-32-6-29 1 19 1 37-4 57-2 4-3 8-5 11 8-4 17-15 11-24-7-10 3-6 4-15z"/><path class="fil3" d="M118 755s11 5 13 7c15 8 14-5 34 5 9 4 16-6 28 2 11 9 32-4 47 6 3 1 12 0 20-1h-3l-49-7-75-10c-6-1-11-1-15-2z"/><path class="fil4" d="M629 747c-9-13 21 0 49 11 42 17 106 38 150 36 32-1 61-11 88-20 9-3 9 10 18 8 22-6 54-38 72-76 11-22 19-64 18-89 0-12-2-21 4-20 16 3 10 44 9 53-1 18-11 52-20 69-1 2-2 6 3-2 5-7 15-27 16-25 3 4-14 43-19 52-9 16-27 43-52 64-11 10-31 21-49 29-17 6-61 16-74 25-13 10-3 12-25 1-15-7-32-11-46-17-52-21-99-40-142-99z"/><path class="fil3" d="M665 478c13 3 21 8 37 15 39 18 155 45 182 65 6 5 22 3 26 25 1 9 38-13 25-2-9 8-28 4-15 28 2 3 4 3 6 3 10-2 44-7 48-10s5-8 0-14c-6-8-4-26-18-20-1 0 9-4 0-17-8-12-11-35-19-34-1 0-12 9-21 18-7 5-14 12-14 9 0-1 19-21 28-30 6-6 6-7-5-11-6-2-16-3-26-7-8-3-9-4-11-3-4 2-6 7-9 14-2 5-7 13-3 2 3-12 9-23 0-27-7-3-9 0-10 5-3 7-6 18-9 24-10 15 1-11 1-11 5-17 11-25-20-27-10 0-11 23-19 24-2 0-5-5-9-8-14-11-63-11-64-15 0 0-11-8-20-17-7-7-11-14-21-19-4-1-8 1-14-3-16-11-38-29-45-13-9 16-45 67-44 79 2 11 22 24 18 14-7-15 34-41 45-37z"/><path class="fil5" d="M913 668c-3-21-1-21 1-40 1-21 19-15 36-13 7 1 3 47 3 53 1 23-1 22-22 15-5-2-17-11-18-15zm-51-477c11-2 34-3 54-3 21 1 49 2 68 9 10 3 11 4 16 14 4 11 8 26 4 27s-37-11-72-16c-34-5-71-4-78-6-6-3-5-23 8-25zM628 744c-11-15 6-43 4-52-3-13-22-17-36-16-6 14 5 41 20 64 16 26 41 46 69 63-20-14-38-31-56-56-1-1-1-2-1-3z"/><path class="fil4" d="M655 548c32 5 83 3 128 10 32 5 60 15 74 38 6 8 10 21 9 30 6-7 20-12 27-5 12 12 22-7 18-13-3-6 2-11-3-20-14-24-12-4-26-19-8-9-15-13-25-20-24-15-124-43-157-43-12 0-53 3-62 10-7 5-12 4-15 2-14-11-5-25-23-34 0 0-2-2-1-10 3-43 13-178 12-194-1-59-18-109-34-62-1 2-3 6-5 12v4c-3 21-7 54-9 90 2 20 2 42-2 64-1 58 4 113 20 136 4 5 9 10 15 12 18 5 38 9 59 12z"/><path class="fil5" d="M615 212c-5-1-10-1-14 2 6 14 10 39 10 66 1 16-9 152-12 195-1 9-2 23 11 7 23-27 76-247 5-270z"/><path class="fil4" d="M755 279c-1 0-13 24-14 25-3 5 31 18 31 23 0 16-6 20-1 32 0 1 14 0-1 10 0 0 25 40 30 34 2-2 2 7 18 10 12 2 29 4 46 6 30 4 60 8 67 10 14 3 10-3-3-8-7-2-22-5-42-8-27-5-59-11-59-14-1-1 19 4 40 5 13 1 39 1 41 1-34-5-78-7-99-26-7-6-10-15-12-21-4-20 3-37 13-45 25-20 152-21 188-25 4 0 7-1 11-1 3-4 13-6 13-24 1-49-16-141-16-131-2 106-20 103-38 97-31-9-65-10-77-11-28-1-66 4-84 9-27 8-7-7-25 16-10 13-27 17-27 18-4 4 7 13 9 17 1 2-2 0-9 1z"/><path class="fil2" d="M772 327c0-5-34-18-31-23 1-1 13-25 14-25 7-1 10 1 9-1-2-4-13-13-9-17 0-1 17-5 27-18-16 5-46-14-54-11-7 3-5 16-9 55-3 35-6 58-6 62 0 0 45 70 43 83 15-8 33-15 50-20-4-3-6-6-5-9h-1c-5 6-30-34-30-34 15-10 1-9 1-10-5-12 1-16 1-32z"/><path class="fil4" d="M609 150c11-3 24-5 43-9 13-3 27-5 42-8 12-2 25-4 37-6-10 1-14-7-19-2-16 13-28-1-32 4-11 16-24 3-34 3-7 0-23 10-37 18zm143-32c-7 5-12 7-17 8 33-5 68-10 104-15-9-2-17-6-21-3-15 13-30-2-37 5-12 10-27 3-29 5zm-171 50c3-5 6-9 10-12-3-1-7 0-8 2-2 2-2 6-2 10zm281-61c0 1-1 1-1 2 6-1 13-2 20-3-7-2-15-4-19 1z"/><path class="fil3" d="M589 496c6-2 12-1 14 9 1 9 6 25-6 28-5 1-33-31-8-37z"/><path class="fil0" d="M810 313c25-20 152-21 188-25 3 0 5-1 7-1-19 2-39 3-61 3-49 1-97 1-125 15-8 4-14 10-18 16-6 10-6 16-5 26-1-15 6-27 14-34z"/><path class="fil4" d="M726 851c-22-8-45-20-51-24-24-13-46-32-58-46 28 39 73 70 140 85 18 4 32 8 42 25 7 13 9 26 25 23 12-3 10-19 21-33-4 4-7 8-10 10-25 27-16-12-44-21-16-4-41-11-65-19z"/><path class="fil0" d="M579 672c-1 3-5 7-5 12 0 2 1 5 1 7 5 11 7 7 7 25 0 8 5 12 9 19 2 3 0 11 3 18 4 9 10 8 12 15 3 10 2 16 12 21 9 2 5 19 14 18 3 0 16 11 19 15 3 7 14 0 21 16 4 9 14 0 25 16 4 6 18 4 21 6 2 2 9-1 10 1 0 2 25 12 33 9 9-3 11 12 26 11 7 0 4 11 9 14 3 2 5 3 7 4-1-2-3-5-4-8-10-17-24-21-42-25-67-15-112-46-140-85-15-21-25-45-31-71-4-17-8-30-7-38z"/><path class="fil4" d="M940 837c2-2 18-3 23-6 11-5 10-18 23-24 2 0 10-5 11-7 10-16 4-11 21-20 13-8-3-10 18-24 5-3 5-13 6-21-25 48-67 83-119 108-9 5-19 7-29 10 15 3 34-7 46-16z"/><path class="fil7" d="M570 234c2-13 3-23 4-32 2-22 4-33 11-41 8-9 23-13 57-20l9-2c43-8 93-16 145-23 53-8 109-15 164-21 6-1 11-1 15-2 28-3 36-5 44 18 2 8 5 21 6 34 0 7 1 15 2 23 1 10 3 20 4 30 2 13 5 26 5 38 1 21 1 33-4 41s-16 11-34 13c-8 0-21 1-37 2-52 3-131 7-150 22-5 4-9 11-12 19-2 7-2 15 0 24 1 3 2 7 4 11 1 3 4 7 7 10 17 15 50 21 80 25 16 2 30 3 42 7 17 4 37 13 55 25 18 13 34 27 43 41 22 31 34 68 38 106 5 41-3 83-15 122-11 33-25 61-48 84-22 23-50 41-81 57-9 4-18 6-27 9-7 2-14 4-21 7-6 2-12 5-17 9-4 3-9 7-12 11-5 6-9 12-11 18-3 8-4 15-12 16-13 3-18-5-23-16-1-2-2-4-3-7-5-8-11-14-18-17-6-3-14-5-23-7-49-11-87-31-114-56-31-28-50-63-59-101-1-4-1-6-2-8-4-18-5-27-2-35 3-9 11-11 22-14 20-4 46-4 58-4 24 1 50 3 70 5 15 2 22 8 29 15 11 10 25 19 38 21 21 3 41-6 56-27 6-9 10-19 11-29 2-11 0-22-5-32-6-15-21-28-44-36-31-10-68-11-103-13-21-1-41-3-57-6-21-3-38-5-59-10h-1c-6-3-11-8-15-13-13-19-19-58-20-102-3-68 5-149 10-189zm7-32c-1 9-2 20-4 33-5 39-12 120-10 187 1 45 7 83 19 101 4 5 9 9 14 12 18 4 41 10 59 13 16 3 36 2 57 3 35 2 73 3 104 13 24 8 39 22 46 38 5 10 7 22 5 33-1 11-5 22-11 31-15 22-38 28-59 25-15-2-28-8-40-19-7-6-13-12-28-14-19-1-45-4-69-5-50-2-88-9-75 49 1 3 2 6 2 8 9 37 27 72 58 100 27 25 64 44 112 55 10 2 18 4 25 7 7 4 13 9 18 18 2 3 3 6 4 8 5 9 8 16 20 14 5-1 9-6 12-13 2-6 3-14 8-20 4-5 9-9 14-12 5-4 10-7 17-9 7-3 14-5 21-7 9-3 18-5 26-9 31-15 59-34 81-56 22-23 39-50 50-82 12-39 17-81 12-121-4-38-16-75-38-106-9-13-24-27-42-39-17-12-37-22-53-27-12-3-27-5-42-7-31-4-64-8-82-24-4-3-6-7-8-11s-3-8-4-11c-2-10-2-18 0-26 3-9 8-16 13-20 20-16 100-20 152-23 16-1 29-2 37-3 17-1 27-4 31-11 5-7 5-19 4-39-1-12-3-24-5-38-2-9-3-19-4-29-1-8-2-16-2-24-1-13-2-25-4-32-7-21-16-20-43-17-4 1-9 2-15 2-55 6-111 13-163 21-53 7-102 15-145 24l-10 1c-33 7-49 9-57 17-6 8-6 20-8 41z"/><path class="fil7" d="M92 289c31 5 53 9 68 10 15 2 24 2 31-1 10-3 13-9 18-20 4-7 8-17 17-29 4-7 10-14 18-19 7-5 17-9 30-10 19-1 35 4 48 13s23 21 26 39c2 10 1 20-4 31-6 10-16 20-33 29-18 10-38 15-58 20-9 2-18 4-26 6-38 11-73 31-102 58-29 28-53 61-67 98-10 29-13 59-14 89 0 32 5 63 14 93 16 53 17 53 56 57 5 1 12 2 19 3l124 16c18 3 18 8 20 16 2 5 6 11 13 18 7 8 11 9 15 6 1-2 3-5 6-8 1-2 2-3 3-4 1-2 2-4 4-5 1-2 3-4 5-6 3-4 12-8 22-11 13-4 29-7 37-7l115-8h22c24 0 43 2 50-24 8-28 4-54 1-83-2-14-3-28-4-44v-9c-1-11 0-17-5-21-10-7-34-7-61-5s-57 6-81 10c-18 2-36 5-53 2s-30-10-41-28c-9-14-11-24-2-38 14-22 42-32 74-43 10-3 21-7 31-11 22-8 44-19 64-36 20-16 38-39 53-72 8-18 13-37 15-56 3-21 3-43 1-62-5-51-17-93-40-127-23-33-57-58-104-81-28-13-57-20-86-24-29-3-59-4-89-4-58 8-100 22-132 48-33 25-58 61-81 113-6 14-12 28-16 42-4 12-8 23-9 33-3 35 31 39 64 43l24 3zm68 14c-16-2-37-6-69-11-7-1-15-2-23-3-35-4-67-9-64-47 1-10 2-21 6-33 4-14 10-28 17-43 23-51 47-88 81-114 33-25 75-40 134-48 30 0 60 0 89 4 30 4 59 11 87 24 48 23 80 50 103 84s38 75 43 126c3 20 2 42-1 63-2 20-7 39-15 58-15 32-34 56-54 73-21 17-44 26-65 35-11 4-23 8-33 11-31 11-57 21-70 43-7 10-8 25-1 36 10 17 25 22 41 25 17 3 35 0 53-2 24-4 54-9 81-10 27-2 51-1 62 7 6 5 6 10 7 22v9c1 16 3 30 4 44 3 29 4 55-4 83-7 28-25 27-50 27h-22l-115 8c-7 0-23 2-37 6-9 3-17 8-20 11-2 2-3 4-5 6-1 1-3 3-4 5-1 1-2 2-3 4-2 3-4 6-6 8-6 5-11 4-20-6-7-8-8-15-10-20-2-7-5-10-21-13l-123-16c-7-1-14-2-20-3-40-4-42-4-58-59-9-30-14-62-14-94 1-30 7-60 17-89 14-37 35-72 65-100 29-27 64-48 103-59 9-2 17-4 26-6 20-5 40-10 58-20 16-9 25-18 31-28 5-9 6-19 4-28-3-17-11-32-23-40-12-9-30-11-48-10-12 1-21 4-29 9-7 5-12 12-17 18-8 13-12 22-16 30-6 12-8 18-20 21-7 3-17 3-32 2z"/></g></g></svg>