<svg xmlns="http://www.w3.org/2000/svg" width="220.815" height="328.452" viewBox="0 0 535 796" shape-rendering="geometricPrecision" text-rendering="geometricPrecision" image-rendering="optimizeQuality" fill-rule="evenodd" clip-rule="evenodd"><defs><clipPath id="id0"><path d="M198 253c22 45 57 89 88 109 23 16 50 16 73 0 31-20 66-64 87-109 19-40 26-83 18-123-5-27-16-52-32-74-56-74-161-75-219-1-16 22-27 47-32 75-8 40-1 83 17 123z"/></clipPath><clipPath id="id1"><path d="M32 447c27 44 68 84 102 102 25 13 52 10 74-8 29-25 60-73 77-121 15-43 16-87 4-128-8-27-22-51-40-71-66-70-173-59-224 23-14 24-22 51-24 80-4 42 8 85 31 123z"/></clipPath><clipPath id="id2"><path d="M240 541c10 50 35 102 61 130 19 21 45 27 73 17 35-13 81-47 113-87 28-35 45-77 48-119 1-28-3-56-14-81-39-88-143-114-218-54-22 17-39 40-51 66-17 39-21 84-12 128z"/></clipPath><style>.fil5{fill:none}.fil4{fill:#fefefe}.fil22{fill:#196713}.fil6{fill:#4f872b}.fil9{fill:#85c95b}.fil7{fill:#d67ee6}.fil20{fill:#d9a727}.fil14{fill:#e68600}.fil0{fill:#e6e6e6}.fil12{fill:#ff9803}.fil15{fill:#ffbd61}.fil17{fill:#ffd059}.fil18{fill:#ffdc85}.fil21{fill:#ffebb8}</style></defs><g id="Слой_x0020_1"><g id="_687207360"><path class="fil0" d="M324 690c13 1 19 7 20 13 0 6-4 13-11 17-19 14-57 20-59 26-4 12 79 25 72 50 6-24-80-37-77-50 2-6 44-13 63-26 15-11 14-28-8-30z"/><path d="M317 374c-1 7-3 8-9 13-3 2 10 7 14 7s9 0 7-3c-4-6-4-14-4-17h-8z" fill="#e494f2"/><path d="M198 253c22 45 57 89 88 109 23 16 50 16 73 0 31-20 66-64 87-109 19-40 26-83 18-123-5-27-16-52-32-74-56-74-161-75-219-1-16 22-27 47-32 75-8 40-1 83 17 123z" fill="#66a240"/><g clip-path="url(#id0)"><path id="1" d="M393 32c-10-8-21-14-33-18-12-5-24-7-37-7-29 0-55 9-75 24-20 16-34 38-41 65-8 29 1 56 18 77 18 22 44 37 73 42 26 4 66-2 97-18s53-44 44-85c-4-16-10-32-18-46-7-14-17-26-28-34z" fill="#78b851"/><path class="fil4" d="M266 268c-2-1-5-2-5-3 0-2 3-4 4-5 5-6 12-17 16-25 2-3 2-3 5-2 0 2-9 14-11 17-3 4-8 11-9 18zm18-86c-1 2-3 3-6 7s-17 17-22 12c-1-1-1-3-1-5 3-7 13-9 20-11 3 0 6-2 9-3zm-15 3c-4 2-8 1-12 4-3 3-5 6-6 11-4 0-30-8-33-10 6 0 19 5 27 5-4-2-22-6-28-6-3 0-5-3-7-5-4-7 1-28 9-34 6-5 6-4 14 3 1 1 1 2 2 3l20 20c1 1 2 1 3 2l7 5c1 1 2 1 4 2zm59-3l-5-4c1-1 4-1 5-5 0-2 0-3 2-5s1 2 2 4c0 1 1 2 1 3-1 1-2 1-3 3-1 1-1 3-2 4zm-12-7c-2 0-5-1-6 0 5 1 7 1 11 4 11 8 7 22 5 33-2 9-4 16-1 25 2 10 9 15 7 21-1-1 0-3-5-8-7-7-15-12-24-17-11-4-27-7-40-8h-6c1 0 6-5 7-6 10-8 13-22 20-31 0 0 0-1 1-2l7-6c8-5 12-4 18-6 1-1 0-1 2 0 0-3-1-5 1-7 1-2 5-3 7-1h-3c-2 1-3 4-3 6 1 2 1 2 2 3zm-22 0l8-8 5-4c1-1 2-3 4-4l2 5c-5 4-4 5-3 9-6 0-10 1-16 2zm49-14c-2 0-3 0-4 1 1 1 4 1 6 3s2 5 0 7c-2 4-11 3-11-3h1c1 2 1 3 3 4 4 2 7-2 6-5-1-2-9-5-7-10 1-2 5-3 6 3zm-31-4s1-1 1-2c4 1 6 4 7 8h-5c-1-2-2-5-3-6zm10-1c3 0 5-2 8-2 0 4 1 5 0 9-1 2-3 5-5 6 1-2 2-3 3-5 0-1 0-4-1-5-1 1-1 5-2 6 0 1-2 5-3 5s-2-2-3-2c2 0 3 0 4-2 2-4-3-8-4-9l3-1zm-48 25c0-2 2-5 4-8 0-1 1-1 2-2 7-7 15-14 26-16h3c2-1 2-1 3 0l-17 15c-2 1-3 2-4 4-2 1-3 2-5 3-1 1-4 2-5 3-2 1-5 1-7 1zm58-28c1 0 6-3 7-3 0 1 1 2 2 3 3 2 4 2 4 9-1-2 0-6-3-7-2-2-6-2-7 0-2 2 0 7 1 8 2 3 3 2 6 4-3 1-8 0-10-2 0-2 1-3 2-6 0-3-1-3-2-6zm-5-23c6 0 16-1 14 7s-2 9-8 13c-4 1-13 5-17 4-3-1-9-8-7-13 1-4 4-6 7-8s7-2 11-3zm-91-17c-3-7-4-11-1-21 2-4 3-2 5-1 4 4 10 18 10 23-2 0-4-1-7-1-2-1-4 0-7 0zm103 14c1-2 7-6 10-8 9-7 23-14 33-18 9-4 32-11 43-9l6 3 5 3c-1 2-4 6-5 7s-2 1-3 2l-19 20c-2 3-12 17-13 19 0-3 7-15 9-18 1-3 4-6 5-8l7-7c-1 1-4 3-5 4-5 4-11 13-14 18-6 10-6 16-9 22-1 2-3 5-3 7-2-1-1-1-2-2-4-3-10-6-15-8-3-1-15-6-19-6 0 1 0 2-1 3 6 1 31 10 33 16-9 3-23-6-30-11-2-1-7-4-8-6l5 1v-3l-8-1c0-2 1-5 2-7 7-1 22 2 25 2 0 0-10-3-11-3-4-1-9-1-13-1v-5c4-1 4-1 7-3l19-9c-3 0-11 3-14 5l-12 5c-2-3 0-2-5-4zm-98-40c3-2 8-4 12-4 9-1 20 2 27 6 5 3 9 6 14 10l18 15c3 3 10 10 11 13-1 0-7 3-8 3-1-1-2-3-4-4-3-3-9-9-12-11 0 1 0 1 1 2 2 1 5 4 6 6 2 2 6 6 7 8l-4 3c-2 0-4-1-5-2-11-7-22-13-35-15-20-5-15 2-19-10-1-5-3-12-6-16-1-2-2-2-3-4zm145 8c0-7 2-15 5-20 2-3 6-11 10-10 7 1 7 17 5 24-1 1-1 1-3 1 0 1-1 1-2 1-2 0-4 1-5 1-3 1-7 3-10 3zm-61 32c2-7 10-22 16-28l4-5c6-7 15-14 24-19 6-3 16-8 23-9-1 2-2 4-3 7-2 4-3 10-4 15-1 10 1 7-8 11-11 5-24 13-33 20-5 4-7 7-13 8 2-6 10-14 12-18-3 2-10 11-12 15-2 2-1 3-6 3zm76-66h-4s-10 2-13 3c-9 3-16 7-23 12-6 3-8 6-12 9-3 2-5 5-7 7 0 1-1 1-2 2 0 1-1 2-2 2-5 8-8 15-12 23l-2 6c-2-2-3-4-5-6-1-1-2-2-2-3l-3-3c-2-3-9-10-12-12l-2-2c-5-4-10-8-16-11-2-2-4-3-7-4-12-6-23-7-36-2-5 2-9 5-10 12-1 10 1 12 3 19-8 1-15 1-20 6-6 6-6 15 2 17-1-1-3-2-4-4-2-4 2-9 6-11 10-6 25-6 37-4 14 2 28 7 40 13 3 1 10 5 12 6 0 1-1 2-2 2-7-1-17-4-25-2 5 0 9 0 15 1 2 1 4 1 6 2 3 1 4 1 4 4l-12 3c-2 1-7 4-8 6 2-1 6-3 9-4 3-2 7-2 11-2 1 0 1 2 2 3 1 2 2 2 2 4-1 0-5 1-7 1l-6 3c-9 3-22 12-26 21v3l-1 1c-4-1-8-4-11-7-5-4-8-9-12-13l-13-13c-1-1-3-2-4-2-4-3-11-9-15-11 1 4 7 7 8 9-2 1-7 1-11 9-2 4-5 10-5 15-1 5-2 13 1 17 5 8 34 14 43 17 7 3 8 4 15 0 4-2 9-6 11-9-1 4-9 17-11 20-9 13-12 10-20 14-3 1-6 4-7 8-3 12 7 19 15 24 2 1 4 1 5 3h1c-5 1-9 2-12 5-2 2-4 7-3 12 3 9 13 11 20 5-3 1-4 2-7 2-9 0-13-11-8-17 3-3 10-4 14-1 6 4 3 8 2 14 3-2 4-7 3-12l-1-1c-1-5 3-2 15 1 13 2 31 2 43-3 1-1 5-3 6-4-5 1-7 4-14 5-6 1-12 2-18 2-9-1-18-3-27-6-1-1-3-1-3-2 1 0 10 3 12 4 14 4 31 4 44-1-2 0-5 1-7 2-12 1-25 1-36-2-2-1-4-1-7-2-2-1-3-2-5-2 0-2 3-6 4-8 2-3 3-5 5-8 9-14 12-14 31-4 2 2 5 3 8 5 2 1 4 4 7 5l-1-1c-8-8-18-13-29-17-6-2-12-3-19-4-5 0-19 0-23 1 10 1 18-1 28 1 0 2-7 11-8 13-5 8-7 17-17 10-4-3-9-6-12-10s-1-5-1-9c-1 1-1 2-1 4 0 8 18 19 20 19-4 0-12-5-14-7l-3-3c-3-3-5-8-4-12 1-5 8-7 14-9 16-3 40 3 54 10 7 4 13 9 19 14 1 2 3 5 3 8l-2 2c-1 0-3 1-3 2l6-3c8-7-7-16-5-35 0-4 2-12 3-16l6 15c2 5 4 9 5 15 2 4 2 4 0 7-4 8-5 17 4 21 14 5 34-4 46-12 4-2 10-6 13-8-2 3-5 6-2 12 2 4 5 7 10 7 12 1 16-15 10-18 1 2 2 5 1 7-2 8-12 11-17 4s2-15 10-14c4 0 3 2 5 4 0-3-3-5-7-6-4 0-6 2-9 3 3-3 5-6 8-8 3-3 6-7 8-10 2-5 6-15 1-19-1-1-4-3-6-3 3 3 8 4 6 14-4 13-21 25-32 32-7 4-20 10-30 12-6 1-14 1-18-2s-3-10-1-14l1-1c0-1 0 0 1-1l-1 7c4-3 1-16 0-21-3-9-7-18-9-28-1-5 0-12-1-16-1-2-2-2-2-5 1-4 2-6 4-9 4 1 3 2 8 1 3 0 5-2 6-3 1-3 1-5 0-8-1-2-1-6-1-8 2 0 6 3 8 4 7 5 19 12 27 9 6-1 8-8 11-13 3-6 6-11 9-16l8-11c1-1 2-3 3-3s10 0 12 1c10 1 21 12 12 18-4 3-9 5-13 9l-1 1c4 0 14-10 18-11 0 3-10 9-12 12-6 5-12 11-18 17-1 2-2 3-4 5-1 1-2 1-3 2s-1 2-2 2c-2-2-2-3-4-5-8-5-19-3-23-4-3-1-6-6-12-7-4-2-12-3-14 1 13 1 14 0 23 8 1 1 2 3 3 4l11 13c3 5 8 10 13 12 2 1 6 3 9 3-3-1-8-3-10-5l-4-4c-2-3-5-6-7-9-1-1-1-1-1-2l-6-7c-1-1-2-3-3-4 25 0 24 11 17 11-4 1-6-2-8-4 8 14 19 2 26-6 3-3 6-7 9-10l6-5c1-1 2-1 3-2 6-5 19-11 13-24-4-9-13-14-27-13 1-3 6-7 9-9 7-8 21-15 11-22-9-6-18-5-28-4 0-3 1-5 1-8 1-6 1-15-4-19-2 0-2 0-4-1z"/><path class="fil4" d="M352 177c1-3 2-4 2-7-1 0-1 2-3 4l-2 2s-1 1-2 1c1 0 2-1 3-1 1-1 1-2 3-3-1 3-2 4-3 6 2 0 4-3 6-5l-1 4c1-2 2-6 2-8v-1c-1 2-3 7-5 8z"/></g><path class="fil5" d="M198 253c22 45 57 89 88 109 23 16 50 16 73 0 31-20 66-64 87-109 19-40 26-83 18-123-5-27-16-52-32-74-56-74-161-75-219-1-16 22-27 47-32 75-8 40-1 83 17 123z"/><path class="fil6" d="M304 290c-16-50-53-91-98-108-8-4-17-6-26-7 1 1 1 3 1 5 8 2 15 4 22 8 17 7 32 19 46 33 18 20 32 44 40 71 2 5 3 9 4 14 3 12 4 25 4 38v5h3c1 0 2-1 3-2 3-2 6-5 10-7-1-17-4-34-9-50z"/><path class="fil4" d="M211 228c-2 0-3-1-3-2 0-5 7-4 6 0-1 2-2 2-3 2zm-5-3c0 1 0 3 2 3 0 1 0 1-1 1 2 0 4 2 6 1l1-1c4-5-2-11-6-7-1 1-2 2-2 3zm1 7h-1v-1h1v-1c0 1 1 1 1 1 0 1 0 1-1 1zm-1-1c0 3 2 2 2 0s-2-2-2 0z"/><path class="fil6" d="M334 351c-81 14-165-103-153-220-8 40-1 83 17 122 22 45 57 89 88 109 10 7 20 11 31 12h8c12-1 23-5 34-12 31-20 66-64 87-109 11-23 18-48 20-72-10 65-64 158-132 170z"/><path class="fil7" d="M317 374c0 2-1 3-1 4-2 5-6 9-6 9 2 0 7-6 8-8 3-4 1 2 1 4 0 3-1 8-1 8 1 0 2-4 3-8 1-3 1-9 2-3v5l3 6s-1-4-1-8v-9h-8z"/><path d="M309 387l1 1c4 4 10 6 15 5 1 0 1 0 2-1 0 0 0 1-2 1-1 1-3 1-4 1-2-1-8-2-11-5-1-1-1-1-1-2z" fill="#f3adff"/><path class="fil7" d="M362 360c-39 19-67 9-92-10 5 5 11 9 16 12 10 7 20 11 31 12h8c12-1 23-5 34-12 1-1 2-1 3-2z"/><path class="fil9" d="M411 102c-10-14-31-33-37-43-7-10 10-10 16-7 17 8 31 27 40 46 2 6 2 8 0 10-4 5-13 3-16-2-2-2-3-3-3-4zm25 18c1 1 1 3 1 4v9c-1 5-3 6-4 5-4 0-8-12-9-13-1-3-2-6-2-8 1-4 12-8 14 3z"/><path d="M257 322c-8-10-21-23-30-38-16-24-29-53-35-76-5-21 0-28 1-22 6 20 16 49 29 74 16 34 35 62 35 62z" fill="#f5baff"/><path d="M392 312c8-10 21-23 30-38 16-25 29-54 35-76 5-21 0-28-1-22-6 20-16 49-29 74-16 34-35 62-35 62z" fill="#7dbf54"/><path class="fil9" d="M192 109c30-111 217-138 263 6-8-33-27-65-52-83-22-16-49-25-77-26-67 0-116 38-131 92-1 4-2 7-3 11z"/><path class="fil12" d="M166 557c0 8-2 9-7 14-3 3 11 7 15 7 4-1 8-2 6-5-4-5-5-14-5-17-3 1-6 1-9 1z"/><path d="M32 447c27 44 68 84 102 102 25 13 52 10 74-8 29-25 60-73 77-121 15-43 16-87 4-128-8-27-22-51-40-71-66-70-173-59-224 23-14 24-22 51-24 80-4 42 8 85 31 123z" fill="#ffa930"/><g clip-path="url(#id1)"><path id="1" class="fil4" d="M72 461c1 2 0 5 3 13 2 4 4 9 5 13-4-1-8-6-10-10-1-4 0-13 2-16zm58 13c5 1 9 5 10 11v22c-2-6-3-12-4-17-2-6-4-12-6-16zm-20-35c1 2 6 12 7 15 7 17 16 30 19 50h-1c-2-2-8-9-10-12-2-4-5-10-7-16-3-10-4-18-6-28-1-3-2-7-2-9zm-20 48c-3-1-8-6-10-9-7-9-5-21-1-32 1-3 3-12 5-15-1 11-4 15-1 30 2 9 5 17 7 26zm-1-33c-4-2-5-8-3-13 1-4 4-8 5-12 0 7-3 11-2 25zm25-46c1 1 5 4 6 5 8 7 11 10 21 15-3 1-7 1-10 0s-5-3-7-5c-4-5-6-9-9-13 0-1-1-1-1-2zm46 33c2-3 7-13 8-17l-3 3c-1 1-1 1-2 1 0-1-3-5-3-6-1 0-1-7-1-8 1 1 5 4 5 5 3-1 4-3 6-4 3-2 2-2 4-6s4-6 6-9c1-1 2-2 3-2v8c-1 1-8 16-9 17-3 7-5 10-9 16-1 1-2 1-3 2-1 2 0 1 0 3v3c3 3 4 6 1 10-2 3-7 5-11 2-5-4-5-11 1-14 2-1 1 0 2-2 1-3 2-2 5-2zm-93-3l-1-1c-1-2-2-7-2-9 1-5 4-9 7-13l9-10c-1 5-11 18-13 33zm21-40c1-1 3-2 3-3 3 1 6 2 8 2 9-1 13-2 20 3 2 0 3 1 4 1h-16c-1 6 6 16 9 20 8 11 18 25 27 34 5 7 7 15 7 23l-1-3c-1-1-1-2-1-3-1-2-2-4-3-5-3-4-5-7-8-11l-15-19c1 6 24 42 25 52 0 3-1 7-2 9 2-10-2-19-6-26-7-12-19-27-28-39-4-6-9-14-10-23-1 2-2 4-4 6l-4 4c-1 1-1 1-2 1 3-6 8-13 9-20l-12-3zm55-1c0 1 1 1 2 2l2 2 4 4c0-3-1-5 0-8 0-2 1-4 2-6 4 6 5 27 5 36 0 4 1 9 0 13-2 0-1 0-3-4-1-5-2-13-3-19-1-8 0-5-3-11l-6-9zm-82 24c-2-13 9-17 18-21 3-2 5-3 8-5 0 1-1 1-1 2l-11 9-2 2-6 6c-1 1-5 7-6 7zm14-30c2-14 4-14 3-29l10 4c0 8-2 16-7 21-1 1-4 4-6 4zm90-128c0-1 0-1 2-1 5-1 4 1 7-6 1 0 0 0 1 1 1 0 1 0 1 1 1 0 1 1 2 1 0 2-3 5-4 7-2 2-3 5-5 7-1 2 0 2-2 3-5 2-6 4-9 7v1l7-21zm14-10c2-2 2-2 2-5 1-10 18 1 10 10-2 3-10 10-13 11 0-1 6-10 7-10l-6-6zm-77 32c-13-17-10-16-2-34 2-3 5-10 6-11-1 3-2 7-3 10-4 13-4 22-1 35zm-11-31v-9c0-3-1-4 0-8s3-10 4-15l5 1c-1 5-4 4-1 8 3 5 2 3 0 8l-8 15zm-3-25c-1-4-1-10-1-14 0-5 1-8 5-10 5-2 15 2 9 8-2 1-2 2-2 5l-8-1c0 1 0 2-1 3 0 2-2 8-2 9zm27 301h4c-1-8-1-14-2-21v-11c0-3-1-8-1-10 8 12 15 26 17 42h42c1-5 3-11 5-17s5-20 5-27c0-8 0-24-1-30-3-2-4-1-6-5-2-3-1-6 0-9h5c2-1 0 0 2 0 1 0 1 0 2-1 3 0 7-1 9-2-2-2-8-3-9-5 1-1 3-2 6-2 3-1 4-1 7-1v-7c3 0 6 6 7 8 5 8 3 11 5 12h5c-1-7-14-18-18-27l7 7 4 4c1 3 3 5 5 8 2 1 3 2 4 3 4 5 3 6 7 6-1-4-5-10-7-13l-5-5c0-1-1-2-2-3-2-5-9-9-13-12l-9-6c-1 0-2-1-2-2l-5 5c0-1 1-3 1-4 1 0 3-1 3-2s-1-4-2-5c-1-2-1-2-3-3-2-11-1-12 2-22 3 0 2 0 3-2 1-5 2-3 1-8 0-1 0-3 1-4v-5c0-3 1-1 1-3s-1-6-1-8c5-2 12-5 16-6l-1 6c0 1-2 1-2 3 1 2 1 0 1 3-1 3-1 6-1 9v20h3l1-11v-18c2 3 1 17 1 22 0 2 0 6 1 7v-9c0-7 1-13-1-19-1-5 2-4-2-7v-7l2-1c-4-2-7-2-16-9-6-4-14-10-21-12-5-2-39 18-48 23l-2 1c1 1 17 7 17 8 1 2 0 4 0 7 0 1 0 3 1 5 1 1 1 4 2 6s1 3 2 5c2 9 5 5 7 8 0 2 3 9 3 11-5 1-4 6-6 7l-16 5c-3 1-4-1-8-3-11-4-21-1-28-3-2 0-1-1-2-2-3-1-4 0-7-2 4-8 5-12 6-23 4 1 15 6 20 4l3-8c-1-2-2-2-2-4l5-13c1-2 2-3 1-5-1-4-4-8-8-10 0-8-1-6 3-12 1-2 2-3 3-5 2-2 0-3-1-5 3-1 8-3 7-7 6 1 13 0 19 0 3 0 6 0 8-1s2-3 3-4l1-1c1 3 2 4 4 5 3 2 5 1 7-1-1 0 0 0-1-1h-1c-5-1-5-7-1-10l2-2c12-9 36-13 36-32 0-5-3-9-6-12-2-3-8-5-13-3-5 3-2 8-6 12-2 0-7-3-9-4l-26-12c-6-3-12-5-18-8-3-1-6-2-9-4-3-1-6-3-9-3 1-4 1-4 3-6 5-6 0-13-7-15-9-2-19 5-21 13-2 9 2 21 5 29 1 5 4 17-2 20-3 1-4-1-6-2 0 2-1 3 0 4 3 4 7 3 10 1-2 7 0 10 3 14 1 1 2 1 3 2l6 7v1c-2 3-4 2-6 5-3 1-3 2-4 5-3 1-2 1-3 9-1 2-1 8 0 11 1 0 2 0 3-1 4-4 2-4 4-7 2 0 5 0 7 1 3 0 4-1 6-3 2 1 3 2 5-1 0-1-1-2-1-3 1 1 2 2 4 2 1-2 1-2 0-4s-2-1-1-3h-2c0-2 0 0 1-1 1-2 1-3 0-4 1 1 1 1 2 3 0-1 1-3 2-3 3-3 15-8 20-13 3-5 7-21 10-28h11l3-7 10 5c0 1-1 4-2 5-1 2-1 1-2 2-3 1-5 1-6 4l-11 23c-1 4-2 7-5 8-5 3-17 3-23 4-2 1-2 1-2 2-4 5-3 6-3 7-1 2-1-1-5 5-4 8-5 6-4 13 0 5 0 4 2 7 5 6 3 7 1 14-2 4-4 9-5 13h-5c2 1 4 1 6 2l-2 7c-3-1-10-3-12-5l2-6-4-2h4c1-6 7-18 7-22 0-7 0-7 2-13 1-1 5-8 4-9-2 0-1 2-5 2-3 0-4-1-7-1-1 4-1 3-3 5-1 1-2 3-4 3-2 1-6-1-12 2-2 1-2 1-3 4-1 1-2 3-2 5-2 3-3 6-5 9l-3 1-4 7c2 4 7 7 11 9-1 1-3 5-4 7-8 18-5 26-6 29-1 1-2 1-2 3-1 5 1 11 2 15-4 3-2 4 1 7 0 2-1 2 0 3-3 2-4 2-2 5 1 3 2 3 4 4 2 11 3 22 4 33 2 8 4 24 3 31 2 1 7-2 9-3 6-2 7 1 11 1 3 0 4-2 6-4 1 0 1 0 2-1 6-7 6 5 11-5 1-1 1-3 3-3 2 3 1 6 2 12 0 4 0 8 1 12 1 9 1 18 2 27z"/><path class="fil4" d="M226 508l-37-3v-58l41 3v54c-3 2-3 1-4 4zm-40 22h22c-3-9-4-9-4-20l6 1h1l1-1c5 8 3 8 12 12l4 2c2 1 1 0 4 6h11l1-9c-1 0 0-1-1 0l-4 2c3-2 5-3 6-3 3-2 4-18-3-15-1-2-1-6-3-6-1-1-2 0-2 0v-50c5 0 38-3 40-2v58c-2 1-16 1-17 2h-1c-3 1 2 0-1 0-1 0-2-1-3 0s-1 1-3 2l1-2h-5c0 1 1 2 1 3s0 0 1 1c2 1 3 1 4 1 2 0 2-1 4-2 2 0 18 0 23-2v-65c-3 0-41 4-48 4l-47-4v65l7 1c0 5-6 16-7 21z"/><path class="fil4" d="M178 530h6l3-14-5 7c-1 1-4 5-4 7z"/></g><path class="fil5" d="M32 447c27 44 68 84 102 102 25 13 52 10 74-8 29-25 60-73 77-121 15-43 16-87 4-128-8-27-22-51-40-71-66-70-173-59-224 23-14 24-22 51-24 80-4 42 8 85 31 123z"/><path class="fil12" d="M182 532C100 556 1 446 0 325c-2 42 9 84 32 122 27 44 68 84 102 102 11 5 22 8 32 8 3 0 6 0 9-1 11-2 23-7 33-15 29-25 60-73 77-121 9-25 13-51 12-76-3 67-48 168-115 188z"/><path class="fil14" d="M166 557v5c-1 5-5 9-5 9 2 0 6-7 7-9 3-4 2 3 2 4v8l2-8c0-3 0-9 1-4 0 2 1 4 1 5 1 3 3 5 4 6 0 1-1-3-2-7-1-3-1-7-1-7v-3c-3 1-6 1-9 1z"/><path class="fil15" d="M159 572c1 0 2 0 2 1 5 3 11 4 16 2h2s-1 1-2 1c-1 1-3 1-4 1-2 0-8-1-12-4-1 0-1-1-2-1z"/><path class="fil14" d="M211 538c-38 23-68 17-95 0 6 4 12 8 18 11 11 5 22 8 32 8 3 0 6 0 9-1 11-2 23-7 33-15l3-3z"/><path class="fil15" d="M232 270c-12-13-35-30-43-39-7-11 9-12 16-10 18 6 35 25 46 43 3 5 3 8 1 10-4 6-13 4-17-1l-3-3zm28 15c0 2 1 3 1 5 0 3 1 6 1 9 0 4-2 5-4 6-3 0-9-12-10-14s-3-5-3-7c0-4 12-10 15 1zM99 511c-9-9-23-21-35-35-18-23-35-51-43-74-8-21-4-28-2-23 8 20 22 48 38 73 21 32 42 59 42 59z"/><path class="fil15" d="M10 301c18-116 205-164 268-23-12-33-34-63-61-78-25-14-54-21-83-18-67 7-113 51-123 108-1 4-1 7-1 11z"/><path d="M329 690c-3 7-5 7-12 10-4 2 8 10 12 12 4 1 9 1 7-2-2-7 1-15 1-18-3-1-5-1-8-2z" fill="#f5c344"/><path class="fil17" d="M240 541c10 50 35 102 61 130 19 21 45 27 73 17 35-13 81-47 113-87 28-35 45-77 48-119 1-28-3-56-14-81-39-88-143-114-218-54-22 17-39 40-51 66-17 39-21 84-12 128z"/><g clip-path="url(#id2)"><path id="1" class="fil18" d="M498 370c-19-21-44-37-72-44-66-17-124 9-152 60-32 56 10 122 72 147 56 23 183 22 183-68 0-35-11-71-31-95z"/><path class="fil4" d="M338 625c2 0 1 0 2 1v2c1-2 2-2 4-2l-1 3 1-1c0 1 1 0 0 1s-2 1-3 0c-1 3-2 3-4 2 0-2-1-3 2-3 0-2-1-2-1-3zm10 1c0 2-1 2-2 2v2c-1 0 0 0-1-2-1-1-1-1-1-2 0-2 2-2 4-1 0-3 2-3 3-2 1 2 0 5-3 3zm6-3c0 2 0 3-2 2l1-1c0-1-1 0-2-1 0-2 1-2 2-2 0 2 0 0-1 1 2 1 1 0 2 1zm0 0v-1l-1-1h1v-1s3 4 1 4l-1-1zm12-8c1-1 1-1 3 0 0 0 1 1 0 2-1 2-5 1-3-2zm6-3c1 0 1-1 2 0 1 0 2 2 1 3s-5 1-3-3zm-1 1c-1 1-1 1 0 2 1 2 0-1 1 1-2 1-2-1-3-1v-1s-1-1 0-2c0-1 0 0 0 0 1 1 1 1 2 1zm-16 6v-1l2 1c0 1 0 1 1 2-1-1 1-5 4-3-1 0-1-1-1-1 0-1-1-1 0-2 0 0-1-1 0 0 1 0 1 0 1 2 1-1 1-2 3 0 0 0 1 1 1 2-2 0-1-2-3-2v2c0 1 1 0 0 1h-1v-1c0 2-1 3-2 2 1 1 2 1 3 2-1 1-1 0-2 0h-2l-1-1-1-1v1c1 0 1-1 1 1-2 0-1-1-3-3l-1-1c-2-2-5-4-6-7-1-1-2-2-3-4 0 0-2-3-2-4 1 1 3 6 6 10 2 1 4 4 6 5zm21-8c1 1 2 0 2 2 0 1-2 1-2 1 1-2 0 0 1-1-1-1-1 0-2-1v-2h2c0 1 0 1-1 1zm-63-28l3-3c0-1 0-1 1-1l-3 3-1 1zm-6-5c2-1 5-1 8 0-1 1-2 1-3 1-2 0-4 0-5-1zm-6-21c2 1 2 2 3 6l2 13c1 3-1 3 4 5-3 0-5 0-8-2-6-5-4-16-1-22zm5 5c1 0 5-3 10-2 1 5 0 12-1 17-1 0-3-1-4-1-2 0-3 1-4 1 0-4-2-14-1-15zm16 3c0 4 0 6-1 10 0 1-1 2-1 2v2c0-1 1-1 2-2l-4 4-4 4c1-2 4-3 5-6 1-2 2-6 2-9-1 2-1 3-2 5 0 1-1 3-2 4-1-2 1-3 3-7 1-3 1-5 2-7zm-16-3c-1-1-1-3-1-4-1-2 5-5 11-4v6c-4-1-8-1-10 2zm12-6c3 3 1 13-1 17 1-1 1-12 1-15 0-1-1-2 0-2zm28 7c0 3 0 5-1 7 0 4-1 5-3 8l5-7c-1 3-4 8-7 11h-1c-1 1 0 1-1 1 2-3 3-2 6-9 2-5 1-7 2-11zm-32-23l2 1c1 0 0-1 0 0 2 1 2 1 4 1 1 3 1 6-1 8l-1-1c0-3 2-6-2-7h-1v1c1 1 3 2 1 5-3-1-4-1-7-1-1 1-1 1-2 1l-1 1c2 0 6-1 8 0 1 0 5 2 4 4h-3c-4-1-9 0-12 4-2-2 0-3-1-5l-1 1h-1c0-1-1-2-1-2v-4l-1 1c-1-1-1-2-2-3 0-2 2-3 2-5h-1c-2-3-3-2 6-11 3-3 4-4 11 0l-1 5c-5-1-4-4-11 1-1 0-1 1-2 2 5 0 4-6 13-1 2 1 2 3 1 4zm27 3c1-2 2-3 4-2l-3 2h-1zm76 12c2 1 4 3 9 6 2 0 2 0 1 3s-4 10-7 13c-1 1-3 4-5 1-1-2-1-4-1-7 1-5 2-11 3-16zm-128-40c2-7 8-8 15-7l3 9c1 2 3 7 3 9-4-2-6 0-7 2-2 1-4 4-6 5 0-1-2-4-2-5 4-4 6-4 11-5h1c-5-1-9 1-12 4l-6-12zm122 29c3 1 3 0 4-1l2 1c-1 3 0 5 3 6 0 3 1 3 4 4h2l1-1h2c0 2-1 6-1 8-2-1-4-2-5-4-1 0-6-3-6-3-1-2 0-4-2-6s-3-1-4-4zm-49-16c3 3 6 7 12 7-1 2-8 4-12-7zm52 16c-2-1-5-2-6-3-1-2 1-5 2-6l3 2c-2 5 3 3 1 7zm-21-12c2 0 4-1 5 1 3 5 5 16 7 23 0 2 2 7 1 10-5 1-16 3-22 3-4 0-7 0-11 1-4 0-8 1-12 1v-2c-3-7-10-24-15-28l-1-1-1-1c1 0 5-1 6-2l3 5s0 1 1 1l5 10c0 1 0 1 1 2l4 8c0-1-1-2-1-3-2-4-4-10-6-14-3-5-3-4-6-8l-1-1c1-1 2-1 3-1l9-4c1 1 2 5 6 6 3 1 6-1 8-3s1-1 3-2c1-1 2-2 4-2 3 1 6 1 9 1 3 8 6 18 7 28l-8 2c-3 0-6 0-9 1l-13 2c-3 0-3 1-4-1-1 0 0 0 0 2 7 0 20-2 27-3 2-1 6-1 8-2 1-3-4-22-6-27 0-1 0-1-1-1v-1zm33 0c2 1 2 0 2 4 0 2-1 1 1 2 1 1 1 1 1 3 0 1 3 5-2 10-1-1 0-2 0-3-1 1-3 2-4 3 1 0 2 0 3-1-1 5-5 3-6 1 0 0 0-1-1-2 0 1 0 0-1 1 0-1 0-2-1-3s0-2 0-3c-1-1-2-1-2-2-1-1-1-2-2-3l1-3c-1 0-3 1-2-3 1-2 1-5 3-6h2c2 0 5 1 7 2 1 0 1 1 2 2l-1 1zm-105-97h3l-2 3c2 0 1-1 2-1 0 2-2 2-3 1-1 5-5 2-4 0 0-1 1-1 2-2-1 0-1-1-1-1v-1c1 0 1 0 1 1 1 1 1 1 1 2l1-2zm85 27c-2-2-2-7-2-10v-4c8 3 3 13 2 14zm-8-26c1 4 4 12 4 14-2-2-4-2-7-1-1 1-4 5-5 5 3 0 7-3 11-1s-1 3 4 11c0 1 2 3 3 4 4 4 9 12 10 17 0 3 1 3-1 6-4 10-19 21-27 28-1 0-1 1-1 1l-1 1 2-6c-4 6-7 16-13 18-7 3-15-6-18-10-2-3-4-5-6-8l-6-8c-2-3-4-5-6-8-2-2-5-6-6-8l2-2c-2 2-6 4-9 2-4-2-1-6-2-9-1-2-5-4-7-5-2-2-4-5-4-8 1-6 8-11 13-10 4 1 6 4 6 7 2 8 2 4 3 7 1-14 2-9 5-13 1-2-3-9-2-13 3 0 7-3 9-4-1 2-2 2-3 4 1 0 4-2 5-3l-3 3c4 0 11-4 15-6l5-3c1 0 1 0 1-1h2c-1 1-4 4-6 5-2 2-3 1-6 3l9-1c-2 0-4 1-6 1 5 2 18-4 22-6l6-4c0 1-2 3-3 3-2 3-3 2-2 3l1-1c2 0 6-4 8-6 0 0 1-2 2-2s2 3 2 4zm26 19c1-3 1-2 1-5-1-6 2-10 6-13 0 0 1 4 1 5 0 2 0 4-1 6-4 7-6 6-7 7zm-116-20l3-3c0-1 1-2 2-3 7-9 18-22 26-31 1-2 3-4 5-6 1-2 4-4 5-6-2 4-7 9-10 13-6 8-24 31-31 36zm82-30c-5-2-14-7-18-9-1-1-15-9-16-11 9 3 26 17 34 20zm-66 34v-5c1-1 2-1 3 0 2-2 4-5 10-8 0-1-1-2-1-3v-4c2-8 13-14 23-13 9 1 11-1 13 5 0 1 1 5 2 6 3 0 10-1 13-1-3 0-12 1-16 2-6 0-10 2-14 2l1 1c0 1 0 2-1 2h-1c0-1 0-1 1-1l-2-1v2l-1 1c-3 1-3-1-3-2l-1 1c0 1 0 1 1 2 1 0 0-1 1 0-2 2-2 0-3-2l-1-1c0 1 0 1-1 1 0 0 1 0 2 1v1c0 2-1 3-3 2s0-4 0-4c-1 0-1 1-2 1s-1 0-1 1h1c1 1 2 2 2 3-2 0-2-2-3-2-1 2 1 2 0 4-1-1-1-2-2-3 1 2 1 4-2 4 1 1 1 0 1 1-1 0-1 1-1-1-3-4 0-3-1-4l-1 1c0 1 0 0-1 1l2 3c-2 1-2-1-3-2v-1c-1 0 0 1 0 0h-1c1 3 2 4 1 4 0 1 0 0-1-2-1-1-1 0-1-1v1c-1 1 0 0-1 0 0 1 1 1 1 1h1s0 4-2 2c1-1 1 0 1-1-2-1-1-1-2-1 1 2 0 5-3 3 0 2-1 2-2 2v2c-3 0 0 0-1-1 0 1-1 10-1 11 1 3 2 6 2 9-8 1-18 11-8 19 1 2 3 3 5 4 3 2 1 4 1 7 0 2 2 4 4 5 3 1 5-1 6-1l3 5c2 4 23 28 25 33l-1 1c-6 3-10 4-18 8-3 2-2 2-3 5 0 0-8 7-10 8-3 3-6 7-10 8v-2c-1-1-1-2-1-2-1-4 6-9 2-15l1-1c0-1-1-1-1-1-3 3-5 1-5 0v-3c-1 0-1-1-2-2l1-2c2 0 3 0 4 2 2 3 1 1 2 4l1 1v-1c1-1-1-4-2-5s-3-2-5-2c1-1 1-2 1-3-2-1-4-1-5-3-1-4-2-9-4-13-1-3-1-5-7-5-3-1-6 0-8 2-2 1-3 2-4 3-1 3-1 3 0 5l4 8 4 8c0 3-2 2-2 5 0 1 1 2 2 3-1 2-2 3-1 5l3 3c-1 3 0 3 3 5-1 4-2 3-4 8-3 5-5 14-3 19 1 1 2 2 3 4 0 1 1 2 2 3 6 5 12 3 18 2 5 0 15-3 17-3-1 2-3 4-4 7-1 2-3 4-4 6-2 3-5 6-7 9-1 1-2 1-2 2 0 2 9 10 11 12 4 4 8 8 13 11 5 4 11 7 18 8s11-1 17-2c3-1 6-1 8-2 4-2 5-2 5-6 1-4 2-7 3-10 1-4 2-7 3-11 4-18 6-22 9-42l9 6c1 1 0 3 2 4 5 3 13 2 18 0l2-2c2 0 3-1 4-2 8-4 10-8 9-17 0-2 0-3-2-4-4-4-10-6-14-8-1-2-1-4-1-5 0-2 0-3-1-4h-1c0-1 1-3 0-4 0-2-1 0-1-3-1-2-1-2-3-3-1 0-2 0-4-1-2 0-6-1-7 1 0 0-2 6-3 7-3 0-3 2-4 4-2 0-6-2-7-3 0-1-1-2-1-3s-1-2-2-2c-4 0-12 1-15 1 1-2 3-4 4-5 1-4 1-3 3-5 3-2 5-4 8-6 5-4 10-8 15-14 3-3 5-5 7-9 0-2 1-5 1-7-1-1-1-1-1-2-1-5-3-8-5-11l-7-8c1-4 3-6 3-11-1-3-3-5-7-6-1-2-2-5-2-7-1-2-2-4-3-7-1-4-1-2 2-6l4-8c-1 1-3-1-4-1-1-1-3-1-4-2 0 0 2-2 3-2 9 4 13 4 20 8 3 1 6 3 8 5 2 3 3 5 4 8-1 1-3 3-5 4-4 5-2 7-2 12-1 3 0 4-2 5 5 2 10-5 11-10 1-4 0-6 0-9-2-5-3-9-7-13-2-2-5-3-8-4-5-3-14-4-18-7 0-1 2-1 2-3 0-1-2-1-3-2-2-1-5-3-7-4-4-3-9-6-14-9-4-3-9-5-13-8s-9-6-14-9v6l-1-5c-2 3-6 7-8 10-11 12-22 25-32 38-2 3-5 6-8 9-1 1-4 4 0 5 2 1 5 1 7 2 4 0 10 1 15 1v-5z"/><path class="fil4" d="M296 552h-2c0 1 1 1 1 2-1 0-2 0-3-3 0-1 0-2 1-3h1c-2-2-2-4 0-7-1-1-2-2-2-4 1-2 2-2 1-4l-3-9c-1-2-3-5-4-7-2-3 2-7 4-9s4-3 8-3c9-1 10 3 13 11l2 9c3 1 5 2 5 4 4 1 4 5 5 5s2 0 2 1h-1c1 1 3 1 2 2 0 1-1 1-2 1 0 2-1 3 0 5 2 7-6 10-2 14 1 0 7-6 9-8 1-1 3-2 4-3 5-4 2-1 4-5 1-3 3-3 5-4 1-1 3-2 5-3 1-1 9-3 10-5l-3-4c-5-8-11-15-16-22-2-2-5-6-6-9-3 1-4 2-8 0-2-1-3-3-4-5 0-2 0-2 1-4 0-2-1-2-2-3-6-4-12-9-8-18 3-5 7-5 11-7 0-4-2-7-1-11-5 0-22-1-24-5-1-2-1-3 1-5 1-1 2-2 3-4 3-2 4-5 7-8 8-11 17-21 26-32 3-3 10-11 12-14l2-1c2-1 4 0 5 1 2 1 3 2 5 3 12 8 25 16 37 24 5 3 8 2 6 8 12 4 26 6 30 19 1 3 2 6 2 8 1 5-2 14-7 17-2 0-5 3-8 1-1-1-1-2 0-3 2-1 1 0 2-3 0-2-1-4 0-6 0-4 2-7 4-9 1-1 2-2 2-3-3-9-10-12-22-15-1 4-6 10-7 12 0 1 4 11 5 13s5 2 7 7 0 8-2 13c3 5 8 6 11 16 1 4 2 6 1 11-1 4-4 7-6 10-6 7-15 14-22 20-4 3-5 3-7 8h6c5 0 7-2 9 4 1 2 2 2 5 3 1-2 1-2 3-3 1-1 1 0 1-1 2-4 1-8 6-8 4 0 7 1 10 2 4 1 3 2 4 4 0 1 0 1 1 2v4c1 1 1 0 2 1v2c0 5 0 5 3 7 12 5 15 6 14 18 0 4-1 6-3 8-4 4-9 6-13 8-5 2-15 5-20 0-3-3 1-2-9-8 0 3-1 9-2 13l-3 12c-1 5-2 9-3 14l-3 12c-1 3-3 7-2 10 0 1 0 1-1 2-2 3-5 4-8 5-4 1-7 2-10 3-3 0-7 1-10 1-19 0-34-17-45-29-6-6-3-5 0-7 4-5 9-13 12-18-1 0-3 0-4 1l-13 2c-3 0-5 1-9 0-7-2-7-5-10-8-2-4-3-8-3-12 1-4 2-7 3-10 3-5 6-7 4-9l-2-2zm135 33v-1c2-1 1-1 3 0h1c-1-1-1-1 0-2h1c1 0 0 0 1 1l1-1c1 0 0 0 0 0 1-1-1-1 0-3 2 1 0 0 1 1h1v1h1c0-2 1-3 3-2 3-3 6-4 8-9 2-3 2-9 2-13-1-4-2-7-6-9-3-2-8-5-12-6 0-3 1-4 0-7-1-1-1 0-1-2s-2-7-4-8c-3-4-15-5-19-4-1 1-3 2-4 5 0 1 0 3-1 4l-2 1c-1-2-2-4-4-5-3-2-5-1-7-1l14-12c7-6 16-15 17-25 1-6-3-13-6-18-1-2-4-4-6-7 2-4 3-7 2-12-1-3-3-6-6-8-2-1-2-3-3-4-3-8-3-7-1-10l3-6c4 2 7 3 10 4 4 2 4 4 6 6-1 2-3 3-4 6-1 2-2 5-2 7 0 3 1 5-1 7s-1 4 0 6c3 6 14 2 17-3 5-7 6-12 4-20-2-6-2-8-5-12-6-9-17-10-25-14-1-1-1-3-2-4-2-2-4-2-6-4-3-2-6-4-10-6-6-4-13-8-20-12-3-3-7-5-10-7s-7-5-10-4-6 5-8 7c-12 14-25 28-36 43-3 4-5 6-7 9-3 3-6 5-4 10 3 4 5 4 11 5 4 1 8 2 13 3 0 1 1 3 1 4-6 2-12 9-12 16 1 7 5 12 11 15-1 5 2 10 6 13 4 1 7 0 8 2 3 6 8 11 12 16 3 4 6 7 8 11l1 1c-2 1-3 1-4 2-4 1-7 3-11 5-3 2-3 5-5 7s-4 4-6 5c0-2 0-2-1-4 0-4 3-4-1-12-2-3-5-4-6-6-2-4-3-1-5-5 0-3-3-12-5-15-5-7-22-5-27 6-2 4-1 7 1 10 0 1 1 1 1 2 1 3 4 6 5 10 0 2-3 3-1 8v5c0 3 2 3 3 6 0 2 1 2 2 4-4 8-8 16-5 25 1 3 2 5 3 7 2 4 8 8 14 9 5 1 12-2 17-2-2 3-5 6-7 9-1 2-2 1-4 3-4 5 2 10 6 13 11 12 26 28 45 28 5 0 16-3 20-4 3-1 7-3 9-5 2-1 4-4 3-7 0-2 3-11 4-15 3-11 8-29 9-38 1 0 2 2 4 4s3 3 6 3c4 1 11 0 13-1z"/><path class="fil4" d="M364 488c5 2 9 4 14 4 3 1 5 1 7 1 3 0 4 0 7-1-4 5-9 5-14 4s-13-4-14-8zm7 27v-1h-1c-1-1-2 0-4-1-1-1-3-2-4-3 2 0 4 2 5 3 0-1-1-2 0-2s2 1 3 1c0-1-1-1 0-2 1 0 1 2 2 3 0-2 1-2 3-2l-1 3h2c1 0 0 1 1 0-1-1-2-2-1-3 0-2 2-2 3-1 1-2 2-3 4-2 2-3 4-7 7-10 1-2 2-4 3-5 3-3 5-2 5-3s-2-3-2-4c-1-1-1-2-2-4 1-1 2-1 3-3 0-4-5-9-7-8 1 2 4 1 5 5 1 2-1 5-3 7h2c-1 2 1 5 2 6v1h-2c-1 0-2 1-2 1-2 0-3 0-5 1-9 1-27-5-31-12h1c1-1 1-1 2-1-1-1-7 0-6 4 1-2 1-2 2-3 0 7-2 17 1 23 2 6 8 13 15 12zm-33-90c3-1 5-2 8-3 7-2 20-5 26-5 0-1-1-4-2-6-1-3 0-3-4-3-9-2-18-1-24 5-2 1-3 3-4 5s0 3 0 4v3zm-11 50c2 4 6 5 6 7-7 1-5-4-6-7zm0 0zm-7-7c1-1 3-1 5-1-4 4 1 6 2 9 0 2-2 8 6 7-1 2-1 2-3 2 4 1 4-3 3-5-2-2-5-3-4-6 0-3 2-6-2-7-2-1-7-1-7 1zm-12-33c7-5 25-28 31-36 3-4 8-9 10-13-1 2-4 4-5 6-2 2-4 4-5 6-8 9-19 22-26 31-1 1-2 2-2 3l-3 3zm44 19c-1 1-2 3-1 4l1-1v1c2-1 6-3 9-4h5c1 0 4 0 5-1-2-2-11-3-16 0h-1v1c-1 0 0-1-1 0h-1c0 1 1 1 0 0zm8 167c-2 0-2-3 1-2 0 1 0 1-1 2zm-5-2c0 1 0 0-1 0l1 1c2 2 1 3 3 3 0-2 0-1-1-1v-1l1 1 1 1h2c1 0 1 1 2 0-1-1-2-1-3-2 1 1 2 0 2-2v1h1c1-1 0 0 0-1v-2c2 0 1 2 3 2 0-1-1-2-1-2-2-2-2-1-3 0 0-2 0-2-1-2-1-1 0 0 0 0-1 1 0 1 0 2 0 0 0 1 1 1-3-2-5 2-4 3-1-1-1-1-1-2l-2-1v1zm6-156h2c-6 6-5 6-2 9h-2c4 2 10 4 13 1-1 0-2 1-4 1-1-1-3-1-4-2-3-1-6-2-4-5 2-2 3-4 5-5 3-1 6 0 7 2 1-2-2-3-4-3l3-1c-4 0-8 1-10 3zm29-58c-8-3-25-17-34-20 1 2 15 10 16 11 4 2 13 7 18 9z"/><path class="fil4" d="M357 511c1 1 1 2 2 3 6 9 18 11 20 2-2 4-7 6-12 4-2-1-4-3-6-4-1-1-3-4-4-5zm8-43c-2-1-1-1-1-1 1-1 1-1 1 1zm0-3c-4 0-3 6 1 6 3-1 4-6-1-6zm-26-37c0-1 0 0 1-1l1 2h-1c-1 1-1 1-1-1zm-1-1c1 1-2 0 1 4 0 2 0 1 1 1 0-1 0 0-1-1 3 0 3-2 2-4 1 1 1 2 2 3 1-2-1-2 0-4 1 0 1 2 3 2 0-1-1-2-2-3h-1c-1 0-1 0-3 1-1 0-1 0-2 1zm-20 11c1-1 1 0 2 0l-1 2c-1 0-2-1-1-2zm2-1c0-1 0-1-1-2 0-1 0-1-1-1v1s0 1 1 1c-1 1-2 1-2 2-1 2 3 5 4 0 1 1 3 1 3-1-1 0 0 1-2 1l2-3h-3l-1 2zm18 192c1-1 1-1 2 0 0 1 0 1-1 2-1 0-2-1-1-2zm0-4c0 1 1 1 1 3-3 0-2 1-2 3 2 1 3 1 4-2 1 1 2 1 3 0s0 0 0-1l-1 1 1-3c-2 0-3 0-4 2v-2c-1-1 0-1-2-1zm59-161v1h-1c0-1 0-1 1-1zm0-1c-3 0-3 5 1 5 3-1 3-6-1-5zm-52 164c0-3 2-2 2-1s0 1-1 1h-1zm5-1c-1 0-2-2-1-2 1-1 2 0 1 2zm-2 0c3 2 4-1 3-3-1-1-3-1-3 2-2-1-4-1-4 1 0 1 0 1 1 2 1 2 0 2 1 2v-2c1 0 2 0 2-2zm-33-83v-1h1s-1 0 0 0h-1c1-2 0-1 1-1 0-1 1 0 0 0l-2-1v1c-4-2-9 0-10 4 3-1 7-5 11-2zm62-32c2-1 2 1 1 2-1 0-2-2-1-2zm0 3c2-1 3-1 4-3-1 0-1 0-1-1s1-1 1-1h1l1-1c-2-1-3 0-4 2-1-1-3-1-3 1-1 1 0 2 1 3zm-50-39c1 3-1 8 6 7 0-2-4-3-6-7z"/><path class="fil4" d="M370 512l1 1v1h-1 1v1c2 0 4 0 5-1h-2l1-3c-2 0-3 0-3 2-1-1-1-3-2-3-1 1 0 1 0 2z"/><path class="fil4" d="M370 514h1v-1l-1-1c-1 0-2-1-3-1s0 1 0 2c-1-1-3-3-5-3 1 1 3 2 4 3 2 1 3 0 4 1zm-40-82c1 1 0 1 1 2l-1 1-1-1c-1 0-1 0-2 1l-3 3v1c0-1 0-1 1-1 1 1-2 1 1 1v-2c1 0 2 0 2-2 3 2 4-1 3-3h-1zm92 111c-1 2 0 2 0 4v-1c1-1 1-1 1-2 2 0 4-1 6-2-3 0-6 0-7 1zm-4-4v3c1-2 1-2 4-3 1 0 3-1 4-2-4 0-6 1-8 2zm-72-113c0-2 1-2 2-1s-1 2-2 1zm0-3s-2 3 0 4 3 0 3-2v-1c-1-1-2-1-2-1h-1zm-50 129l-1-2v1c-3 0-2-3 0-1l-1-2h-1c-1 1-1 2-1 3 1 3 2 3 3 3 0-1-1-1-1-2h2zm98-86c0-2 1-4 2-5 2-2 3-2 5-2l-1-1h1c-5-1-8 5-7 8zm-20 147c0 2-1 2-2 1 0-2 1-2 2-1zm-2-1c-2 4 2 4 3 3s0-3-1-3c-1-1-1 0-2 0zm-4 4c0 2-2 1-2 0s2-1 2 0zm-2-1c-2 3 2 4 3 2 1-1 0-2 0-2-2-1-2-1-3 0zm-13-194h1v1c1 2-3 2-1-1h-1c-1 1-1 0-1 1s0 3 3 2l1-1v-2h-2zm-30 113c1 1 1 1 1 2v2c1 0 2 0 2-1 1-1-1-1-2-2h1c0-1-1-1-2-1zm44-48c2 2 8 3 11 4h2c-3-1-5-1-7-2-3-1-4-2-6-2z"/><path class="fil4" d="M371 615c-1-1-1-1 0-2-1 0-1 0-2-1 0 0 0-1 0 0-1 1 0 2 0 2v1c1 0 1 2 3 1-1-2 0 1-1-1zm48-83c-1 1-2 3-3 4 2-1 5-4 6-4h-3zm-84-103c0 1-1 0 0 0v1c1 1 1 3 3 2l-2-3c1-1 1 0 1-1l-2 1zm19 194c-1-1 0 0-2-1 1-1 1 1 1-1-1 0-2 0-2 2 1 1 2 0 2 1l-1 1c2 1 2 0 2-2zm22-12c1 0 1 0 1-1h-2v2c1 1 1 0 2 1-1 1 0-1-1 1 0 0 2 0 2-1 0-2-1-1-2-2zm18-142c1 2 6 3 8 0-3 1-1 0-2 1h-1c-2 0-3 0-5-1zm-63-37c1 0 0 0 2 1 0 1 0 0-1 1 2 2 2-2 2-2h-1s-1 0-1-1c1 0 0 1 1 0v-1l-2 2zm-7 5l1-1v-2h2c-1-1-2-1-3 0v3zm24-15l1 1c1 2 1 4 3 2-1-1 0 0-1 0-1-1-1-1-1-2l1-1h-3zm7-1l2 1c-1 0-1 0-1 1h1c1 0 1-1 1-2l-1-1h-1c-1 0-1 0-1 1z"/><path class="fil4" d="M333 430c0 1 0 0 1 1 1 2 1 3 1 2 1 0 0-1-1-4l-1 1zm21 193l1 1c2 0-1-4-1-4v1h-1l1 1v1zm29-140c-2-2-4-2-2-5-2 0-3 4 2 5zm-44-55c0 2 0 2 1 1h1l-1-2c-1 1-1 0-1 1zm-1 201c-1 1 0 2 1 2 1-1 1-1 1-2-1-1-1-1-2 0zm22-8c1-1 1-1 1-2-3-1-3 2-1 2zm-15 6h1c1 0 1 0 1-1s-2-2-2 1zm-27-189c-1 1 0 2 1 2l1-2c-1 0-1-1-2 0zm35-17c-2 3 2 3 1 1v-1h-1zm-3 205c1-2 0-3-1-2-1 0 0 2 1 2zm18-10c0-1-2-1-2 0s2 2 2 0zm6-3c-1-1-2-1-2 1 1 1 2 1 2-1zm67-32l2-1c0-1 0-1 1-1-2-1-3 0-3 2zm-64-70c-1 0 0 2 1 2 1-1 1-3-1-2zm-36 32h1l3-2c-2-1-3 0-4 2zm-46 7l1-1-1 1c-2-2-3 1 0 1v-1zm136 35c1 0 2 0 3-1-2-1-1-1-3 0v1zm-85-159c1 1 3 0 2-1s-2-1-2 1zm92 156c1 0 1 0 2-1v-1h-1c-1-1 1 0-1-1-1 2 1 2 0 3zM329 434l1 1 1-1c-1-1 0-1-1-2-1 1-1 1-1 2zm106 150l1-1h1c-1-1 0-1-1-1h-1c-1 1-1 1 0 2zm-54-73l1-2h-1s-1 0-1 1 0 1 1 1zm5-28c1 0 2-1 3-2-2 0-3 0-3 2zm-65 55v1s1 0 1 1v-1c1-1 0-1 0-1v1l-1-1zm4-102l1-2h-1v2zm39 31s-1 0 1 1c0-2 0-2-1-1zm32-2h1v-1c-1 0-1 0-1 1zm-69 10"/></g><path class="fil5" d="M240 541c10 50 35 102 61 130 19 21 45 27 73 17 35-13 81-47 113-87 28-35 45-77 48-119 1-28-3-56-14-81-39-88-143-114-218-54-22 17-39 40-51 66-17 39-21 84-12 128z"/><path d="M352 670c-85-5-141-142-100-256-17 38-21 83-12 126 10 50 35 102 61 130 8 9 18 16 28 19 3 1 5 2 8 2 12 3 24 2 37-3 35-13 81-48 113-88 17-20 29-43 38-67-26 62-103 142-173 137z" fill="#fac746"/><path class="fil20" d="M329 690c-1 2-2 3-2 4-3 4-8 7-8 7 2 1 8-4 10-6 4-3 1 3 0 4-1 4-3 8-3 8 1 0 3-3 5-7 1-2 3-9 2-3v5c0 3 1 6 1 7 0 0 0-4 1-8 0-3 1-6 1-7 1-1 1-2 1-2-3-1-5-1-8-2z"/><path class="fil17" d="M317 701l2 2c3 4 8 7 14 8h-4c-3-1-8-4-11-8 0-1-1-1-1-2z"/><path class="fil20" d="M378 687c-44 9-70-7-90-32 4 6 8 11 13 16 8 9 18 15 28 19 3 1 5 1 8 2 12 2 24 1 37-4 1 0 2-1 4-1z"/><path class="fil21" d="M488 441c-6-16-23-39-26-51-4-12 12-8 18-3 14 12 24 35 28 56 1 5 0 8-2 10-6 3-13-1-16-7-1-2-1-4-2-5zm21 25v4c-1 3-1 6-2 9-2 4-4 5-6 4-3-1-4-14-5-16 0-2-1-5 0-8s14-5 13 7z"/><path class="fil18" d="M282 623c-6-11-15-27-21-45-10-28-17-60-16-84 0-22 6-27 6-22 1 22 4 53 10 81 9 38 21 70 21 70zm137 23c10-8 26-18 39-31 22-20 42-46 53-67 10-20 7-27 4-22-10 18-28 45-46 67-25 30-50 53-50 53z"/><path class="fil21" d="M269 395c57-103 249-84 260 70 0-35-11-71-31-95-19-21-44-37-72-44-66-17-124 9-152 60-2 3-4 6-5 9z"/><path class="fil0" d="M166 557c13 2 20 14 20 27 1 12-4 25-10 34-19 27-57 39-59 51-4 25 78 51 72 100 6-47-81-74-77-99 2-12 43-26 63-53 15-21 14-56-9-60z"/><path class="fil12" d="M235 495c0-16 2-33 6-49 3-11 6-21 11-32v-1c7-15 17-30 27-43 3-3 5-5 7-8 1 0 1 0 1-1 3-3 7-6 10-9 1-6 0-14 0-19l-2-16c-3 32-17 45-27 57-15 16-28 37-36 60s-12 50-11 76c5-5 10-9 14-15z"/><path class="fil14" d="M235 495c-4 6-9 10-14 15 0 6 0 19-11 29 9-7 21-22 26-28-1-5-1-10-1-16z"/><path class="fil6" d="M392 302c-29-1-65 7-81 17 1 7 1 14 2 21 26-18 54-26 82-25h2c4-4 7-7 10-11-8-2-11-1-15-2z"/><path class="fil22" d="M293 306c3 12 4 25 4 38v5h3c1 0 2-1 3-2 3-2 6-5 10-7 0-3-1-6-1-9-3 1-5 3-8 5 0-10-2-23-6-36-11-36-34-78-67-95 6 5 12 10 18 16 18 20 32 44 40 71 2 5 3 9 4 14z"/><path class="fil22" d="M364 312c-16 2-37 10-52 19 0 3 1 6 1 9 26-18 54-26 82-25h12c-6-3-33-4-43-3zm-64 37h-3v3l3-3z"/></g></g></svg>