<svg xmlns="http://www.w3.org/2000/svg" width="310.071" height="305.22" viewBox="0 0 1615 1590" shape-rendering="geometricPrecision" text-rendering="geometricPrecision" image-rendering="optimizeQuality" fill-rule="evenodd" clip-rule="evenodd"><defs><style>.fil4{fill:#c5c6c6}.fil2{fill:#d9dada}.fil1{fill:#ebecec}.fil6{fill:#fefefe}.fil17{fill:#00a9fe}.fil16{fill:#0243a9}.fil15{fill:#0366c3}.fil5{fill:#b15fbf}.fil14{fill:#b61a2f}.fil9{fill:#d67ee6}.fil13{fill:#dd4157}.fil8{fill:#f3adff}.fil7{fill:#f7546a}</style></defs><g id="Слой_x0020_1"><g id="_684990928"><path d="M7 455zm199-24c-29-2-57-4-87-5-5 0-12 7-18 7H64c-14 1-33 6-47 6-16 1-22 4-12 17v1l2-2s0 1 3 0c17-5 16-8 20-8l284-12c-7 0-33-9-48-9-20-1-40 7-60 5z" fill="#01b2aa"/><path class="fil1" d="M552 392l6-6c5-6 8-14 14-20 38-37 78-86 117-123 14-13 28-27 42-38 11-8 21-12 31-23 8-9 6-22 13-31 31-37 67-74 99-112 4-5 5-16 9-21 5-5 9-7 15-3 6 2 11 2 14-1 2 0 3-2 4-3 7-16 20 7 23 17 4 10 10 27 15 46 2 5 8 4 9 9 5 17 5 37 5 52 0 10 2 11 6 21 3 7 7 14 10 21s14 16 17 22c28 60 54 113 79 171 15 35 28 74 44 110 7 16 12 19 28 27 19 9 49 16 68 25 57 27 122 52 177 79 20 10 40 20 54 32 11 9 25 10 39 13 19 4 37 7 50 13 12 5 21 11 25 19 8 8 6 10 15 8 5-2 11-3 16-2 18 2 25 14 15 29-7 10-22 17-37 23-9 3-10 5-18 11-8 7-17 18-25 25-33 28-68 50-99 75-9 6-14 1-21 11-11 14-18 23-32 36-37 35-80 73-120 107-14 12-29 20-39 31-13 15-20 34-24 61-11 79-19 165-27 249-3 33 1 73-2 106-2 19-8 37-13 53-4 15-7 15 2 29 4 7 9 14 10 21 0 5-3 9-6 13-5 9-15 21-29 14-4-3 1-14-3-17-10-5-22-2-35-7-24-10-50-28-67-37-28-16-36-30-65-45-22-10-49-19-70-30-44-24-89-54-134-79-12-7-12-11-25-5-17 7-30 13-43 16-37 9-54-5-78-29-4-4-8-8-12-10l-420 81c-9 2-20 9-30 13s-19 6-28-2c-16-19 9-31 13-47 3-10-1-22 2-32 32-117 75-241 108-358 5-17 10-46 8-64-3-16-8-32-12-49-26-53-68-117-94-170-10-20-4-29-14-49-8-12-3-4-4-6-19-26-44-49-62-75-9-13-41-56-57-87-9-17-11-26-5-32 1-2 3-4 5-6-2-2-3-4-4-6-10-13-4-16 12-17 14 0 33-5 47-6h37c6 0 13-7 18-7 30 1 58 3 87 5 20 2 40-6 60-5 15 0 41 9 48 9 27-3 38-13 64-16 27-3 62-5 94-6 21 0 39 1 57-1 7-7 15-13 23-20z"/><path class="fil2" d="M1115 601c-12 22-11 53 7 49 7-1 123 33 217 56 106 25 143-8 70 71-72 78-380 291-357 154 5-31 8-87 7-137-3-178-149-111-328-151-50-11-68-49-74-47-9 4-33 66-6 123 26 53 102 102 152 139 101 75 250 145 260 286 8 108 13 258 36 350 0 0 0-1 1-1 10-19 12-86 13-180 1-77-3-177 37-242l-27-9c7-2 7 1 15-3 0-12-13-15-27-19 5 7 10 6 20 12-6 0-56-19-65-23 6-1 35 10 45 13l-6-7c-2-2-3-2-6-5l52 9c5-11 3-6 9-11l13-13 55-52c2-2 1-2 3-4 60-51 87-73 151-119h1c12-9 5-4 13-8 8-3 7-6 14-11 24-19 87-58 116-71 10-5 23-7 31-15 9-8 18-14 24-29-5-7-10-4-11-7-16-2-39 0-60-2-12-1-26-3-37-4-9-1-8 4-18 0l-5-4-6 10-7-11c-80-18-309-111-322-87z"/><path d="M764 167c-2 16 4 4 15 10 2-8 69-96 96-129 14-16 11-12 2 3l-25 44c-2 8 2-1-1 6-2 3-5 4-8 8 0 0-1 0-1 1-1 1-4 8-6 10l-36 67-8-5c1 10 8 16 11 23-7-3-12-10-19-15-3 2-2-2 0 2 0 1 2 3 2 4-2 0-1-1-4 0-6 1-1 0-5 2 2 10-3 16-7 22-20 27-36 44-58 69l-2 2c-37 46-71 92-107 139l-1 2c-1 3-2 6 0 12-13-26-33-39-39-55 59-66 128-127 191-191 10-10 9-3 16-11-3-4 0-5-5-9-1 3-55 44-65 53-17 16-130 130-140 144-9 12-16 24-25 31 14-7 21-25 38 1 7 12 18 24 19 29-18 11-83 32-85 46-2-24-15-32-9-62 2 0 29-8 30-8-17-2-43 0-58 0-19 1-35 2-53 3-32 2-67 6-94 17 2 3-2 0 3 2h4l117-8c13-1 31-4 43-5 0 8 2 18 4 25 2 9 7 13 6 23-16 5-208 2-239 0-11-1-22-1-32-2-21-2-43-1-60-2-42-2-98-17-136-14-9 1-18 2-25 5-4 1-10 12 3 16-4-11 3-10 13-10 31 0 247 50 376 60 39 3 96 17 106 7l-1-1c5 2 4-3 6 4 1 3 0 3 1 5 2 4 4 10 7 14 10-7 1 8 1-24 0-24 68-37 97-35 11 1 26 31 26 30-8-16-16-32-23-48-7-25 39-24 40-25l10-14c16-18 11 11 35-7 32-25 85-99 130-196 8-19 8-41 16-61 13-26 19-55 30-74l9-26c4-12 17-34 16-48-1-2-2-3-3-5s-3-1-5-3c-16 11-52 56-69 73-15 16-56 56-65 79z" fill="#b2b3b3"/><path class="fil4" d="M1571 697c-2 6 5 1 10 9-6 15-15 21-24 29-8 8-21 10-31 15-29 13-92 52-116 71-7 5-6 8-14 11-8 4-1-1-13 8h-1c-64 46-91 68-151 119-2 2-1 2-3 4-13 12-70 61-77 76l-52-9c31 28-19-3-33-1 9 4 59 23 65 23-43-24 6-7 7 7-4 2-19 50-25 85-6 28-11 65-13 103-2 46 2 241 0 246-4 6-11 0-29-15-153-135-240-189-274-188-21 0-21 29-13 46 4 8 265 163 294 187 10 10 18 17 28 27 26 28 12 21 37 23-1 5-5 20-15 14 3 5 18 1 24-1 3-4 10-22 9-25 0-7-6-16-10-21 0 1-1 1-1 2l-2 4c-2 3 0 2-3 6-5-26-3-54-3-81 2-82-3-153 3-241 5-74 15-98 27-167-1-2 4-4-9-5h8c2-1 2-1 4-1 5-1 2 0 5-1l-10-6c6-2 3 0 8-4 21-21 68-60 93-81l119-97c9-8 5-6 17-9 1-5 0-11 2-14 5-5 2 1 11 0 4 0 14-10 19-13l39-29c27-19 58-38 78-59l9 2c13-9 19-2 34-16 17-16 11-18 10-32-17-4-25-7-38-1zM12 484c13 16 28 41 41 55 3 4 87 95 81 112l11 1-3 10c5 3 10 6 17 5 8 0 12-4 17 1-5 2-5 0-10 4-2 1-6 5-8 8l29-7c-5 6-19 9-26 13 2 4 3 2 7 7 3 5 0 4 5 10 3 6 3 3 6 8l7 12v2c3 6 2 5 6 9 10 11 71 113 93 146 7 15 18 15 14 15-6 0-31 0-44-5-12-4-12-14-18-20l-12-12c9 16 13 28 17 35 5 0 33 7 38 10 13 6 11 10 12 13l22 4c-9 5-11 0-24 2-1 0-1 0-2 1 11 26 22 50 19 68 12 10 19 13 16 14-10 3-72-23-71-68v1c-1 13 0 17-3 31-5 24-50 161-58 188-12 36-21 73-33 108-8 22-27 89-23 109 2-1 88-262 97-286 9-27 28-75 33-101 7 4 11 5 20 9 7 3 12 6 17 12 14 4 13 13 26 17 4 3-37 68-64 132-28 67-26 89-70 152-13 18-14 41-32 63-12 17-16 19-17 29 94-55 174-315 216-375 15-1 58 7 10-4 2-1 3-1 5-1 12-6-5-10-12-12 0 0-4-1-8-4 26 1 53 3 79 4-24-3-49-6-73-9-5-11-18-83-20-85 14-11 20-9 38-11 8-1 29-2 33-5-17 0-45 4-56 5-20 1 26-4-8-11-9-2-3-3-15-5l11-6c-10-2-10-3-14-10l-21-34-2-4-85-135c-1 0-1-1-1-1l-8-9v-2c-9-12-8-2-4-19-36-3-24-7-19-15-14-8-16-10-25-21l-60-71-87-83c-1-1-15-17-15-10-1 3 6 13 8 16z"/><path class="fil4" d="M913 11c9 41 5 123 12 178 16 4 40 87 73 175 26 68 63 140 72 176 2 8 1 10 9 17l-43 64c22-23 46-33 65-31 30 4 48 35 49 64l21-32c19-4 196 50 266 66l7 11 6-10 5 4c10 4 9-1 18 0 11 1 25 3 37 4 26 2 57-1 71 3-5-8-11-3-10-9h-4c-5 1-5-4-24-8-12-3-23-4-35-6-57-11-36-15-55 3 4-14-250-100-257-98 0-1-85-60-98-50-4-14 2 10-1-3-1-3-1-4-2-6-48-117-88-248-137-362-4-7-7-3-13-2 11-20 8-12 4-35-7-33-19-75-22-109-1-7-2-13-10-15-3 0-7 2-4 11zM626 489c-18-41 16-36 25-25 3 4 4 9 2 13-2 5-7 7-9 10-3 3 0 5 0 5 10 18 40 48 36 36 33 37 125-125 180-283 34-96 47-215 49-217-2-6 2-3-6-10 4 11-10 44-13 53l-9 26c-39 70-97 160-146 226-26 34-51 70-76 98-12 14-23 22-36 35-14 14-3 18 3 33z"/><path class="fil2" d="M531 588l12 2-10-28c-3-6-4-8-6-14l-4-18c71 23 57-16 94-38-2-1-4-1-6-2-26-8-91 12-91 37 0 45 5 6-15-2-1 1-187-16-209-16 15 9 225 77 235 79z"/><path class="fil5" d="M137 1419c8 1 145-37 157-39l41-9c24-4 53-15 79-20 53-12 107-26 160-39 6-1 37-10 31 13-4 15 26-78 14-60-19 29-61 36-158 56-118 25-293 62-324 98z"/><path class="fil5" d="M125 1440c9 7 37-5 44-10-25-21-60 34 13-15 2-20-73 26-20-43 18-22 26-37 38-55 3-5 2-3 5-7l27-45c4-7 6-7 8-14 2-6 0-3 4-9 2-5 90-203 95-208 4-4 11-8 5-13-14-5-28-9-42-13-40 63-73 174-101 238-20 47-51 110-53 116-7 15-14 31-16 46-1 7-5 29-7 32z"/><path class="fil6" d="M401 691c5 18 24 170 25 171 14 23-11 16 25 44 19 16-7 5 15 27 4 3-9 30 4 43 1 1 2 24-13 27-5 1 17 57 12 114-3 23-14 51-27 69-32 41-84 85-101 102-9 9 134-82 161-129 2-4 11-1 24 5 35 18 97 48 104 54 60-42 172 3 174-2 1-2 53-29 103-71 26-22 52-48 75-71 135-138-24 0-174-139-25-23-43-52-59-82-49-97-66-211-187-230-56-9-181-1-161 68z"/><path class="fil7" d="M612 1348c-6-5 4-35 10-34 5 1 9 7 13 11 11 13 8 19 25 34 9 8 11 20-1 20-4 0-9-1-13-4-13-6-27-19-34-27z"/><path class="fil8" d="M679 1379c-7-6 12-11 13-15 1-5 4-9 3-16-2-8 61-18 72-20 9-1 6 6 2 10-8 9-15 17-26 21-8 3-13 4-20 8-4 2-40 16-44 12z"/><path class="fil5" d="M679 1379c-7-6 12-11 13-15 1-5 4-9 3-16-2-8 61-18 72-20 9-1 6 6 2 10-8 9-15 17-26 21-8 3-13 4-20 8-4 2-40 16-44 12zm-44-54c11 13 8 19 25 34 9 8 11 20-1 20-4 0-9-1-13-4-13-6-27-19-34-27-6-5 4-35 10-34 5 1 9 7 13 11zm-37 20h1c4 2 8 6 12 10 24 24 41 38 78 29 13-3 26-9 43-16 10-5 12-3 19 2 14-11 26-27 35-47v-1l1-2c8-18 14-48 13-60-1-5-4 1-8 9-3 5-6 14-10 23-2 4-158 51-146-77-1 1-8 0-9 1 2 12-22 120-29 129z"/><path class="fil6" d="M528 620c13 0 24 1 34 3 121 19 138 133 187 230 16 30 34 59 59 82 141 131 289 17 195 116h1c18-19 27-29 31-37 27-51 17-134-5-186-22-51-58-69-137-57s-162-9-197-49c-19-21-36-58-4-73 9-4-16-48-20-55-4-5-67-123-49-80 61 143 9 21-95 106z"/><path class="fil2" d="M860 245c-8 24-44 101-80 172-44 83-91 154-136 75-3-6 9-9 10-19-3 11-19 9-11 19 3 4 41 102 41 104 4 17 8-15 6-21-2-9-1-30 10-13 5 7 15 5 20-7 8-20 28-37 48-41 59-13 75-74 93-129 61-187 98 183 124 182 15-1 33-15 13 11-5 6 7 27 21 21 11-4-26 57 13 11 9-11 30-41 27-68-9-67-66-169-101-302-19-72-29-145-44-227-1 1-1 1-2 1-10 8-18-8-29 4-3 4-5 14-8 19l19-19c6-5 11 1 13 7 1 2 1 5 1 9-4 25-18 127-48 211z"/><path class="fil5" d="M790 1259c-2 4-3 12 2 3 3-6-8 23-7 23 5-1 14-7 12 5 5-19 7-43 13-61 6-23 23-29 39-43-24 14-40 21-41 22-8 19-21-11-33-7-18 7-10-12-20-7-3 2-5 2-8 2 2 28 43 5 44 31 1 4 6 12-1 32z"/><path class="fil9" d="M347 1284c-56 35-156 91-203 125 1 2 1 2 4 3 53-32 208-69 313-91 97-20 139-27 158-56 5-24 8-44 8-49-16-10-69-36-101-52-10-5-17-8-21-7-2 1-3 2-4 3-25 40-127 109-154 124z"/><path d="M574 1312c-53 13-107 27-160 39-26 5-55 16-79 20l-41 9c-47 10-76 24-94 30-110 38-37 15-31 19 3-1 7-2 10-3l419-81c1-2 4-9 7-20 6-23-25-14-31-13z" fill="#fadeff"/><path class="fil9" d="M759 1316c10-2 15-8 23-24 11-25 18-45 12-62-9-27-45-44-129-26-17 3-20 6-29 11-5 47-15 87 39 101 32 8 74 2 84 0z"/><path class="fil8" d="M786 1323c-9 20-21 36-35 47l6 3c45 25 90 55 134 79 21 11 48 20 70 30 29 15 37 29 65 45 17 9 43 27 67 37 11 4 21 3 30 5-3-3-7-8-17-19-10-10-18-17-28-27-32-26-254-188-287-191l3-10c-6 3-7 2-8 1z"/><path class="fil9" d="M1071 1478c17 14 24 20 28 16-236-233-55-361-51-519 0-1-15 40-50 81-45 52-116 110-149 130-16 14-33 20-39 43-6 18-8 42-13 61-3 11-6 22-10 30l8-7 12-19c6 9 84 26 264 184z"/><path class="fil2" d="M1001 199c-3-6-14-15-17-22l-10-21c42 104 94 211 136 316 11 28 15 29 45 42 95 41 193 83 290 124-14-10-31-18-48-27-55-27-120-52-177-79-19-9-49-16-68-25-16-8-21-11-28-27-16-36-29-75-44-110-25-58-51-111-79-171zm-33-64c0-15 0-35-5-52-1-5-7-4-9-9-5-19-11-36-15-46-2-6-8-18-14-22 1 3 1 6 2 9 0 3 0 7 1 11 15 38 26 78 41 116-1-2-1-4-1-7z"/><path d="M239 862C184 742 134 654 86 581l-33-42c-13-14-28-39-41-55-2-3-9-13-8-16-6 6-4 15 5 32 16 31 48 74 57 87 18 26 43 49 62 75 1 2-4-6 4 6 10 20 4 29 14 49 21 44 53 95 79 141l12 12c5 5 6 12 13 17-4-7-7-16-11-25z" fill="#e0deec"/><path d="M242 893c3 15 8 29 10 43v9c2 9 6 18 11 25 3-32-1-52-10-75-5-1-10-2-11-2z" fill="#e087f0"/><path class="fil2" d="M33 451h6-6zm-4 0h4-4zm239-14c14-1 29-2 43-2-10-2-32-9-45-9-20-1-40 7-60 5-29-2-57-4-87-5-5 0-12 7-18 7H64c-14 1-33 6-47 6-16 1-22 4-13 17 1 0 2 0 3-1 1 0 3 0 4-1 1 0 3 0 4-1 5-1 10-1 14-2 1 0 3 1 4 1 3-1 6-1 10-1h-4l9-1c51-4 135-9 219-13h1z"/><path class="fil1" d="M498 420c-6 30 7 38 9 62 2-14 67-35 85-46-1-5-12-17-19-29-17-26-24-8-38-1l-6 6h-1c-1 0-28 8-30 8z"/><path class="fil1" d="M783 190c-1 1-1-1 0 0zM563 389c6 16 26 29 39 55-2-6-1-9 0-12l1-2c36-47 70-93 107-139l2-2c22-25 38-42 58-69 4-6 9-12 7-22 4-2-1-1 5-2 3-1 2 0 4 0 0-1-2-3-2-4s-1-1-1-2h1c7 5 12 12 19 15-3-7-10-13-11-23l8 5 36-67c2-2 5-9 6-10l1-1c3-4 6-5 8-8 3-7-1 2 1-6l25-44c9-15 12-19-2-3-27 33-94 121-96 129-6-3-11-1-13-1-1 1-1 2-1 2 5 4 2 5 5 9-7 8-6 1-16 11-63 64-132 125-191 191zm-69 57c-2-7-4-17-4-25-12 1-30 4-43 5l-117 8h-4l-1-1c-4 1-7 1-11 2h-3l-43 2h-1c-84 4-168 9-219 13l-9 1h4c38-1 88 12 126 14 17 1 39 0 60 2 10 1 21 1 32 2 31 2 223 5 239 0 1-10-4-14-6-23z"/><path class="fil13" d="M787 1320c4-8-8-114-6-125-2 11 10 117 6 125zm-112-4c-54-14-44-54-39-101h-1c-2 1-7 0-8 1 0 5-3 25-8 49-4 21-9 44-14 60-3 11-6 18-7 20h1c4 2 8 6 12 10 24 24 41 38 78 29 13-3 26-9 43-16 10-5 12-3 19 2 12-10 22-22 31-38 2-3 3-6 4-9v-1l1-2 8-7 12-19c6 9 84 26 264 184 17 14 24 20 28 16-127-125-133-220-112-306-32-9-65-18-100-27h-2c-14 11-27 19-36 25-5 4-19-9-24-5-10 8-22-11-27 5-5 18-36-40-41-22l-34 27c3-12 67 93 62 94-1 1-1 2-2 3-3 8-6 15-10 19-4 5-8 8-14 9-10 2-52 8-84 0zm-40 9c11 13 8 19 25 34 9 8 11 20-1 20-4 0-9-1-13-4-13-6-27-19-34-27-6-5 4-35 10-34 5 1 9 7 13 11zm44 54c-7-6 12-11 13-15 1-5 4-9 3-16-2-8 61-18 72-20 9-1 6 6 2 10-8 9-15 17-26 21-8 3-13 4-20 8-4 2-40 16-44 12z"/><path class="fil14" d="M716 1127c-27-4-56-7-85-10-53-6-107-11-162-13v13c-3 23-14 51-27 69-32 41-84 85-101 102l6-4c27-15 129-84 154-124l1-1c0-1 1-2 3-2 4-1 11 2 21 7 19 9 45 22 66 33 15 8 28 15 35 19 1-1 16-1 18-1 4-2 4 0 8-1 20-10 20-3 35-4 8-1 16-14 41-13 7 0 13 0 19 1-1 0-1-1-1-2 3 0 5 0 8-2 10-5 2 14 20 7 12-4 25 26 33 7 1-1 17-8 41-22 9-6 22-14 36-25-53-13-109-25-169-34z"/><path class="fil15" d="M334 888c12 2 6 3 15 5 34 7-12 12 8 11 11-1 39-5 56-5-4 3-25 4-33 5-18 2-24 0-38 11 2 2 15 74 20 85l73 9-79-4c4 3 8 4 8 4 7 2 24 6 12 12-2 0-3 0-5 1 48 11 5 3-10 4-10 15-22 41-37 73 46 0 96 2 145 5 2-52-16-100-12-101 15-3 14-26 13-27-13-13 0-40-4-43-22-22 4-11-15-27-36-28-11-21-25-44-1-1-20-153-25-171v-2c-61 4-121 9-176 13l83 132 2 4 21 34c4 7 4 8 14 10l-11 6z"/><path class="fil16" d="M362 1000c-5-11-18-83-20-85 14-11 20-9 38-11 8-1 29-2 33-5-17 0-45 4-56 5-20 1 26-4-8-11-9-2-3-3-15-5l11-6c-10-2-10-3-14-10l-21-34-2-4-83-132c-17 2-34 3-50 4 1 2 2 1 4 5l7 12v2c3 6 2 5 6 9 10 11 71 113 93 146 7 15 18 15 14 15-6 0-31 0-44-5-2-1-4-2-5-3-7-5-8-12-13-17l-12-12c2 3 4 7 5 10 6 11 8 20 12 25 1 0 6 1 11 2 10 2 24 6 27 8 13 6 11 10 12 13l22 4c-9 5-11 0-24 2-1 0-1 0-2 1 11 26 22 50 19 68 12 10 19 13 16 14-7 2-41-10-60-35-5-7-9-16-11-25v-5c0 11 0 16-3 29-3 16-25 82-41 132h6c4 0 9 0 13-1 2-5 4-9 5-12 9-27 28-75 33-101 7 4 11 5 20 9 7 3 12 6 17 12l42 13c6 5-1 9-5 13-2 2-15 30-31 65h16c15-32 27-58 37-73 15-1 58 7 10-4 2-1 3-1 5-1 12-6-5-10-12-12 0 0-4-1-8-4l79 4-73-9z"/><path class="fil17" d="M307 991c3-18-8-42-19-68 1-1 1-1 2-1 13-2 15 3 24-2l-22-4c-1-3 1-7-12-13-3-2-17-6-27-8 9 23 13 43 10 75 19 25 53 37 60 35 3-1-4-4-16-14zm-52-101c13 5 38 5 44 5 4 0-7 0-14-15-22-33-83-135-93-146-4-4-3-3-6-9v-2l-7-12c-2-4-3-3-4-5-5 0-9 1-14 1 25 45 51 96 78 155 4 9 7 18 11 25 1 1 3 2 5 3z"/><path class="fil16" d="M239 862c-27-59-53-110-78-155-6 0-13 1-19 1 1 3 2 6 4 9 21 44 53 95 79 141l12 12c5 5 6 12 13 17-4-7-7-16-11-25zm14 33c-5-1-10-2-11-2 3 15 8 29 10 43v9c2 9 6 18 11 25 3-32-1-52-10-75z"/><path class="fil17" d="M265 987c-5 26-24 74-33 101l-5 12h31c13-35 28-67 44-92-5-6-10-9-17-12-9-4-13-5-20-9z"/><path class="fil15" d="M302 1008c-16 25-31 57-44 92 11-1 22-1 33-1h17c16-35 29-63 31-65 4-4 11-8 5-13l-42-13zm746-33c0 27-6 52-14 78 16 27 27 57 29 91 1 21 3 44 4 68 12 3 23 7 35 10 2-29 6-56 11-78 5-27 15-63 21-78l13 4c5-2-2 8 8-9 3-6-2-14 9-23 18-21 53-65 64-75 2-2 1-2 3-4 59-50 86-72 147-116l-33-9c-106 83-281 189-294 119 0 7-1 15-3 22z"/><path class="fil15" d="M1031 1008c12-20 17-34 17-33 2-7 3-15 3-22 1-7 1-15 1-22-1-37-10-75-22-103-22-51-58-69-137-57-31 4-64 4-93-1-45-7-83-24-104-48-10-11-19-26-22-40-3 0-7-1-10-1 17 21 30 46 41 72l21 48c7 18 15 35 23 52 2 4 4 7 5 10 15 26 32 51 54 72 72 67 146 70 189 70 18 0 30-1 34 3z"/><path class="fil17" d="M800 770c29 5 62 5 93 1 79-12 115 6 137 57 12 28 21 66 22 103 5-31 8-87 7-137 0-17-2-32-5-45-72-19-145-37-220-51-9-1-19-3-29-5-40-6-84-10-131-11 3 14 12 29 22 40 21 24 59 41 104 48z"/><path class="fil16" d="M997 1005c-43 0-117-3-189-70-22-21-39-46-54-72-1-3-3-6-5-10-8-17-16-34-23-52l-21-48c-11-26-24-51-41-72h-24c-77-1-159 3-239 8v2c5 18 24 170 25 171 14 23-11 16 25 44 19 16-7 5 15 27 4 3-9 30 4 43 1 1 2 24-13 27-4 1 14 49 12 101 55 2 109 7 162 13 29 3 58 6 85 10 60 9 116 21 169 34h2c35 9 68 18 100 27 12-46 33-90 47-135 8-26 14-51 14-78 0-1-5 13-17 33-4-4-16-3-34-3z"/><path class="fil17" d="M1031 1062c-13 41-32 82-43 124 0 1 0 2-1 2 28 8 55 16 80 24-1-24-3-47-4-68-2-34-13-64-29-91l-3 9zm20-109c13 70 188-36 294-119-97-28-193-58-291-85 3 13 5 28 5 45 1 50-2 106-7 137 0 7 0 15-1 22z"/><path class="fil16" d="M1159 1028c-4 5-7 9-8 11 5-11 3-6 8-11zm69-65c-11 10-51 45-69 65-5 5-3 0-8 11l-52-9c9 8 11 11 10 12-2 0-10-3-19-7-9-3-19-7-24-6 9 4 59 23 64 23-9-6-14-9-16-11-3-3 3-1 10 3s14 10 14 15c-1 0-2 3-4 7-6 15-16 51-21 78-5 22-9 49-11 78 4 1 8 3 13 4 10 3 20 6 30 8v-4c5-74 15-98 27-167-1-2 4-4-9-5h8c2-1 2-1 4-1 5-1 2 0 5-1l-10-6c6-2 3 0 8-4 21-21 68-60 93-81l119-97c9-8 5-6 17-9 1-3 1-5 1-7l-30-9c-61 44-88 66-147 116-2 2-1 2-3 4z"/><path class="fil15" d="M1271 965c-25 21-72 60-93 81-5 4-2 2-8 4l10 6c-3 1 0 0-5 1-2 0-2 0-4 1h-8c13 1 8 3 9 5-12 69-22 93-27 167v4c12 4 23 7 35 10 4-48 10-95 16-141 4-28 11-46 24-61 10-11 25-19 39-31 40-34 83-72 120-107 14-13 21-22 32-36 7-9 11-5 19-10-7-2-15-4-22-6 0 2 0 4-1 7-12 3-8 1-17 9l-119 97z"/><path class="fil7" d="M1099 1494c-19-74-26-185-32-282-25-8-52-16-80-24-21 86-15 181 112 306z"/><path class="fil14" d="M1100 1247c-2 46 2 241 0 246-1 0-1 1-1 1-4 4-11-2-28-16-180-158-258-175-264-184l-12 19-8 7-1 2v1c1 1 2 2 8-1l-3 10c33 3 255 165 287 191 10 10 18 17 28 27 10 11 14 16 17 19 2 3 1 3 4 3 5 0 1 8 0 12 0 4 5 7 13 6 4 0 10-2 12-4 2-1 2-2 3-4 3-7 7-18 6-21 0-7-6-16-10-21 0 1-1 1-1 2l-2 4c-2 3 0 2-3 6-5-26-3-54-3-81 2-81-3-150 3-237-10-2-20-5-30-8-5-1-9-3-13-4-1 8-1 17-2 25z"/><path class="fil13" d="M1100 1493c2-5-2-200 0-246 1-8 1-17 2-25-12-3-23-7-34-10h-1c6 97 13 208 32 282l1-1zm45-259c-6 87-1 156-3 237 0 27-2 55 3 81 3-4 1-3 3-6l2-4c0-1 1-1 1-2 4 5 10 14 10 21 1 3-3 14-6 21 2-3 4-5 5-8 3-4 6-8 6-13-1-7-6-14-10-21-9-14-6-14-2-29 5-16 11-34 13-53 3-33-1-73 2-106 4-36 7-72 11-108-12-3-23-6-35-10zm-67 289c-32-26-254-188-287-191l3-10c-6 3-7 2-8 1-1 3-2 6-4 9-9 16-19 28-31 38l6 3c45 25 90 55 134 79 21 11 48 20 70 30 29 15 37 29 65 45 17 9 43 27 67 37 11 4 21 3 30 5-3-3-7-8-17-19-10-10-18-17-28-27zm-538-219c43-10 67-20 79-39 5-24 8-44 8-49-7-4-20-11-35-19-21-11-47-24-66-33-10-5-17-8-21-7l-4 3c-25 40-127 109-154 124-2 1-4 3-6 4-57 35-151 88-197 121 0 1 1 1 1 1 0 1 1 1 1 1s1 0 2 1c52-32 205-68 310-90 1 0 2 0 3-1 32-6 58-12 79-17z"/><path class="fil7" d="M574 1312c-14 4-28 7-43 11-39 9-78 19-117 28-26 5-55 16-79 20l-41 9c-38 8-95 21-129 33-9 3 12 0 5 3-8 3-31 4-36 6-31 11-1 20 13 18 6-1 21-12 22-11 3-1 7-2 10-3l334-65 85-16c1-2 4-9 7-20 6-23-25-14-31-13zm-233-24c17-17 69-61 101-102 13-18 24-46 27-69v-13c-49-3-99-5-145-5-45 101-108 260-179 302-2 4-2 6-1 8 46-33 140-86 197-121z"/><path class="fil14" d="M145 1401c71-42 134-201 179-302h-16c-27 60-63 140-64 143-4 6-2 3-4 9-2 7-4 7-8 14l-27 45c-3 4-2 2-5 7-13 18-20 33-38 55-10 14-15 23-17 29z"/><path class="fil7" d="M146 1411zm59-101l27-45c4-7 6-7 8-14 2-6 0-3 4-9 1-3 37-83 64-143h-17c-11 0-22 0-33 1-22 52-40 107-57 146-20 47-51 110-53 116-7 15-14 31-16 46-1 7-5 29-7 32 1 1 3 1 4 2 4 1 11 0 18-2 9-3 19-7 22-10v-1c-1-1-6 0-12 1-31 17-18-6 0-5 5-2 12-4 20-7 2-1 3-2 5-3 0-3-1-4-3-5-7-2-24 4-31 2-1-1-1-1-2-1 0 0-1 0-1-1 0 0-1 0-1-1-1-2-1-4 1-8 2-6 7-15 17-29 18-22 25-37 38-55 3-5 2-3 5-7z"/><path class="fil14" d="M135 1374c2-1 73-216 92-274l-13 1h-6c-8 26-15 47-17 56-12 36-21 73-33 108-8 22-27 89-23 109zm321-52c-104 22-256 58-308 90 7 2 24-4 31-2 24-6 54-14 78-20 11-4 23-7 37-10l41-9c24-4 53-15 79-20 39-9 78-19 117-28 15-4 29-7 43-11 6-1 37-10 31 13 5-16 10-39 14-60-12 19-36 29-79 39-21 5-47 11-79 17l-3 1h-2zm180-107c-5 47-15 87 39 101 32 8 74 2 84 0s15-8 23-24c1-3 2-5 3-7 1-3 2-6 3-8 7-18 10-34 6-47-2-7-6-13-12-18-7-7-19-12-34-14-19-3-45-2-77 5-2 0-4 0-6 1-7 1-13 3-19 6-3 1-6 3-10 5z"/><path class="fil7" d="M767 1328c-11 2-74 12-72 20 1 7-2 11-3 16-1 4-20 9-13 15 4 4 40-10 44-12 7-4 12-5 20-8 11-4 18-12 26-21 4-4 7-11-2-10z"/><path class="fil13" d="M257 1100l-30 1c-19 57-90 272-92 273 0 6 0 11-1 16-4 16-29 28-13 47 2 2 3 2 4 3 2-3 6-25 7-32 2-15 9-31 16-46 2-6 33-69 53-116 17-38 35-94 56-146z"/></g></g></svg>