<svg xmlns="http://www.w3.org/2000/svg" width="220.815" height="328.452" viewBox="0 0 2047 3046" shape-rendering="geometricPrecision" text-rendering="geometricPrecision" image-rendering="optimizeQuality" fill-rule="evenodd" clip-rule="evenodd"><defs><clipPath id="id0"><path d="M760 968c81 173 216 339 335 418 89 59 189 59 279 0 118-79 253-245 335-418 71-151 96-316 67-472-19-103-60-199-121-280-217-286-618-289-838-5-63 82-105 180-125 285-29 156-4 321 68 472z"/></clipPath><clipPath id="id1"><path d="M123 1712c103 167 259 321 388 388 98 51 200 40 285-31 112-93 231-278 295-463 55-162 63-333 16-489-31-102-84-196-155-271-253-268-662-226-854 88-56 90-88 195-96 304-12 162 32 328 121 474z"/></clipPath><clipPath id="id2"><path d="M918 2069c40 192 134 391 233 498 75 81 175 105 279 68 137-50 312-184 435-336 108-134 173-292 181-455 6-106-11-213-53-308-147-338-546-438-834-208-83 66-149 154-194 254-66 148-81 319-47 487z"/></clipPath><style>.fil5{fill:none}.fil4{fill:#fefefe}.fil17{fill:#b15fbf}.fil7{fill:#d4395b}.fil8{fill:#d67ee6}.fil14{fill:#e082b4}.fil16{fill:#e087f0}.fil6{fill:#e6476a}.fil0{fill:#e6e6e6}.fil12{fill:#f299c8}.fil9{fill:#f3adff}.fil18{fill:#fadeff}.fil10{fill:#ffa3b7}.fil15{fill:#ffdbee}</style></defs><g id="Слой_x0020_1"><g id="_687207488"><path class="fil0" d="M1239 2640c49 3 74 26 76 52 2 22-15 46-41 65-71 51-218 74-225 98-15 46 300 97 276 191 23-90-309-142-294-190 7-24 165-50 240-101 59-40 53-108-32-115z"/><path d="M1213 1430c-4 28-13 32-34 49-12 11 38 30 53 30 17 1 33-2 25-14-14-22-12-53-13-65-10 1-21 1-31 0z" fill="#e494f2"/><path d="M760 968c81 173 216 339 335 418 89 59 189 59 279 0 118-79 253-245 335-418 71-151 96-316 67-472-19-103-60-199-121-280-217-286-618-289-838-5-63 82-105 180-125 285-29 156-4 321 68 472z" fill="#f7597b"/><g clip-path="url(#id0)"><path id="1" d="M1503 122c-39-30-81-53-126-70-45-16-92-25-140-26-113 0-211 34-288 94S817 265 791 366c-29 111 3 217 70 298s170 139 279 157c100 16 252-4 371-67 118-63 204-169 168-326-14-61-37-121-67-174-29-53-66-99-109-132z" fill="#ff708f"/><path class="fil4" d="M1252 686c1 15-6 32-17 39-6 4-8 4-12 0-6-7-10-15-11-27 0-9 4-23 9-29 3 2 10 10 27 15l4 2zm19 1c6-1 12-3 17-5 7-4 10-8 12-9 5 5 10 12 13 21 2 7 4 26-6 26-16 0-34-18-36-33zm41-1c5 5 7 17 6 26-2 7-7 18-13 19-10 3-19-2-25-6l-12-12c-2-2-2-3 0-5 19 28 45 23 48 2 2-11-2-15-4-24zm-47-22c4 0 8-1 11-2 4-1 6-3 8-2 5 1 13 6 15 9-5 6-18 13-29 14-1-9-3-12-5-19zm-11 22c0 21-8 40-26 47-9 3-12 3-18-3-16-13-17-45-5-65l4-6 1-1 3 2c-4 8-12 10-13 33-1 34 25 48 43 27 3-4 6-9 8-14 3-11 2-14 3-20zm10-26c2-1 2-2 5-2h7c-4 1-6 3-12 2zm49 67c12-21 7-38-9-56-9-9-16-14-34-15 7-7 20-7 29-2 9 4 16 11 21 19 5 7 10 19 9 31 0 13-7 18-16 23zm-57-42c0-21-8-27-17-37 34 1 38 55 15 80-10 11-19 10-30 8 2-1 7-2 14-7 13-9 18-26 18-44zm106-61c25 0 12 42 7 55-9 27-13 39 11 54 17 9 38 16 51 28 13 13 24 32 24 58 0 18-6 22-3 48-7-1-16-11-19-17-4-9 1-26-6-31-9 0-15 1-21 5-8 5-10 10-13 13 0-12 17-29 17-48 0-40-66-29-72-65-5-34 19-57 26-75 6-14 4-18-2-25zm-69 25c4-14 18-33 30-38 9-3 22-2 28 3 2 3 5 7 7 10 3 4 8 4 8 9-14 2-15-27-40 4-4 5-14 19-17 21-13-8-11-6-16-9zm-200 155c2-14 8-26 7-41-2-16-11-19-27-21 21-9 30-11 37-31 9-27 22-19 33-36 21-34-25-45-20-71 1-5 3-9 5-12 2-2 8-7 10-8-1 5-4 8-5 14s0 12 2 17c5 9 12 16 17 24 31 52-32 55-35 107-1 13 1 26-4 36-3 7-14 19-20 22zm50-228c5-14 27-17 44-10 44 18 27 48 44 77 6 10 9 11 15 16 5 4 8 15 8 23-15-3-29-14-36-22-10-11-15-21-16-41-2-26-6-49-37-48-11 0-14 3-22 5zM962 369c0-12-6-17 2-39 2-5 14-28 19-22 5 5-3 28-5 35-10 45-5 99 20 135 9 11 16 20 25 30 8 8 20 22 21 35-4 3-11 6-14 9 12-2 27-16 34-21 9-6 22-17 38-16 15 1 27 11 30 23 4 10 1 14 0 23-1 14 6 14 7 20-14-3-39-19-51 20-3 11-4 23-7 34-2 10-6 21-11 29-10 16-23 28-47 34-17 4-50 13-56 24 2-1 4-2 6-4s4-2 6-4c35-17 69-5 95-43 13-20 13-35 18-61 6-28 17-36 44-27-3 4-6 5-10 9-2 3-5 8-5 13-3 23 21 31 24 49 1 12-6 20-12 25-7 6-15 9-20 16-5 6-7 18-12 25-9 13-27 16-41 22-3 1-5 2-7 4 18-1 42-4 44 20 1 15-5 28-7 42 5-2 12-9 16-13 20-24 7-40 16-64 5-12 14-23 23-31 2-2 5-5 7-8 19-23 15-40-6-66-11-14-15-21-6-42l6 2-4-6c9-6 21-8 33-5 25 6 21 33 24 53 2 18 8 20 10 28-15 15-18 50-7 68 6 9 12 13 22 14 12 2 18 2 27-5s9-13 15-20c6 7 13 16 25 19 7 2 13 2 19-1 18-8 26-21 19-43-3-9-7-15-12-22-2-2-3-3-5-6 5-8 15-20 21-28 17-19 17 2 33 2 0 24-32 41-32 82 0 37 33 35 59 50 12 7 19 18 12 37-4 13-14 25-15 40l4-5c8-10 17-19 33-17 2 6 2 12 2 19-1 16 14 29 28 32-2-12-3-15-1-28 1-9 3-18 3-27 0-24-11-43-21-55-12-13-30-20-48-29-21-11-30-18-20-46 6-17 15-45 3-60 3-2 11-4 15-5 7-2 12-1 17 2 20 13 13 53 34 85 22 33 48 29 83 38 5 1 10 3 15 5 4 2 8 5 12 7-4-11-41-19-52-21-25-5-36-12-48-26-11-14-16-31-21-52-13-62-40-39-57-35 3-6 9-9 8-20-1-9-5-13-2-23 3-13 14-23 29-25 27-4 48 28 74 34-1-2-11-6-14-9-1-12 14-28 19-34 8-10 15-19 23-30 14-22 23-51 23-84 0-24-3-46-11-69-2-7-5-14-1-20 8-1 17 15 20 24 8 20 2 25 2 37l6 2c7-37 16-25 16-14 0 5-1 10-2 14s-4 9-5 13l6 3c2-4 7-10 11-11 11 8 1 21-2 30l4 2c3-1 3-4 7-4 3 9-6 23-6 31 3-3 6-7 10-8 7 16-3 24-7 32 11-7 17-28 9-36-2-2-1-1-4 0 1-4 3-9 3-14 1-13-3-10-5-12 6-11 1-31-14-27 2-9 3-18-2-25-2-4-10-7-14-3l-4 3c-3-13-11-32-23-39-7-4-10 1-10 8-1 9 6 23 9 33 9 41 2 94-18 127-8 13-15 22-23 33-6 8-19 24-18 38-3-2-12-9-15-12-5-4-9-7-15-11-10-7-25-12-40-5-11 5-21 15-22 30-1 17 12 25-5 39h-10c-4-7-7-13-17-15-18-4-32 6-41 20-6 8-7 12-11 20-7 2-9 0-16 4-3 1-8 5-11 7-10-12-9-10-23-13-4-1-4-3-6-6-9-14-7-23-11-37-6-24-29-42-53-42s-25 11-30 16c-4-6-7-8-4-19 2-8 3-13 1-21-3-13-13-22-25-26-23-7-38 8-53 20-3 3-9 9-13 11 0-13-15-31-20-38-8-11-17-20-24-33-21-32-30-85-21-126 2-10 7-22 7-31 0-17-12-9-20 2-3 4-6 9-8 14-1 2-1 5-2 8-1 1-1 2-1 4l-2 4c-3-8-13-7-18 0-5 8-2 17 0 25-12-3-20 10-13 27h-1v1l-3 1c0 1 0 3-1 3-1 8 1 15 4 22l-4-2c-9 16 3 34 10 37-6-8-16-20-8-32 4 2 6 6 10 8-2-11-9-18-7-31 4 1 4 3 6 5l5-3c-3-8-14-22-3-30 4-1 9 9 12 10 2 0 3-2 5-3-2-6-5-11-7-19-2-7-2-17 5-18 6 2 9 16 11 24l5-2z"/><path class="fil4" d="M850 369c-6-12-19-15-28 5-7 17-4 27 0 44-19-6-23 12-17 31 2 6 5 13 9 19 1 3 3 6 5 9s4 6 6 8c-4 2-9 2-13 13-2 7-1 14 1 21 3 8 9 17 15 24 1 2 4 5 5 7l-1 1c-6 4-8 9-6 16 2 8 7 10 12 14-3 9 3 14 8 17 4 4 10 9 16 11-6 19 20 21 31 22 3 5 2 6 7 8 4 2 8 3 12 4 21 1 65-11 71-23-3 1-5 3-8 5-16 9-62 20-75 8 1-2 2-2 5-2 3-1 13-3 15-5-13-1-48 1-52-12h5l2-7c-8-2-27-15-29-21 4-2 23 0 30-2-10-3-30-8-36-13-9-6-6-14 0-13 5 0 14 5 19 5-4-5-9-9-13-14-10-10-19-20-24-33-4-10-3-14 2-22 6 0 18 6 25 7-2-5-20-18-33-46-3-7-11-23-4-30s15 8 25 12c-2-7-7-16-10-24s-5-18-4-27c3-17 13-30 22-18 4 5 3 7 5 12h2c4-13-3-18 4-47 2-10 12-32 19-33 7 7 1 37 1 49-3 54 32 117 71 149 22 18 72 47 79 73 1 4 0 10 1 12 5-7-2-21-5-26-9-14-20-24-33-34-6-5-13-10-19-15-48-36-82-88-88-150-1-11 0-22 0-32 2-30-7-41-22-14-6 13-10 26-10 41-1 6 0 11 0 16zm634 253c1-2-1-4 0-11 3-10 10-19 16-26 12-13 31-26 45-37 18-15 25-20 41-42 24-31 45-80 41-124-1-13-7-36-1-48 7 1 16 18 19 26 10 26 3 47 7 53h2c2-2 0-7 5-13 9-12 23 5 23 26 0 16-8 30-13 44 4-2 7-6 11-8 3-3 7-9 12-6 14 8-8 46-15 55-4 7-17 21-18 23 6-2 20-8 25-7 19 20-27 61-33 70 7-1 25-13 25-1 0 8-14 13-21 15l-9 3c-2 1-4 1-5 2l-4 2h-1c6 0 25-1 29 1-2 6-19 18-27 22 0 3 1 5 2 7h4c-3 10-26 12-36 12l-14 1c-2 1-1 0-2 1l21 4c-8 11-31 8-44 6-30-5-35-13-40-15 3 6 19 12 27 15 12 3 58 14 63-6 15-2 36-6 31-23 4-3 18-11 23-19 2-5 1-7 0-11 13-6 17-26 3-31 2-3 35-39 15-60-2-3-5-3-8-5 1-2 7-11 10-17 6-11 15-32 9-43-5-10-12-9-19-7 1-8 4-13 4-23 0-23-20-50-33-25v-13c0-30-27-77-33-51-7 24 15 64-23 136-11 21-27 42-43 56-1 2-2 3-4 4l-14 12c-11 9-65 50-53 76zM814 736c-6-3-19-4-21-11-3-6 14-9 19-10 39-5 64-9 97-31 8-6 28-21 33-29-2 1-1 0-2 2-12 10-17 16-32 25-31 19-55 26-92 29-9 1-19 3-24 7-11 8 5 16 6 17-9 4-13 13 1 17-3 3-8 6-7 13 1 6 5 7 11 8-4 12 1 20 13 18-2 14 0 28 17 22-1 10 0 17 7 21 10 5 14-2 19-6 1 7 3 13 8 14 7 3 11-4 14-8 1 2 4 16 16 12 5-1 8-7 10-12l1-2c0-1 0 0 1-1v-1c3 8 13 18 25 12 20-10 11-43 10-61 0-18 4-39 11-56 7-14 9-13 13-20-7 4-15 22-19 32-4 13-7 29-7 43 0 9 1 21 2 30 1 31-20 37-29 23-4-6-3-9-4-17-4 7-8 19-13 24-3 4-9 3-11-2-3-5-2-9-3-15l-4-1c-1 7-9 25-15 12-5-9 0-21 1-31-6 7-9 25-17 27-7 2-11-3-12-9-1-9 3-12 4-18l-4-2-1 1c-1 1-10 16-15 3-2-4-1-9 0-13 3-6 5-6 6-9l-3-3c-3 2-3 4-8 6-3 2-8 1-9-2-5-8 6-14 7-18l-2-2c-3 1-2 3-6 4-8 4-14-5-4-13 3-2 21-10 25-11-8 0-29 8-33 0 2-6 12-6 20-8zm758-45c1 3 5 6 8 8 3 3 5 5 8 7 17 14 40 26 61 32 20 6 34 7 55 9 16 1 30 8 10 16-2 1-4 2-6 2-1 1-2 1-3 2l-2 1c7 1 18 0 19 7-5 8-24 2-32 1 7 4 19 6 26 11 3 2 8 8 2 12-5 4-9-2-13-4l-2 4c2 3 12 8 8 16-4 9-17-3-17-3-2 1-2 1-3 2 1 3 0 2 2 4 8 9 6 22 1 24-7 0-9-6-13-9l-3 2c1 7 5 10 4 19-1 5-5 11-12 9-4-1-7-7-10-12l-6-13-1-1c1 11 8 26-1 35-8 0-11-9-13-16l-4 1c0 5 0 11-2 16-3 4-9 5-12 1-5-5-8-18-13-23 0 10-1 16-7 21-6 6-13 4-18-1-17-18 2-45-14-92-2-7-4-13-8-19-1-3-3-5-5-8-1-3-4-6-6-7 3 5 7 9 10 16 26 51 2 91 19 111 4 5 11 9 20 6 7-3 9-9 12-14 3 6 6 14 12 16 10 3 14-4 16-12 2 2 6 10 14 8 5-2 7-9 8-15 7 10 28 12 25-16 8 3 12 2 15-4 4-8 1-12 1-18 5 1 10-1 12-4 4-5 2-9 1-14 5-2 9-3 10-9 1-7-4-10-7-13h1c3-2 8-3 8-9-1-5-5-6-9-8 3-2 6-4 8-7 9-12-18-16-26-16-50-3-83-14-120-45-3-2-6-5-8-7z"/><path class="fil4" d="M1017 580c-3-9-13-21-19-27s-10-11-17-17c-14-12-17-15-32-26l-26-22c-7-6-15-15-22-23-6-8-13-18-18-29-5-9-10-22-12-33-4-14-4-27-7-40-1 41 11 74 34 104 4 6 17 20 22 25 19 17 33 26 52 41 4 3 8 7 12 11 2 1 4 3 6 5 8 7 22 23 27 31zm477 39c3-9 28-35 36-43l19-15c4-4 8-7 12-11 3-2 4-3 7-5 2-1 4-3 6-5s4-4 6-5c18-16 33-37 45-59 11-21 15-49 14-77-3 8 1 36-17 74-13 27-27 40-45 58l-18 16c-20 16-58 49-65 72zm-101-26c5 1 10-4 13-6-4-2-9-3-12-2-5 1-3 6-1 8zm-288-48c3 3 7 7 12 6 2-1 3-3 2-7-4-2-11-1-14 1z"/></g><path class="fil5" d="M760 968c81 173 216 339 335 418 89 59 189 59 279 0 118-79 253-245 335-418 71-151 96-316 67-472-19-103-60-199-121-280-217-286-618-289-838-5-63 82-105 180-125 285-29 156-4 321 68 472z"/><path class="fil6" d="M1164 1110c-62-192-203-349-375-415-32-12-65-21-98-27 0 7 1 13 2 20 29 8 57 18 85 31 63 29 122 71 174 127 71 75 124 169 155 271 5 18 10 36 14 54 10 47 16 96 17 146v17c3 1 7 2 10 3 4-3 7-6 11-9 12-10 25-19 38-28-3-65-14-129-33-190z"/><path class="fil4" d="M808 873c-7 0-11-4-11-10 0-17 26-13 21 3-2 5-6 7-10 7zm-18-12c0 5 0 10 5 13-1 2-1 1-2 3 5 1 13 6 22 1l5-3c15-17-7-40-25-25-2 2-5 7-5 11zm3 26h-4c0-5 0-2 1-4h1l1-1c2 1 3 1 3 4 0 1-1 1-2 1zm-6-3c0 10 10 8 10 1s-10-7-10-1z"/><path class="fil7" d="M1280 1342c-313 56-634-392-589-842-28 154-2 318 69 468 81 173 216 339 335 418 38 25 78 40 118 44 10 1 21 1 31 0 44-2 88-16 130-44 118-79 253-245 335-418 41-89 67-182 76-275-38 247-248 603-505 649z"/><path class="fil8" d="M1213 1430c-1 8-3 13-5 18-5 17-21 33-20 33 8 1 25-24 30-31 11-16 4 9 3 14-2 15-3 31-3 31 2-1 7-14 11-29 3-10 3-35 6-13 0 5 1 12 3 19 3 10 8 18 10 23 0 2-3-13-4-28-1-12-1-25 1-26-1-5-1-8-1-11-10 1-21 1-31 0z"/><path class="fil9" d="M1181 1481c2 2 4 3 6 5 15 12 38 20 58 17 3-1 4-1 6-1 1-1-1 2-6 3-5 2-12 2-15 1-10 0-32-6-44-18-3-3-4-5-5-7z"/><path class="fil8" d="M1387 1377c-151 72-259 35-354-38 21 18 41 34 62 47 38 25 78 40 118 44 10 1 21 1 31 0 44-2 88-16 130-44 4-3 9-6 13-9z"/><path class="fil10" d="M1571 389c-36-52-117-123-140-162-25-40 37-40 62-28 63 30 119 105 151 178 9 20 9 30 2 38-17 19-49 9-63-10-5-7-9-12-12-16zm99 70c1 6 1 11 2 17 1 12 1 24 0 33-3 18-11 21-16 21-14-1-29-47-32-53-4-8-9-20-8-30 1-13 47-32 54 12z"/><path d="M983 1231c-30-37-79-87-116-145-59-93-111-203-132-290-19-81-2-105 4-86 22 77 62 188 109 284 64 130 135 237 135 237z" fill="#f5baff"/><path class="fil10" d="M1501 1193c29-38 78-88 115-146 60-92 112-203 132-290 20-81 2-105-3-85-22 77-63 188-110 283-64 131-134 238-134 238zM736 416c115-423 828-526 1005 24-31-126-102-249-197-316-87-62-191-99-298-99-254-2-442 142-501 351-4 14-7 27-9 40z"/><path class="fil12" d="M637 2132c-1 29-10 34-29 54-12 12 42 26 58 24 16-1 32-6 23-17-17-20-18-52-20-64-11 1-21 2-32 3z"/><path d="M123 1712c103 167 259 321 388 388 98 51 200 40 285-31 112-93 231-278 295-463 55-162 63-333 16-489-31-102-84-196-155-271-253-268-662-226-854 88-56 90-88 195-96 304-12 162 32 328 121 474z" fill="#ffb5dc"/><g clip-path="url(#id1)"><path id="1" class="fil4" d="M349 1830c5 2 12 6 18 10 7 3 14 5 21 8-10 4-18 7-28 9-3-15-5-16-11-27zm215-477c1-2 0-1 1-2 6 0 8 5 2 7 0-4 2-5-3-5zm-58 16c-3-2-3-6-7-13-4-8-10-34 1-38-3 12-3 28 4 39 3 0-1 1 1-1 4-3-3 0 1-1 2 9 3 11 0 14zm-1-76l3 19c-5 5-4 5-11 3l8-22zm59 60c1 17 15-3 3-5-10 2 4 2-8 5-9 1-32 2-42 0-6-2-9-1-12-6-15-25-1-28 4-35 3-3 2-4 4-6 4-5 9-2 14-7-24 9-10 5-18 11-3-11-4-18-1-28s11-46 17-53c3-5 5-4 3-10-9 1-9 17-12 26-3 10-5 19-9 28-7 19-12 35-22 54-17 4-59-21-73-30-11-6-21-15-32-20-4-2-5-3-8-6s-4-3-7-6c-9-9-2-11-8-19 3 17 4 26 4 43 1 17 3 68 9 82 5 15 15 13 31 13l13 92c6 1 8 2 16 2 13 20 38 150 43 181 4 27 8 58 8 86 0 5 1 15 0 20s-27 35-32 40c-11-1-42-23-52-34-5-5-10-10-14-16-14-24-11-52 9-62 11-5 16-2 23 0-5-8-30-4-39 15-7 13-4 32 5 47 4 7 8 12 13 18 15 14 29 23 48 31l5 3-7 6c-9-2-21-10-29-14-31-19-54-43-53-83-4 7-2 13-4 20-3 9-10 8-13 16 9-6 12-9 15-18 12 35 27 52 57 69 5 2 7 4 12 6l10 5c3 1 1 0 2 2-2 2-9 9-12 9-5 0-24-10-29-13-12-6-6-3-13-8-31-18-36-37-44-47 2 18 27 38 36 46 11 9 22 14 35 19 4 2 9 3 12 6-2 2-25 19-32 17-13-3-44-17-48-29 6-10 12-16 8-34l-1 5c0 20-9 21-8 31 0 9 12 13 16 39-11 3-22 1-31 1l1 3c17 0 24 2 43-2 15-4 28-10 40-17 25-15 56-45 72-68 28-43 31-49 53-101 16-37 33-100 42-140 8-41 15-99 6-142-1-8-5-16-6-23-1-1-2 0-2-2 18 56 11 112 0 161-6 24-11 48-18 71-3 11-6 23-10 34-3 7-9 27-12 32l3-33c3-40-9-79-25-114-15-34-54-104-40-141 10-2 25 0 29-2 10-6 9-7 6-20 2 0 26 1 27 2 3 1 5 4 10 6 4 1 9 2 12 4-12 0-28-9-37-8 5 4 32 9 37 10v-2c1-1 1-2 1-2-5-1-9-5-11-5-5-1 4-1-2 0-3 0-5-2-7-4 4 1 2 1 5 0 15-1 11 3 15-1 1 5-1 2 2 7 1 2 3 4 5 5 5 2 11-1 13-5 8-15-13-22 26-75 11-15 17-30 21-48 5-22 8-40-11-53 5 8 18 11 11 45-7 31-11 37-27 58-12 17-24 35-21 61l-4-5c-5-5-4-1-8-7l2-1c2 1 0 0 2 2l2 2c-3-10 0-4 0-11-5 11-17 11-23 17 5 3 2 0 6-1-2 4 0 3 4 3 1-3 1 2 0-1v-1c6-1 3-1 4-2v-2c0-2-1 0 0-2 2 0 2 0 5 2 23 19-6 31-6 12l3-1z"/><path class="fil4" d="M693 1319h-2c2-13 0-17-4-30 3-3 5-6 8-9s5-6 7-9c6 7 7 20 5 28-3 12-8 13-14 20zm-44-69c9 3 1-1 15 15-7 0-14-7-15-15zm-4-8c-13-14 10-41 20-47 9 13 20 24 20 47 0 10-2 12-6 12 9 1-4 10-12 12-3-4-7-7-9-13h6c-3-1-4 0-6-3 0-3 0-3 1-5 3-1 3-2 8 0l2 1c-3-6-9-6-13-1-2 4 1 2-3 5l-4-3c0-7 5-14 15-13 8 1 11 12 6 18 12-7 1-29-17-20-2 1-4 4-5 4l-3 6zm24-50l9-8c9 11 20 14 27 34 6 21 2 33-3 47l-5-2c4 7 3 6-2 12-3 5-5 7-10 11-3-4-9-11-11-14 3-4 22-8 18-37-2-14-7-24-16-35-2-3-5-5-7-8zm43-42c1-2 0-1 2-3 2-4 4-5 5-10 7 1 8 5 13 7l-20 6zm-301 51c12 29 7 30 7 54 0 4 1 5-1 9-2-12-1-20-1-31-1-13-4-21-5-32zm319-85c2-8 2-3 6-8 1-1 2-3 3-4s0 0 1-2 0-1 1-2c1 8-3 13-11 16zm-261 71c-5-7-12-17-16-23l3-3c1 1 10 9 10 10l20 40c-6-5-12-17-17-24zm259-79c-9 1-14-4-15-14 0-9 3-14 10-18 7 15 4 18 5 32zm-148 3c4 1 9 7 13 9 32 20 68 37 108 34-2 5-8 9-11 13s-11 11-15 13c-6-7-38-26-48-32-8-6-16-11-24-17s-16-11-23-20zm153-4c-1-16 1-17-7-32 30-12 57 43 11 67-4-2-9-6-14-9 1-4 3-6 4-10 3-7 1-3 8-7 5-4 10-12 5-18 0 4-3 7-7 9zm-8 9c-21 0-27-28-15-52 3 3 8 6 11 11-4 4-5 3-8 8-2 4-4 7-3 12s3 9 6 12c4 4 5 3 10 5l-1 4zm-297 41c5 4 21 20 24 28-18-20-18-24-41-36-11-7-15-4-13-9 12 5 20 7 30 17zm264-86c10-10 9-10 15-9 0 7-8 18-5 34 3 13 10 23 22 23-1 5-3 9-6 11-5-1-34-19-38-23 9-11 16-19 12-36zm-241 91c-25-30-48-32-38-46 5 2 18 13 24 17 2 1 2 1 3 2 5 4 18 14 20 17l-9 10zm240-93c-2-4-4-4-5-8l13-1c-2 5-4 7-8 9zm-104 18c3-1 5 0 8 0 20 3 38-6 53-17 0 4 0 8 2 11 4 6 5 4 8 7 2 1 5 6 7 9 3 2 5 4 7 7-8 11-34 8-45 5-20-5-30-16-35-18 3 5 13 12 17 14 12 8 28 13 43 12 13-1 16-5 26-8 6 4 13 9 19 13 7 5 13 8 19 12-1 3-8 14-10 16-5 3-16 2-22 1-13-1-26-3-37-7-18-6-53-22-64-35 1-4 3-5 5-9 1-5-1-8-1-13zm70-3c-13-5-4-32 21-22-1 3-2 4-3 8 3-3 2-4 6-6 3 2 4 4 5 8l1 2c2 12-4 23-13 28-3-5-8-7-12-14 8-1 11-4 11-11-6 16-18 7-11-2 3-4 5-4 9-3-4-4-8-2-11 2-2 3-2 6-3 10zm-87 0c9-2 13-2 15 8-4 4-3 4-9 5l-4-2v-6c5-5 8-2 7 3l-6-2c2 9 9 5 9 1 1-7-6-7-12-6-3 3-5 2-9 2l10 11c2 2 4 3 6 5 2 3 2 4 6 4-4 6-5 2-5 1 6 8 1 4 0 6l-10-14c-3-4-2-4-3-1 2 2 10 15 11 16 4 2 0-4 6 1 15 14 31 27 49 38 2 2 4 2 7 5 3 2 4 3 7 4 8 5 22 13 28 19l-9 7-20-16c-2-2-4-3-7-4-3-2-4-4-7-6s-4-2-7-4c-14-11-25-19-38-33-1-2-4-5-6-7-5-5 0 0-3-1-4-2-10-16-11-19-3-2-3-3-4-7-1-3-2-5-3-8 2 0 5 2 7-1v-1c1-4-2-2 1-4 4 3 3 5-1 7l5-1zm-70 6c1-5 4-8 9-6 2 1 7 6 9 7 8 7 12 5 25 3-20 15-31-12-43-4zm-4 18c2 4 3 2 2 7-4 2-7 1-12 1 5 3 6 0 4 9-7 3-9 0-11-1-2 0 0-1-2 0 0 2 2 2 5 3l6 2c-1 6-2 0-3 7 0 4 1 2 0 7-5 5-27-6-33-9-7-4-9-6-15-12 5 14 18 14 22 19-10 7-22-16-44-25l3-12c9 1 7 14 20 7-7-1-10 1-14-7-4-7-4-12-2-17 8-3 15-2 18 5s1 17 11 12c0-5-2-10 0-13 2-4 5-4 8-9-1-5-4-11-2-16 6-5 9 10 34 5 1 4 2 9 3 13 1 5-1 5-4 8 1 5 3 12 6 16zm54-31l-1-3c-4 2-2 1-3-1 2-1 3-2 4 0 3 3 0 4 0 4zm-43 3h-1c2-2 7-1 9 1 14 10 7 7 24 11-15 3-19-4-25-8l-7-4zm43-3c-6 5-11-5-5-8s12 1 12 7c0 5-8 15-22 0l-2-2c-1 1-1 3-3 4-4 2-2 0-3-2h2c3-1 4 0 3-8 9 18 23 15 23 7 0-1-1-3-2-4-3-2-6-1-9 0 0 5 1 6 6 6zm3-17c3 3 7 4 10 6-7 0-10-3-14-8-4 0-3 0-5 2l-1-6c5-4 7 3 10 6zm-46 8c3-11 22-13 22-1-1 4-5 9-11 7-4-2-6-9 3-10l2 5v-1l-2-3-5 2c2 12 16 3 9-4-6-6-14 2-18 5zm27-15c-2-9 0-17 10-14 5 1 9 7 14 11 11 9 26 6 30-9 2 14-15 21-27 15-10-6-15-15-22-11-3 2-3 4-5 8zm-65 9c-5 0-7-1-10-2-2-1-2-2-4-3l-2-1-1-1c7-1 7 2 13 5 0 0 2 0 3 1 0 0 1 0 1 1zm-39-5c-3-3-3-3-3-8l4 3c4 5 5 4 6 11l-4-3c-1-2-1-2-3-3zm93-8c-4-10-3-17 4-22 16-14 25 11 38 12 13 2 14-7 16-11 1 8-4 14-14 15s-13-4-19-8c-14-12-27-8-25 14zm-63 2c-9-2-16 3-20-2 7-1 15-4 20 2zm-10-10c-4 4-13 3-19 2 6-5 10-1 19-2zm177-39c-2-7 4-14 9-18 8-6 15-6 24-4-9 2-14 4-20 9-9 9 4 3-13 13zm-121 121c-2-6-3-6-5-10-2-5-1-6-2-12l-1 8c-1 0-1-1-2-1-2-7-6-12-2-17 1 1 3 4 4 5 17-2 11 6 23 8 2 1 5 0 6 1 3 1 2 2 5 4 4 2 1-1 10 6l-2-10c3-4 4-7 11-6 7 4 5 23-4 26 4 1 5 1 8-3 2-3 1-3 2-6 2-3 1-1 2-2 3 1 4 3 7 5 11 11 9 3 17 28 4 13 12 29 25 34-4-5-7-6-11-11-8-10-11-22-15-33-3-6-7-11-5-16 6 7 11 14 18 21 20 19 44 31 60 45 2 1 3 3 6 4-1 2 0 0-2 3l-3 2c-9 9-17 19-18 31-1 10 2 11 5 18 3 4 0 19 17 25 7 3 9-1 14 5 3 4 7 9 8 14-36 26-57 20-72 36-17 18-6 42 11 45 11 1 15-3 22-6 7 29 15 46 34 59 15 11 46 18 66 0-9 2-21 15-48 6-13-4-24-13-33-24-4-5-9-13-12-20l-6-19c-2-10 5-7 2-18-5-15-26-13-22 2 3-13 16-11 18 1-5-5-4-8-12-6l2 1c2 1 4 1 6 3 9 11-9 19-18 17-12-3-16-23-9-34 10-17 29-14 56-29 6-3 12-9 17-11 5 13 5 18 2 30-19 7-40 1-59 6-24 7-14 39 6 29 0-5-2-8-7-7 4 1 4-1 5 5-15 11-27-21-1-26 18-3 34 0 55-5-1 14-14 41 9 68 6 7 15 16 27 13 21-6 9-26 0-15-1-6 3-10 10-11 9-2 12 1 17 4-4-4-10-7-18-6-10 2-11 7-9 16 2-4 2-5 8-4 11 22-57 27-41-57 2-7 1-8 5-13 12-3 18-20 17-31 0-6-7-18-7-20 1-7 24-41-10-74-5-5-9-8-13-12l22-21c5-6 3-7 14-9 7-1 13-4 20-5 2 2 9 7 12 10 5 4 7 7 11 12 33 40 17 98-7 135-12 18-25 32-37 52-5 8-9 22 0 33-4-10-8-18 3-33 7-11 11-17 18-26s13-17 19-26c3-5 6-9 9-14 15-23 22-55 15-87-3-14-8-25-16-35-8-12-18-17-23-24 38-20 29-86-16-71-3-6-8-8-13-11 1-7 5-10 5-20 1-6 1-16-3-22l-1-3h-1c5 18 4 30-2 44l-6-2c2-13 6-17 2-33-3-13-9-22-16-30 2 10 19 19 16 47-1 6-3 10-3 15-5 0-7-1-12 0-9 1-4 2-11-1-6-3-12-3-20-1 5-12 17-35-4-53-6-5-9-4-17-6 3-6 4-9 13-13 10-5 16-4 22 1v-3c0-3 2 1 0-2-21-4-48-7-50 23 0 5-10 20 4 28 5 3 12 3 16-2 6-5 4-8 1-14 2 10-2 18-12 15-6-2-13-13-7-20 5 4 6 9 15 6-7 1-12-4-13-10l7-4c2 7 2 7 6 10l-4-10c14-1 24 6 27 21 4 25-12 45-33 55-16 9-24 7-40 9 5-7 11-5 18-16 4-7 5-17 3-26-3-16-14-38-34-33-3 11-4 11-16 12 6-3 10-1 13-8-4-15-32-9-45-1-16 11-21 23-14 40-5 5-11 6-12 13-1 8 3 4-8 16l-5-13c8-2 5-3 10 2 2-6 2-8 0-15 6-7 10-8 6-22-5 1-10 1-14 0-7-2-7-2-7-6-3 0-9 1-12-1-2-1-1 0-2-1v-2c-4 1-10 3-13 1l-3-3c-12 5-22 2-31 12-8 8-13 4-17 20-8 30 18 43 3 62l-1 1v1l-12 17c-3 6 0 6-7 11-3 3-7 5-10 9-18 13-29 21-26 46-4 0-2-1 1 9 1 6 13 32 19 29 2-10-12-17-6-25 6 1 7 8 9 14 3 6 8 7 10 16 4 16-3 17 20 27 11 5 49 22 62 21 2-6 4-14 5-20 6-21 14-35 16-58 1-9 1-14 2-22 1-5 0-4-3-9-2-3-4-5-7-8-2-2-5-5-6-7-4-5 0-5-4-10-2-2-6-3-8-6-3-4-1-5-7-8 1-1 4-4 6-4 6-1 13 8 21 4 6-3 1-7 4-13l2-4c2-4 3-6 2-10 4-2 8-4 10-2l3 3c1 5-2 11-3 15l3-9v-1l1-2z"/><path class="fil4" d="M938 1697c-7 6-10 13-14 23-7-1-21-3-27-7 16-6 27-10 41-18 0 1 2-4 0 2zm-113-21c5-7 10-12 15-20 7-12 4-5 12-21 1 6 0 11 1 17 1 7 4 11 6 17l-34 7zm-28-15c2-6 21-28 25-60 1-4 0-6 2-10 6 23 12 21 27 29 3 15-24 52-32 57-5-4-19-13-22-16zm-139-76l27 40c30 42 87 106 130 132 15 9 21 15 39 23 14 7 27 13 43 18 8 2 14 4 22 6s18 2 25 5c-65 12-52 34-68 52-5 5-20-2-26-4-31-14-60-37-86-64-24-26-48-55-69-89-37-57-29-37-34-85-1-10-4-24-3-34zm26 336l35-8c4-3 13-5 18-8 20-10 27-20 46-28 13-6 28-10 43-11 22-1 28 2 37 2 23-1 23-26 50-45 6-5 27-14 35-14 11 0 28 4 38-5-51 6-98-12-137-33-5-3-8-4-12-7-5-3-7-5-11-7-42-26-86-71-119-111-12-14-23-29-34-45-22-32-15-18-22-59 4 4 13 17 17 22 27 36 58 72 91 101 22 20 38 32 62 48 11 8 34 20 46 25 25 10 52 19 80 20 29 1 37-2 65-9-15 15-14 16-17 39-1 6-3 9-5 13 16-12 0-34 31-53l-2-6c-49 18-85 13-127 0-23-7-55-24-75-38-53-34-105-88-143-138-6-8-11-16-17-24-8-11-10-15-11-32 6 6 12 15 18 22 43 54 79 94 134 136l33 22c4 2 8 4 11 6l12 6c11 6 25 11 37 15 37 12 81 16 121-6v-4c-14 8-26 12-43 14-8 1-33 2-40-1 0-11 8-18 9-23 3-3 2-4 6-6 6-6 14-10 17-19-8 7-14 13-24 19-9 5-19 10-30 14-17 7-17 7-31 1l-27-12c23-5 44-12 62-24 14-9 27-19 35-33 1-2 2-3 4-5 0 8 0 12 4 19 2 5 5 11 8 15-2-13-11-19-9-31 1-10 6-20 5-29-1 3-2 6-3 10-2 7-5 11-9 17-9 14-21 24-36 34-10 6-56 28-68 24-2-1-6-4-8-5-3-2-6-4-9-5h1s0-1 1-1c5-3-4 1 1 0 0-1 3-1 4-1 29-5 64-18 84-40 16-19 31-50 13-74l-7-9c8 14 14 18 13 38-1 12-7 25-12 32-13 16-38 37-61 41-5-7-8-20-8-29-1-14 3-17-9-23-7-4-14-9-18-19-5-11-1-17-6-27 3 18-1 34-6 49-3 9-5 14-9 21-2 5-8 16-11 20-4-1-11-7-13-10 12-24 24-52 12-90h1v1l10 4c5 1 8 1 13 2-4-3-4-3-10-4-17-3-13-11-25-19 13 20 16 34 13 58-2 14-10 40-17 47-2-2-5-4-7-6 2-8 8-19 10-31 3-11 3-25 0-37-9-35-42-38-53-28 16-5 23-5 34 2 9 6 15 15 17 28 5 20 0 48-10 63l-3-1c0-1-1-1-2-2-44-38-78-79-114-125-7-9-6-8-9-21-6-31-15-64-30-92-4-10-14-27-23-33 2 4 6 8 9 12 41 56 54 192 59 257 3 45 3 88 5 132 1 30-2 76 9 104 4 9 11 18 20 20-14-16-16-32-18-56-2-18-3-39-3-58l6 14c2 5 4 9 6 14 9 22 29 67 15 86 31-21-15-105-27-133-3-7-4-76-5-88 4 5 14 23 19 31 18 28 39 58 61 82 23 26 46 47 74 65 8 6 20 11 27 16-14 1-24-3-41 0-45 8-56 41-106 52-15 3-27 3-41 1-13-1-23-5-36-6-41-4-46 6-77 21 53-60 79-171 84-253 4-75 6-203-24-278-5-14-10-19-17-31 1 3 8 13 11 19 38 87 29 261 16 346-9 60-34 156-82 200-15 13-16 5-33-7-20-14-50-14-64-4 33-5 38-3 61 9 7 3 16 11 26 11 18 1 43-32 99-28 10 1 19 4 30 6 10 1 26-2 32 0zm-528-827l30 132 32 52c24 34 47 60 75 88 7 7 14 13 21 19l19 17c2 1 1 1 2 1l-33-32c-29-28-68-76-88-111-40-68-61-130-35-203 44-129 203-165 299-78 6 5 11 11 17 16 5-11 6-24 22-49 9-13 25-32 37-42 59-48 134-57 203-24 23 12 47 31 64 52 5 7 11 15 16 24 3 6 12 26 14 29l-10-47c-3-3-16-23-35-40-15-14-35-27-53-34-14-6-23-9-38-12-61-12-125 7-168 47-21 20-33 37-45 62-2 5-3 7-5 12-1 4-3 9-5 12-52-56-129-80-207-53-39 14-71 40-89 65-17 23-26 41-34 70l-6 27z"/><path class="fil4" d="M577 1368c1 0 0 0 1 1 13 14 15 72 15 89 0 73-22 166-46 230-25 66-67 141-128 179-30 18-49 23-85 26l1 5c41 3 35 33 56 37-18-11-15-33-44-39 8-2 17-2 25-4 90-23 153-123 182-208 18-55 27-89 37-148 7-45 13-129-14-171v3z"/><path class="fil4" d="M603 1419c-3-12-9-36-16-44 2 8 6 14 8 22 24 82 1 235-22 308-4 12-7 24-12 35-13 34-28 69-49 98-23 32-44 57-79 79-17 11-33 16-37 19 28 3 80-44 99-66 41-47 63-99 82-163 22-74 42-207 26-288zm269-339l-9-41c-1 4 1 30 1 38 0 13-1 25-2 37-3 24-7 46-12 69-8 31-23 80-37 111-2 5-5 10-6 15 9-10 37-89 42-108 6-19 10-38 15-58 2-11 7-41 7-54l1-6v-3z"/><path class="fil4" d="M558 1468c3-3 2-2 3-6 5-34 25-51 13-88 0 27-21 31-21 44 5-1 10-6 9 8-1 5-3 10-4 14-3 6-12 25 0 28zm39-225c-5 12 4 16 8 14 12-4-4-16-4-7 1 5 1 3 2 3 3-3-1-3 2-5 3 3 2 4 0 7-10 1-10-10 0-13 1 0 23 9-12 28 2-11-6-17-9-10 3 4 1 1 6 2 2 6 1 8-1 12-2-1-6-11-10-3 4 1 5-3 7 3 2 4-1 6-1 11-4-3-7-4-14-1 1-10-10-18-12-8 3 1 4-1 7-1 11 13-5 14 3 23 9 10 19-11 5-8-4 7 1 5 2 6 0-5-2-2 0-5 3 1 3 1 2 5l-5 3c-14-13 15-21 11-3-2 10-15 10-18 26-8-1-5-4-6-5-5 3-14 5-17 10h3c2 0 4 0 5-1 0 0 0-2 3-4 6-3 5-1 7 2l-8 2c6 1 10-4 18-5 0-1-1 2-1-1-1-3-1-3 2-4 4-4 2 1 8 1-2-8-2-4-8-5 5-5 14-9 15-15 2-7-6-15 8-18 4 3 0 2 5 3 0-2 2 2 0-4-1-5-8-2-11 0 3-6 9-9 14-12 20-11 12-27 2-26-4 0-6 2-9 1-6-2-2-2-3-7-8 5 0 8 4 9z"/><path class="fil4" d="M560 1311c-2-1-2 0-2-5h3s0 1-1 2v3zm-28 6c-4-5 6-16 13-1h1l9-2c-10-13 9-20 11-9 1 6 1 3-2 5-2-4 1-3-3-6-6 1-6 3-4 9 10-3 8-1 10-1 7-12-8-12-7-23 0-7 3-2 6-6-2-4-4-4-7-2l-2 4v2l-1 3c-8-8-13 4-8 2 1 0 2-9 12 3-5 6-13 0-10 17v3c-5-3-3-13-18-8l6-6c-3 1-9 6-12 9 1 5 2 6 6 7zm28 75c6-4 11-12 11-21-8 5-11 8-21 12-8 3-18 5-20 12 31-9 33-20 30-3zm67-390c17-10 4-4 13-13 6-5 11-7 20-9-9-2-16-2-24 4-5 4-11 11-9 18zm266 571c-1 1-3 2-6 3-18 1-14-33 14-30 10 1 14 6 19 8-9-11-32-15-43 1-3 5-5 16 2 21 7 6 17 2 17-9l-3 6zm-372-199c6 1 26 0 34-1l1 2c5-2 8-2 12-6-8 0-16 2-25 2-6 1-18-3-22 3zm-3-221c4 6 0 4 3 8 5 9 23-6 25-8 7 3 6 7 9 12-1-6-2-11-5-15 1-3 2-3 2-8-5 5-4 7-12 13-6 4-10 7-18 7-2-4-1-4-2-8l-2-1zm89 62l5 2c4 8-11 5-5 22 3-6 0-5 3-11 3 0 3 1 5-1-1-3-1-2-3-5 6-5-2-6-1-14 4-3 3 2 4-4-3 0-5 0-6 3v5l-1 3h-1zm-192 478c3 4 10 13 4 18-1 2-9 6-11-2l-1-3c-1 2-1 4 0 8 4 4 21 3 14-15-3-8-6-6-6-6zm304-131c1 17 24 17 19 1-1 2-1 0-1 2-1 4 1 3-2 5-3 4-13 7-14-13-1 1-2 2-2 5zm-248-470c6 2 16 1 21-2-3-2 1-1-5-1-4 0-13 1-16 3zm259 24c8-3 12-8 11-16-1 1 0 0-1 2s0 1-1 2-2 3-3 4c-4 5-4 0-6 8zm-179 24c4-2 4-1 3-5 0-1-2-4-2-4l-3-3 2 12zm-67-39c-3-1-7-2-9-2-2-4 2-3-3-3 0 0-3 3 3 5 4 2 4 1 9 0zm22 22c7 2 11-1 12-7l-5 4c-3 2-5 2-7 3zm12 30c-2-3-2-2-2-4 2-2 2-1 4-2 4-3 1 0 2-4-3 3-5 4-10 4l3 5c1 2 0 1 3 1z"/><path class="fil4" d="M532 1317h5v-2c3 1 1 2 6 3-3-4-3-4-7-5l-4 4z"/></g><path class="fil5" d="M123 1712c103 167 259 321 388 388 98 51 200 40 285-31 112-93 231-278 295-463 55-162 63-333 16-489-31-102-84-196-155-271-253-268-662-226-854 88-56 90-88 195-96 304-12 162 32 328 121 474z"/><path class="fil12" d="M695 2035C383 2127 5 1706 2 1242c-11 161 33 325 121 470 103 167 259 321 388 388 42 22 85 32 126 32 11-1 21-2 32-3 44-7 87-27 127-60 112-93 231-278 295-463 32-95 48-193 47-289-12 256-186 642-443 718z"/><path class="fil14" d="M637 2132c0 8-1 14-3 19-3 17-17 36-17 36 8 0 23-27 27-35 10-18 6 8 5 14 0 15 0 31 1 31s5-15 8-30c1-11-1-37 4-15 1 6 3 13 5 20 4 10 10 18 12 22 1 2-4-12-7-28-2-11-3-25-2-27 0-4-1-8-1-10-11 1-21 2-32 3z"/><path class="fil15" d="M610 2188c2 1 4 2 6 4 18 11 41 16 62 10 2 0 4-1 6-1 1-1-1 2-6 4s-12 3-15 3c-11 0-33-3-47-14-3-2-5-5-6-6z"/><path class="fil14" d="M809 2058c-146 90-260 65-365 1 23 16 45 30 67 41 42 22 85 32 126 32 11-1 21-2 32-3 44-7 87-27 127-60 4-3 8-7 13-11z"/><path class="fil15" d="M886 1032c-43-50-133-113-161-150-30-39 34-45 60-36 68 24 133 94 174 165 11 19 12 30 7 38-16 21-50 15-66-3l-14-14zm108 59c2 6 3 12 4 17 3 13 4 25 4 34-1 19-9 23-14 23-14 1-35-44-38-50-5-8-12-19-12-30 0-13 44-37 56 6zm-614 864c-34-35-90-80-134-135-71-88-136-195-167-281-29-81-13-107-6-88 32 77 85 185 144 277 80 126 163 227 163 227z"/><path class="fil15" d="M38 1152c70-444 785-628 1027-87-46-126-132-243-236-301-96-53-205-79-315-68-258 27-435 195-472 414-2 14-3 28-4 42z"/><path class="fil16" d="M1259 2639c-11 28-21 29-46 41-15 8 31 39 46 43 16 5 33 5 28-8-9-25 1-56 3-68-11-2-21-4-31-8z"/><path class="fil16" d="M918 2069c40 192 134 391 233 498 75 81 175 105 279 68 137-50 312-184 435-336 108-134 173-292 181-455 6-106-11-213-53-308-147-338-546-438-834-208-83 66-149 154-194 254-66 148-81 319-47 487z"/><g clip-path="url(#id2)"><path id="1" class="fil9" d="M1905 1417c-72-82-166-144-273-171-253-63-475 35-585 229-121 215 40 469 277 565 214 87 702 84 701-259 0-134-42-274-120-364z"/></g><path class="fil5" d="M918 2069c40 192 134 391 233 498 75 81 175 105 279 68 137-50 312-184 435-336 108-134 173-292 181-455 6-106-11-213-53-308-147-338-546-438-834-208-83 66-149 154-194 254-66 148-81 319-47 487z"/><path class="fil17" d="M1346 2568c-325-20-537-545-382-982-66 147-80 317-46 483 40 192 134 391 233 498 32 35 69 59 108 72 10 4 20 6 31 8 44 9 91 5 140-12 137-50 312-184 435-336 63-78 111-165 143-256-98 237-394 541-662 525z"/><path class="fil17" d="M1259 2639c-3 8-6 13-9 18-9 15-29 27-29 27 8 3 32-17 38-23 15-14 2 10 0 15-6 14-11 29-11 29 2 0 11-12 18-25 5-10 12-35 9-13-1 6-1 13-1 20 0 11 3 21 4 26 0 2 0-13 2-29 2-12 6-25 8-26 1-4 1-8 2-11-11-2-21-4-31-8z"/><path class="fil9" d="M1215 2683c1 2 3 4 4 6 13 16 33 29 55 31h6c1 0-2 2-8 2-5 1-12-1-15-2-10-3-30-14-39-29-2-3-3-6-3-8z"/><path class="fil17" d="M1445 2629c-167 35-266-28-343-124 16 23 33 44 49 62 32 35 69 59 108 72 10 4 20 6 31 8 44 9 91 5 140-12l15-6z"/><path class="fil9" d="M1077 2386c-20-45-57-106-80-173-37-107-62-230-61-321 0-86 23-106 24-85 3 82 17 203 41 309 32 146 76 270 76 270zm526 86c38-30 100-68 151-117 81-78 160-176 201-257 39-76 28-104 18-86-41 71-108 172-178 256-96 115-192 204-192 204z"/><path class="fil18" d="M1029 1513c217-394 952-324 996 268 0-134-42-274-120-364-72-82-166-144-273-171-253-63-475 35-585 229-7 13-13 25-18 38z"/><path class="fil0" d="M637 2132c49 6 74 52 76 103 1 45-15 94-41 130-71 102-218 149-225 197-16 93 300 194 276 381 23-179-309-282-294-379 7-47 165-101 240-203 59-80 53-216-32-229z"/><path class="fil12" d="M900 1896c0-65 8-129 23-190 10-41 23-81 41-120 0-1 1-3 1-4 28-61 63-117 105-167 8-9 17-19 25-28l5-5c11-12 25-25 38-36 1-21-1-53-3-73-2-30-6-58-6-60-11 123-64 172-105 218-54 62-106 141-136 230s-46 190-44 290c20-17 39-35 56-55z"/><path class="fil14" d="M900 1896c-17 20-36 38-56 55 1 23 3 75-42 113 36-29 83-86 101-109-2-19-3-39-3-59z"/><path class="fil6" d="M1500 1157c-109-4-247 25-311 64 4 26 7 53 8 79 99-67 208-98 315-96h8c13-13 26-27 39-41-33-6-45-5-59-6z"/><path class="fil7" d="M1121 1171c10 47 16 96 17 146v17l10 3c4-3 7-6 11-9 12-10 25-19 38-28-1-11-1-23-2-35-12 7-22 14-31 21-1-38-9-87-24-139-40-136-129-298-255-362 23 18 46 38 67 61 71 75 124 169 155 271 5 18 10 36 14 54z"/><path class="fil7" d="M1394 1195c-62 8-141 36-199 70 1 12 1 24 2 35 99-67 208-98 315-96 12 0 38 2 47 3-24-15-127-18-165-12zm-246 142c-3-1-7-2-10-3v12c3-3 6-6 10-9z"/><path class="fil4" d="M1223 2346zm-9-3l2 1-2-1zm11 2zm3 0c1-1 3 2 1 0 0 0-3 1-1 0zm-24-5l2-1-2 1zm134 17h1l-2 11h-1l2-11zm-98-13l-2 1 2-1zm-74-16zm159 36v-1 1zm-85-20zm-44-12c1 2 1 1 1 3-2-2-1 0-1-3zm158 37zm-47-11zm-64-15c2-1 4 3 1 1 0 0-3 0-1-1zm-39-12l-2 4c0-1 0-2 1-2 1-2 0-1 1-2zm162 40l-1 1 1-1zm-11-3l-1 1 1-1zm-7-4c0 2 1-2 0 2-1 2 0 0-1 1l1-3zm-23-1c-3-1-2 0-3-2 3 1 2 0 3 2zm-78-20s5 2 1 1c0 0-3 0-1-1zm-51-11zm171 38l-1 1 1-1zm-11-4l-1 2 1-2zm-34-5zm-148-36c1-1 3 2 1 1 0 0-3 0-1-1zm202 47zm-7-3l-2 1 2-1zm-42-13h1l-1 5h-1l1-5zm-7 2zm-66-17c3 2 2 2 6 3v1c-5-1-5 0-10-1 2-1 3 0 4-3zm-62-13l1 1-1-1zm188 44zm-10-3h-1 1zm-13-3h-1 1zm-89-21l-1 1 1-1zm-78-18l2 1-2-1zm200 44l1 3-3-2c2 0 1 0 2-1zm-11-1zm-9-1zm-11-5l-2 2 2-2zm-90-20l-1 1 1-1zm-30-7l-1 1 1-1zm-36-9v2-2zm-13-1l-2-2 2 2zm207 46c1-2 2 0 1 0 0 0-2 3-1 0zm-17-5l-1 2 1-2zm-33-18h1l-3 12h-1l3-12zm-76-6h-2 2zm-17-3zm-14-5l-1 1 1-1zm-52-11l-2-1 2 1zm171 39l1-2-1 2zm-88-20zm-31-8zm-37-8l-1-2 1 2zm-23-6zm221 49v2-2zm-20-5l-1 2 1-2zm-138-31zm154 35zm-11-3l2 1-2-1zm-35-12h1l-1 5h-1l1-5zm-173-36zm212 52c-2-2-1 0 0-5 2 3 1 0 0 5zm-62-23h1l-1 6h-1l1-6zm-56-9c1-1 3 2 1 0 0 0-3 1-1 0zm-23-6c1 0 3 3 1 1 0 0-3 1-1-1zm152 38l-3-4c3 2 2 1 3 4zm-134-34zm-23-7l2 4c1 0 1 0 1 1h-4c1-3 1-3 1-5zm-37-8c2 1 2 3 2 5-1 3-2 5-4 6 2-5 2-7 2-11zm228 53zm-37-8zm-7-3zm-20-4zm-111-26l5 1-1 1-4-1v-1zm-58-8l-3-3c-3-3-2-1-3-4 3 2 6 3 6 7zm-45-17l-1 2 1-2zm239 56zm-152-35l-1-2 1 2zm-37-11v3-3zm-11 0c-5-1-2 0-3-2 5 1 2 1 3 2zm-14-5l2 3c-3-1-2 0-2-3zm262 61zm-50-13c1 1 1 1 2 3l-4-1 2-2zm-22-4zm-179-41l-2-1 2 1zm159 35c1-2 2 1 1 1 0 0-1 2-1-1zm-145-33l-1-1 1 1zm-16-3l-2-1 2 1zm203 46zm-20-6c0-2 1 1 0 1 0 0-1 2 0-1zm-44-10c0-2 1 0 0 0 0 0-1 3 0 0zm-125-30l1 2-1-2zm-17-3zm-10 6c-1-2 0 2 0-3 0-2-1 0 0-3 1-2 2-4 2-7l1 4c1 3 1 1 1 4-3-3-1-1-2-1l-2 6zm10-6l-2-1 2 1zm-31-4l-1-2-2-2c3 1 3 0 5 0 0 1-1 2-1 2-1 2-1 1-1 2zm235 50zm-42-12c-2 5-1 1-2 2 1-5 0-1 2-2zm-145-31v-1 1zm-19-4zm230 51l1 1-1-1zm-15-8c1 1 1 0 1 2-1 1-1 2-1 4h-1l1-6zm-25-4c1 2 2-2 0 2 0 2 0 1-1 2l1-4zm-171-36l-1-1 1 1zm187 42zm-157-36h3-3zm-31-7zm147 31l-1 2 1-2zm-91-20c0-1 5 2 1 1 0-1-3 0-1-1zm-21-5l5 1-1 1-4-1v-1zm-38-9l1 1-1-1zm230 53h-4c1 0 1-1 1 0l1-1c1 1 1 1 2 1zm-8-4l4 4c-1 0 1 0-2 1h-2v-5zm-177-39l5 1-1 1-4-2zm-46-11zm-109-26zm340 80c2-5 1-2 2-3-1 5 0 2-2 3zm-79-21l-1 2 1-2zm-77-18c1 2 1 2 1 4 10 2 6 0 12 0-3 4-7 7-12 4-2-2-3-3-6-3-3-1 1 1-4-1l-3-2c6 1 7 1 11 1l1-3zm-22-5l6 5c-8-3-6-4-6-5zm-53-10zm-108-26h-1 1zm389 89c1 0 3 3 1 1 0 0-3 1-1-1zm-251-61c-1 3-1 3 1 5 1 2 3 3 4 4-10 6-15 0-15-10 3 1 6 1 10 1zm-33-5zm-104-24l-1 1 1-1zm330 75v2-2zm-22-6c1 1 1-2 0 3 0-2-1 1 0-3zm-47-10l-2 1 2-1zm-20-4zm-11-2zm-73-17l2 1-2-1zm-53-12v-1 1zm-103-25l-1 1 1-1zm242 55l-2 1 2-1zm-64-14c-1 0-1-1-1 0h-2 3zm-75-17l-2-1 2 1zm-54-14c2 2 2 0 2 3-2-2-1 0-2-3zm-47-10h-2 2zm346 79zm-19-3l-1-1 1 1zm-68-17l-1 1 1-1zm-18-4h-1 1zm-12-3zm-53-14c2 2 3 2 3 5-2-2-1-1-3-2v-3zm-10-1zm-67-14l-1-2 1 2zm-99-23zm340 77c0-1 5 2 1 1v-1s-3 1-1 0zm-14-5v3-3zm-44-13l1 1-1 4h-1l1-5zm-23 0zm-28-8l-2 1 2-1zm-67-15s-1 0 0 0zm-29-7l-1 1 1-1zm210 48zm-104-22c1-3-1-2 2-2l-2 2zm-32-10c0-2 1 0 0 0 0 0-1 3 0 0zm-17-4zm-31-7zm-26-5zm-37-8c-2-1-1 0-2-2 2 1 1 0 2 2zm-51-11l-1-3c3 2 2-1 1 3zm347 78c-5-1-2 0-3-1 4 1 2 0 3 1zm-41-10s-1 0 0 0zm-109-25h-1 1zm-68-15l-1-2 1 2zm-17-5zm-63-14l-1-1 1 1zm-31-11c1 2 2-2 0 2 0 2 0 1-1 2l1-4zm326 79c-5-1-2-1-3-2 5 1 2 0 3 2zm-34-9h-3 3zm-20-5c-1 3 0 0-1 5-2-2-1-2-1-5h2zm-9-2zm-65-15zm-17-4l-2 1 2-1zm-18-4zm-36-7c1-2 0-1 3-1-2 2-1 1-3 1zm-18-7l1 2c-3-1-1 1-1-2zm-17-3zm-62-13zm314 71zm-51-12l-1 1 1-1zm-12 2c1-2 1-2 2-3 1-2 2-2 3-3-1 2-1 3-2 4-2 3 0 2-3 2zm-6-6h-3 3zm-26-6c1-1 3 2 1 0 0 0-3 1-1 0zm-50-12l-1 1 1-1zm-17-4l-1 1 1-1zm-19-3c-4-1-1-1-2-2 4 1 2 1 2 2zm-20-6c1-2 2 0 1 0 0 0-1 3-1 0zm-12-3l-1 1 1-1zm-39-8l-1-1 1 1zm191 62c7-8 7-6 18-11 2-1 4-3 7-4-4 7-15 16-25 15zm10-16zm-16-5l-2 1 2-1zm-25-7c2 2 1 0 2 3-3-1-2 0-2-3zm-12 5c-1-2-1-2-1-4 0-1 0-3 1-4 8 7 0 1 11 16l4 10c1 5-6 2-10 1 3-11 3-12-1-19-2-4 0-3-4-5v5zm-40-17l-1 2 1-2zm-17-3l-1 1 1-1zm-51-11h-1 1zm-41-9l-1-1 1 1zm253 59c1-2 0-1 3-1-2 1-1 1-3 1zm-66-18l-1 1 1-1zm-94-21h-1 1zm-35-10c2 2 1 1 1 4-2-2-1-1-1-4zm-16-2l-1 1 1-1zm-23-6l-1 2-2-2h3zm-20-3l-2-2 2 2zm-30-10c1 1 2-2 0 3v-3zm-60-11l-1-1 1 1zm347 80c1-1-2-2 3-1-1 1 1 1-3 1zm-12-3v-1 1zm-38-10zm-10-3l-1 1 1-1zm-8-1h-1 1zm-27-6zm-46-11zm-21-5l-1 1 1-1zm-19 2c1-3 4-5 8-5l-8 5zm-61-21zm-17-3v-1 1zm210 47l-1 1 1-1zm-19-3zm-39-9zm-40-9c2-3-1-1 3-1l-3 1zm-14-5l-1 1 1-1zm-11-3l-1 1 1-1zm-26-5l-1-1 1 1zm-24-6zm-15-2c2-1 1-1 4-1-2 2-1 1-4 1zm-7-3zm-15-3l-1-1 1 1zm-23-6zm233 54zm-10-3l-1 1 1-1zm-39-9zm-39-9zm-6-2l-1 1 1-1zm-16-4l-2 1 2-1zm-12-2h-1 1zm-28-6l-1-1 1 1zm-19-5h-2 2zm-28-7zm-14-2l-1-1 1 1zm2 12c-4-2-7-2-10-4-7-5-3-5-7-5 1-2 2-2 3-5l-2-2c5 1 2 2 8 2 0 4 1 3 3 7 2 2 4 4 5 7zm-24-17zm237 53zm-13-3l-1 1 1-1zm-9-3l1 2-1-2zm-26-6c2 2 2 3 4 5 2 4 3 2 3 6-2-1-2-1-3-2-2-3-4-5-4-9zm-5 1l-1-2 1 2zm-37-10zm-23-5h-1 1zm-11-3l-2 1 2-1zm-44-9l-1-1 1 1zm-14-4c0-1 5 1 2 1l-1-1s-3 1-1 0zm-19-4zm-15-3l-1-1 1 1zm246 54l3 1c-1 2 0 2 0 5-2-3-3-3-3-6zm-29-6l-1 1 1-1zm-12-3l-2 1 2-1zm-43-9l-1-1 1 1zm-32-8l-2 1 2-1zm-15-4c0-2 1 1 0 1 0 0-1 2 0-1zm-11-2l-1 1 1-1zm-14-3h-2 2zm-77-18zm-13-4l-1 2c-2-2-2-1 1-2zm-26-2c0-1-2 0 0-2 1-1 0-1 3-1-3 2-1 0-3 3zm-18-8c1-1 5 3 1 1 0 0-3 1-1-1zm-61-12c1-1-1-1 2-1 4 0 1 0 2 1h-4zm323 72l-1 1 1-1zm-50-10l-1-1 1 1zm-7-2zm-43-8l1-5s1 3 2 3c-2 1-2 1-3 2zm-28-8l1-2-1 2zm-32-8zm-45-10l-1-1 1 1zm-50-13c-2 1 1 1-4 0 2 0 0-1 4 0zm283 66zm-53-13c3 1 3-1 1 2l-1-2zm-26-5v-1 1zm-18-5zm-19-3c2-1 1-1 4-1-2 2-1 2-2 6h-1c1-5 1-3-1-5zm-38-8c3-2 1-2 5-2-2 2-1 2-5 2zm-36-11zm-44-9v-2 2zm-12-3c1-5 0-2 2-3-2 5-1 1-2 3zm-17-7v3l4 4c-4-2-4-3-6-5l2-2zm-14-1zm-6-1l2-1-2 1zm257 57l-2 2 2-2zm-7-1l-2 1 2-1zm-15-3c1-1 3 2 0 0 0 0-2 1 0 0zm-5-2v2-2zm-17-3l1 1-1-1zm-9-1l-1-2 1 2zm-33-8l2-1-2 1zm-13-2c1-1 0-1 1-3l2 2c-2 1-1 1-3 1zm-7-4zm-16-4l-1 1 1-1zm-42-8l-3-1c2-1 2-3 3 1zm-44-11l-1-1 1 1zm-22-6l2 1-2-1zm-24-5c1-2 5 1 1 0-1 0-2 2-1 0zm247 57zm-11-3zm-26-5l-2-2 2 2zm-10-3l-1-1 1 1zm-27-7l-2 1 2-1zm-15-2zm-10-3v-1 1zm-10 1l6-4c-2 3-3 4-6 4zm-5-5h-1 1zm-30-7zm-58-13l-1-1 1 1zm-21-5l-2-1 2 1zm-11-3zm-19-5c2 0 4 3 1 1 0 0-3 1-1-1zm261 60l-1 1 1-1zm-28-5l-1-2 1 2zm-19-5zm-9-2l-1-1 1 1zm-23-6h-3 3zm-15-4zm-13-2l-1-1 1 1zm-45-10h5c1 0 4 1 5 1l-10-1zm-22-5l-1-2 1 2zm-37-9l-1-1 1 1zm-22-5l-1-1 1 1zm234 51l-1 2 1-2zm-51-10zm-7-1zm-4-2zm-3-1zm-12-5l-1 3c4 2 4 2 5 5-2 2-3 5-4 8 0 5 1 5 0 12-2-2-1-1-4-2-1 2-3 3-3 6-1 4 0 3 1 6-2-1-1 0-3-2l-2 1c6-17 4-4 7-25 0-3 1-7 1-9l3-3zm-18-1zm-14-3l-3-1c1-1 1-1 2-3v2l1 2zm-22-7l1 2-1-2zm-26-6c3 3 0 5 3 7 4 4 14 5 20 6l-9-1c-4-1-7-2-11-2 2 5 5 4 7 6l-3-1-1 3-5-9c-3-5-1 0-2-6 0-1 0-2-1-3h2zm-8-1s-1 0 0 0zm-11-2zm-37-8zm-22-5v-1 1zm-19-8c-1 5 0 2-2 3 1-5 1-2 2-3zm221 53c0-1 5 1 1 1v-1s-3 1-1 0zm-18-3v-2 2zm-14-4l-2-1 2 1zm-27-7zm-6-2zm-25-2l1-2h4c-3 2-1 2-5 2zm1-2l-1-1 1 1zm-30-8l-2 1 2-1zm-7-1l-5-1 1-1 2 1c2 1 1 1 2 1zm-14-3l-2-1 2 1zm-6-2zm-37-9l2 1-2-1zm-111-25c2-1-2-1 2 0 2 0 1 0 2 1l-4-1zm329 74l-2 1 2-1zm-38-8c1-1 3 2 1 1 0 0-3 0-1-1zm-15-3l-1-1 1 1zm-18-5c1-1 3 3 1 1 0 0-3 0-1-1zm-21-5l-2 1 2-1zm-14-4c1 1 1 1 3 0-1 2-1 4-3 5v-5zm-19-2l-2-2 2 2zm-27-8l-2 1 2-1zm-25-4zm-7-3zm-34-7l-2-1 2 1zm-23-7c2-1 5 2 7 3-5-1-2 0-3 1l-2-2c-1 5 0 2-2 3 1-3 0-3 0-5zm-4 4l-3-5c3 1 3 1 3 5zm-16-8c1-1 3 2 1 1 0 0-3 0-1-1zm-48-9c2-2 0-1 3-1-2 1 0 1-3 1zm269 59v1s-1-1 0-1zm-22-5c1 0 5 1 2 2-2 1-2-1-2-2zm-16-3h-1 1zm-20-5zm-29-6l-2-1 2 1zm-25-6zm-5-2l-2 2-1-3 3 1zm-63-13v-2 2zm-28-7c-5-1-2 0-3-2 5 1 1 1 3 2zm-8-2zm-7-3c1 0 3 3 0 1 0 0-2 1 0-1zm-43-8zm252 58l-2-2c3 1 2 0 2 2zm-23-9v1c0 2 0 1-1 2l1-3zm-15 0c1-1 0-1 2-1 5 1 2 0 3 1h-5zm-39-11l2 1-2-1zm-16-4l-3 1 3-1zm-9-2l-1 1 1-1zm-4 0l-1-1 1 1zm-62-15l2 1c-1 1-3 2-3 2l1-3zm-19-3zm-25-7l2 1-2-1zm222 51zm-22-7c3 3 2 3 2 7-2-2-2-3-2-7zm-18-3zm-14-1c1-3 0-1 3-2-2 2 0 1-3 2zm-35-12h2c-1 2-1 2 0 3-1 1-1-2-2 3-1-2 0 1-1-3 0-2 0-1 1-3zm-12-1h-2 2zm-9-3c-1 3 1 2-2 1l2-1zm-6-2l-1 2-2-1 3-1zm-10-2l2 2-5 4c-1 2-3 3-4 6h-4l-4-3c4 1 4 0 7 0 1-1 1-1 1-2 3 0 2 1 2-2 3 0 0 1 3-2-2-1-2-1-3-3 3 1 3 1 5 2v-2zm-52-10l-1-1 1 1zm132 29zm-55-12zm-18-4l-4-1c2-3 0-2 2-2l2 3zm-12-3l-2-1 2 1zm-21 9c0-5 0-2-3-4-4-4-7-7-9-13 4 2 8 2 12 1-1 3-7 9 3 15-2 2 0 1-3 1zm-27-20l-2-2 2 2zm-13-4zm-7-2zm205 47c1 0 6 2 2 1h-1s-3 0-1-1zm-28-6v-1 1zm-18-3l4-2c0 2 0 1 1 1 0 1 1 1 1 1l1 1c-4-1-4-1-7-1zm-10-4l-1 1 1-1zm-8-2zm-4 3l-4-2c-2-2 0 2-1-3 1 0 2 1 3 2 2 1 1 1 2 3zm-47-15l-1 1 1-1zm-6-1h-1 1zm-18-3l-2-1 2 1zm-48-12h-3c2-1-2-2 2-1 2 1 1 1 1 1zm-18-4v-1 1zm-55-14zm247 58l-2-2 2 2zm-15-4l-1-1 1 1zm-22-6zm-5-1l-1 1 1-1zm-9-3c-2 2 0 1-3 2 1-2 0-1 3-2zm-9 0l-1-1 1 1zm-18-5h-2 2zm-5-2l1 2-1-2zm-17-4l-2 1 2-1zm-7-1l-1 1 1-1zm-36-9l-2 1 2-1zm-42-7c1-1 0-1 3-1 1-1 2 0 3-1l1 2c-4-1-3 0-7 0zm-7-3l-6-1 3-2 2-2c-1 4-1 3 1 5zm-16-4l-1-1 1 1zm-39-9l-1-1 1 1zm245 56l-2-1 2 1zm-14-3l-1-1 1 1zm-13-3zm-12-4l-1 1 1-1zm-37-7zm-21-7l-1 1 1-1zm-7-1l-1 1 1-1zm-37-8zm-18-5l2 1-2-1zm-40-6l-3 2v-1l-4-4 3 1v-3c3 4-1 2 4 5zm-8-4zm-39-9zm255 63c-3 0-4 0-9-1 1-2 1-1 2-3 3 3 2 2 6 2 0-3 0-1-1-4 4 2 4 2 2 6zm-13-9l2 1-2-1zm-11-1l-1-1 1 1zm-18-5zm-5-1h-1 1zm-11-2zm-2-4c0 2 1-1 0 3-1-1-1 1 0-3zm-22-3zm-29-8l-2 2 2-2zm-9-1c0-1 2-3 0 0 0 0 0 4 0 0zm-28-6zm-50-12zm-60-14c1 0 3 3 1 1 0 0-3 1-1-1zm261 60zm-28-7v2-2zm-8-1zm-8-2l-1 1 1-1zm-6 0zm-6-3zm-53-11zm-62-14c-3-1-2-1-4-3l7 2-3 1zm-26-8l-2 1 2-1zm-67-15c1-1 3 2 1 0 0 0-3 1-1 0zm260 59l-1 2c-4-3-4 2-3-4l4 2zm-12-1c-3-1-2 0-2-2 2 1 1 0 2 2zm-20-5zm-6-4l-2 2 2-2zm-13-2l-1 1 1-1zm-5-1c0-2 2-3 1 0 0 0-1 4-1 0zm-54-12zm-48-12c1 0 3 3 1 1 0 0-3 1-1-1zm-13-2l-2-1 2 1zm-22-5zm193 44h2-2zm-14-3l-1-1 1 1zm-30-8zm-6-1h-1 1zm-10-4l1 2-1-2zm-115-26c1 0 3 3 1 1 0 0-3 1-1-1zm-154-31c-4-1-3-3-3-7l3 7zm333 72c1-1 3 3 1 1 0 0-3 0-1-1zm-10-2c1-1 3 2 1 0 0 0-3 1-1 0zm-31-9l1 2h-2c1-4 0-1 1-2zm-12-1l-1 1 1-1zm-76-10c-3-2-12-9-17-10h1l4-1c1 0 0 0 1-1l2-1c2 4 6 5 9 7l3-4c-1 4-2 5-3 10zm-97-28c0-2 0-1-1-3l3 1-2 2zm-121-32l-2 2 2-2zm352 82l-2 1 2-1zm-19-4c0-1 5-1 1 0-2 1-2 1-1 0zm-5-1v2c-1-1-2-1-2-2-2-1-1 0-2-1l4 1zm-21-4zm-7-3l1 1-1-1zm-6 0zm-95-23zm-41-4c1-4 1-3 1-6l3 1c-2 2-1 1-2 3l-2 2zm-38-14c-4-1-2 0-2-1 4 1 1 0 2 1zm234 53h-2 2zm-24-7c0 3 1 2-2 2l2-2zm-21-4zm-39-9l-1 1 1-1zm-69-16zm-42-9l-1-1 1 1zm-34-9zm-7 0l-2-2 2 2zm-117-29l-1 1 1-1zm353 83zm-18-5zm-30-6zm-10-4c1-2 2 0 1 0 0 0-2 3-1 0zm-10-2h-3 3zm-3 0v2l-2-3c2 0 1 0 2 1zm-12-4l-1 1 1-1zm-17 5c-3-2-1 0-2-2-2-2-1-1-2-3 6 1 8-1 12-3-2 3-5 5-8 5v3zm-50-20zm-46-10l-2-1 2 1zm-15-4h-1 1zm-27-6l-2-1 2 1zm-114-27h-1 1zm339 78c-1 0 2 1-3 0 2-1-1-1 3 0zm-39-9c1-3 2 0 1 0 0 0-2 2-1 0zm-16-3zm-10 7c-4 2-4 5-8 5l2-3c-2-1-2-1-4-3s-2-3-4-5c2-2 4-2 7-3h1c5 2 7-1 11-2-1 2-1 1 0 3-4 0-3-1-4 2-1 2-2 3-1 6zm-36-20c4 5-1 3 3 6 3 1 4 0 8 1l-1 2-10-2v-7zm-30-6l-1 1 1-1zm-6 0zm-22-6l7 1v1l-7-1v-1zm-26-5l-1-2 1 2zm-12-4l-1 1 1-1zm-17-4l-2 1c-1-1-1-1-1-3 1 1 1 1 3 2zm-13-2l-1-1 1 1zm-46-8c-3-1-1 0-3-2-1-1-2-1-2-2 4 1 3 0 6 0l-2 1c0 3 0 1 1 3zm-9-6c1-1 3 2 1 1 0 0-3 0-1-1zm-56-13l-1 1 1-1zm341 79c-1 0 2 1-3 0 2-1-1-2 3 0zm-26-7zm-10-2zm-9-2zm-28-5c2-2 0-1 3-2-1 3 0 2-3 2zm-8-3h-1 1zm-42-8c0-3-1-2 2-2l-2 2zm-9-5l-2 1 2-1zm-4 0zm-18-4c1-1 6 1 2 0h-1s-3 1-1 0zm-29-7l5 1v1l-6-1 1-1zm-19-2c-2 3-2 2-3 5-2 4 1 2-3 4 2-4 4-8 3-12l1 1c2 3-2-1 2 2zm-15-5zm-14-3v-2 2zm-44-11c3 0-1-1 3 0 2 1 0 0 1 1l-4-1zm-64-16l-2 1 2-1zm342 79l-3 1 3-1zm-17-1c1-6 3-11 5-18h1c-1 3-1 5-2 8 0 1-1 3-1 4v4c-1 1-2 1-3 2zm-32-12c1 1 1 1 1 3-2-2-2 2-1-3zm-52-10l7 1-1 3c-2-3-1-2-6-3v-1zm-6-1l-1-1 1 1zm-31-8l-1 1 1-1zm-15-3c2-1 4 2 1 0 0 0-3 1-1 0zm-25-7c1 0 3 3 0 1 0 0-2 1 0-1zm-25-3c4-3 2-1 7-2l1 1c1 1 1 1 2 1 1 1 4 1 5 1h-1c-1 2 1 0-2 1h-1c-6-2-5-2-11-2zm-5-2l-2-2 2 2zm-10-4zm-16-3l-2-1 2 1zm-107-25h-1 1zm343 78l-2 1 2-1zm-15-3l-1 1 1-1zm-11-3l-2 5c5 1 1 0 2 2-5-1-3-2-4 2-3-4 1-3 1-10 2 1 0 1 3 1zm-6-1zm-8-2l1 1-1-1zm-5-1zm-12-6l-1 5c-2-2 0-1-3-1 1-2 2-2 4-4zm-10 1l-1 1 1-1zm-19-2c1-3 0-2 3-3-2 3-1 2-3 3zm-8-4c1-1 3 2 1 0 0 0-3 1-1 0zm-16-3l-1-1 1 1zm-16-5s1 0 1 1l-1-1zm-13-3l-1 1 1-1zm-13-3l1 1-1-1zm-19-4c2-1 4 2 1 1 0-1-3 0-1-1zm-6-2v1s-1-1 0-1zm-35-7l-5-1v-1c1 0 2 0 3 1 2 1 1 0 2 1zm-13-5l1 2-1-2zm-13-1l-1-1 1 1zm238 54zm-13-4l-2 1 2-1zm-19-3l-1-1 1 1zm-34-9l-1 1 1-1zm-25-6zm-20-3l-2-1 2 1zm-28-7zm-10-3s-1 0 0 0zm-17-4l-2 1 2-1zm-9-2zm-21-5h-2 2zm-43-11v2-2zm-7-2l1 2-1-2zm-17-4c1 1 1 1 3 2l-3 6 4 2c-1 0-3-1-4-1l-9 2c-4 1-2 0-3 4l-1 1c-1 4-1-1-1 3-4-2-2 0-8-2 1 0 3 0 8-2 0-6-3-6-4-10 6 3 2 5 8 5 4 0 6-2 9-3 1-4 1-4 1-7zm251 59h-1 1zm-12-5c-1 4-1 2-2 3 1-5 0-2 2-3zm-9 1zm-10-3zm-22-6l-1 1 1-1zm-10 1c1-2 1-3 2-5l2 2c-2 3-1 2-4 3zm-7-6l-1 2 1-2zm-21-4c1 0 3 3 1 1 0 0-3 1-1-1zm-13-2c2-1 4 2 1 0 0 0-3 1-1 0zm-7-2zm-23-6zm-49-11l-1 1 1-1zm-18-4l5 1v1l-6-1 1-1zm202 46l-1 1 1-1zm-18-6c1 1 2-2 0 3v-3zm-13-1l-1 1 1-1zm-22-5h-1 1zm-59-13c1-1 0-1 2-1 1 1 2 1 4 1l-1 1-5-1zm-22-6h-1 1zm-27-7zm-22-5l-1 1 1-1zm-10-2c1-1 3 2 0 1 0 0-2 0 0-1zm-14-3c1-1 5 3 1 0 0 0-3 1-1 0zm-8-3c1 2 1 0 1 3-2-2-1 0-1-3zm-13-1l-1-1 1 1zm-7-5c1 1 1-1 0 3-1-1-1 2 0-3zm-14 1l2-1c2 0 2-1 3-1-2 3-1 3-5 2zm-3-2l-1-1 1 1zm252 58zm-31-7c2-1-2-2 2-1 2 1 1 1 2 2l-4-1zm-15-4zm-13-4l-1 1 1-1zm-17-4zm-26-6zm-31-7l-1 1 1-1zm-48-11h-2 2zm-9-2c1-1 3 2 1 0 0 0-3 1-1 0zm-20-5l2 1-2-1zm-19-3l-1-2 1 2zm-24-6l-1-1 1 1zm240 55l2-6c0 1 0 3-1 3l-1 3zm-40-8c2-2 1-2 4-2-2 2-1 2-4 2zm-5-5l-1 2 1-2zm-47-10zm-27-6l-1 1 1-1zm-25-6zm-23-5l-1 1 1-1zm-6-2zm-24-4l-1-1 1 1zm-5-1l-1-1 1 1zm-15-6v2-2zm-24-3v-1 1zm-36-9l1 7 6 1c1-5 2-5 5-7l-2 4-2 3v1l-12-3h3l1-6zm0 0l-1-2 1 2zm272 61v2-2zm-21-7c0 3 0 3-1 8-1-3 0-3-3-6l4-2zm-51-9s5 2 1 1c0-1-3 0-1-1zm-41-10l-1 1 1-1zm-24-5h-2 2zm-30-7h-1 1zm-26-5l-2-2 2 2zm-5-1l-1-2 1 2zm-20-7l1 2-1-2zm-18-2l-2-2 2 2zm198 43l-2 1 2-1zm-39-8zm-34-9l-2 1 2-1zm-26-4zm-30-7zm-28-7zm-4-1v-1 1zm-13-3l-1-1 1 1zm-47-12l-1 1 1-1zm259 61l-1-2 1 2zm-43-14c1 2 2-2 1 2-1 2-1 1-1 2v-4zm-39-7s5 2 1 1c0 0-4 1-1-1zm-115-26zm-16-5v2-2zm-5 1v-1 1zm-41-10zm258 59l-1-1 1 1zm-30-4c1-3 2-2 4-3-1 2-2 2-4 3zm-22-3c1-3 2-4 3-6 2-4 1-5 3-7 0 3-1 5-2 8 0 0-1 2-1 3-2 2-2 1-3 2zm-5-2l-7-3c7 1 7 2 11-2 1 0 1-1 1-1-1 3-2 5-5 6zm-53-16l1-2-1 2zm-26 1c3-3 0-1 5-1h6c5 0 6-2 10-3-2 3-5 4-9 4h-12zm1-8zm-22-5zm-61-15l1 2-1-2zm-19-1c-2-1-1 0-3-1-1-1-1-2-2-3l5-2c-1 4-1 3 0 6zm236 52l-1-1 1 1zm-75-18c0-1 5 1 1 1v-1s-3 1-1 0zm-85-15c3-3 8 0 13 1h6c4 0 2 0 6-1-3 4-6 3-11 2-6-1-8-1-14-2zm5-4l-1 1 1-1zm-42-7l-3-3c4 2 4 1 3 3zm-15-7l1 2-1-2zm-29-5l-2-1 2 1zm-58-13l3-1-3 1zm298 68v-1 1zm-18-3c1-3 0-2 3-3-2 3-1 2-3 3zm-44-12zm-51-11l1-5h1c-1 1-1 2-1 3-1 1-1 1-1 2zm-39-12l-2 2 2-2zm-47-8l-1-2 1 2zm-17-4l-1-2 1 2zm-26-6c-4-1-2-1-2-2 4 1 1 0 2 2zm-34-8c-5-2-2-1-3-2 5 1 2 0 3 2zm-18-6c1 0 5 3 1 1-1 0-3 1-1-1zm-4 2l-3 1c-5 2-6 4-10 6 1-3 1-2 3-4-5-1-4 0-6-3 8 3 10 6 7-5 3 2 2 1 2 5 4 0 3-1 7 0zm307 68s-1 0 0 0zm-9-1l-2-1 2 1zm-24-4c2-3 1-3 3-4-1 4 1 2-3 4zm-6-4zm-28-7v1s-1-1 0-1zm-69-17v2-2zm-36-7l-2 1 2-1zm-37-8l-2-1 2 1zm-44-10l-2-1 2 1zm-36 6c-1-2-1 1-1-3 0-3 0-1 1-4 1-2 3-4 4-5 4 0 3-1 7-1 0 0-1 0-1 1-6 2-7 0-10 12zm278 50l-1-2 1 2zm-12-5l-1 1 1-1zm-15-3l-1 1 1-1zm-11-3l1 2-1-2zm-15-3zm-52-12zm-27-4c1-3 0-2 2-3-1 3 0 2-2 3zm-18-6l1-1-1 1zm-10-3l-1 1 1-1zm-40-8c-5-1-2-1-3-2 5 1 2 1 3 2zm-47-12c1-1 4 2 1 1 0 0-3 0-1-1zm-20-4h2-2zm242 55h-2 2zm-28-6zm-46-11l-1-1 1 1zm-61-14zm-43-10c-4-1-2 0-2-1 4 1 1 0 2 1zm-46-12c1 0 3 3 1 1 0 0-3 1-1-1zm238 54l-1 2 1-2zm-6-3c-1 5 0 2-2 3 1-4 1-2 2-3zm-7 1l-1 1 1-1zm-14-4v2-2zm-9-3c1 1 2-2 1 3-1-2-1 1-1-3zm-53-10l-1-1 1 1zm-6-2zm-19-3c-2-1-1-1-5-2 2-1 1-1 4-1 2 3 0 0 1 3zm-31-10l-1 2 1-2zm-49-9c-5-2-2-1-3-2 5 1 1 0 3 2zm203 43c1 2 1 2 1 5-2-1-2-2-1-5zm-21-3l-1 1 1-1zm-38-9c1-1 3 3 1 1 0 0-3 0-1-1zm81 16c0 2 1-2 0 3-1-1-1 1 0-3zm-29-6l-2 2 2-2zm-14-1zm-7-2c-1 5 0 6-3 8 1-4 3-4 2-9 1 0-1-1 1 1zm-8-1l-1-2 1 2zm-20-6zm-43-8c-2-1-1 0-2-3 2 2 1 1 2 3zm-55-14zm-53-7c-2-3 0-1-2-4-1-1 0 0-1-2l-1-1 4 2v5zm192 38l4-13c-1 3-1 5-2 7 0 2-1 5-2 6zm-13-2l1-2-1 2zm-9-3l-1-1 1 1zm-16-4zm34 6v1s-1 0 0-1zm-26-3c-4-3 0 0-2-1-1-1-1 3-1-2l4 1-1 2zm-8-3zm-48-11h-3l-3-3c4 1 4 0 6 3zm123 27l-1-2 1 2zm-52-13h1-1zm-116-28v2-2zm-112-27c2 2 6 4 10 5-1 1-1 1-2 3v1c-1 4 2-3 0 1-6-2-8-1-12-2 5-3 3-3 4-8zm-24 0l-1 4-1 1c2-10 1-8 4-9-1 2-2 2-2 4zm264 57zm-143-23c-1 0 0 0-3 1-8 1-15-4-21-9-8-5-12-10-24-13v-1c15 4 16 6 24 13 3 3 6 4 10 6 9 4 7 1 14 3zm131 19zm-19-5zm-97-21l-1-1 1 1zm-102-22v-3c3 2 2 1 0 3zm233 49l-1 2 1-2zm-15-1l-1-1 1 1zm-117-27l-2-2 2 2zm-96-24zm-5 0v-1 1zm-10-2l-1-1 1 1zm227 52zm-118-28l-2-1 2 1zm-99-23zm-11-2l-1-2 1 2zm280 64l-1-1 1 1zm-36-9c1-5 0-1 1-2-1 5 0 1-1 2zm-236-56zm-9-1v-1 1zm280 65zm-52-14zm-69 12c0-2 0-2 1-3 1-2 0-1 1-3 2-5 2-2 2-8 3 3 0 6-1 9 7-2 17-2 25-3 25-3 14-5 24-9-5 10-16 10-21 11h-4c-2 1-4 0-7 0l-15 2c-3 1-3 0-3 4 0 0 1 0 0 0h-2zm-135-66v1c0 6-1 4 1 7-4-1-4 2-1-8zm-15 4l-1-1 1 1zm-9-2l-2-1 2 1zm278 63zm-38-10c-2 4-3 2-5 6v-6c4 1 2 1 5 0zm-12-1l-1-1 1 1zm-220-51l-2-1 2 1zm-10-2c-5-1-2-1-3-2 5 1 2 1 3 2zm279 62c-2 3 2 2-3 1 2-1 1 0 3-1zm-271-61l-2-2 2 2zm235 52l-1 1 1-1zm-27-6zm-210-48l-1-1 1 1zm274 62c1-3 3 1 1 1-1-1-1 1-1-1zm-45-10zm-22-3c1-1 0-1 1-2l2 1-3 1zm-208-50l-2-2 2 2zm238 55c1-2 1-2 3-3-2 4 0 2-3 3zm-8-2v-1 1zm-214-52c3 3 1 4 2 8h-4c0-2 0-1-1-3l3 1v-6zm-3 5c-2-1-5-4-6-6 3 1 5 3 6 6zm-15-8l-2-1 2 1zm275 63c1-1 3 2 1 0 0 0-3 1-1 0zm-43-9l-1-2 1 2zm-218-53l1 2-1-2zm-5 1l-2-2 2 2zm-11-3l-2-1 2 1zm259 54c3 7 5 10 13 13-1 0-8 0-11 7l-1-2c-4-1-4-1-6 0 1-3 2-5 3-9 2-4 1-3 2-9zm-26-1l-1-1 1 1zm-214-52l1 3-1-3zm-10 0l-2-1 2 1zm-11-2l-1-2 1 2zm247 56l1-2-1 2zm-221-53l1 2-1-2zm-8 0l-1-1 1 1zm-9-2l-2-1 2 1zm-10-3l-1-1 1 1zm-45-11c1-3 2 0 1 0 0 0-2 2-1 0zm318 73zm-21-5c0-2 2-3 1 0 0 0-1 4-1 0zm-230-53l-1-1 1 1zm-4 0l-1-2 1 2zm-11-4zm-8-1l-1-1 1 1zm28 3v3-3zm-6 1v-1 1zm-4-1v-1 1zm-12-4zm-7 0v-1 1zm19 3l-1-1 1 1zm-12-3l-1-1 1 1zm-7-1l-1-1 1 1zm273 61zm-240-57c3 4 3 8 2 14 3 1 7 4 10 6 7 6 1 3 10 5 1 4 1-3 0 1 0 1-1-2 0 2l-4-2c0 5 2 2 2 7-3-3-3-7-8-10l-12-8 1-1v-2c1-7-1-7-1-12zm-4 1l-1-1 1 1zm-8-3c2 2 2 0 2 3-2-2-2 0-2-3zm-3 1l-2-1 2 1zm-12-3l-1-1 1 1zm267 61l-1-2 1 2zm-21-5zm-8-3v2-2zm-7 5c-3 0-1 0-4 1v4c-2 0-1 0-3 1-2 5-2 1-2 7h-2c3-11 4-10 12-18 2-2 0-1 2-2-2 5-4 3-3 7zm-209-54zm-12-2l-1-2 1 2zm-11-3l-2-1 2 1zm-6 0c-2-2-1-1-1-4 1 2 1 1 1 4zm-39-16l1 1-1 4h-1l1-5zm61 19v-1 1zm-6-2l-2-1 2 1zm-12-2l-1-2 1 2zm-54-14zm305 66c1 1 1 2 1 4 0 4-1 2-1 3 0-3-1-3 0-7zm-11 0l1 3-1-3zm-230-51c-5-1-2-1-3-2 5 1 2 1 3 2zm-11-3v-1 1zm-52-14l-1 2 1-2zm322 75c0-2 1 0 0 0 0 0-1 3 0 0zm-8 3l-2-5c2 1 2 0 3 2l-1 3zm-254-63l-1-1 1 1zm-8-2l-1-1 1 1zm-68-17zm323 75c1-1 3 2 1 0 0 0-3 1-1 0zm-13 2c2-3 3-7 4-11l1 1c-2 8 1 3-2 8-1 5-2 6-3 12h-1c1-6 1-6 1-10zm-1-5l-1-1 1 1zm-219-52zm-23-4l-1-1 1 1zm-49-14l-2 2 2-2zm-18-2zm328 77l-1-2c2 1 1-1 1 2zm-20-6c-3 1-2 2-1-2l1 2zm-218-51l-1-1 1 1zm-3 3c-3-2-3-3-4-5 3 1 2 2 4 5zm-21-8zm273 54l1 1-2 7h-1l2-8zm-250-50zm-6-1l-1-2 1 2zm-64-17l-1 1 1-1zm301 68c1 1 1-2 0 3 0-1-1 1 0-3zm-3 1zm-230-53zm-12 1c-5-2-5-2-6-6 3 2 1 1 3 3 1 0 1 0 1 1 1 2 1 1 2 2zm-10-7zm-60-14zm327 78c-1 0-4-1 0-2 2 0 1 2 0 2zm-23-13l1 1-1 5h-1l1-6zm-222-45l-1-2 1 2zm-5-1c-3-1-2 0-2-2 2 1 1 0 2 2zm-13-4l-1-1 1 1zm-4-1zm-45-11l-1 1 1-1zm-14-3h-1 1zm323 74l2 1-2-1zm-12-3zm-231-53l-1-1 1 1zm-6-1l-1-1 1 1zm-12-3l-1-1 1 1zm-60-15l-2 1 2-1zm321 73v2l-2-1v-1h2zm-9-2v2-2zm-241-54l-1-2 1 2zm-69-17h-2 2zm68 15l-1-1 1 1zm-68-15l2-1-2 1zm319 73l2-1-2 1zm-7-4c0 3 1 2-2 2l2-2zm-2 2zm-7-3c1-2 2 0 1 0 0 0-2 3-1 0zm-229-54c4 2 7 5 9 7 1 1 2 3 4 4 2 3 2 2 2 5-4-3-10-13-14-12-1-2-1-1-1-4zm-70-15zm320 73l-2 1 2-1zm-8-2zm-259-35c-8-2-12-7-12-14 0-4 1-9 3-11 4-3 5 3 7-5l2 9c-2-3-2-5-4-2s-2 8-1 10c0 8 3 6 5 13zm269 37h-2 2zm-13-3h-1 1zm-5-2zm-234-53v-1 1zm256 56c-2 3 1 2-4 2l4-2zm-16-3l-1 2 1-2zm-6 0v-1 1zm-5-2c0-2 1 0 0 0 0 0-1 3 0 0zm-238-56c2 2 2 2 2 5-2-2-2-2-2-5zm-71-16l5 1v1l-6-1 1-1zm314 73l-1-1 1 1zm-317-75c1 0 3 3 1 1 0 0-3 1-1-1zm340 79h-1 1zm-17-3l1-2-1 2zm-7-2l-1-1 1 1zm-8-3c0-2 2-3 1 0 0 0-1 4-1 0zm-234-53zm267 60l-1 1 1-1zm-8-2zm9 1l-1 1 1-1zm-7-2l-2 1 2-1zm-320-73c-5-1-2 0-3-2 5 1 1 1 3 2zm322 73h-2 2zm-10-2zm-1-1l-1 1 1-1zm-289-67zm305 72l4-2c-2 3-1 2-4 2zm-4-3l-1 1 1-1zm-7-1zm-293-69l-1 1 1-1zm-21-6v2-2zm321 76zm-7-1zm9 0zm-5-2zm-24-4zm-295-71l1 2-1-2zm319 75zm-303-70zm-3-1c0-1-1 2 0-3 1 1 1-1 0 3zm312 72l-4-1c2-1-2-2 2 0 2 0 1 0 2 1zm-15 0l1-4h3c-2 3 0 2-4 4zm-11 1l-2-2-2-4c2 1 2 1 3 2l3-3 1-1c1-2 0 0 1-1-2 7-4 1-4 9zm-6-6v-4c2 1 2 1 0 4zm-293-71zm328 75h-2 2zm-13-3h-1 1zm-259-61c1-2 2 0 1 0 0 0-2 3-1 0zm-37-9l-1 1 1-1zm296 70zm-2-2c0-2 1 0 0 0 0 0-1 3 0 0zm-261-62c-2 4-3 5-4 10-1-1-1-2-1-4v-6l3 2 2-2zm251 60l1-5h1v3c-1 2-1 1-2 2zm-236-42c-7-6-5-16-3-24h1c-3 13 2 19 2 24zm-20-18l-2-1 2 1zm-28-6c1-5 0-2 2-3-2 5-1 1-2 3zm-7-3c1-2 2 0 1 0 0 0-1 3-1 0zm307 69zm-274-61c-5-2-7-3-13-5 2 0 8 1 10 2l1 1c2 1 1 1 2 2zm275 61h-1 1zm2-1l-2 1 2-1zm1-1l-1 1 1-1zm-7-1c-1 1-1 1-3 2 0-3 0-3 1-7v1s0 1 1 1c1 3-1 1 1 3zm-264-57c1-4 1-4 4-5-1 2 0 1-2 3l-2 2zm-49-15l-1-1 1 1zm321 73h-1 1zm-7-2l-1 1 1-1zm-315-72l-1-2 1 2zm-11-4l-1 1 1-1zm334 77l-1 1 1-1zm-7-2l-1 1 1-1zm-317-73l-1-1 1 1zm-9-3l-1 1 1-1zm335 77l-2 1 2-1zm-7-1h-2 2zm-13-10l1 1-2 6h-1l2-7zm-307-64l-1-1 1 1zm-6-2h-2 2zm333 77zm-7-1zm-321-75l-2-1 2 1zm-5-1l2-1-2 1zm328 73zm0 0zm-8-6l2 4-3 1 1-5zm3 3l-1 1 1-1zm-253-59zm-5 7c-2-3 0-1-3-3 2-3 3-4 7-4-3 3-3 0-4 7zm-27-3l-2 1c-6 3-3 4-8 5 2-3 4-5 7-8 3-6 1-6 0-10 3 1 1 1 4 4-1 4-2 4-4 8h3zm292 55zm-6-1l-1 1 1-1zm-306-71c-2 1 0-1-2 1-1 0-2 0-3 1-2 7-2 6 0 12 1 6 0 8 5 9l1-4c2 2 0 1 3 1-1 2 0 1-2 3 1 0 2 1 2 1 2 1 1 0 2 1 3 2 1-1 1 3 3 2 6 2 11 3l-9 1c10 5 1 2 16 6-1 5-2 8-1 12 0 5 3 7 3 11-10-3-13-2-17-3l5-1c18-6-3-23-8-24-2 1 0 1-3 1 0 4 1 5 1 9l-3-7c-5-1-2 0-5-2s-2-3-6-2c0-4 0-2-2-5h-4l-2-3 8 2v-2l-4-3c3 0 1 1 2-2l4 5h1c1-4 0-6-1-9s-2-4-2-7c2 2 1 0 2 0 2-8 0-5-2-10l9 2zm307 69l-1 2 1-2zm6 2zm-7-15l-4 13c0-2 1-8 2-10l2-3zm-11 7c0 2 1-1 0 3-1 2 0 0-1 1l1-4zm-295-63l3-1c4 0 8 1 11 3 2 1 2 1 3 3-3-1-5-2-8-4-4-1-5 0-9-1zm309 68l-2 1 2-1zm6 1c0-2 1 0 0 0 0 0-1 3 0 0zm-5-4c-1 5 0 2-1 3 1-5 0-2 1-3zm-328-73c-4-2-1-1-2-2 5 1 1 0 2 2zm-5-4l2 1-2-1zm339 78c1-2 2 1 1 1 0 0-1 2-1-1zm-339-78l-2-1 2 1zm335 73v2c-1 2-1 1-2 2 1 0 1-1 1-2 1-1 0-1 1-2zm0 0c1-3 2-4 4-7-1 3 0 2-1 4l-3 3zm-6-5l1-2-1 2zm-328-77zm0 0v-2 2zm-1-4l1 2-1-2zm332 77l-1 1 1-1zm-318-54c-2-1-3-2-4-3l-5-3c6 1 15 5 13-2 0-2-3-5-4-6l-3-6c3 1 7 6 8 9 4 9-1 7-5 11zm-3-20l-1-1 1 1zm-15-4zm343 78c1-2 2 1 1 0 0 0-1 3-1 0zm-6-2l-1 2 1-2zm-323-73l-1-2 1 2zm324 71l-1 2 1-2zm-325-73l-2-3c4 1 2 1 6 2l-4 1zm327 72l-2 1 2-1zm-329-75l-2-1 2 1zm330 74l-1 1 1-1zm-309-76v4c0 2 0 1-1 4-5 0-6 0-12-1 1-1 0-1 2-1 3 0 5 0 9 1l2-7zm310 75l-1 1 1-1zm-338-70c-2-2-1-4 0-9l6 2s-1 0-1 1c-3 2 1-1-2 0 0 1 0 1-1 1-1 1-1 1-2 1v4zm340 68l-2 2 2-2zm-333-76c2-1 5 3 1 0 0 0-3 1-1 0zm4 0zm330 76h-1 1zm-339-79c-1 1-1 0-2 2-1-1-1-1-1-3l3 1zm340 78l-1 1 1-1zm-339-79l-1 1 1-1zm340 78l-1 1 1-1zm-340-78zm25 7c-2-2-2-3-4-4 0-1-1-1-2-2-1-2 0-1-2-2 5 1 8 4 8 8zm-24-12zm16 4l-3-1c2-1-2-2 2 0 2 0 1 0 1 1zm-10-14c1 3 0 8-1 10 6-1 6 2 6 2l-8-1 3-11zm0-4c0 1 1 1 1 1v1c0 1 0 1-1 2v-4zm244-290c1-8 4-15 6-23 3-8 4-15 6-23l2 7c3 15 12 37 12 47l-26-8zm-47 74c-1 2-4 4-6 6l-20 17c-2 2-5 3-7 5s-4 4-7 6l-13 13-38 37-7 7c-26 27-54 63-77 93-4 5-20 26-22 32-3 2-6 7-7 10-1 1-1 1-2 3-2 7-3-1-2 6l-2-1c-1 6 2 2 0 9-1-2-1-2-2-3l-2 2-1 1 2 2c1 1 1 0 2 1-1 2-1 1-2 4 1 1 1 0 1 2 1 1 1 1 1 3 1 2 2 2 2 4-2-1-1-1-3-3 0 1-1 2-1 2l-2 2c-1 0 2 1-3 0 1 2 4 5 6 7 4 4 3 6 6 9-3 2-6 4-10 5 3-10 0-16-6-21 0 7 8 2 3 20 1-8-2-15-7-18 0 4 1 2 4 7 1 3 2 6 1 10-3-2-4-3-5-6-2-4 0-3-3-7-2 4-2 5 0 8s2 5 6 6c-1 5-9 12 2 6 4-2 3-2 4-4l3 1c-3 7-1 3 1 8h-6c-2 4-3 5-2 10 1 4 3 6 6 5-2 10 3 14 14 16-2 1 1 1-3 1l-2 6c1 2 2-1 0 3l1 2 1 1 1 1v1l2 1c3 1 2 1 4 0 0-3-1-4-1-7 0-6 2-4-1-8 4 1 5 0 7-1l1-1c0 9 9 7 17 9l-5 1c-10 1-14 5-21 12-4 4-4 5-4 11v1l1 1c4 2 3 3 7 3-3 4-3 3-3 8 3 2 1 1 4 2l2 2h1v1l-6-2c-2 3-4 5-5 8-2 4-1 6-1 10l3 9c1 2 2 3 3 4l3 4 1 2c11 2 10 3 16-3v-8c0-3 0-3 1-4-1-1-2-1-3-1l-2-2c-3-1-2 0-3-2-5-2-5-2-8-3 2-1 3-1 6 0v-4l2-6-6-2c10 2 4 2 10-1 1-3 1-1 1-4l2 1c3-2 3-2 6-3l2-8h1c-2 10-1 7 11 10l1-4c2 2 2 1 6 1-4 2-6 2-7 9v4c3 4 4 3 11 4 1-5 1-5 3-9 1 2 0 2-1 4 0 3-1 4-2 6 7 0 3-4 10-3-2 1-4 2-6 5l2 2h6l-2 1v3c1 5-1 2 2 4-3 2-3 2-4 5l4 3-5-1c1 2 1 5 1 7-4-4 2-5-5-8-4 5-2 9-1 13l11 4v-1c1 1 14-5 14-19 0-5-2-5-2-9 3 3 2 3 7 3l-4 3c0 7 0 3 2 8-3 0 0-1-2 1-6 6-3 8-2 11-1 0-2-2-4-1-1 4-2 3 1 5-2 3 1 0-2 3l-1 1h-1l-1 2-1 2h-2l-2 1c1 7 10 10 16 7 7-4 33-25 25-38-2-5-3-4-9-5-1 5 0 6-2 12-2 7-2 3 0 10-4 0 3 0-1-1-5-1-5 6-13 6 5-4 7-3 11-10 3-6 3-12 3-19 1 0 1 0 2 1 9 0 10-6 11-14v8c2 1 9 7 13 7 2 0 3-1 5-2-1 4 0 5 1 8-3-1-5 0-7 0-9 17 13 21 18 11 4 3 0 1-1 7-2 5 0 6 1 8 2 5 0 4 3 9 2 4 4 3 5 7-3 3-6 1-10 6-6 7-1 8 0 11-4-1-2-2-7-3 1-1-1-1 3-1 1-6 1-4 1-9s5-6 2-16c-2-7-10-9-17-17-4-5-3-11-6-15-1 3-4 8-5 12 0 5 3 7 3 11-2-2-3-3-5-4-1 2-2 2-3 5l-2 1c-7 4-8 14-5 18-4-1-4-2-9-3-1 2-4 6-4 8 2 4 4 0 6-2-1 3-1 3-2 5l15 2 1-1h1v-4l-4-2c2-1-1-1 4 0-1-3-1-3-1-6l3 6c3 1 1 1 3 2 1 1 2 1 2 2l1 2 1 1 1 1v1c4 4-1 3 5 4 1-3 1-3 1-6 2 3 2 2 0 7 6-1 2-1 6-6l2-2c0 1-1 3-1 3v3l-3 2c8 2 17 4 22 4v1l7 2 3-4h1c-4-2-6-5-6-9 3 2 2 4 6 6 1-4 1-3 4-4-2 3-2 3-3 6l3 1-6 4 31 8c2-6 3-6 0-11h4c-1 4 0 3 0 7 1 0 4 1 6 2 7 2 5 8 12 3 2-6 2-2 2-8l-1-1v-1l-2-1-1-2-1-1c-5-1-2 0-3-2h-4c12-14 8-1 18-14 3-5 3-1 6-8-3-1-2-1-5 0l1-3c4 2 4 2 9 3l1-3c1 1 2 1 2 2 1 1 1 0 1 1-4-1-1 0-4 1-5 2-7 9-7 11 0 4 0 4 5 5-3 6-3 7 1 11s7 6 13 7l1-3c-12-5-8-9-11-13l-2-2c8 2 12 0 14-7v1c0 3 2 5 5 6-3 6-7 15-3 21-3-1-3-2-7-2-3-1-3 0-8-1-1 2 1 1 0 2h-3v7c5 1 4 0 9 1l1-2c-4-2-3-1-4-4 4 2 5 6 7 7s8 1 12 2l-2-4 3-2c0 3 1 3 1 6 4 1 11 1 15 2 1-4 0-3 1-7v1l1 2c1 5 1 4 5 5 6 0 9 2 14 1 1 1 0 0 2 1h3c4 0 3 0 6-1 1 1-1 1 2 1 0 0 1-1 2-1v2c4 1 5 0 10 1l1-1c3 2 5 1 9 2l1-3c2 1 2 0 4 0l6 2 11 2c2-5 1-7 2-11l2 4c7-4 10-3 14-6l1-1c-1 5 1 9 1 13-6-2-5-4-12-5l4 6h5c20 2 26 1 30-14 2-7 5-8 7-15-3-1-2-2-5-1-1-6-13-11-19 1l3 3h1-4l-1-4h-2l3-3c0-9-2-16-13-19h1s1 0 1-1c2-1 1 0 2-2-2-2-4-4-6-7-8-9-7-7-11-16-3-6-3-5-9-5v-2c5 1 6 0 1-10-3-6-14-5-9-25 2 5-2 6 4 8 1-4 1-10-2-12 1-1 1-1 1-3-2-1-1 0-3-1 5-5 3-7 3-20v-10c1-2 1-8 1-11-2-1 2 0-1 0-2 1 1 2-1 1 2-5 3-3 3-6 0-5 0 0-1-3 2-2 2-2 3-6-6-1-15 3-18 6-7 6-7 10-10 21h-1c3-11 3-16 9-22 5-4 12-8 19-8l6-45c2-15 4-31 6-47 0-8 3-25 4-35 2-31 3-69 1-99-1-23-6-69-14-90l-9-27 3-1c3-1 2 0 2-2-1 0-2 0-3-1l-1-5c-2-1-1 0-3-1 0-1-1-1-1-1v-4c0-1 0-1 1-3 0 1 1 0-1 1h-2c1-3 2-4 2-6-1-4-3 1-2-4v-6c1-5 2-3 2-3-1-4-3 1-2-8 0-10 4-17 9-25l2-2c0 5 9 23 11 25l4 6c1 5 5 6 5 11 1 2-1 5-1 6l3 5c2 3 3 2 1 4l4 3c1 1 0 1 0 2 0 4 5 14 7 17 11 20 18 24 30 45 6 11-3 1 4 18 9 22 38 14 52 9l4 4 7-3c1 3 2 3 3 6 7-1 11-5 17-8l44-24c2-1 1 0 2-1-1 26-28 114-35 148l4 3c0 6-2 16-4 22 0 3-5 28-6 34-3 11-4 23-6 35-5 19 5 17-7 65-2 11-6 24-8 35-1 5 0 4-1 8s-1 4-3 8c0 3-1 6-2 9-1 5-1 4-3 8-3 12-4 24-9 34-2 5-5 7-8 12-4 9 1 9 1 14-6-1-9-3-13 0-3 3-3 4-10 6-4 1-21 5-25 5 1 4 1 0 2 5-6 2-10 14-9 17s2 2 7 3c-4 2-4 0-6 4 1 0 18-2 19-1v-6l3 1c2-3 2-1 3-4 2 1 2 0 3 1 0 2 0 0 1 3 4 1 2-1 2 2 10 2 7-3 17-1 11 3 10 0 19 6 3 2 25 10 29 6 0-1 3-8 3-10 12 2 12 0 21 7 5 3 16 8 20 4 2-2 1-2 3-5 3-7 9-15 11-26 0-5-1-6-1-11 1-5 6-18 7-23 5-14 9-33 13-49 5-23 13-28 12-58 0-8 1-16 3-24 2-7 1-14 5-24l18-59c1-1 8-21 8-22 1-1 21 2 23 2 7-28 13-58 16-87 1-3 1-8 1-12-1-9 7-52 10-63 11-40 34-79 43-114 8-29-5-32-16-46-7-9-5-13-8-23-3-7-6-9-3-16l2-2c7-14 27-36 16-56l-5-10c-2-3-5-6-9-8-17-11-32-5-40-5-4 1-8 3-12 4-2 1-3 1-5 3-1 2 1 1-3 3-7 4-5 5-5 7-4 1-6 3-8 9l6-3c-4 7-2 1-1 7 0 4-3 8-3 12s3 2-1 9c-1 3-3 7-4 10-3 6-1 5 4 6l-1 7 4 2c-5 3-2 3-1 7s-2 4 0 9c2 6 12 2 17 4 3 14 0 14-19 19-14 4-17 5-25 17-15 20-22 39-34 62-16 30-27 26-61 46-13 7-10 7-27 15-7 3-4 5-11 8-3 1-35-5-38-8-11-8-22-42-28-55-4-10-8-18-12-28-10-24-23-82-27-91-6-11-18-9-31-14l6-14c5-7 16 3 21-4 4-4-1-3 3-8 2-3 3-2 3-8 4-2 3 0 5-2 0-4-1-8-1-11 0-4 2-8 4-12 3-15-4-29-17-36-9-5-13-3-20-1-2-4-3-8-10-10-8-2-15 0-20 6-5 5-1 2-6 4-5 1-8 5-9 12-5 19 8 24 10 26 3 3 1 11 2 15 2 5 5 8 8 12-2 7-9 17-13 22-13 16-28 16-33 27-9 17-20 65-21 82-1 15-2 12 13 17 10 4 19 5 29 7-3 4-5 4-9 7-11 7-59 44-62 45z"/><path class="fil17" d="M1277 1887c3-1 51-38 62-45 4-3 6-3 9-7-10-2-19-3-29-7-15-5-14-2-13-17 1-17 12-65 21-82 5-11 20-11 33-27 4-5 11-15 13-22-3-4-6-7-8-12-1-4 1-12-2-15-2-2-15-7-10-26 1-7 4-11 9-12 5-2 1 1 6-4 5-6 12-8 20-6 7 2 8 6 10 10 7-2 11-4 20 1 13 7 20 21 17 36-2 4-4 8-4 12 0 3 1 7 1 11-2 2-1 0-5 2 0 6-1 5-3 8-4 5 1 4-3 8-5 7-16-3-21 4l-6 14c13 5 25 3 31 14 4 9 17 67 27 91 4 10 8 18 12 28 6 13 17 47 28 55 3 3 35 9 38 8 7-3 4-5 11-8 17-8 14-8 27-15 34-20 45-16 61-46 12-23 19-42 34-62 8-12 11-13 25-17 19-5 22-5 19-19-5-2-15 2-17-4-2-5 1-5 0-9s-4-4 1-7l-4-2 1-7c-5-1-7 0-4-6 1-3 3-7 4-10 4-7 1-5 1-9s3-8 3-12c-1-6-3 0 1-7l-6 3c2-6 4-8 8-9 0-2-2-3 5-7 4-2 2-1 3-3 2-2 3-2 5-3 4-1 8-3 12-4 8 0 23-6 40 5 4 2 7 5 9 8l5 10c11 20-9 42-16 56l-2 2c-3 7 0 9 3 16 3 10 1 14 8 23 11 14 24 17 16 46-9 35-32 74-43 114-3 11-11 54-10 63 3 0 8-4 11-6l33-21c6-6 14-10 21-15l41-32c7-6 14-11 21-17 15-14 28-26 42-43 52-60 90-132 59-211-5-14-16-32-26-44-15-18-13-14-27-28s-45-30-64-38c-35-15-89-23-126-16-21 4-44 12-62 23l-17 11c-13 11-18 12-35 29-4 3-18 16-19 19h-2c0-6-15-42-19-50-2-4-3-8-5-11l-6-12c-16-24-27-41-53-60-49-34-123-51-182-38-41 8-76 25-104 55-9 10-18 23-24 35-19 37-19 86-14 125 1 9 3 19 5 28 10 42 27 87 48 125 2 4 4 8 5 11l19 35c2 4 5 8 7 12l20 34z"/><path class="fil17" d="M1428 1835l4 1v4h4v5l-1 6c-3 0-3 0-5 1-1 0-9 0-11-5 1-3 1-2 4-3l1-1c-5-2-4-1-4-5h4c3-2 1 3 3-3-4 0-3-1-5 0h-3l-1 5h1v5c-3 1-1 2-5 0 0 2 1 1-2 2l-3 1 9 27c8 21 13 67 14 90 2 30 1 68-1 99-1 10-4 27-4 35 2 2 6 7 7 9l21 28 122-61c2-6 4-16 4-22l-4-3c7-34 34-122 35-148-1 1 0 0-2 1l-44 24c-6 3-10 7-17 8-1-3-2-3-3-6l-7 3-4-4c-14 5-43 13-52-9-7-17 2-7-4-18-12-21-19-25-30-45-2-3-7-13-7-17l-4 2v-1h-1l-1-1c-4-2-2 0-3-5v-5l4 1-3-5-3 10h-3z"/><path class="fil4" d="M1129 2315c1-1 5 2 1 0 0 0-3 1-1 0zm-24-6c1-1 3 2 1 1 0 0-3 0-1-1zm29 6c1-1 3 2 1 0 0 0-3 1-1 0zm-32-8l1 1-1-1zm35 7c1 0 3 3 1 1 0 0-3 1-1-1zm-38-9c1 1 1 0 3 1-2 1-2 1-5 1l2-2zm0 0l-1-2 1 2zm-1-2zm17-3zm6 0c2-1-1-2 4-1-2 1 0 1-4 1zm0 0h-2c-3 1-1 1-4 0-2-3-1-2-6-3v-1c6 1 7 2 12 4zm6-1zm-21-5c4 1 1 0 2 2-5-2-1-1-2-2zm0 0c-5-1-2 0-3-2 4 1 2 1 3 2zm4-10zm1-1l-1 1 1-1zm2 0h-2 2zm12-1l5 2-5-1v-1zm-1-8c-2 2 0 0-2 3l-1 1c-1 2 0 1-1 2 1 4-1 2 3 3l-3 1c4 2 2 0 3 3-3 0-2 2-6 4 2-7 5-6-4-8l1-2-1-2c-9-2-12-1-14 8 3 3 3 2 4 5-3 0-5 1-6 3-3 3-1 3 0 6-8-4 5-1-10-5l-4-2-1-2-4 2c0-3 1-1-1-3l-4 2c-1 3 0 3-3 3h-1c0 2-3 3 9 6 0-2-1-4 1-5 0 7 7 9 14 11 6 3 15 7 22 8v-3l9 2c-5-1-5-2-8 0 1 4 1 3 6 4 9 3 15 8 18-5h3l2-1h2l1-2 1-2c1-3 1-3 1-6-4 0-3 1-7 1-3 1-4-2-8 0-3 1-2 3-7 4 3-4 6-3 4-8-3-2-1-1-5-1 4-4 1-3 3-10l-5-2v-1c5 2 5 1 8 1l2-2-4-1c1-3 0-4-1-6-1-4-1-4-2-5-2 2 1 2-4 1z"/><path class="fil4" d="M1058 2292l-2-2 2 2zm-2-2l-1-1 1 1zm-1-1l-1-1 1 1zm-1-1l-1-1 1 1zm-1-1l-1-2 1 2zm12 2c-4-1-1-1-2-2 4 1 2 0 2 2zm-2-2l-2-1 2 1zm-2-1c-2-2-1-1-2-3 2 1 1 0 2 3zm-15-10l6 9c-3-1-6-5-6-9zm-19-3c-3-1-2 0-3-2 3 1 2 0 3 2zm19 3l-1-1 1 1zm-22-5l-2-2 2 2zm21 4zm-23-6l-1-1 1 1zm14 4c-3-2-2-1-3-3 3 1 2 0 3 3zm-12-5zm-3 0l-2-1 2 1zm12 2l-1-1 1 1zm-14-3l-2-1 2 1zm13 2l-2-2 2 2zm-17-5c1-1 3 2 1 0 0 0-3 1-1 0zm15 3l-2-1 2 1zm-9-5c2 2 3 2 3 6-2-1-1-1-3-2l-2-2c3 0 1 1 2-2zm-9 0c1-1 3 2 1 1 0 0-3 0-1-1zm16 4zm-9-2c-5-1-2-1-3-2 5 1 2 0 3 2zm-11-4c2-1 4 3 1 1 0 0-2 0-1-1zm51 23c-6-3-8-11-16-15 4-3 12-1 13 2 1 4-2 1 3 13zm-43-21c-5-1-1 0-3-2 6 2 2 1 3 2zm5 0l-1-1 1 1zm-7-5zm0-3v3-3zm-11-3l2 1-2-1zm25 12c-3-1-4-3-7-4l-1 2c-2-1 0 0-2-2-1-3 0-1 0-4l-1-1c-5-1-2 0-3 0l-2 6c-5-3 0 0-1-6-4 1-5 0-4 4l-2-2c1-4 0-1 2-5-8-4 1-5-1-12-5 3-3 3-6 8 0 0-1 0-1 4 2-1 1 0 2-3l2 3c-3 1-4 1-6 2 2 6 26 21 31 24l-1-4c3 2 4 5 6 7s7 4 10 5l-7-12c6 3 7 17 20 19h2c4 1 5 3 11 4h1l3-3c-2-3-2-1-6-3v-1h-2l12 2c0-5-6-8-4-16l-2-1c-2 3-4 4-7 4 3-3 6-3 8-9s2-10 7-12c0-2 0-1-1-3-2-3-1-2 0-7l-7-1c-3 3-5 2-8 8-4 5-4 7-6 14-3-2-5-3-10-4-4 0-4 1-7 2h-2c1 4 1 3 3 6s2 3 3 6c-8-6-2-6-14-14l-2-1z"/><path class="fil4" d="M1051 2256zm4-1c-2 1-1 1-4 1l-4-3 8 2zm3 0c-1 0 2 1-3 0 1-1-1-1 3 0zm12-13zm-7-1c-2 0 2 1-2 0-2-1 0 0-1-1l3 1zm-12-5zm-9-2zm-8-2c2-1 4 2 1 1 0 0-3 0-1-1zm22 4zm-5 0l-2-2 2 2zm-11-4zm19 4zm-5-2zm-5 0l-1-1 1 1zm-9-2l-1-1 1 1zm22 3zm-8-1l-2-1 2 1zm-6-1l-2-1 2 1zm-9-2l-2-1 2 1zm23 4zm-10-2l-1-1 1 1zm-6-1zm-12-4c1-1 3 2 1 1 0 0-3 0-1-1zm25 8c-4-2-2-1-4-4 4 1 3 1 4 4zm-29-10c5 1 1 0 2 1-5-1-1 0-2-1zm30 6zm-5 0v-1 1zm-4 0c-2-1-1 0-2-3 3 2 1 0 2 3zm-9-4c3 1 2 0 3 2-3-1-2 0-3-2zm13 3l-1-2 1 2zm-6-2l-2-1 2 1zm-7-1l-2-1 2 1zm5 0v-1 1zm22 2l-1-1 1 1zm-1-1v-1 1zm0-1l-1-2 1 2zm-1-2c-2-2-3-4-2-8l1 4c1 2 1 2 1 4zm3 16l-7-1h5l-6-11c-3 0-1 0-2 2l-2-2-2-2c-3 0-1-2-2 1-3-1-1-1-3-2-1 0 0 0-2-1-2 0-1 0-2 1-3-2-4-3-8-4l-2 2c-3-2-4-1-8-2 0 2 0 1 1 3-8-2-8-3-13 1l15 4c-16-3-16-6-19 0l23 4c7 2 15 4 22 6 0 0 0-1 0 0-1 1 0-2-3 1-2 1-1 2-3 5-3 2-5 1-8 4v1c-7 8 1 11 11 13 1-1 2-4 3-5 1-3 1-4 0-5 4-3 3-3 6-6 2-3 4-3 7-3 3-5 1 0 2-1 2-1 1 1 1-2l-1-1v-1c-4-4 0-2-2-7-1-2-2-1-2-4 3 3 0 2 4 3 1-5 0-3-1-6l-1-2-1-1v-1l-1-1-1-1v-3c-3-2-2 0-1-5h-2c-4 7-8 8-3 16 3 4 6 8 8 13z"/><path class="fil4" d="M1045 2213l-2 1 2-1zm1-1l-1 1 1-1zm1 0h-1 1zm1-1l-1 1 1-1zm1-1l-1 1 1-1zm0 0c4-4 4-4 6-12 2 2 2 1 3 4 0 2 1 5 1 6 0 5-3 8-5 10-3-3-1 0-2-4-2-4 0-2-3-4zm-14-26l1 1 1 1c2 2 4 5 4 8 5 6 2 16 0 18l2 2h-2c0 1 0 0-1 1l-3 3 2 2c6 3 1 2 13 6 1 0 1 0 2 1 2 1 1 0 2 1l3 1c0-4-2-5-4-7 13-13 2-23 1-30-3-14-6-14-9-22-1-4-1-5-4-8l-8 16c-1 4 0 1 0 6z"/><path class="fil4" d="M1028 2217c1-1 3 3 1 1 0 0-3 0-1-1zm6 1h-3 3zm-1-5c-5-1-2 0-3-1 5 1 1 0 3 1zm-6-3c1-1 4 2 1 1 0 0-3 0-1-1zm-2-2l2 1-2-1zm0 0l-2-1 2 1zm4 15c1 0 1-1 1 0l4-1c2 0 3 0 5 1v-3l-2-2h-3l2-1v-2h-2c-1-1-1-1-1-2l5 2c1-2 2-2 3-3 1-3 2-7 2-10-1-3-2-4-2-8-2-2-4-4-4-8l-1-1-1-1c-4-3-3-1-11 14-1 2-1 2-2 5-1 2 0 0-1 1-1 5-3 1-5 11l9 4c-12-3-10-4-12 1 3 1 6 1 9 2 2 1 3 1 4 1h3z"/><path class="fil17" d="M1324 1813l26 8c0-10-9-32-12-47l-2-7c-2 8-3 15-6 23-2 8-5 15-6 23z"/><path class="fil4" d="M1116 2267l-1-1 1 1zm-1-1l-1-1 1 1zm-1-1v-1 1zm0-1l-1-2 1 2zm-1-2zm-14-7c-2 3 0 2-3 3-2 4-4 5-6 10 2 2 2 3 2 6 3 1 2 0 3 2 13 3 8-1 17 1 1-7-1-7-8-9l1-1c5 2 6 3 10 4l1-4c3 3 3-1 3-3 0-1-1-1-1-1v-1c0-1 0-1 1-2v-5c-5-1-7-3-11-2-3 1-5 2-9 2zm-75-13zm4 0l7 1-1 1-6-2zm-6-3l-1 2s1 2 2 2h-5c0 6 3 5 9 6v1c-4-1-5-1-8 0 0 5 3 3 5 8-5-2-1-1-4-3s-2-1-3-1l1 1c2 3 0 2 5 4 1 0 1 0 3 1 1 1 1 1 2 3 5 1 10 2 12-6 2-6 0-9-2-11h-1l-2-2c5 0 8-2 9-6l-18-4c-1 4-1 3-4 5zm388-430l2 2h4c3 0 3 1 5-3v-2c5 3-3-3 2 1l1 1c1 2 1-1 0 3-7 0-6 0-12 2l-2-1c-2 5-2 2 0 3h8c1 1-1 3-2 4l6-1c1 3 0 2 3 4l-2 3-1 1c3 0 4 0 6-1 4 0 0-2 6 0 0-1 2-4 1-6 0-5-4-6-5-11l-4-6c-1 3 1 1-1 3l-4-6c-2-2 1-2-1-5-4 0-4 0-5 4-1-4-5-5-7-1 0 1-1 8-1 10l3 2z"/><path class="fil4" d="M1406 1812s-1-2-2 3v6l5 4s0 1 1 1v-8c2 3 1-1 1 3v1c1-4 0-2 3-4 1 3 1 2 1 7 0-2-2 2 0-3 2-3-1 1 2-1 0 1 1 1 0 3v5c1 0 1 0 3 2l2 3v1c2-1 1 0 5 0-2 6 0 1-3 3 1 2-2 1 1 1v1l-1 2c-1 0-1 1 0 1l-1 1c2 3 0 1 3 2 0 1 2 2 2 2 2 0 1-2 4 0-1 4 0 0-2 4 2-1 2-1 5-1l1-6-5-1c1 0 0 3 1-1s-1 1 1-3h-1c-3 1-1-2-3 1 0-1 0-2-1-3l-1 3 1-6h3l3-10c-6-2-2 0-6 0-2 1-3 1-6 1l1-1 2-3c-3-2-2-1-3-4l-6 1c1-1 3-3 2-4h-8c-2-1-2 2 0-3v-3h-3l-1 3zm-127 530c5 1 2 1 3 2l1 1 1 2 2 1v1l1 1c2 2 2 1 1 4 0 2 0 1-1 2-1 2-1 1-2 2v3c5 1 9 1 15 3 3-16-4-29-21-25 0 3-1 1 0 3z"/><path class="fil17" d="M1406 1812l1-3h3l-3-2c0-2 1-9 1-10 2-4 6-3 7 1 1-4 1-4 5-4 2 3-1 3 1 5l4 6c2-2 0 0 1-3-2-2-11-20-11-25l-2 2c-5 8-9 15-9 25-1 9 1 4 2 8z"/><path class="fil4" d="M1412 1833h-2c0-5 0-4 1-5 2 3 2 0 1 5zm-8-12c-1 5 1 0 2 4 0 2-1 3-2 6h2c2-1 1 0 1-1-1 2-1 2-1 3v4s1 0 1 1c2 1 1 0 3 1 3-4 2 2 2-6l4 1c-1 6-2 4-1 7 0 0 1-1 2-1h1l1-5h3v-1l-2-3c-2-2-2-2-3-2v-5c1-2 0-2 0-3-3 2 0-2-2 1-2 5 0 1 0 3 0-5 0-4-1-7-3 2-2 0-3 4v-1c0-4 1 0-1-3v8c-1 0-1-1-1-1l-5-4zm-391 420l2 1-2-1zm3-4c-1 2-2 2-3 4-3 0-2-1-3 0-3 2 0-2 0 1v1l1 2c3 1 2 0 3 3 1 4-2 1 1 4 3-4 2-6 1-9h2c2-2 1-1 3-2l1-2 3-5-6-2c-1 1-1 2-1 2l-2 3z"/><path class="fil4" d="M1016 2237l1-4-7-2c3-5 6-5 10-8l-7-2c-8 15-2 7-4 18 4 0 4-1 7-2zm46-90l2-10v-1c-1 2 0-1 0-1v-3c-4 0-4 1-6 5-2 3-3 5-4 8l8 2zm73 138h2c1-3 2-3 1-7 0-4-1-1-2-5l-2-2-4-1c0 4 1 5 2 8 0 1 0 2 1 3l2 4zm46 45c1 0 1 0 1 1 0 5 0 2-1 3h-1l-1 1h4c1 5 3 4 9 5-1-1-1-1-1-3v-1l-1-1-1-1-1-2c-3-1-3-1-5-4h-2v2zm-113-112v3l1 1 1 1v1l1 1 1 2c3 1 2 2 3 2 3-1 1-2 1-4l-2-1v-1l-1-1-1-1-1-2c0-1-1 2 0-3 0-1-1 1 0-3 0-1 1-3 1-4h-3c-1 5-1 5-1 9zm72 107c7 2 9 3 17 5-1-3-4-7-8-8s-7 1-9 3zm270-486l1 5c1 1 2 1 3 1 4 2 2 1 5 0v-5h-2c-1 0-2 1-2 1-1-3 0-1 1-7l-4-1c0 8 1 2-2 6zm32 0c0-1 1-1 0-2l-4-3c2-2 1-1-1-4l-4-1v5c1 5-1 3 3 5l1 1h1v1l4-2zm-12 13c2-4 1 0 2-4-3-2-2 0-4 0 0 0-2-1-2-2-3-1-1 1-3-2-3 1-3 0-4 3 2 5 10 5 11 5zm-313 420l7 2h1s0-1 1-1h2l1-4-8-2c-3 3-3 1-4 5zm-4 7l1 2 3 2c2-3 3-5 4-8l-4-3-4 2v5zm-106-28c2 2 1 1 5 2 0-4 0-5-1-8l-1-2h-3c0 4 0 2-2 4l2 4zm79-68c-1 2-1 1-2 4 3 2 5 5 9 6-1-3-2-2-3-6h-2c1-3 0-2 3-3h-1v-1h-4z"/><path class="fil4" d="M1091 2184l-1 3c4 2 3 4 7 6l1-2-2-5c-5-1-2-1-3-2h-2zm335 186c-3 3 0 3-3 7 3 0 3 0 7 1 0-5-1-5-4-8zm-16-561v3l2 1c6-2 5-2 12-2 1-4 1-1 0-3l-1-1c-5-4 3 2-2-1v2c-2 4-2 3-5 3h-4l-2-2zm-137 546l-7-1-1 3c4 1 6 1 11 2l-3-4zm151-512c-1 0-1-1 0-1l1-2v-1c-3 0 0 1-1-1h-4c0 4-1 3 4 5z"/><path class="fil4" d="M1096 2186c3 1 3 1 2 5l2 1c1-3 0-3 0-5l-1-3h-3c-3-1 1-1-2 0h-1c4 1 2 0 3 2zm336-346v-4l-4-1-1 6 1-3c1 1 1 2 1 3 2-3 0 0 3-1zm4 5v-5h-3c-2 4 0-1-1 3s0 1-1 1l5 1zm63 528l-2-1-4-1c0 2 0 2 1 3 5 1 2 2 5-1zm-87-540c1-5 1-2-1-5-1 1-1 0-1 5h2zm-407 405l2 1v-6c-1 2-2 2-2 5z"/><path class="fil4" d="M1497 2372l2 1c4 2 2 1 3 0h-1v-1c-2-1-1 0-1-1l-3 1zm-6 3c1 0 1-1 1 0h-1zm-426-248"/><path class="fil18" d="M1868 1689c-24-62-87-152-101-196-15-47 47-31 69-14 55 46 93 134 108 215 4 22 1 32-7 38-22 15-52-2-61-25-4-8-7-15-8-18zm81 93c0 6-1 11-2 17-2 13-5 24-8 33-7 17-16 19-21 17-13-4-17-53-19-60-2-10-4-23-1-32 5-13 55-20 51 25z"/></g></g></svg>