<svg xmlns="http://www.w3.org/2000/svg" width="220.815" height="328.452" viewBox="0 0 4978 7405" shape-rendering="geometricPrecision" text-rendering="geometricPrecision" image-rendering="optimizeQuality" fill-rule="evenodd" clip-rule="evenodd"><defs><clipPath id="id0"><path d="M1847 2354c198 420 526 825 814 1016 218 145 461 145 679 0 288-191 616-596 814-1016 174-368 235-770 164-1148-46-249-146-485-294-681-527-695-1504-701-2038-11-153 198-256 438-303 692-71 378-10 780 164 1148z"/></clipPath><clipPath id="id1"><path d="M300 4162c249 406 629 782 943 945 238 123 486 96 692-76 272-227 561-676 716-1127 136-393 154-810 40-1188-75-248-203-477-376-660-614-650-1610-548-2078 215-134 219-212 475-232 739-30 394 78 796 295 1152z"/></clipPath><clipPath id="id2"><path d="M2233 5031c96 467 325 950 566 1210 183 197 425 256 677 165 333-121 759-445 1058-817 262-324 420-710 442-1105 14-259-29-518-130-750-357-820-1329-1063-2029-504-201 160-361 375-470 616-162 361-198 776-114 1185z"/></clipPath><style>.str0{stroke:#fefefe;stroke-width:21.3021;stroke-linecap:round;stroke-linejoin:round}.fil5{fill:none}.fil4{fill:#fefefe}.fil24{fill:#196713}.fil6{fill:#4f872b}.fil9{fill:#85c95b}.fil7{fill:#d67ee6}.fil22{fill:#d9a727}.fil15{fill:#e68600}.fil0{fill:#e6e6e6}.fil14{fill:#fbdd14}.fil12{fill:#ff9803}.fil16{fill:#ffbd61}.fil18{fill:#ffd059}.fil19{fill:#ffdc85}.fil23{fill:#ffebb8}</style></defs><g id="Слой_x0020_1"><g id="_692185536"><path class="fil0" d="M3013 6418c118 9 180 64 184 127 4 54-37 113-99 158-172 123-529 180-549 239-36 112 731 236 673 463 57-218-751-343-716-461 17-57 403-122 585-246 142-98 129-263-78-280z"/><path d="M2950 3476c-10 70-33 78-83 120-31 27 92 72 130 73 40 1 78-6 60-33-36-53-30-130-32-158-25 1-50 0-75-2z" fill="#e494f2"/><path d="M1847 2354c198 420 526 825 814 1016 218 145 461 145 679 0 288-191 616-596 814-1016 174-368 235-770 164-1148-46-249-146-485-294-681-527-695-1504-701-2038-11-153 198-256 438-303 692-71 378-10 780 164 1148z" fill="#66a240"/><g clip-path="url(#id0)"><path id="1" d="M3655 297c-94-73-198-130-307-170s-223-62-339-63c-275-2-514 82-701 227-187 146-321 353-385 599-71 271 8 526 171 724s412 339 678 382c242 39 613-9 902-163 288-152 495-411 408-792-33-149-89-295-162-424-72-129-162-241-265-320z" fill="#78b851"/><path class="fil4" d="M2474 2493c-16-4-44-17-45-32-3-16 27-31 35-41 51-60 111-163 155-234 16-26 15-26 46-14-7 19-87 123-105 150-27 40-79 111-86 171zm165-797c-7 18-25 22-51 59-30 43-155 157-203 114-10-9-13-26-8-43 20-64 120-85 178-101 27-8 56-24 84-29zm-140 27c-36 18-68 9-106 40-32 25-50 54-53 96-41 0-279-74-307-93 50 3 174 48 249 45-36-16-210-52-261-55-32-2-52-25-63-43-43-64 3-266 77-317 63-44 60-34 130 26 10 9 16 16 26 26l184 188c11 9 17 14 28 23l59 46c14 10 23 10 37 18zm552-26l-46-41c12-9 35-9 44-43 5-18 5-31 20-45 19-19 13 16 17 30 4 13 11 17 15 29-13 11-22 13-32 29-8 12-10 30-18 41zm-112-71c-21 0-42-5-54 4 48 10 62 11 98 36 110 78 72 201 50 307-18 85-34 149-10 237 23 87 87 136 70 192-17-10-4-26-52-75-65-65-134-117-225-155-104-44-249-73-365-79-21-2-42 1-62-1 7-3 61-43 70-51 92-75 120-204 179-288 5-7 7-13 13-20l65-58c72-50 112-40 167-60 9-4 4-1 18 3 2-28-10-49 10-68 13-14 51-20 69-8l-13 2c-7 0-11-1-17 1-18 7-31 34-27 55 3 15 11 17 16 26zm-202 4c5-10 68-65 77-73l38-37c11-12 23-29 37-37l19 39c-47 40-30 49-21 88-61-3-96 12-150 20zm450-131c-16 0-22-1-33 6 13 13 40 9 57 29 15 17 15 48 2 66-24 33-105 27-107-25l15 2c10 17 3 24 23 32 41 17 65-19 54-48-7-19-81-46-63-95 6-16 48-21 52 33zm-285-34c3-6 8-13 13-18 36 5 56 36 64 69l-50-2c-4-14-20-41-27-49zm94-13c25-4 47-15 73-18 6 33 12 49-1 81-9 22-24 44-41 55 7-15 16-24 21-43 3-13 7-39-2-50-12 9-12 46-18 62-4 9-23 46-32 46-9-3-23-18-26-25 16 0 24 1 31-12 21-39-21-77-31-90l26-6zm-450 236c4-23 25-55 39-76 5-9 13-13 20-20 70-65 137-127 239-147 11-2 22-3 32-5 16-3 19-6 29 2l-159 140c-15 12-28 22-42 34-15 12-26 24-41 34-12 7-38 19-51 25-21 9-41 13-66 13zm544-262c12-6 55-27 64-30 3 11 11 17 21 23 29 20 38 26 39 89-13-23-2-52-28-68-20-13-57-14-71 4-15 20-2 59 9 75 18 26 34 17 57 33-29 7-72 6-91-13 3-20 12-30 13-58 2-29-7-33-13-55zm-48-212c57-6 146-15 129 59-18 78-17 89-76 118-30 14-116 51-151 41-34-10-86-69-71-123 8-31 38-53 63-68 30-18 66-22 106-27zm-847-162c-26-69-40-103-5-194 14-35 27-21 39-11 43 41 93 167 99 211-23 2-41-5-63-8-25-3-45 4-70 2zm959 128c8-16 68-57 90-72 84-61 215-131 313-172 85-36 295-103 394-78 21 5 39 15 56 25l46 32c-5 15-37 49-47 59-9 10-17 15-27 25l-171 183c-20 27-116 154-126 177 5-30 68-143 84-170 15-25 36-57 53-75l65-63c-16 8-41 31-55 42-41 32-95 114-124 163-55 94-60 151-84 203-9 18-26 46-32 64-14-6-6-6-18-16-35-30-91-55-134-72-35-14-143-59-180-56-4 10-1 14-7 24 50 7 285 92 304 148-83 27-212-55-279-99-17-11-68-37-75-53l44 2-1-26-68-4c1-20 10-54 19-72 65-8 201 22 230 18-4 0-89-21-106-24-36-7-78-13-118-13l1-41c35-11 34-11 62-28l176-85c-25 0-101 32-126 42l-116 51c-19-29 1-18-43-39zm-913-369c25-20 77-35 115-39 77-8 183 17 247 55 50 30 90 59 136 93l165 137c26 28 88 95 98 128-1 1-66 23-71 24-12-12-22-24-35-37-26-27-85-83-118-98 5 10 1 4 9 11 19 17 50 38 64 58 13 18 55 61 61 77l-38 31c-13-4-33-17-45-23-101-61-205-117-324-144-185-42-142 20-178-91-14-42-31-112-55-145-11-16-22-24-31-37zm1350 76c4-69 22-140 50-191 15-27 51-100 88-93 68 14 68 162 45 226-4 11-6 9-20 12-8 2-14 3-23 6-16 4-33 8-48 13-28 8-65 21-92 27zm-564 299c12-66 95-208 145-269l35-41c62-68 145-135 229-180 50-26 151-74 214-83-8 21-19 40-28 63-17 43-29 96-36 142-15 99 10 64-81 105-96 42-225 116-304 180-51 41-70 73-117 75 10-56 88-128 111-165-34 19-96 102-119 136-18 28-8 35-49 37zm708-619h-38c0 1-97 20-128 30-77 25-147 64-213 107-48 32-71 58-111 89-22 16-43 41-59 62-7 9-12 13-18 20-6 8-12 14-19 23-51 67-77 131-113 208l-25 56c-17-19-29-39-43-58-8-10-14-18-22-28-8-9-17-18-25-28-21-27-86-88-114-111-6-5-8-8-14-13-47-38-96-75-147-108-22-14-43-25-68-36-111-53-211-59-333-15-53 19-84 47-92 110-12 92 7 112 27 176-80 11-143 13-192 60-57 53-48 131 25 158-15-14-30-21-40-41-20-41 21-82 53-102 100-60 236-53 351-35 128 20 260 60 372 119 21 11 93 46 107 57-3 8-7 13-13 20-69-10-163-43-235-24 48 5 84 2 132 13 20 5 38 10 56 17 34 11 41 10 42 37-34 5-76 15-107 28-24 11-69 38-83 53 18-5 57-29 83-38 32-12 69-18 106-19 11 5 12 24 18 34 7 15 17 14 18 32-9 6-47 11-62 15-22 7-40 13-60 21-84 35-203 116-235 204-2 6-2 10-4 16 0 1-1 5-2 7l-3 6c0 1-1 2-1 3-44-8-77-40-108-68-39-37-74-81-112-119-24-24-100-104-119-117-11-8-22-16-34-24-36-27-105-85-141-95 10 31 66 57 70 76-19 15-57 13-98 88-19 34-43 91-50 135-8 50-11 122 13 161 45 72 314 134 398 163 68 24 78 30 144-4 38-20 79-56 103-83-10 37-86 154-110 189-82 117-107 88-179 123-32 16-60 40-71 80-29 109 65 175 146 222 15 8 33 14 45 25 1 0 1 1 2 1l3 4c-40 7-83 21-108 43-23 21-42 65-29 109 26 87 124 109 186 53-25 10-37 19-70 18-78-2-119-100-70-158 29-33 93-39 131-11 56 40 32 77 21 131 28-18 38-68 23-109-2-5-5-12-6-17-9-46 28-12 142 12 113 23 286 22 393-27 13-6 52-26 57-33-41 10-60 30-129 45-54 11-108 15-165 12-88-4-172-24-254-53-12-4-27-4-29-16 8-3 93 30 112 35 130 35 285 37 409-5-19 0-42 8-63 11-111 19-230 12-338-17-20-5-38-11-58-18-19-6-36-14-54-20 5-18 32-55 42-71 15-25 30-47 46-71 82-132 112-134 286-38 24 13 51 26 72 41 23 17 40 38 66 52-5-8 1-1-6-8-73-78-165-126-268-158-56-18-118-35-180-41-45-3-175-4-210 11 92 6 163-14 259 7-5 22-63 99-77 123-47 77-68 156-160 90-38-27-82-54-110-93-27-40-4-46-5-78-9 9-15 11-15 33 0 79 168 178 186 178-37 2-107-46-131-69-9-9-15-19-23-26-25-27-47-74-37-113 11-47 72-67 125-77 154-31 375 26 504 91 67 34 125 78 174 130 13 14 36 44 33 72-9 8-12 10-23 16-10 6-21 11-27 20 23-4 42-18 57-30 77-61-63-148-46-326 4-37 18-112 31-142l54 135c18 44 37 90 50 138 11 39 17 37-4 71-41 67-47 157 40 189 132 48 318-37 430-105 33-20 85-62 115-77-15 31-43 54-13 115 15 32 41 63 91 64 107 4 148-138 96-174 5 23 15 49 8 74-19 71-118 98-164 36-47-65 19-146 92-138 37 4 33 21 52 37-5-26-33-46-64-49-44-3-60 13-89 26 29-25 51-54 79-79 24-21 53-59 70-89 25-42 60-137 8-178-10-9-38-23-56-25 36 24 83 39 57 127-36 122-192 234-294 298-70 43-188 97-282 113-51 9-133 11-168-20-32-29-23-93-3-131 0-2 3-7 4-8 4-7 0-3 7-8l-7 61c36-28 14-150 1-191-28-85-63-170-84-258-12-52 3-119-12-156-8-19-18-17-14-44 6-33 21-58 37-79 33 4 24 15 75 8 22-4 42-18 50-34 12-22 13-45 2-69-9-20-5-54-5-79 16 6 54 32 71 43 64 41 175 105 254 85 54-14 75-78 102-127 29-52 55-102 86-147l73-98c7-11 18-28 27-31 12-3 95 2 110 5 96 17 196 114 115 171-39 27-88 45-122 80-6 6-8 11-12 15 34-4 129-91 173-102-7 22-94 85-117 106-55 51-112 103-163 159-16 17-25 28-44 45-10 9-13 14-22 25-8 8-17 12-25 19-14-19-16-29-37-46-68-53-172-35-212-44-30-7-58-48-106-64-38-13-121-25-135 14 118 4 131-7 213 75 11 10 18 21 28 30l104 126c31 41 74 89 120 112 22 10 59 30 85 30-28-15-70-28-93-51l-36-37c-21-29-45-52-66-81-7-10-7-14-14-22l-49-61c-10-12-23-28-31-42 231-1 219 102 162 107-41 3-62-24-79-38 79 130 175 19 241-56 28-33 58-66 90-95l49-44c9-8 18-14 28-22 57-48 177-99 121-222-38-83-124-129-245-125 8-26 56-61 75-82 71-76 196-139 106-199-84-56-163-54-262-39 4-25 11-47 14-74 6-54 10-142-42-175-12-8-21-8-31-14z"/><path class="fil4" d="M3278 1644c8-28 14-30 13-66-11 7-6 21-25 40l-16 16c-6 6-14 9-18 15 10-4 18-9 25-14 10-8 12-13 25-22-4 27-19 34-26 57 21-6 41-37 53-50l-8 37c10-18 25-57 22-80-1-5 0-3-2-6-10 25-24 64-43 73z"/></g><path class="fil5" d="M1847 2354c198 420 526 825 814 1016 218 145 461 145 679 0 288-191 616-596 814-1016 174-368 235-770 164-1148-46-249-146-485-294-681-527-695-1504-701-2038-11-153 198-256 438-303 692-71 378-10 780 164 1148z"/><path class="fil6" d="M2829 2700c-150-468-493-850-911-1010-77-30-157-52-239-66 2 16 3 32 5 48 71 19 140 45 208 76 152 71 296 173 423 308 173 183 301 412 376 660 13 43 24 87 34 130 25 116 39 235 41 355v43c8 3 17 5 25 7 9-7 18-14 26-21 31-24 61-47 92-68-5-160-33-315-80-462z"/><path class="fil4" d="M1963 2124c-15 0-26-12-26-25 0-43 63-32 51 8-4 10-13 17-25 17zm-43-30c0 13 1 24 12 31-1 6-1 3-4 8 13 1 33 14 55 3l11-9c37-41-18-97-60-61-6 5-14 18-14 28zm8 64h-9c0-14-1-6 2-10 0 0 1-1 1-2h1l2-2c5 4 7 3 7 9 0 4-1 5-4 5zm-15-8c0 23 25 18 25 2 0-17-25-17-25-2z"/><path class="fil6" d="M3111 3263c-760 137-1541-954-1430-2047-68 375-6 773 166 1138 198 420 526 825 814 1016 93 62 191 97 289 106 25 2 50 3 75 2 107-5 214-41 315-108 288-191 616-596 814-1016 102-216 165-443 186-670-93 601-604 1466-1229 1579z"/><path class="fil7" d="M2950 3476c-3 19-8 33-12 46-12 39-51 79-51 79 20 3 63-57 75-75 26-40 10 21 8 35-5 34-9 73-8 73 4 0 18-33 27-69 6-25 7-87 13-33 2 13 4 31 8 46 6 26 18 46 23 57 2 4-6-31-9-68-3-28-2-61 2-64 0-11-1-19-1-25-25 1-50 0-75-2z"/><path d="M2872 3601c4 4 9 8 13 11 39 31 93 50 143 42 6-1 8-2 14-3 3-1-3 6-15 9s-29 3-36 3c-25-2-77-16-107-45-7-6-11-12-12-17z" fill="#f3adff"/><path class="fil7" d="M3373 3347c-367 175-630 87-861-92 50 44 100 83 149 115 93 62 191 97 289 106 25 2 50 3 75 2 107-5 214-41 315-108 11-7 22-15 33-23z"/><path class="fil9" d="M3821 947c-89-128-285-300-343-394-61-99 92-99 151-70 154 74 291 256 369 433 21 49 21 74 5 92-42 47-121 24-155-23-12-17-22-30-27-38zm239 169c2 14 4 28 5 41 2 30 2 58-1 81-6 43-25 52-38 51-33-2-70-114-77-130-10-19-23-48-21-73 4-32 114-76 132 30z"/><path d="M2390 2994c-72-91-192-212-282-353-144-226-270-495-321-706-47-197-5-256 9-208 54 188 152 457 267 690 155 317 327 577 327 577z" fill="#f5baff"/><path d="M3648 2900c72-91 192-213 282-354 144-225 270-495 321-705 47-198 5-256-9-208-54 187-152 457-266 689-156 318-328 578-328 578z" fill="#7dbf54"/><path class="fil9" d="M1790 1012c280-1029 2012-1279 2443 59-75-307-248-606-479-770-211-150-463-239-725-241-616-3-1074 346-1218 855-9 32-16 65-21 97z"/><path class="fil12" d="M1549 5183c-2 72-24 82-70 131-29 31 101 63 139 60 41-3 80-15 58-41-42-50-44-129-50-157-25 4-51 6-77 7z"/><path d="M300 4162c249 406 629 782 943 945 238 123 486 96 692-76 272-227 561-676 716-1127 136-393 154-810 40-1188-75-248-203-477-376-660-614-650-1610-548-2078 215-134 219-212 475-232 739-30 394 78 796 295 1152z" fill="#ffa930"/><g clip-path="url(#id1)"><path id="1" class="fil14" d="M1570 3209c8-6 22-14 37-15 21-1 18 7 21 29 6 43 3 153 3 203 0 27 5 74 2 97-15 12-29 16-53 13-10-40-4-126-5-172-8 4-25 21-38 30-15 10-26 13-44 23l-6 107-23 8c9 14 8 9 26 15l1 50c-13 12-30 19-53 14-17-39-6-145-6-196-1-30-8-185-3-199 10-12 29-17 51-13 10 45 5 137 7 188 22 1 53-45 63-69 18-41 16-67 20-113zm670-117c-14 16-33 94-97 79 0-12 22-23 43-76-18 1-20 7-26 22-26-2 8-4-29-4-8 0-43-5-66 1-26 11 18-13-6 5l-5 3c-9 5 1 0-11 4-18 5-6 5-22 11-17-5-8-7-27-12-7-2-19-5-24-4 8 17 11-4 18 19-41 4-38-6-45-8-6 5-8 9-18 11-4-5-5-5-8-10l-7-11-30 3-10-13h-29c-5 8-4 17-6 11 0-1-1 2-2 3-5-2-10-9-22-9-7 36 1 16 3 37l-15 4v-5c-3-17-3-3-11-17 11-9 5 0 13-12-2 0-41 10-42 5-2-6-15 9-15 9-1 1-1 2-2 2 0 1-1 2-1 2-7 9-7 8-20 10 2-34-2-6 9-19 4-5 5-5 5-13-12-1-4-1-14 5-1 1-2 2-3 2-24 15-40-17-72 23l-22-2-7-19c-9 9-7 9-7 25-15-3-31-11-44 2l-13-8c0-1-1-1-2-2-30 26-51-3-81 24-10-2-5-4-18-9-7-2-6-1-12-3l-9-4c-1-1-2-1-3-2 0 12 0 16-4 23l-25-4c-3 15 1 16-10 24v-2l-3-21c-12 2-11 5-17 6-26 5-3 1-15-2-14-3-13 3-29 3l-22-2c-18 1 9-9-8 1-17 11 2 12-5 27-8-4-4 4-7-10-15 9-30 12-54 12l2-20c-5 7-1 12-7 21-41-33-42-12-51-6-22-5-9-15-40-6-28 7-25 12-30 20-16 1-77-3-86 2-33 21-22 10-36 11-21 0 1-1-17 6-5 2 1 1-8 2-55 10-29-4-48 1-13 4-14 9-39 13-13 2-25 7-40 11-25 8-12 3-38 4-5 11 1 9-7 20l-7-2c-7 11-20 53-28 71-10 21-26 48-33 69 25-3 42-13 71-9 34 3 39 20 56 24 23-20 39-34 60-52 20-17 41-38 79-34l-1 150c66-13 61-84 66-93 10-13 27-16 49-13 8 19 13 293 37 403 21-7 12-2 30-1 13 0 12-5 28-7 10 13 2 10 11 14 3-6 0-12-1-24 0-26 3-11 5-25l11-47 28-1c-1 18-16 46-10 58 22-4 3-1 12-10s27-9 19-47l51 9c30 7 26-6 49-2 0 11-2 12-6 23-14-5 1-1-15-11-9 10-10 11-13 26 9 1 13 3 23 4 34 4 18-18 23-34l40 10c-4 30-11 2-12 26 11-5 25-5 27 10 3 17-12 13-19 27l12 6c14-6 13-24 27-35 13-10 20-3 22-8 1-2 2-1 3-1-11-27-13-3-32-19 10-22 38-15 43-15 9-11 19-16 20-31-16-1-11 3-23 1l-27-3c-106 48-132-81-143-95-20 15-60 65-116 54-49-9-58-68-58-120-1-309 150-329 198-262 42 60-1 168 34 307 12 49 26 93 79 98l5-26c14 4 16 8 26 13-5 10-6 1-11 13 11 8 31 2 42 2 23 1 16 7 11 16-2 4-3 0-3 7l19 7-2-17 21-3c13-23 6-10 27-24-2-21-2-9 6-18 1 0 2-1 2-2l5-6c4-7-1 3 3-5 0-1 1-2 1-3 0 0 0-2 1-2l5 7c3 4-1 2 6 6 1-1 1-4 2-3 5 12-4-5 9-8l6 14c31-16 20 1 78-2-1-25-4-35 15-43 9 10 7 6 15 19 51-5 63 2 53-26 1 0 6-2 6-2 17-10 15-43 18-69 30-13 17-17 36-16l4 28 25 12-25 26c-9 9-2 0-13 6l-2 22c14-10 26-24 37-33 25-19 39 2 49 14 12 2 9 2 16 7 7-16 9-15 9-35 13 1 4 1 21 6 1 0 2 1 3 0 0-1 1 0 2 1-4 18-5 7-15 19-4 5-4 2-4 10-1 16 1 9 4 13 12-6 9-14 20-21 19-13 16-4 27 1 2-23 13-24 26-37-2-16-4-6-8-22 9-15-6 10 5-6 13-17-4 7 1-18 27-2 49 9 55 37-19 8-13 9-41 11-6 17-6 9-6 31-12-3-5-2-18-8 4 10 3 6 8 12 3 3 7 6 8 7 13-5 6-5 19-9 3 8 6 10 10 16 1 0 4-2 4-2 17-5-2 2 18 7 4-8 6-3 10-14 4-8 0-7 4-17 8-17 10-5 25-5l5-27c16 3 6 2 22 11 14 9-3-2 6 3-9 9-13 21-13 37 14-5 0 1 11-7l25-19-2-24c34-7 11 5 35-10l2 5v2l2 10 12-11c1 0 2-1 3-1l23-15c-18-25-26-25-37-67-6-24-6-64-16-83-19 23-34 83-83 107-80 38-79-29-87-87-4 3-12 18-16 24-19 28-43 50-81 51-60 1-62-45-68-85l-6-18c-54 138-143 159-168 81-13-42-8-110-2-156 7-57 1-88 30-98 13-4 25-4 37-2 1 59-45 229 4 263 29-27 87-171 103-223 6-17 7-55 62-45 8 19-32 215 22 255 31-19 85-167 92-206 10-53 45-29 57-25-2 86-22 163 2 245 22-8 53-84 61-104 20-47 34-61 40-122 15-11 33-18 55-11 3 68 0 195 28 258 24 52 49 22 46 44l27-7c-10-11-37-13-44-25 10-5 15-1 27 0s12-4 22-6c-2 16-10 2-11 15 21 10 23-1 35-16 9-12-2-3 11-10 14 4 13 4 18 17l-28 23c-9 11-47 22-29 38 15 11-1-4 19 0 1 0 17 9 20 10 14 6 35-1 41-16-8-19-40-17-23-44 16 6 2 11 22 14 1-17 1-40 8-53 12 5-2-1 7 5l23 13c-3-16-8-13-4-26 5-17 8 2 9-16 2-18-12-5-16-32 14-6 19-2 31 4-2 21-4-1-6 21l20 22c-4 6-12 12-13 19-4 21 3 6 9 23 5 14 2 27 34 27 2-18-2-28-18-20-1-11 2-16 8-23 13-13 10 0 10-26l22-9-1-19c-12-7-15-1-19-16l15-7c9-5-1-6 16-6 5 11-16 39 23 38 20 0 22-5 25-21 9-46-8-30-11-61 19 4 21 7 21 26l17-10c3 12 5 10 7 15l-2 39c12 7 8 5 25 3-3-36-20-2-16-37 1-5 3-14 6-21 7-18-2-7 9-13 5 8 0-3 1 7 1 13-7 10 6 16 13-21-3-36-2-55 0-16 7-11 1-30-3-12-2-5-4-4l-6 7c-4-3-7-7-10-8l-5 1s-2 2-2 3c0-4 0-6-1-10-2-10 1-2-4-7-13 18 5 7-14 21-18 14-7 0-13 25l-17 1c-1 26 9 20-19 18 2 14 16 29-7 31l-1-23c-1-1-3-1-3-2-13-6-32-23-34-28 18-10 18 15 18-18-12-6-12-1-25 3 12-32-6-9-10-36l20-21c10-11 12-7 15-24-21 1-8-2-18 6-13 10 7 2-9 9-11-17 7-10 6-33-1-26 4 22-3-10-1-4-1 0-1-6 2-11 5 5 5-16-14-3-42-6-53 3 4 31 3 1 18 11-6 16-13 10-29 8 1 19 0 33 14 42 8 5 25 16 12 27-12 6 1 1-6 0-12-2-9 2-24-2-3-15 6-18 4-34-2-12-10-17-12-27-8-27 4-39-12-57-18 2-4 3-15 4l-49 4c-1-16-4-12-2-27 1-7 4-11 3-21-15 4-3 5-14 4-1 0-2-1-3-1-19-3-6 8-13 27-7 3 9 4-9 1h-3c-1 0-2-1-2-1-13-8-3-12-16-22-6-4-2-3-9-5-4 11 1-1 1 9v2l-1 5c-9-2-15-2-21-4-17-5 3-3-17-6-24-4-13 2-21 11-9 11 9 0-4 4-11-19 7-9-8-31-7 3-1 0-6 6l-8 10c-6-7-6 8-4-10z"/><path class="fil14" d="M626 3294c-13 54-33 156-85 178-15 7-51 11-34-11 11-15 17-14 28-39 11-27 25-74 31-104-21 3-6-6-31-3-28 4-30 20-44 27l-21 2s-1 1-2 1c4 21 1 1 7 12 2 5 4-8 3 13l-22-11c-6-1-17-5-24-6-1 0-6 7-7 8l-15 19c-28-13-18 7-51 5-18-1-6-4-28-1l-20 2c-1 0-2 1-3 1l5 7c4 2 5 2 10 4 1 11 1 13 3 20-12 5-9-2-14 11l11 14c5 5 5 3 8 12-17 10-37 0-24 26-18-4-9 0-26-2-4-28-10-14-15-41l-3-19c-5-17-8-9-9-28-13 0-20-5-31-5-2 15 4 21 7 32-6 6-6 6-11 12-12-4-5-10-14-14l-3 21c16 6 23 4 37 1 0 26 4 25-15 39 2 12 3 5 5 17-14 0-17-4-20-18-35 8-7 2-27-5-10 15-5 2-9 14l24 10c0 13-4 18-1 27l8 25c20 13 5-2 28 3 13 2 9 8 20 17 18-1 24-13 31 4-12 7-24 3-40 4 3 22 4 7 6 18 8 31-2 23-9 35 10 21 2 30 13 46l12 18s1 2 2 3c22-6 2-4 17-11l-1 23c-24 0-8-7-31-6 0 19 1 18 8 32 9 16 2 2-1 23 33-2 4-15 31-24 8 23-5 34-2 60 3 20-2 54-2 55 29 7 18-14 33-32-4-12-9-15-6-31 13 3-5 2 19 8l20 6c4-9 1-11 2-24 11 3 18 4 25 11-6 13-10-1-15 26l27 4-2-17c4-13 14-14 26-19l11-5c10-3 4 0 9-2 9-3 2 0 10-7 5-4 2-3 9-5 16 25-18 18-13 55 3 24 21 26 39 36-3 7-5 11-9 18 0 1-1 1-2 2 0 1-1 2-1 2 0 1-1 2-1 2-1 1-1 2-2 2-3 7 0 1-3 8-7 22-5 20-28 26-4-8-3-8-6-18-14 4-1 6-22 14-11 0 6 6-6-6-6-6-1-5-9-8-2 8-8 31-9 41l56-4 7 39c1 7 1 12 6 16 7 5 6 3 15 3 3-17-4-15-4-36 17-1 10 1 14-4 2 1 2 2 3 3l4 7c4 7-2 5 5 16-10-136 167-351 261-444 13-14 42-36 49-53-73-102-94 44-172 26 2-33 80-135 94-213-14-5-20-6-34 2-12 8-2 6-11 6l-10-2c-6 9-4 3-6 16-14-4-5-27-23-23-7 1 4 0-10 5z"/><path class="fil4" d="M722 3965c-11 29-54 96-105 82-16-4-48-27-57-38-14-19-20-47-16-76 8-104 117-250 182-323 19-21 64-79 86-88 17 90-35 379-90 443zm-156-647c-6 30-20 77-31 104-11 25-17 24-28 39-17 22 19 18 34 11 52-22 72-124 85-178 14-40 24-93 52-113 48 12 56 58 42 109-14 78-92 180-94 213 78 18 99-128 172-26-7 17-36 39-49 53-94 93-271 308-261 444 4 46 25 69 58 86s79 20 117 8c65-23 103-81 134-148 29-74 45-128 58-209 9-52 22-133 16-186-2-20-10-39-11-55 0-1 49-52 66-56-1 56 0 111 1 166 0 28-8 115-3 138l6 13c15 6 40-2 48-12 10-15 4-163 5-187 31-12 56-31 63-31 13 28 7 249 34 319 25 1 43-1 53-20-24-110-29-384-37-403-22-3-39 0-49 13-5 9 0 80-66 93l1-150c-38-4-59 17-79 34-21 18-37 32-60 52-17-4-22-21-56-24-29-4-46 6-71 9 7-21 23-48 33-69 8-18 21-60 28-71 4-43 11-78-16-107-21-22-63-33-101-18-58 23-73 90-94 159zm665-131l-2 20c24 0 39-3 54-12 8-27 23-160 17-190-40-3-82 19-120 25 6-84 82-508 72-556-59-2-84 56-162 83 0-35 9-134-1-159-21-3-36 3-52 10-5 56 3 122-4 177-4 35-41 24-50 132-5 61 9 271 18 333 22 3 41-1 52-13 10-14 27-437 39-452 6-7 89-54 102-58-9 108-53 413-73 524l-157 49c-14-8-7-14-31-10-15 2-21 5-28 13-13 23-5 70 6 93 22 4 38-5 53-12-1-25-11-34-7-63l288-90c5 40-8 116-14 156zm1033 330c31 10 46 18 75-4 3-22-22 8-46-44-28-63-25-190-28-258-22-7-40 0-55 11-6 61-20 75-40 122-8 20-39 96-61 104-24-82-4-159-2-245-12-4-47-28-57 25-7 39-61 187-92 206-54-40-14-236-22-255-55-10-56 28-62 45-16 52-74 196-103 223-49-34-3-204-4-263-12-2-24-2-37 2-29 10-23 41-30 98-6 46-11 114 2 156 25 78 114 57 168-81l6 18c6 40 8 86 68 85 38-1 62-23 81-51 4-6 12-21 16-24 8 58 7 125 87 87 49-24 64-84 83-107 10 19 10 59 16 83 11 42 19 42 37 67z"/><path class="fil14" d="M797 3920c9 2 5 0 14 4-4 26-14 12-22 36 18-1 29 1 44-5-4-9-2-3-7-10-6-7-5-3-2-21 19 9 0 11 23 10l-2-26c15 2 11 5 20 5 9-1 1 0 7-2l6-3c0 17-2 22 15 26 3-35-17-24-6-59 28-14 33 7 55-12 10 12 9 5 19 13 32 24 18 4 39 15 1-8 2-9 4-14-36-27-22 2-30-22 11-10 7-8 24-8 5 12 1 17 13 22l-2-27c-12-20 2 13-4-5 19-8 9 2 27 2 2-13-1-17 5-28 13 6 5 7 19 16l24-7c-27-70-21-291-34-319-7 0-32 19-63 31-1 24 5 172-5 187-8 10-33 18-48 12l-6-13c-5-23 3-110 3-138-1-55-2-110-1-166-17 4-66 55-66 56 1 16 9 35 11 55 6 53-7 134-16 186-13 81-29 135-58 209z"/><path class="fil4" d="M1666 3727c11 11 31 7 48 6 3 19 6 13-5 27-22-1-41-11-59 3 3 2 4 3 11 5 4 1 10 2 14 2 10 1 15 2 25 4-5 15-9 24-21 29-13 5-33 7-47 5-21-14-7-19 0-45-17 3-21 0-24 22-1 16 1 23 5 33 24 9 34 7 61 2-30 3-46 23-77-7-25-24-33-111-17-127 28-26 85 11 130 11v22l-31 1c-14 4-4-1-13 7zm134-45c59-89 38-50 92-105 14 1 19 5 28 16l46 73c28 62-44 88-48 94 15-8 53-35 33-61-1-1 4-9-26-7-21 1-44 18-59 31l-48-11c10-6 19-11 27-17s18-13 25-23l-10-4h-4l-45 30-11-16zm44-84c-43 39-41 61-58 75-14-7-27-3-41-1-17 1-24 3-29 14-39-13-84-29-128-23-21 14-14 1-27 24-10 34 1 106 16 127 20 31 70 39 106 17 0 23-2 38 4 60 7 30 33 59 38 93 2 14 1 17-2 30l-2 17c0 1 1 4 1 4 0-1 1 2 1 4 44-39-13-117-21-158-13-66 9-123 52-145 77-38 167 32 198 92 12 24 21 43 43 59l-50 8c-20 5-36 8-37 26 16 3 14 0 28-7l78-18c6 0 16 5 24 9 11 5 14 5 18 13 24 55-162 138-186 136-3-12-1-51 4-62 5 6 3 15 11 24 7-5 22-17 29-25-4-5 2-1-8-8-1 0-7-3-8-3 34-21 73-48 116-47 13 0 15 1 18 9 8 18-4 13 14 19 5-27 9-38-22-42-49-6-110 34-151 56l-68 38c-36 22-59 33-60 69 18 4 27 8 48 8-15 19-94 17-43-51 52-70 83-49 96-70l-6-3c-13-4-23 1-36 6-19 8-46 28-58 45-7 9-16 24-23 29h2c-5-7-9-2-13 0 1 62 29 81 81 64l4 5c24 29 86 26 84-47 57-13 173-68 189-127 9-32-5-42-28-50-22-8-39-14-50-29-11-14-47-81-63-91 127-51 10-171 1-192-10-12-24-33-49-14-11 9-23 23-37 33z"/><path class="fil14" d="M544 3933c20 4 9 14 26 12 5 0 20-12 27-15 14 10 2 6 18 12 1-1 2-3 2-3 3 6-1 4 8-12 6-11 4 1 3-16-1-22-1-18 24-19 5 12-3 14 7 25 11 10 16 3 34 3l1 33c-22 3-14 1-27-10 2 10 3 9 8 17 21 2 34-5 47 5 55-64 107-353 90-443-22 9-67 67-86 88-65 73-174 219-182 323z"/><path class="fil4" d="M1351 2894c-9-42 6-96 21-131 63-145 119-48 57 57-12 20-21 30-36 44-12 12-30 35-42 30zm12 33c15-15 36-27 52-41 17-15 31-25 45-43 151-184-52-257-142-76-76 156 16 315 192 174 55-43 56-60 84-90l-5 141c20 3 38-1 54-12l5-100 47-16c-7-5 3 0-8-2l-37-5c0-46 14-140 6-179-19 0-39 2-50 14-11 15-8 149-160 266-46 36-79-14-83-31zm-135 692c-62-56-19-309 33-347 58 9 44 132 40 187-4 58-22 158-73 160zm231 74c1-8 6-16-6-18-53-5-67-49-79-98-35-139 8-247-34-307-48-67-199-47-198 262 0 52 9 111 58 120 56 11 96-39 116-54 11 14 37 143 143 95z"/><path class="fil4" d="M1570 3209c-4 46-2 72-20 113-10 24-41 70-63 69-2-51 3-143-7-188-22-4-41 1-51 13-5 14 2 169 3 199 0 51-11 157 6 196 23 5 40-2 53-14l-1-50c-18-6-17-1-26-15l23-8 6-107c18-10 29-13 44-23 13-9 30-26 38-30 1 46-5 132 5 172 24 3 38-1 53-13 3-23-2-70-2-97 0-50 3-160-3-203-3-22 0-30-21-29-15 1-29 9-37 15z"/><path class="fil14" d="M1228 3619c51-2 69-102 73-160 4-55 18-178-40-187-52 38-95 291-33 347z"/><path class="fil4" d="M1955 2951c-27-7-44-29-53-56-8-29-18-75 16-79 56-7 77 99 37 135zm-60-147c3-56 12-95 24-143-44-1-59 8-67 49-6 31-11 70-12 103-13 241 195 173 191 62-1-35-16-61-40-73-33-17-63-6-96 2zm-110 247c9-38 10-329 7-380-18-4-45-2-54 15-7 13 0 136-55 160 17 14 16 12 25 11 10-1 15-8 27-12l-3 216c21 4 39-3 53-10zm376 589c38-16 69-31 119-33-8 67-21 158-69 176-12-13-18-30 8-35 24-4 12 3 21-6-89-40-42 117 10 23 25-45 47-117 41-170-50-7-110 18-142 39-4 41-6 70-16 109-28-5-65-11-67 24-3 34 34 47 56 25 34-34 31-100 39-152zm25-545c-21 53-43 64-43 76 64 15 83-63 97-79 20-45 42-50 46-61 0-1 0-2 1-3l-2-7c-43-15-82 46-99 74z"/><path class="fil14" d="M2634 3231c17-11 3 2 12-14 13-21 28-13 28-40-23 0-22 7-30 21l-28-2c-1 5-1 10-8 16-18 15-27-1-33 20-4 12 0 12 6 18-13 6-8-4-16 9-10 19 4 12 12 29 3 6 2 9 5 16 15-1 11-3 17-19s1-12 21-14c-6 16-3 1-11 15l-1 21c23-6 4 2 16-16 8-10 9-4 12-17 8-25-1-38-2-43z"/></g><path class="fil5" d="M300 4162c249 406 629 782 943 945 238 123 486 96 692-76 272-227 561-676 716-1127 136-393 154-810 40-1188-75-248-203-477-376-660-614-650-1610-548-2078 215-134 219-212 475-232 739-30 394 78 796 295 1152z"/><path class="fil12" d="M1690 4947C931 5171 13 4147 4 3021c-27 390 80 789 296 1141 249 406 629 782 943 945 102 52 205 77 306 76 26-1 52-3 77-7 109-17 213-65 309-145 272-227 561-676 716-1127 80-230 119-469 115-703-28 623-452 1562-1076 1746z"/><path class="fil15" d="M1549 5183c-1 19-4 34-6 47-9 42-44 87-43 87 20 1 57-66 67-85 22-44 13 21 12 35-1 35-1 76 0 75 4-1 14-36 20-73 3-26-2-90 10-36 3 14 7 31 13 47 9 25 24 44 30 55 2 4-10-30-17-68-6-28-8-62-5-66-2-10-3-19-4-25-25 4-51 6-77 7z"/><path class="fil16" d="M1484 5319c5 3 10 6 15 10 42 26 99 40 150 26 5-2 8-2 14-4 3-1-3 6-15 11-11 4-29 6-36 6-26 1-80-7-114-33-8-6-12-12-14-16z"/><path class="fil15" d="M1966 5004c-354 219-632 158-887 2 56 39 111 73 164 101 102 52 205 77 306 76 26-1 52-3 77-7 109-17 213-65 309-145 10-9 21-18 31-27z"/><path class="fil16" d="M2155 2508c-105-121-324-274-393-363-73-95 83-111 146-88 165 59 324 228 424 400 27 48 30 73 16 93-38 53-121 38-161-6-14-16-26-28-32-36zm262 146c4 14 7 28 10 41 6 30 9 59 8 83-1 44-20 55-33 56-33 1-84-109-93-123-12-20-29-47-29-73 0-33 108-90 137 16zM925 4754c-83-85-219-195-327-329-172-214-330-474-405-683-70-196-34-260-14-213 75 185 206 449 348 673 194 306 398 552 398 552z"/><path class="fil16" d="M93 2800c170-1079 1907-1527 2496-211-111-305-320-590-574-731-232-130-499-193-766-165-628 65-1056 472-1146 1006-6 35-9 68-10 101z"/><path d="M3061 6417c-27 67-51 70-111 100-37 19 74 94 111 104 40 11 80 13 69-19-23-61 2-136 6-165-25-5-50-12-75-20z" fill="#f5c344"/><path class="fil18" d="M2233 5031c96 467 325 950 566 1210 183 197 425 256 677 165 333-121 759-445 1058-817 262-324 420-710 442-1105 14-259-29-518-130-750-357-820-1329-1063-2029-504-201 160-361 375-470 616-162 361-198 776-114 1185z"/><g clip-path="url(#id2)"><path id="1" class="fil19" d="M4632 3446c-175-201-405-351-665-416-613-153-1155 85-1422 557-294 521 99 1140 674 1373 521 211 1707 204 1704-631-1-324-100-664-291-883z"/><path d="M3274 6239c-791-48-1306-1324-931-2388-159 359-193 770-110 1175 96 468 325 951 566 1211 78 84 167 143 262 176 25 8 50 15 75 19 108 22 223 12 340-31 333-121 759-445 1058-816 153-190 271-402 347-623-238 576-956 1316-1607 1277z" fill="#fac746"/><path class="fil4 str0" d="M2946 5346c28 24 21 25 65 50 117 64 349 121 482 133 32 3 61 4 91 2 20 0 43-3 62-7 6-2 15-5 21-5-9 34-1 47-65 53-144 15-404-48-535-104-30-13-61-28-89-45-31-18-50-35-32-77zm560 43c37 10 104 43 133 63 64 44 29 63-33 68-164 12-466-62-609-144-18-11-42-30-46-45-8-36 100-35 121-34 12 1 68 4 76 7 4 9-2 13 4 22 9 14 43 30 58 37 31 13 71 24 105 32 32 6 126 22 157 17 25-5 24-12 34-23zm-328-102c64 24 75 33 150 50 26 6 53 11 80 14 26 4 51 4 74 6 4 9 7 22 6 33-62 21-190-10-257-37-43-16-38-18-69-38 4-11 11-20 16-28zm120-914c26 6 28-4 42-3 10 20-2 5 19 21 33 26 31 13 42 23 11 9-3 16 16 22 7 3 12 4 19 5 9-7 11-12 13-27l13 5c0 16 10 25 24 33 7 5 16 8 25 9 10 2 14-3 22 1-3 10-13 18-23 30-7-2-12-5-19-7-25-7 1 11-49-12-16-8-25-22-47-15-6 2-6 7-9 14-11-1-20-9-26-16-12-12-5-8-20-12-2-1-3-1-4-1-11-5 7-15 3-32-6-2-37-4-45-5-19-1-26 1-42 2 7-7 6-1 11-11 4-8 4-6 11-9 22-10 19 0 24-15zm339-74c24-6 18-4 43-1 13 1 29-2 42-4 34-3 50 15 71 33 19 17 38 35 54 54 9 9 17 19 25 28 15 20 27 40 41 61 35 53 83 200 67 258-9 1-12 0-16 10-6 21 14 48-5 63-6-6-4-16-12-25-9-11-4-11-7-27l-12-3c2-12 3-16-1-26s-3-13-5-22c-41-16-25-1-41 4-8 3-8 4-13 9-14 14-11 9-26 15-3 3 0 26-22 53-5-7-4-18-6-26-19-85 13-87-24-93-2-8-9-22-13-31-8-17-6-14-29-20-53-12-44-24-72-33-12-4-17-17-21-27-5-10-16-23-26-10-12 17 18 60 21 62 18 5 20 4 33-3 5 8 2 7 11 15 6 5 10 8 11 16-5 6-7 7-15 8-6 16-12 15-27 20-43 17-42 7-67 13-9 3-24 7-34 5-7-20 5-29-5-45-5-8-4-8-6-19-2-8-3-12-11-16 4-31-3-21-11-40-6-13-1-35-21-34-8 0-14 6-12 16 1 6 7 10 8 18 3 13-4 9 5 20 8 9 5 10 4 22-3 18-3 11 5 20 2 3 2 17 4 22 4 13 14 22 23 33 11 13-6 26 23 33 18 4 31 1 47 1-21 57-91 76-125 109-29 27-14 22-17 36-2 14-5 12 0 25s-2 8-4 23c-3 24-2 30-26 32-18 1-22 12-37 16-4 13 2 21-2 35-7 1-23 4-28 10 0 8 1 2 2 10-5 6-17 14-23 19-20 15-38 16-62 8-10-3-29-3-32-11-3-7 0-18-6-31-4-9-8-16-10-27s-1-21-2-32c-3-23-18-38-12-62 4-15 10-19 18-26 15-13 5-18 5-28 1-15 4-18 1-33-4-17-10-28-17-42-5-12 15-25 12-47-3-16-12-12-26-16-3-8-1-14-11-20-22-12-39 6-54-1-16-8-12-5-26-3-12 2-13-9-17-15s-10-14-11-19c-3-10 1-11-5-24-7-16-5-3-4-24 0-14 12-15 17-53 1-8 23-30 29-37 10-12 9-5 20-11 7-4 12-8 17-16 7-15 3-11 16-17 7-3 13-6 18-14 28 12 30-2 53-5 11-2 41 2 54 5l4 2c1-1 5 10-10 12 3 15 17 18 34 22 6 13 12 15 25 22 17 9 20 4 27-12 21 3 10 3 22 8 8 4 12 3 22 9 33 21 21 9 42 11 23 2 19 19 40-5 8-10 24-19 13-36-23-8-53-4-64-25-6-10-3-21-14-25-9-4-22-2-29 3-2 10 10 16 1 22-3 3-9 1-11-2-4-6 3-14-19-28-12-8-15-4-24-2-5-8-10-10-18-16-12-7-8-14-16-18-8-3-20 0-26 2-12 2-24-4-29 2-2 4-2 6-6 8-18 6-13 0-31 18-11 12-7 11-22 11-5 0-8 2-12 1-5-2-2-4-13-5l12-29c15-13 44 15 56-12 7-14 0-19-9-26-7-6-10-15-14-22 6-12 22-25 36-20 10 9 14 42 38 32 9-3 12-10 23-11 7-1 8 1 14-2s6-2 14-1c40 4 60 14 88-5 7-4 15-8 19-19-25-11-43-5-63 8-17 10-48 2-62-13 2-13 18-12 29-14 38-7 41-13 64-18 13-2 23 3 37 0 19-2 21 2 40 7 13 4 26 8 40 12 27 9 45 18 69 33zm373 258c31 87 44 219 17 333-18 75-42 130-84 186-38 50-77 80-119 110-74 52-179 83-272 87h-44c0-1-1 0-1-1 23 1 62-8 84-13 78-17 153-55 211-102 181-146 246-385 169-607-9-26-27-69-41-91-23-36-27-46-58-80l-48-47c5-11 21-21 30-22 15 14 35 40 49 56 16 19 29 38 43 60 26 39 47 81 64 131zm-36 248c1-11-3-8 1-23 2-10 0-14-2-21-7-26 12-18 13 4 0 12-15 84-18 100-39 166-172 299-315 356-218 85-477 4-601-194-41-66-70-140-81-219-2-16 4-30 5-47 0-23 3-25 11-45 8-18 3-25-2-42-3-9-8-9-9-17-2-30 21-93 32-120 64-153 191-261 348-301 22-6 60-14 81-15 7 0 14 2 23 2 27-1 26 2 48 5 9 1 12-3 20-2 11 2 13 5 24 2 9-2 13 2 24 4 53 11 40 3 96 27 5 3 41 16 42 17-2 5-3 5-9 7-10 2-52 2-62 1-9-1-14-7-22-11-20-10-83-31-106-34-66-10-84 6-139 18-7 2-16 3-22 5-7 2-10 13-10 21 5 6 5 5 13 8-2 7 0 10-5 12-2 1-10-1-14 0-8 1-13 7-21 10-17-4-13-22-21-32-22-10-73 14-50 47 5 7 34 28 11 32-14 2-38-8-47 1-4 8-3 14-11 23-4 6-5 13-7 23l16 3c-4 10-14 13-22 17-13 5-10 6-18 22-9 19-11-6-42 31-19 21-21 20-27 53-4 20-12 21-14 27-1 4-2 30-1 32 6 10 11 1 10 20 0 19-2 8 9 20 10 12 5 31 33 28 30-3 14 13 46 2 31-10 25 3 33 20 9 4 19 2 25 7 1 7-2 15-4 22-4 8-8 10-10 14-5 11 26 44 19 84-3 13 1 9 1 19-8 13-21 19-26 39-5 19 4 31 8 45 7 24 2 29 5 46s11 26 16 40c3 9-6 40 19 39 10 0 10-4 24 1 30 10 42 9 68-9 7-4 11-8 17-12 11-8 8-7 12-21l22-5c17-31-17-38 37-51 32-8 25-16 33-43 1-7 5-13 6-20-5-5-9-7-6-18 2-4 4-7 4-10 1-9-13-10 23-38 29-22 69-30 91-62 6-8 21-27 24-33 10-26-26-20-51-20-11 0-13-2-13-11 19 1 38-4 56-6 19-3 37-1 52-10l22-12 19-16c21-19-4-27-11-41 9 4 17 10 29 14 11 3 27 3 36 9 11 9 12 28 18 40 3 6 5 7 13 8 9 1 6 2 4 12-2 16 0 33 3 49 10 76 14 57 26 56-2 10-6 23 7 25 9 1 16-10 16-22 0-14-10-14-8-25 1-6 4-9 6-15 3-7 2-10 4-17 8-2 21-12 29-18 5-3 8-7 13-10 30-20 23 37 27 50l12 2c-1 9-2 15 2 21 3 4 11 11 11 15 2 8-2 15 9 18 9 2 16-2 20-7zm-115-574c15 9 69 65 82 81 73 84 129 177 161 293 46 166 22 351-90 500-95 127-221 207-382 231-157 24-327-4-472-74-20-9-39-22-57-30 6-16 21-35 29-47 18 6 37 17 55 25 62 27 122 45 189 61 218 52 455-13 586-195 93-131 111-324 79-466-23-105-76-191-138-268-24-30-46-51-68-76 3-9 19-28 26-35zm-713 928c-1 6-4 8-8 12l-13-5c-3 3-40 63-43 68 15 16 76 39 85 48-2 17-23 10-38 9-50-5-123-12-166 9-21 10-21 13-25 28-10 45-21 55 5 82 45 47 171 88 239 110 34 11 161 41 196 46 74 11 198 33 263 10 11-4 25-9 29-24s7-33 12-49c5-19-2-28-10-38-31-34-101-63-146-81-23-10-33-9-31-25 42-2 59 0 108-5 163-17 312-95 411-227 97-128 136-269 120-426-15-162-99-309-207-424-9-10-60-61-71-65-12 14-23 31-36 45-16 19 4 6-5 26-4 9-10 18-14 27-8-4-16-11-23-16-174-119-406-124-578-11-117 77-202 188-236 330-25 107-18 222 18 320 31 81 82 152 147 210 5 5 14 12 17 16zm26-1214c-5-14 7-56 11-74 5-21 17-75 39-71 11 18-18 61 19 53 11-3 54-10 61-15l-11 49c-8-13-21-7-35-5-9 2-32 4-38 6-11 4-12 22-19 35-5 11-15 25-27 22zm349 30l-59-11 60-255h62l-22 97 45 8 24-100 60 10-68 284c-8-3-53-17-56-21s10-47 11-52c4-18 9-36 13-54l-44-9c-7 11-20 83-26 103zm-243-80c-32 123-233 250-177 2 12-55 39-147 90-175 24-13 67-15 90 12 16 19 22 57 13 93-13 1-50 12-61 11 16-55-15-72-38-35-14 24-51 144-29 157 20 11 41-23 49-43 5-16 0-14 16-16 15-2 33-6 47-6zm736-43l-75 308-55-28 28-118-26-12-56 102c-5-2-48-23-52-28 6-14 25-38 34-52 7-11 31-45 34-54-4-9-10-14-16-33-12-39 1-97 26-121 23-22 45-16 78-1 27 12 54 24 80 37zm-616-59c4-7 16-5 22-6l50-3c16-1 12 0 23-6-6 34-20 85-28 120-6-7-3-10-17-10-22 0-63 5-73 4 3-11-2-9 23-11l30-3c31-2 25-4 40-66 7-30-15-21-48-19h-11c-5 1-8 2-11 0zm-7-17l-9 35c20 2 54-8 75-5l-13 55-76 7-9 41c12 1 32-3 45-4 12-1 35-3 47-2l-14 60c-9 2-29 2-40 3l-79 12c-8 2-32 9-38 8l62-267 155-10-14 59c-12 0-85 5-92 8zm316-47c22 5 48 14 69 22 18 6 47 15 64 23l-17 71-39-15-54 224-53-24 53-220-39-13 16-68zm-9-19l-21-5c-6 1-28-5-36-6-16-2-19 1-23 18-7 26-12 54-19 79l-22-2c3-17 8-35 12-51 3-13 13-39 4-46-6-5-36-4-44-4-19 0-31-4-38 12l-1-1c-1 1-1-8-9-10l-151 9c-16 1-17 6-21 23-5 22-12 60-20 80 7-33-8-74-24-89-28-26-71-23-96-9-50 26-85 113-99 184-8 35-15 79-9 110 18 89 103 47 146 2 12-13 21-24 31-38 11-16 15-28 24-46-3 17-19 65-13 76 5 12 34 0 59-5 23-4 68-10 93-11 28-1 18-1 28-11 4 15 19 12 37 15 13 2 36 11 43 2 9-11 17-82 26-97l20 5c-3 17-23 90-21 100 3 11 44 22 62 28 8 3 13 1 17-7 7-14 19-80 24-101 9-34 17-69 25-103l32 10c0 8-41 175-47 198-6 26 0 24 32 38 44 20 36 29 60-73 11-44 21-89 32-133 10 0 20 7 28 10-7 29-9 57 0 84 3 10 6 14 10 22s-5 15-9 22l-44 67c-14 22-19 30 7 41 10 5 43 26 52 20 3-3 49-86 54-96l8 4c-7 33-15 66-23 99-5 21 2 21 19 30 61 32 51 40 74-56 6-27 58-237 59-247 1-14-16-18-30-24-39-19-87-50-122-38-17 6-20 13-30 20 2-14 14-40 3-48-7-6-101-37-120-43-14-4-12-5-25-3l-4-5zm-1263 730c4 50-9 53-28 93-2 4-4 8-7 11-6-15-10-17-31-19-15-1-29-3-44-3l110-82zm178 138c-19-2-19 7-31 22-5 7-8 8-12 17-2 6-4 15-6 21-2-36 3-127 11-161 16 5 23 30 27 46 3 13 12 42 11 55zm-294-137c33-10 63-16 104-5-4 5-57 45-67 52-6 4-8 5-14 10-4 2-10 7-14 10-3 2-10 8-13 9 12-19 6-21 13-42 7-18 6-25-9-34zm161-33c5-3 6-5 11-8 5 8 3 36-1 47-4 14-13 28-20 41-23 42-32 29-46 41-4 4-8 11-13 15 7-18 18-34 26-52 12-30 6-34 6-60l37-24zm-3 86c8-16 16-30 21-50 6-24 2-48 5-52l74-46c-3 47-5 95-11 142-4 24-6 48-8 72-2 21-1 49-3 68-1-4-12-19-16-23-7-8-12-13-23-18-3-19 3-74-12-88-8-8-18-9-27-5zm153 9c-8 10-2 47-9 65-6-28-14-81-35-95-14-10-9-5-8-25 1-17 5-82 8-91l19 41c29 63 57 80 76 117-9-6-13-14-24-17-10-3-22-1-27 5zm-344-184c23-1 112 3 137 5 37 2 110 6 144 17l-80 52c-12 6-26 18-38 26-20 14-9 15-29 7-14-5-41-5-56-3-8 1-24 4-31 4 5 3 14-5 20-10 18-16 40-10 36-27-1-8-8-14-16-18-21-11-48-5-62-13-9-5-7-13-11-21-1-4-4-8-5-11-4-5-5-4-9-8zm-7-10c4-2 8-3 13-5 15-9 21-20 32-27 14-9 31 4 12-42 15 13 47 28 67 38 12 5 25 13 34 20 7 6 21 20 21 25-11 1-33-2-46-3-42-2-94-3-133-6zm65-79c16 3 27 3 42 9 13 5 26 11 41 11 37-1 20-24 20-35-1-12 2-6-3-16 12 10 21 22 30 33 13 17 58 68 75 84 5 5 12 10 16 15-16-2-32-5-48-7-16-3-31-3-46-5-8-9-12-18-24-28-32-27-87-45-103-61zm76-49c2 12 14 15 17 23 2 6-1 11 1 18 1 5 4 9 2 15-19 10-51-10-73-13-20-3-17-3-34-11-8-4-26-13-34-13-4 19 30 14 34 62-11 8-3 0-23 15-7 6-15 13-22 17-25 17-47 3-55 20 27 13 32 3 47 12 14 9 10 25 17 34 18 23 71 3 82 33-7 7-15 5-22 10-8 4-10 11-21 14-9 2-41 16-41 28 10 5 24 3 26 12 2 6-5 25-6 34-4 26-29 35-27 50 7 3 8-1 14-4 4-1 10-3 15-4 10-2 23 0 35 1 10 1 28-1 36 6s-4 22 1 34c11 0 16-10 23-17 3-2 5-3 8-6 10-11 0-11 21-20 4-1 6-3 9-5 12-7 18-18 30-23 20-9 22 11 23 25 1 18 4 22 2 43-4 31 5 19 21 34 38 34 14 62 39 66 5-11 2-15 5-25 2-6 7-21 10-27s9-11 13-18c21-33 19-1 32 1 6-8 3-11 3-20 1-9 4-18 5-26 3-16 0-34 6-48 19-7 24 6 36 16 19 13 20 29 33 28 5-7 0-7-7-31-3-10-8-18-11-30-6-24-13-41-22-60-6-10-6-16-19-24-29-16 4-20-45-64-5-4-10-7-13-10 10-7 19-12 29-19l30-17c11-6 19-10 33-13 25-5 22 13 38 11 6-3 9-8 8-14-4-6-13-7-20-10-20-8-43 3-59 11-16 9-57 41-63 42 0-17-14-39-23-50-19-21-21-7-43-38-12-17-81-73-101-55zm1865 1368c25 4 64 14 89 9 12-2 15-8 21-11l97 51c-33 4-64 0-95 7-20 5-71 19-88 20 8-5 18-7 24-14 8-7 12-21 7-30-8-14-45-18-55-32zm-6-10c2-11 7-9 1-23l-22-35-16-11c15 1 137 64 144 72-16 19-84 3-107-3zm29-95c20 8 37 14 57 21 22 9 41 6 43-20l17 19c21 24 38 31 67 42l15 89c-4-1-55-28-64-32-44-23-82-46-124-68l-64-30c11-3 19-3 29-7 18-6 14-6 24-14zm181 51c-40-7-55-34-72-55-8-9-18-21-19-37-1-10 0-17-3-24l-9-17c1 2 14 16 18 21 20 24 37 47 73 54l12 58zm36 95c6-17 29-47 41-73 10-21 8-5 40-20 33-16 69-57 95-70-15 32-33 39-44 57-25 43 13 39 21 42 10 4 3 4 16 4-25 11-60 18-87 28-25 8-64 20-82 32zm-134-235c20 0 22-5 31-23 4-6 18-35 20-38 2 6 3 11 5 17l12 50c3 11 5 23 8 33 2 7 7 28 7 33-35-2-67-55-83-72zm187 141c1-3 34-70 39-80l38-81c3 10-3 12 7 37 12 30 3 23 6 39 10 5 23 4 34 5-11 7-19 13-31 22-25 19-59 57-93 58zm-54-150c1 5 1 7 2 12 2 4 3 7 4 11 1 9-2 20 0 28 2 9 14 9 21 6 24-9 33-47 45-57 8-7 14-4 25-3 13 1 15-3 23-6-20 51-82 176-111 223-3 5-6 9-9 14-2 2-3 5-4 7l-6 6c-1-9-22-125-26-141-9-31-2-13 10-33 3-5 8-14 11-20 7-15 10-31 15-47zm-42 71c-4-6-29-115-32-132 5 8 4 11 13 16 20 12 27 23 36 25 8 2 16-2 19-6-1 29-15 81-36 97zm-44-164c-3 3-1 25-5 36-5 11-11 20-15 30-23 48-21 19-49 13-3 10 5 29 9 38 3 6 7 8 9 15s1 14 2 20c2 16 31 69-20 51-19-6-26-6-44-16-25-14-20-2-34 5-9 4-25 11-37 10-16-1-34-11-43 1 3 10 13 9 21 16 5 4 6 6 10 10 2 2 6 4 9 7 5 6 9 15 13 21 5 7 11 12 8 22-6 3-12 1-19 5-1 10 9 9 18 15 7 3 13 8 19 12 15 10 30 14 43 24-2 9-4 17-12 20l-19 9c-22 11-35 6-36 20 5 4 56 5 68 6 23 3 45 4 67 1 15-1 16-4 27-11 13-9 15 1 32 0 22-2 38-13 53-20 5 16 10 61 11 80 0 17-1 34-13 41-4 2-13 6-14 13-1 6 4 11 12 13 4-3 22-21 24-29 11-41-4-79-12-118 24 4 43 2 62-5 12-4 14-10 24-15 7-4 17-6 27-8 26-8 32-15 49-27 10-6 40-23 36-43-12-5-16 5-27 6-8 0-8-3-15-5-8-3-9 0-17-5-3-20 31-46 40-63 16-28 45-38 48-54-19-6-26 22-70 9-2-11-2-17-4-27-3-8-6-15-8-24-5-24 11-44 7-60-7-1-7 0-11 4-8 9-11 22-19 30-16 15-28 1-44 6-25 8-30 66-61 62 0-9 2-19 0-27-2-10-5-11-4-23 2-11 1-17-1-26-1-9 0-19-8-21-9 5-10 22-23 19-6-2-19-14-26-19-15-9-14-9-21-22-5-11-8-22-17-22zm-214-1300c6 0 92 37 100 43 63 40 36 151 0 188-39 40-75 0-93-1l-28 116c-10-4-50-24-57-29l78-317zm328 169l-71 288c-7 0-52-13-58-16 0-14 24-106 31-132l-26-8c-4 4-6 9-9 14-16 33-38 72-53 105l-53-21c4-15 66-107 74-125-11-18-18-29-20-52-5-50 20-153 99-135 34 8 67 14 101 20l-15 62zm-350-129l-65 268c-6 25 3 23 23 34 54 28 49 31 64-31 5-21 9-41 14-61 30 10 44 22 72 8 25-13 30-27 41-43 0-1 1-1 1-1l2-3c1 14 1 22 4 34 3 10 8 23 13 29-5 14-19 35-27 47-10 16-19 32-28 47s-27 37-6 46c12 5 47 22 58 21 8-2 55-101 63-116l7 2-25 105c-7 31-7 27 49 43 31 9 27 4 41-54 23-95 48-191 71-286 10-44 9-35-54-46-49-9-97-33-134 22-3 3-4 5-6 9l-2 4-5 4c2-22-5-47-13-63-17-35-78-52-119-70-30-13-27 1-39 51zm-1286-323c20-1 28-3 41-12 10-7 22-21 28-34 9 4 21 13 31 19 5 3 6 2 7 7l-81 347c16 2 32-1 47 0l-22 92c-23 8-123 6-155 1l26-111c20 5 27 8 47 11l2-5c17-67 33-146 50-217-11 2-33 17-47 12l26-110zm-17 20l-19 78c-10 46 26 23 39 24l-42 181c-57-12-42-33-72 92-4 18-13 37 8 41 34 5 97 5 133 1 29-3 30 0 37-27 29-124 23-93-26-98l76-321c6-27-1-26-23-40-26-15-23-20-40 5-27 39-53 22-62 33-5 6-7 22-9 31z"/><path class="fil4 str0" d="M3971 4178c0-12 32-134 37-156 12-51 24-103 38-154l134 64-16 65c-16-2-64-35-81-37-1 5-13 51-11 55 4 5 36 19 45 25 46 33 42 96 23 143-14 35-36 64-77 44-16-8-32-17-47-25-13-7-33-16-45-24zm5-78l-16 70c-6 23 6 22 45 43 40 22 86 57 123 15 34-38 48-118 28-164-6-12-14-24-28-34-12-10-34-17-43-25l6-24c52 18 77 53 86 15 21-86 22-73-18-92l-95-45c-35-17-29 1-48 82-13 53-27 106-40 159zm-490 908c-3-13-6-23 5-32 18-16-2-33 19-34 25-2 21-12 37-20 3 3 5 8 5 13 0 6-4 7-8 12-25 29-31 73-58 61zm10-75c-2 6-5 11-6 17-2 6-1 12-4 16-7 10-15 7-13 23 1 10 0 22 7 28 8 7 25 4 30 0 12-7 24-38 33-54 5-10 16-17 18-24 2-11-3-21-4-30l-11-2c-4 4-5 7-10 11-22 21-29 11-40 15zm977-798l-8 35c-16-4-27-5-22-24 5-21 12-16 30-11zm0 53c3-15 15-54 15-65-30-8-48-15-57 19-8 33 11 41 42 46zm-547-287c1 4 0 5-2 13-1 5-2 9-3 14-32-10-24-38-12-35 5 1 14 5 17 8zm2 48l14-58c-21-9-48-31-55 12-2 14 2 22 10 30 6 4 24 14 31 16z"/><path class="str0" d="M4056 4084l-12 51c3 1 5 3 8 4 8 5 19 10 22 10s6-1 8-4 4-7 6-10c1-4 2-9 2-13 0-10-2-19-8-24-2-2-8-5-14-8l-12-6zm-19 53l14-58 1-3 3 1c4 1 10 4 16 7s12 7 15 9c8 6 11 18 11 29l-3 15c-2 4-4 8-7 12s-8 7-13 7c-5-1-16-6-25-11l-10-5-2-1v-2zm227-83l-13 57c8 4 16 7 23 8 11 2 19-3 23-24 2-13 0-21-6-28-6-6-15-10-27-13zm-20 58l15-63 1-3 3 1c14 4 25 8 32 16 8 8 11 18 8 33-5 27-15 32-31 29-7-1-16-5-26-9h-1l-2-1 1-3z" fill="#fefefe" fill-rule="nonzero"/></g><path class="fil5" d="M2233 5031c96 467 325 950 566 1210 183 197 425 256 677 165 333-121 759-445 1058-817 262-324 420-710 442-1105 14-259-29-518-130-750-357-820-1329-1063-2029-504-201 160-361 375-470 616-162 361-198 776-114 1185z"/><path class="fil22" d="M3061 6417c-7 19-15 32-22 43-22 36-70 66-70 66 19 8 77-42 92-56 36-34 5 23 0 36-13 34-27 72-25 72 4 0 25-30 43-63 12-23 28-85 21-30-1 14-3 32-3 49 0 27 7 50 9 61 1 5 2-31 7-69 4-29 14-61 18-64 2-10 4-19 5-25-25-5-50-12-75-20z"/><path class="fil18" d="M2954 6523c3 5 6 9 10 14 31 40 80 73 132 76 6 0 9 1 15 1 3 0-4 5-17 5-12 1-30-4-37-6-24-8-73-34-96-70-5-9-7-15-7-20z"/><path class="fil22" d="M3514 6391c-407 86-648-66-836-300 40 56 80 106 121 150 78 84 167 143 262 176 25 8 50 15 75 20 108 21 223 11 340-31 13-5 26-10 38-15z"/><path class="fil23" d="M4542 4105c-57-149-211-368-246-475-37-114 115-76 167-33 135 111 228 325 263 521 9 54 3 79-17 93-53 36-126-6-149-61-8-20-15-35-18-45zm197 227c-1 14-2 29-4 42-5 31-12 59-21 81-16 41-38 45-50 41-32-10-42-130-46-147-5-23-11-54-3-78 12-31 133-49 124 61z"/><path class="fil19" d="M2620 5801c-50-108-140-258-196-421-89-260-150-559-149-781 1-208 57-256 59-205 8 200 41 493 99 752 79 354 187 655 187 655zm1278 210c93-73 242-165 366-284 198-190 389-428 490-626 95-185 67-254 42-209-99 174-263 419-432 623-233 278-466 496-466 496z"/><path class="fil23" d="M2501 3679c528-959 2316-789 2422 650-1-324-100-664-291-883-175-201-405-351-665-416-613-153-1155 85-1422 557-17 31-31 61-44 92z"/><path class="fil0" d="M1549 5183c118 16 180 127 184 252 4 108-37 227-99 316-172 247-529 360-548 478-37 226 730 473 672 927 57-436-750-687-716-923 17-114 403-243 585-492 142-194 129-525-78-558z"/><path class="fil12" d="M2189 4610c0-157 18-313 55-462 24-100 57-198 99-292 1-3 3-6 4-10 66-147 152-284 254-405 20-24 41-47 62-70 4-3 7-7 11-11 28-29 62-61 92-87 4-52-2-128-5-179-5-72-17-141-17-144-25 299-155 416-254 529-132 152-258 343-331 561-73 215-111 460-107 703 48-40 94-85 137-133z"/><path class="fil15" d="M2189 4610c-43 48-89 93-137 133 2 56 7 184-101 275 86-69 200-208 244-264-4-48-6-96-6-144z"/><path class="fil6" d="M3647 2814c-265-10-600 60-755 155 9 63 15 128 17 193 241-164 508-239 768-235 6 1 13 1 19 1 32-32 63-65 94-100-79-14-109-13-143-14z"/><path class="fil24" d="M2725 2846c25 116 39 235 41 355v43l25 7c9-7 18-14 26-21 31-24 61-47 92-68 0-29-2-57-5-85-27 16-52 33-75 50-1-93-21-211-58-338-97-332-312-724-619-881 57 44 111 93 163 148 173 183 301 412 376 660 13 43 24 87 34 130z"/><path class="fil24" d="M3391 2904c-153 21-344 88-487 173 3 28 5 56 5 85 241-164 508-239 768-235 28 1 91 5 114 8-59-36-309-43-400-31zm-600 347c-8-2-17-4-25-7v29c8-8 17-15 25-22z"/></g></g></svg>