<svg xmlns="http://www.w3.org/2000/svg" width="311.746" height="308.486" viewBox="0 0 2465 2440" shape-rendering="geometricPrecision" text-rendering="geometricPrecision" image-rendering="optimizeQuality" fill-rule="evenodd" clip-rule="evenodd"><defs><style>.fil16{fill:#7688a1}.fil1{fill:#014820}.fil6{fill:#023608}.fil11{fill:#02360f}.fil4{fill:#05450d}.fil3{fill:#07360d}.fil2{fill:#085e2e}.fil14{fill:#35692d}.fil15{fill:#3d7335}.fil17{fill:#498241}.fil13{fill:#607a2f}.fil12{fill:#779243}</style></defs><g id="Слой_x0020_1"><g id="_746070928"><path d="M14 1057zm280-121c-43 10-86 19-129 31-8 2-15 15-24 18-17 5-35 10-53 16-20 7-46 22-66 29-23 8-30 16-11 30l2 1c1-2 1-3 1-4 0 1 0 2 5-1 22-15 19-19 25-19l408-142c-10 3-52 2-74 8-30 7-55 27-84 33z" fill="#01b2aa"/><path class="fil1" d="M779 729l6-12c6-10 7-24 12-34 39-71 76-159 117-230 14-26 29-53 45-74 12-16 24-27 35-47 7-17-1-34 6-50 28-67 64-137 94-206 4-9 1-27 5-35 4-9 9-14 20-11 9 0 17-2 21-7 1-2 2-4 2-7 4-26 33 3 42 14 10 14 26 36 42 61 5 7 14 3 18 10 13 22 22 51 29 73 5 15 7 15 18 28l24 27c7 8 27 16 34 24 66 75 127 141 189 215 36 44 73 94 111 140 17 20 26 23 53 27 32 5 78 3 110 8 94 13 200 22 291 37 35 6 67 11 93 23 20 8 40 4 63 2 28-3 57-6 78-3 19 2 35 7 45 17 14 8 13 12 24 4 8-4 15-8 24-9 26-5 41 9 33 36-5 18-24 34-44 49-12 9-12 12-20 24-9 14-17 34-26 48-37 54-77 102-112 151-10 14-19 9-26 26-10 25-16 41-31 66-38 66-84 141-127 209-15 23-34 41-44 61-13 27-14 57-8 100 19 119 45 247 69 373 10 50 34 106 43 155 5 29 5 57 5 82-1 24-4 25 15 42 9 9 19 17 23 26 3 7 0 14-2 22-4 15-14 37-36 32-8-1-5-21-13-22-16-4-32 6-54 4-38-4-84-19-112-25-48-10-65-27-115-36-36-6-79-7-115-14-75-16-153-39-229-56-21-5-23-10-38 3-21 17-38 32-56 43-51 29-81 16-126-9-7-4-15-8-22-10-192 100-383 201-575 301-13 7-25 21-38 31-13 11-26 18-42 10-32-20-1-49-2-73 0-17-10-32-10-49-5-184 3-382 1-567 0-27-6-72-17-97-10-22-25-43-38-65-61-66-150-141-211-207-23-25-18-40-41-65-18-13-6-5-9-7-39-29-84-52-123-83-18-14-83-63-120-101-20-21-27-33-22-45 1-3 3-7 5-11l-9-6c-19-14-12-22 11-30 20-7 46-22 66-29 18-6 36-11 53-16 9-3 16-16 24-18 43-12 86-21 129-31 29-6 54-26 84-33 22-6 64-5 74-8 38-16 49-36 86-51 38-16 89-35 134-49 30-10 57-16 83-27l24-39z"/><path class="fil2" d="M1689 788c-7 37 7 82 31 69 10-6 194-6 341-14 165-9 204-73 132 74-71 143-426 588-453 378-6-47-26-130-48-201-82-259-265-98-543-78-77 6-121-42-127-36-13 10-21 110 44 181 61 67 192 105 281 137 179 65 427 102 502 302 58 154 132 370 205 494v-2c8-32-18-131-58-268-32-113-82-256-52-367l-43-1c9-7 11-3 21-12-6-17-27-16-48-15 10 7 17 4 34 8-8 2-89-4-104-5 9-4 55 0 71 0l-12-9c-3-1-6-1-11-4l80-9c3-19 1-11 8-21 5-7 9-15 13-23l57-101c2-4 2-2 4-6 65-102 95-145 168-239l1-2c13-17 5-7 16-16 9-8 7-11 15-22 26-38 101-122 138-154 13-11 30-20 39-35 9-16 19-28 21-53-10-8-16-1-18-6-24 5-58 18-88 24-19 4-39 7-56 10-14 3-10 10-26 7l-10-3-3 18-16-13c-124 8-498-27-506 13z"/><path class="fil3" d="M991 309c3 25 6 5 25 9 0-14 58-169 84-229 13-31 10-23 4 2l-17 75c0 14 2-2 0 9 0 6-5 9-8 15v2c-1 3-3 13-4 17l-23 114-15-3c6 13 19 19 26 28-12-2-22-9-35-14-2 4-3-2 2 4 1 0 5 3 5 4-4 1-2 0-7 2-7 4-1 1-5 5 7 13 2 25-2 36-16 46-33 78-54 125 0 1-1 3-2 4-33 82-64 164-95 248l-1 3c0 5 1 11 6 18-30-32-65-43-81-64 58-121 132-240 195-360 10-19 12-8 18-22-6-6-2-8-11-11-1 4-61 86-72 104-17 30-131 246-140 270-8 21-13 42-23 57 18-16 20-47 55-15 17 14 37 27 40 34-21 24-106 82-102 104-15-35-37-40-41-87 3-1 40-24 40-24-25 4-63 18-85 25-26 9-49 17-74 27-47 17-96 38-131 65 5 4-3 2 5 2 2 0 5-1 7-2l167-62c17-8 43-19 60-26 3 11 11 25 16 35 7 12 17 16 19 30-21 14-301 93-347 104-17 4-33 8-48 11-31 7-63 18-88 24-62 15-149 17-204 39-13 5-25 9-33 17-6 4-10 23 11 22-11-14-1-16 13-20 47-14 382-34 574-76 57-12 147-18 156-36v-1c8 1 3-6 10 4 2 3 1 3 4 6 4 6 10 13 16 18 12-15 4 11-9-36-10-36 83-84 125-93 17-4 52 34 52 32-19-19-38-39-55-60-21-32 46-51 47-53l8-25c16-34 21 12 49-26 36-50 80-180 103-341 4-31-6-63-2-95 7-44 3-89 10-121l3-42c1-19 9-56 1-76-1-3-3-4-5-6-2-3-5-1-10-3-17 24-51 105-67 137-16 30-57 105-60 142zm1402 421c1 9 8-1 19 8-2 25-12 37-21 53-9 15-26 24-39 35-37 32-112 116-138 154-8 11-6 14-15 22-11 9-3-1-16 16 0 1-1 2-1 2-73 94-103 137-168 239-2 4-2 2-4 6-13 24-74 119-78 145l-80 9c58 27-28 3-48 13 15 1 96 7 104 5-72-17 7-13 14 7-6 5-6 81 0 135 4 44 12 99 26 155 18 68 108 350 106 358-2 10-15 4-47-10-282-129-431-170-482-154-29 9-17 52 2 72 9 11 457 123 510 146 18 8 33 16 52 27 49 28 26 24 64 17 0 8 2 31-16 26 7 6 26-6 35-11 2-8 4-36 2-41-4-10-17-21-24-26 0 1-1 2-1 3l-1 8c-1 5 1 1-1 9-20-36-29-77-40-116-33-121-71-221-101-352-25-111-21-150-33-255-2-2 5-8-16-3 5-2 8-2 12-4 2-1 2-1 5-2 8-4 3-1 8-5l-18-4c8-6 5-1 10-9 21-40 73-117 100-158l131-194c10-14 5-10 21-20 0-8-4-16-3-20 5-11 4 0 16-5 5-3 15-21 21-28l45-59c31-39 67-80 87-119l14-2c15-18 27-12 43-37 18-31 9-31 0-51-25 1-39 0-56 15z"/><path class="fil3" d="M34 1098c25 17 59 47 83 61 7 5 169 101 166 128l18-3-1 16c10 2 18 4 28 0 11-4 15-12 25-6-7 4-7 2-13 10-3 3-7 10-8 15l39-23c-4 11-24 22-32 30 4 5 5 2 12 8 7 5 3 6 12 13 7 6 6 2 13 9l15 14s1 1 1 2c6 8 4 7 13 11 20 11 153 134 199 172 16 18 31 13 26 15-9 4-45 14-66 13-19-2-23-16-35-22l-23-13c20 20 31 36 40 45 7-4 51-5 61-3 21 3 19 10 22 14l34-4c-11 11-17 5-34 14-1 0-2 1-3 1 27 35 54 64 57 92 23 9 34 10 29 13-12 9-114-2-132-68v1c5 19 9 25 10 46 2 38-3 257-4 299-1 58 2 115 0 172-2 35 0 141 14 169 2-3 15-420 16-458 3-44 9-123 5-162 12 3 18 3 32 5 11 1 21 2 31 9 22 0 23 14 46 14 6 3-26 115-37 219-12 110 1 141-36 252-11 32-3 66-18 106-11 29-16 34-14 49 113-121 117-534 153-639 20-8 86-15 12-11 3-1 4-1 7-3 16-14-12-12-22-12-1 0-7 1-14-3 39-9 78-18 117-28-37 7-74 13-111 19-11-15-61-113-65-115 15-23 24-21 50-33 11-5 41-16 45-21-25 7-63 25-79 31-28 10 36-16-15-12-14 1-6-3-24-2l12-12c-15 1-16-1-25-9l-45-40c-2-3-2-2-4-5l-183-159c-1-1-1-1-2-1l-14-11c-1-1-2-1-2-2-18-14-13 0-14-25-54 10-39-1-35-15-23-5-26-7-44-20l-119-77-161-82c-3-1-30-19-28-9 1 6 14 18 19 21zM1139 17c30 56 60 177 95 255 25-1 96 108 182 222 68 88 153 177 181 225 7 11 7 14 20 20l-34 113c21-43 53-68 81-73 45-8 85 29 99 71l16-56c26-14 308-12 416-19l16 13 3-18 10 3c16 3 12-4 26-7 17-3 37-6 56-10 38-8 82-26 104-26-11-9-18 0-19-9l-5 1c-7 5-10-3-39-1-19 2-36 4-54 6-87 10-58-5-78 29 0-22-407-37-416-31-1-1-150-50-165-30-11-19 8 13-3-4-2-4-2-5-5-8-120-149-236-322-357-467-8-9-12-1-19 3 7-33 6-21-10-52-24-45-60-101-80-150-3-9-7-18-20-17-5 1-9 5-1 17z"/><path class="fil1" d="M930 838c-44-51 7-59 25-47 5 3 9 12 8 18-1 7-8 13-9 18-2 6 3 7 4 8 21 20 78 52 66 36 65 40 128-236 140-490 8-154-25-333-24-336-6-8 2-6-12-12 11 14 4 68 4 82l-3 42c-25 119-70 275-114 392-23 60-43 124-67 176-11 26-25 42-38 67s4 26 20 46zm-96 185l19-3-28-35c-6-8-8-11-14-19l-14-24c113 3 76-47 120-96h-9c-42-1-127 56-116 93 18 65 9 7-24 3l1 1c-1 2-279 58-311 68 26 5 360 13 376 12z"/><path class="fil3" d="M623 2402c11 0 194-115 211-124l55-31c34-16 72-45 106-64 72-40 145-84 217-125 8-5 49-32 50 5 1 23 4-126-5-94-15 51-74 79-206 151-160 87-399 218-428 282z"/><path class="fil1" d="M614 2439c16 5 52-23 60-35-46-18-73 77 12-27-6-29-94 70-47-53 15-40 20-65 31-98 2-7 1-5 3-11l21-78c2-11 5-12 5-23 1-10-1-5 1-15 2-8 44-334 49-344 4-7 12-16 1-21-22 0-44-1-66-1-31 110-31 286-44 391-9 77-26 182-27 191-3 25-7 51-3 75 2 10 6 44 4 49zm76-1210c15 24 109 237 110 238 31 28-9 28 56 54 34 14-8 10 34 32 7 3 0 47 24 61 2 1 14 34-7 45-6 4 50 75 66 160 7 35 3 81-9 112-28 74-84 160-102 192-9 17 160-177 178-258 1-6 16-6 37-2 59 10 162 28 176 34 69-87 250-71 251-79 0-4 65-65 119-149 28-42 55-92 78-135 136-260-35 10-313-126-47-23-86-57-121-94-113-120-188-279-373-254-85 11-263 78-204 169z"/><path class="fil4" d="M1282 2094c-10-5-10-53 1-54 7-1 16 5 23 10 21 14 20 24 51 38 16 8 24 25 7 30-6 2-13 1-20 0-21-4-47-16-62-24z"/><path d="M1393 2109c-12-5 13-20 13-28-1-8 2-14-3-24-6-10 81-53 96-60 12-6 11 6 7 14-7 16-14 31-29 42-9 7-16 10-25 20-4 4-51 40-59 36z" fill="#f3adff"/><path class="fil6" d="M1393 2109c-12-5 13-20 13-28-1-8 2-14-3-24-6-10 81-53 96-60 12-6 11 6 7 14-7 16-14 31-29 42-9 7-16 10-25 20-4 4-51 40-59 36zm-87-59c21 14 20 24 51 38 16 8 24 25 7 30-6 2-13 1-20 0-21-4-47-16-62-24-10-5-10-53 1-54 7-1 16 5 23 10zm-46 45l2-1c7 2 15 6 22 10 45 25 75 38 126 9 18-11 35-26 56-43 12-11 16-9 28-6 15-21 27-50 31-83-1-1-1-1-2-1l2-3c4-30-1-77-8-94-3-7-5 3-8 17-1 8-2 22-4 37-1 8-207 144-246-47-1 1-12 3-13 5 5 10-62 91-13 113 52 23 30 80 27 87z"/><path class="fil4" d="M843 1071c19-5 36-9 51-11 185-25 260 134 373 254 35 37 74 71 121 94 261 128 428-102 335 84v-1c18-36 27-54 30-68 17-85-34-203-89-268-54-64-115-75-223-24-110 52-241 58-309 16-36-22-78-69-38-105 12-11-44-63-52-71-8-7-151-150-106-96 151 182 21 27-93 196z"/><path class="fil2" d="M1164 381c-2 38-20 166-43 285-26 140-64 264-163 169-9-8 8-18 5-32 0 17-24 20-8 31 6 4 104 131 106 134 13 24 4-26-1-34-7-12-15-42 8-23 11 9 25 2 27-18 3-33 24-66 52-81 80-44 77-140 79-228 7-298 222 223 260 211 20-8 41-36 22 11-4 10 22 36 41 21 14-11-13 95 24 9 8-19 25-72 8-110-41-94-169-217-277-395-59-96-106-198-163-310 0 1-1 1-1 2-12 16-31-5-41 18-3 7-2 23-4 32 7-15 14-28 19-37 7-10 17-3 23 5 2 3 3 7 4 12 5 39 30 193 23 328z"/><path d="M1502 1886c0 6 1 20 4 5 3-11-2 36 0 35 7-3 18-16 19 2 0-29-6-65-7-93 0-37 21-53 39-81-29 31-50 48-50 50-4 32-36-7-51 5-23 18-21-13-33-2-3 4-6 6-10 7 14 39 65-12 78 26 2 5 13 14 11 46z" fill="#b15fbf"/><path class="fil2" d="M869 2116c-66 74-187 199-241 269 3 3 3 2 7 3 63-69 273-191 416-268 132-72 191-100 206-151-3-36-8-67-11-74-27-7-116-23-169-32-16-3-28-4-34-1-1 2-3 4-4 7-18 69-138 212-170 247zm343-58c-72 41-145 85-217 125-34 19-72 48-106 64l-55 31c-64 35-101 68-124 84-144 104-47 39-37 42 5-3 9-7 14-9l573-300c2-4 2-16 2-32-1-37-42-10-50-5z"/><path class="fil6" d="M1482 1983c14-8 19-18 23-46 6-40 6-72-9-95-25-36-85-43-200 19-22 12-25 18-37 29 14 70 16 133 101 129 49-3 109-29 122-36z"/><path class="fil4" d="M1525 1981c-4 33-16 62-31 83 3 1 6 2 10 3 76 17 154 40 229 56 36 7 79 8 115 14 50 9 67 26 115 36 28 6 74 21 112 25 18 2 33-5 47-5-5-3-13-9-33-20-19-11-34-19-52-27-59-25-452-164-502-153l1-17c-8 8-10 6-11 5z"/><path d="M2007 2082c30 14 43 20 47 12-445-237-237-501-299-733-1-1-5 65-38 139-43 96-121 211-160 254-18 28-39 44-39 81 1 28 7 64 7 93 2 17 2 35 0 49l8-14 10-33c12 11 132 1 464 152z" fill="#d67ee6"/><path class="fil3" d="M1349 253c-7-8-27-16-34-24l-24-27c106 133 228 266 334 400 29 37 35 36 84 42 157 19 317 36 476 54-24-8-52-12-82-18-91-15-197-24-291-37-32-5-78-3-110-8-27-4-36-7-53-27-38-46-75-96-111-140-62-74-123-140-189-215z"/><path d="M1273 174c-7-22-16-51-29-73-4-7-13-3-18-10-16-25-32-47-42-61-5-7-19-22-30-24 3 3 5 7 6 11 2 5 5 11 7 16 38 49 72 102 110 151-1-3-3-6-4-10z" fill="#e087f0"/><path class="fil3" d="M528 1549c-132-151-243-257-343-342l-68-48c-24-14-58-44-83-61-5-3-18-15-19-21-5 12 2 24 22 45 37 38 102 87 120 101 39 31 84 54 123 83 3 2-9-6 9 7 23 25 18 40 41 65 50 54 119 114 176 170l23 13c10 5 14 15 26 20-8-10-17-20-27-32zm18 44c12 19 24 38 33 57 0 1 0 1 1 2v1c2 3 3 7 4 10 6 13 16 24 27 32-10-48-24-75-48-105-8 1-15 2-17 3zM50 1041c2-1 5-3 8-4l-8 4zm-5 1v1l5-2c-2 0-3 1-5 1zm340-124c21-8 42-15 63-22-15 2-51 2-70 7-30 7-55 27-84 33-43 10-86 19-129 31-8 2-15 15-24 18-17 5-35 10-53 16-20 7-46 22-66 29-23 8-30 16-11 30 1-1 2-1 3-2l6-3c2-1 4-3 6-4 6-3 12-6 19-9 2 0 3 0 5-1 5-1 10-3 15-6-2 1-5 2-7 2l14-4c71-29 192-72 313-115z"/><path class="fil2" d="M713 793c4 47 26 52 41 87-4-22 81-80 102-104-3-7-23-20-40-34-35-32-37-1-55 15l-6 11c-1 0-2 1-2 1s-37 23-40 24z"/><path class="fil2" d="M1027 335c-1 1-1-1 0 0zM794 719c16 21 51 32 81 64-5-7-6-13-6-18l1-3c31-84 62-166 95-248 1-1 2-3 2-4 21-47 38-79 54-125 4-11 9-23 2-36 4-4-2-1 5-5 5-2 3-1 7-2 0-1-4-4-5-4-1-2-2-3-3-3 1 0 1-1 1-1 13 5 23 12 35 14-7-9-20-15-26-28l15 3 23-114c1-4 3-14 4-17v-2c3-6 8-9 8-15 2-11 0 5 0-9l17-75c6-25 9-33-4-2-26 60-84 215-84 229-10-2-16 3-19 4-1 1-1 2-1 4 9 3 5 5 11 11-6 14-8 3-18 22-63 120-137 239-195 360z"/><path d="M718 833c-5-10-13-24-16-35-17 7-43 18-60 26l-167 62c-2 1-5 2-7 2h-1c-5 2-9 4-15 7-1 0-2 0-4 1l-63 22c-121 43-242 86-313 115l-14 4 7-2c55-16 132-19 189-33 25-6 57-17 88-24 15-3 31-7 48-11 46-11 326-90 347-104-2-14-12-18-19-30z" fill="#fadeff"/><path class="fil11" d="M799 1466c-9-21-95-215-109-237-49-76 65-134 153-158l9-12c-39-9-72-14-127 20-61 38-71 99-140 149-30 21-56 25-76 26-11 1-26 6-42 15-25 60 122 33 178 42 49 8 37 37 11 55-38 26-108 41-113 44-1 1-2 1-3 2l77 66c2 3 2 2 4 5l45 40c9 8 10 10 25 9l-12 12c18-1 10 3 24 2 51-4-13 22 15 12 16-6 54-24 79-31-4 5-34 16-45 21-26 12-35 10-50 33 2 1 15 26 30 53 54-13 141-47 156-82-27-15-16-17-18-22-8-3-18-6-30-9-33-10-71-29-41-55z"/><path class="fil11" d="M690 1229c14 22 100 216 109 237 5-4 11-8 18-12 46-26 108 19 169 26 37 5 73-4 105-50 31-44 1-96-39-103-33-7-169-31-181-58-25-54 87-66 167-85 13-3 27-6 42-10 18-4 36-9 55-13-34-37-71-68-115-86-10-4-20-8-31-11-20 8-40 10-61 9-22-1-40-5-56-9-9 2-19 4-29 7-88 24-202 82-153 158zm404-187c-40 36 2 83 38 105 6 3 12 7 19 9 33-8 65-18 90-27 62-22 77-46 83-63 4-13-4-33-21-47-9-7-20-14-30-21-39 8-80 15-124 18-29 2-54-3-73-11 13 16 24 32 18 37z"/><path class="fil11" d="M1132 1147c-36-22-78-69-38-105 6-5-5-21-18-37l-14-14c-2 2-3 4-5 6-4 5-7 10-10 14-2 5-5 11-11 18-1 2-3 3-4 5-6 6-11 11-17 16-8 6-17 11-26 14 11 3 21 7 31 11 44 18 81 49 115 86 5-2 11-3 16-5-7-2-13-6-19-9z"/><path class="fil11" d="M1076 1005c19 8 44 13 73 11 44-3 85-10 124-18-15-10-29-22-33-41-6-24-16-40-28-48-40-26-105 24-146 76-1 2-3 4-4 6l14 14zm-358 553c-28 10 36-16-15-12-14 1-6-3-24-2l12-12c-15 1-16-1-25-9l-45-40c-2-3-2-2-4-5l-77-66c-40 22-62 58 12 74 8 2 186 10 66 94-5 4-9 7-12 9 0 0 0 1 1 1 21 3 19 10 22 14l34-4c-11 11-17 5-34 14-1 0-2 1-3 1 8 10 15 19 22 28 22 0 43-2 56-3 7-1 17-3 28-6-15-27-28-52-30-53 15-23 24-21 50-33 11-5 41-16 45-21-25 7-63 25-79 31z"/><path class="fil11" d="M663 1600l-34 4c-3-4-1-11-22-14l-1-1c-16 13-22 23-23 31 3 3 5 7 7 11 11 8 34 11 58 12-7-9-14-18-22-28 1 0 2-1 3-1 17-9 23-3 34-14z"/><path class="fil12" d="M509 1254c20-1 46-5 76-26 69-50 79-111 140-149 55-34 88-29 127-20 63-84 128-75 147-84-39-3-95 3-146 9-5 1-14 1-27 2l27 34-19 3c-16 1-350-7-376-12-51 7-103 13-153 18 30 5 49 12 50 25 4 57-132 54-212 83l61 31 119 77c18 13 21 15 44 20-4 14-19 25 35 15 1 24-3 12 13 24 17-14 35-26 52-35 16-9 31-14 42-15z"/><path class="fil13" d="M458 1011c26 5 360 13 376 12l19-3-27-34c-40 2-109 3-145-13-5-2-10-5-14-8-83 18-190 40-209 46z"/><path class="fil13" d="M458 1011c19-6 126-28 209-46-12-10-15-24 0-44 8-12 56-34 82-51-14-27-32-35-36-77 3-1 40-24 40-24-25 4-63 18-85 25-26 9-49 17-74 27-47 17-96 38-131 65l2 2h2l8-2 167-62c17-8 43-19 60-26 3 11 11 25 16 35 7 12 17 16 19 30-21 14-301 93-347 104-17 4-33 8-48 11-31 7-63 18-88 24-27 7-60 11-92 15-8 1-15 2-23 3 60 3 124 3 166 9 50-5 102-11 153-18z"/><path class="fil12" d="M162 1017zm228-50c46-11 326-90 347-104-2-14-12-18-19-30-5-10-13-24-16-35-17 7-43 18-60 26l-167 62c-2 1-5 2-7 2h-1c-5 2-9 4-15 7-1 0-2 0-4 1l-63 22c-103 37-206 73-278 101 10 0 21 1 32 1 7-1 15-2 23-3 32-4 65-8 92-15 25-6 57-17 88-24 15-3 31-7 48-11z"/><path class="fil12" d="M713 793c4 42 22 50 36 77 5-3 8-6 11-9 18-16 8-28 13-41 5-12 24-26 33-37 18-22-1-39-13-55-15-1-19 17-32 29l-6 11c-1 0-2 1-2 1s-37 23-40 24z"/><path class="fil13" d="M784 700c-8 21-13 42-23 57 13-12 17-30 32-29-3-4-6-8-7-12-2-6-1-11 6-17 3-3 8-6 15-9 0 0 1-1 2-1 21-43 45-87 69-130-8 3-15 5-22 7-2 1-4 1-5 2-32 60-63 120-67 132zm-461 545l-119-77-61-31c-13 5-24 11-33 18 2 1 4 3 7 4 7 5 169 101 166 128l18-3-1 16c10 2 18 4 28 0 11-4 15-12 25-6-7 4-7 2-13 10-3 3-7 10-8 15l39-23c-4 11-24 22-32 30 4 5 5 2 12 8 7 5 3 6 12 13 2 1 3 2 4 3 14-16 30-31 48-46-16-12-12 0-13-24-54 10-39-1-35-15-23-5-26-7-44-20z"/><path class="fil12" d="M328 1300c-10 4-18 2-28 0l1-16-18 3c3-27-159-123-166-128l68 48c53 45 110 97 171 158 3-5 7-10 11-15-1-1-2-2-4-3-9-7-5-8-12-13-7-6-8-3-12-8 8-8 28-19 32-30l-39 23c1-5 5-12 8-15 6-8 6-6 13-10-10-6-14 2-25 6zm481-611c23-9 59 0 86 7 21-55 41-110 63-165-27 9-54 19-80 28-24 43-48 87-69 130z"/><path class="fil13" d="M958 531c-22 55-42 110-63 165 1 0 3 1 5 1 16 5 32 14 51 23 22-51 42-113 64-171l15-42c-23 7-47 15-72 24z"/><path class="fil13" d="M1015 549c-22 58-42 120-64 171 7 3 16 7 25 9 22 7 49 10 85 4 16-3 32-6 48-10 5-19 9-38 12-57 11-59 22-121 29-173-13-5-30-5-50-3-21 3-45 9-70 17l-15 42z"/><path class="fil12" d="M1150 493c-7 52-18 114-29 173-3 19-7 38-12 57l9-3c34-9 70-22 103-36 4-32 5-66 5-100 1-14 1-27 3-38-28 1-50-1-52-18-2-16-10-27-22-33-1-1-3-1-5-2z"/><path class="fil12" d="M1229 546c-2 11-2 24-3 38 0 34-1 68-5 100 67-28 122-62 132-88-11-18-22-34-33-49-26-6-62-2-91-1z"/><path class="fil13" d="M1320 547c11 15 22 31 33 49 1-3 2-6 2-8-1-24-15-36-35-41z"/><path class="fil14" d="M1664 1155c-51-59-107-74-203-33-10 18-26 33-66 36-125 9-135 51-130 111 2 15 4 31 6 48 34 36 72 68 117 91 29 14 57 24 83 30 24-5 58-4 75 11 62 2 112-12 147-22 26-8 44-14 52-10 8-34 9-57 10-56-2-11-3-22-6-33-2-11-5-22-9-33-17-53-46-104-76-140z"/><path class="fil15" d="M1692 1094c22 71 42 154 48 201 4 11 7 22 9 33 20 40 68 24 125-20 18-43 61-94 60-132-3-81 56-86 81-72 10 5 13 28 18 42 36-43 70-87 97-127-19-34-66-46-86-52-38-9-94-38-61-88 7-10 18-21 29-34-136 6-283 7-292 12-24 13-38-32-31-69 1-3 3-5 7-7-5-2-10-3-15-3l-33 6c-23 10-48 33-65 68l18-61c-5 1-10 1-16 2-3 19-9 35-12 43-8 17-12 26-15 31 50-2 109-8 112 38 7 91 96 53 159 70 46 11 80 37 45 73-40 44-132 46-188 29 2 5 4 11 6 17z"/><path class="fil16" d="M1734 1454c-4 14-10 30-17 46-6 12-12 25-18 38-4 8-9 16-13 24 12 9 19 20 18 33-1 23-16 59-60 74-8 3-17 5-25 7-1 1-2 1-3 1-23 33-44 61-59 77-6 9-12 16-18 24-11 15-20 30-21 53 54 18 139 1 171-26 31-24 51-48 75-51-14-92 3-184 4-273 0-41-3-81-13-120-1-1-2 22-10 56-3 11-6 24-11 37z"/><path class="fil14" d="M1745 1417c-8-4-26 2-52 10 26-8 44-14 52-10zm-46 121c6-13 12-26 18-38 7-16 13-32 17-46 5-13 8-26 11-37-8-4-26 2-52 10-35 10-85 24-147 22 10 8 15 21 10 39-8 29 88 42 130 74 4-8 9-16 13-24z"/><path class="fil16" d="M1755 1361c10 39 13 79 13 120 35 32 63 71 81 119 22 58 46 124 72 192 12-5 25-12 38-20-5-16-8-29-11-38-14-56-22-111-26-155-4-42-5-98-3-123h-18c9-7 11-3 21-12-3-8-15-13-27-15-5-1-10-1-16 0 4 1 12 4 29 8-8 2-89-4-104-5 7-4 23-3 38-2 11 1 22 2 30 2 2-2-3-5-20-13l80-9c3-17 1-12 6-18-76-13-81-45-64-84-57 44-105 60-125 20 2 7 3 15 4 23 1 3 1 6 2 10z"/><path class="fil14" d="M1768 1481c-1 89-18 181-4 273-14-92 3-184 4-273zm-69 57zm222 254c-26-68-50-134-72-192-18-48-46-87-81-119 0-41-3-81-13-120-1-1-2 22-10 56-3 11-6 24-11 37-4 14-10 30-17 46-6 12-12 25-18 38-4 8-9 16-13 24 12 9 19 20 18 33-1 23-16 59-60 74-8 3-17 5-25 7-1 1-2 1-3 1-23 33-44 61-59 77-6 9-12 16-18 24-11 15-20 30-21 53 54 18 139 1 171-26 31-24 51-48 75-51 14-2 29 3 48 18 40 31 75 32 109 20z"/><path class="fil14" d="M1557 1754c15-16 36-44 59-77-72 19-161 32-144 109 3 12 9 22 18 30 9 2 16 2 17-12 0-2 21-19 50-50z"/><path class="fil15" d="M1753 1351c1 3 1 6 2 10-1-4-1-7-2-10zm206 421c6-4 12-8 19-12 12-9 25-18 39-27-4-14-7-28-11-43-25-111-21-150-33-255-2-2 5-8-16-3 5-2 8-2 12-4 2-1 2-1 5-2 8-4 3-1 8-5l-18-4c8-6 5-1 10-9l6-12h-5c-13-1-26-2-37-4-3 7-5 14-6 18 3-17 1-12 6-18-76-13-81-45-64-84-57 44-105 60-125 20 2 7 3 15 4 23 1 3 1 6 2 10 10 39 13 79 13 120 35 32 63 71 81 119 22 58 46 124 72 192 12-5 25-12 38-20zm-107-353zm-10 11c11 1 22 2 30 2-3 1-16 0-30-2zm80 14c-1 1-2 5-3 12h-18c9-7 11-3 21-12zm-43-15c-5-3 5-3 16 0-5-1-10-1-16 0z"/><path class="fil14" d="M1973 1435c12 105 8 144 33 255 4 15 7 29 11 43 14-10 29-19 45-27 1 0 2-1 3-1-15-75-29-150-40-221-6-39-5-67 5-92-15 3-32 5-50 4l-6 12c-5 8-2 3-10 9l18 4c-5 4 0 1-8 5-3 1-3 1-5 2-4 2-7 2-12 4 21-5 14 1 16 3z"/><path class="fil15" d="M1121 1654c71-6 124-41 328-207 5-4 12-7 22-9-26-6-54-16-83-30-45-23-83-55-117-91 1 12 1 25 1 37 0 167-206 152-286 126-61-7-123-52-169-26-7 4-13 8-18 12l1 1c31 28-9 28 56 54 10 4 13 7 14 9 16 5 23 11 19 21l-1 1c1 0 2 0 2 1 7 3 0 47 24 61 2 1 14 34-7 45-6 4 50 75 66 160 0 1 1 2 1 3 4-3 8-6 13-9 34-21 12-54-32-77-18-10-23-24-18-37 22-60 112-38 184-45z"/><path class="fil15" d="M907 1659c21-11 9-44 7-45-24-14-17-58-24-61 0-1-1-1-2-1-15 35-102 69-156 82 14 27 29 55 35 62l111-19-117 28c7 4 13 3 14 3 10 0 38-2 22 12-3 2-4 2-7 3 74-4 8 3-12 11-9 26-16 70-23 124 168 107 129 29 219-36l-1-3c-16-85-72-156-66-160z"/><path class="fil14" d="M767 1696c-6-7-21-35-35-62-11 3-21 5-28 6-13 1-34 3-56 3 18 23 33 44 35 64 23 9 34 10 29 13-8 6-64 3-101-25-11-8-21-19-27-32l-3-6c5 16 8 22 9 42 1 17 1 67 0 122l6-3c9-3 16-6 24-9 2-34 3-68 1-90 12 3 18 3 32 5 11 1 21 2 31 9l66 1c11 5 3 14-1 21-2 3-7 41-14 90 7 4 14 9 20 13 7-54 14-98 23-124 20-8 86-15 12-11 3-1 4-1 7-3 16-14-12-12-22-12-1 0-7 1-14-3l117-28-111 19z"/><path class="fil14" d="M593 1637c7 16 13 35 18 58 37 28 93 31 101 25 5-3-6-4-29-13-2-20-17-41-35-64-10-1-21-1-30-3-8 0-17-1-25-3z"/><path class="fil15" d="M611 1695c-5-23-11-42-18-58-8-1-16-3-24-5 4 6 7 12 10 18 0 1 0 1 1 2v1c2 3 3 7 4 10 6 13 16 24 27 32z"/><path class="fil14" d="M653 1724c-14-2-20-2-32-5 2 22 1 56-1 90 15-5 29-9 48-3 4-26 9-51 16-73-10-7-20-8-31-9z"/><path class="fil15" d="M684 1733c-7 22-12 47-16 73 12 3 24 9 40 20 2 2 5 3 7 5 7 5 14 9 20 14 7-49 12-87 14-90 4-7 12-16 1-21l-66-1zm115-267c-30 26 8 45 41 55 12 3 22 6 30 9-1-2-4-5-14-9-65-26-25-26-56-54l-1-1z"/><path class="fil11" d="M870 1530c2 5-9 7 18 22l1-1c4-10-3-16-19-21z"/><path class="fil14" d="M1507 1804c-1 14-8 14-17 12 2 1 4 3 6 4 6 5 14 8 22 11 1-23 10-38 21-53 6-8 12-15 18-24-29 31-50 48-50 50zm473 38c11 35 23 74 34 111 5-1 11-1 18-1 15 0 33-1 49 1-15-49-30-97-45-147-14 7-27 14-38 22-7 5-13 9-18 14z"/><path class="fil15" d="M2014 1953c-11-37-23-76-34-111-12 10-21 21-28 31 10 27 21 54 32 80h30z"/><path class="fil15" d="M1952 1873c-27 38-21 74 32 80-11-26-22-53-32-80z"/><path class="fil14" d="M2036 1806c15 50 30 98 45 147 22 2 41 8 47 20-11-38-26-79-34-116-4-23-9-45-13-68-16 5-31 10-45 17zm81 203c-4 5-9 9-15 14 1 6 3 12 5 19 11 39 20 80 40 116 2-8 0-4 1-9l1-8c0-1 1-2 1-3 7 5 20 16 24 26 1 4 1 22-1 33 2-4 4-9 5-13 2-8 5-15 2-22-4-9-14-17-23-26-19-17-16-18-15-42 0-25 0-53-5-82-2-11-5-22-8-34 1 8-2 18-12 31z"/><path class="fil14" d="M2007 2082c-8-3-15-7-23-10 8 3 15 7 23 10zm100-40l-5-19c-13 8-29 16-49 24-3 1-6 2-9 4 7 24 11 39 10 41v2c-18-10-35-19-50-29-7 2-13 5-20 7-24 8-50 17-75 26 61 22 110 40 128 48s33 16 52 27c20 11 28 17 33 20 3 2 5 3 10 2 4-1 9-3 21-5 0 7 1 25-10 27-2 0-4 0-6-1 2 2 6 2 10 1 6-2 13-5 19-8 2-2 4-3 6-4 0-2 1-4 1-8 2-11 2-29 1-33-4-10-17-21-24-26 0 1-1 2-1 3l-1 8c-1 5 1 1-1 9-20-36-29-77-40-116z"/><path class="fil14" d="M2095 2176l-6-3c2 0 3 1 5 2 0 0 0 1 1 1zm-75-37c-24-9-64-24-111-41-5 2-9 4-14 6-24 9-48 19-70 30 8 1 15 2 23 3 50 9 67 26 115 36 28 6 74 21 112 25 18 2 33-5 47-5-5-3-12-8-27-17-1 0-1-1-1-1-2-1-3-2-5-2-3-2-7-4-10-6-9-5-17-9-26-13-7-4-15-8-23-11-3-1-6-3-10-4z"/><path class="fil15" d="M2004 2065c15 10 32 19 50 29-7-12-15-25-22-39-9 3-19 7-28 10z"/><path class="fil15" d="M2032 2055c7 14 15 27 22 39l-10-43c-4 1-8 3-12 4z"/><path class="fil14" d="M2153 2190c-12 2-17 4-21 5 5 4 3 20 10 21l1 1c4-1 6-4 8-7 2-7 2-15 2-20z"/><path class="fil6" d="M1184 1638c-90 58-122 177 35 139 156-38 142 21 76 84h1v-1c3-1 6-2 8-4 45-23 81-36 110-40 0-1 0-1-1-2 4-1 7-3 10-7 12-11 10 20 33 2 8-7 23 3 34 7-9-8-15-18-18-30-17-77 72-90 144-109 19-29 40-62 59-96 4-6 7-13 11-19-42-32-138-45-130-74 5-18 0-31-10-39-23-1-48-4-75-11-10 2-17 5-22 9-115 93-182 145-231 174-12 7-24 13-34 17zm334 197c1 28 7 64 7 93 2 17 2 35 0 49l8-14 10-33c12 11 127 1 441 142 7-2 13-5 20-7-167-101-223-206-240-311-3 0-6 1-9 2-20 7-39 28-65 49h-1c-32 27-117 44-171 26v4z"/><path class="fil6" d="M1984 2072c-314-141-429-131-441-142l-10 33-8 14-2 3c1 0 1 0 2 1s3 3 11-5l-1 17c35-8 235 57 374 105 25-9 51-18 75-26z"/><path class="fil4" d="M1477 2053c15-11 22-26 29-42 4-8 5-20-7-14-15 7-102 50-96 60 5 10 2 16 3 24 0 8-25 23-13 28 8 4 55-32 59-36 9-10 16-13 25-20z"/><path class="fil16" d="M1257 1969c-3-30-6-56-9-68-10 7-20 14-31 21-126 81-61 93 19 83 10-11 17-23 21-36z"/><path class="fil4" d="M1764 1754c17 105 73 210 240 311 9-3 19-7 28-10-16-31-32-66-48-102-53-6-59-42-32-80-11-27-21-54-31-81-34 12-69 11-109-20-19-15-34-20-48-18z"/><path class="fil6" d="M1921 1792c10 27 20 54 31 81 7-10 16-21 28-31-8-26-15-50-21-70-13 8-26 15-38 20z"/><path class="fil4" d="M1959 1772c6 20 13 44 21 70 5-5 11-9 18-14 11-8 24-15 38-22-6-24-13-48-19-73l-3 2c-12 8-24 17-36 25-7 4-13 8-19 12z"/><path class="fil6" d="M2017 1733c6 25 13 49 19 73 14-7 29-12 45-17-5-28-11-56-16-84l-3 1c-16 8-31 17-45 27z"/><path class="fil4" d="M2128 1973c-6-12-25-18-47-20 7 23 14 46 21 70 6-5 11-9 15-14 10-13 13-23 12-31 0-1-1-3-1-5zm-84 78c-8-26-18-61-30-98h-30c16 36 32 71 48 102l12-4zm-787-82c-3-30-6-56-9-68-10 7-20 14-31 21-126 81-61 93 19 83 10-11 17-23 21-36z"/><path class="fil4" d="M1248 1901c3 12 6 38 9 68 1 11 2 22 2 33 2 0 3-1 4-1 10-1 20-3 29-6-20-23-24-62-32-103l-12 9zm12 194c1-3 2-11 2-22-54 29-129 74-202 126l200-104zm359-419l25-7c44-15 59-51 60-74 1-13-6-24-18-33-4 7-7 13-11 19-19 34-40 67-59 96l3-1z"/><path class="fil17" d="M1720 857c9-5 156-6 292-12 11-13 21-28 23-41 1-9-1-17-4-24-114 3-235 5-252 14l-16 56c-11-32-36-60-67-69-4 2-6 4-7 7-7 37 7 82 31 69z"/><path class="fil14" d="M1779 794c17-9 138-11 252-14-1-2-3-4-4-7-46-60-260-30-296-10-11 6-29 11-50 15 5 0 10 1 15 3 31 9 56 37 67 69l16-56zm-196 58c17-35 42-58 65-68-15 2-31 4-47 7l-18 61z"/><path class="fil17" d="M1573 836c3-8 9-24 12-43-30 5-57 11-76 19 4 12 25 28 40 15 9-6 2 29 4 40h5c3-5 7-14 15-31z"/><path class="fil17" d="M1553 867c-2-11 5-46-4-40-15 13-36-3-40-15-14 6-23 14-24 23-3 31 29 33 68 32zm577 152c-27 40-61 84-97 127 2 4 4 7 7 9 11 9 29 5 47-7 16-23 32-45 50-70 5-18 4-38-5-57l-2-2z"/><path class="fil14" d="M2137 1078c-18 25-34 47-50 70 22-14 43-41 50-70z"/><path class="fil12" d="M2214 897c-24 29-14 52 11 68 32-42 94-111 127-139 13-11 30-20 39-35 9-16 19-28 21-53-10-8-16-1-18-6-9 2-19 5-29 8-1 7 0 13 3 21 9 30-113 83-154 136z"/><path class="fil13" d="M2352 826c-33 28-95 97-127 139 10 6 23 11 38 15l42-56c31-39 67-80 87-119l14-2c15-18 27-12 43-37 18-31 9-31 0-51-13 1-22 0-31 2-7 2-13 4-19 8 1 0 2 1 4 1s4 1 7 4c-4 0-10 1-16 2 2 5 8-2 18 6-2 25-12 37-21 53-9 15-26 24-39 35z"/><path class="fil13" d="M2305 924l-42 56c8 2 17 3 26 5 27-37 57-74 84-114 9-14 17-34 26-48 8-12 8-15 20-24 20-15 39-31 44-49 8-27-7-41-33-36-4 0-8 2-12 3 9-2 18-1 31-2 9 20 18 20 0 51-16 25-28 19-43 37l-14 2c-20 39-56 80-87 119zm60-184c10-3 20-6 29-8 6-1 12-2 16-2-3-3-5-4-7-4s-3-1-4-1c-4 0-7 2-8-4l-5 1c-5 3-8 1-18 0-2 5-3 12-3 18z"/><path class="fil13" d="M2368 722c10 1 13 3 18 0-1-1-2-2-4-3-3-3-6-5-10-7-1 3-3 6-4 10z"/><path class="fil4" d="M1165 342c1-124-19-254-24-289-1-5-2-9-4-12s-5-6-8-7c0-1-1-1-1-1 11 14 4 68 4 82l-3 42c-16 75-40 164-66 249 21-7 41-17 57-29 5-3 9-7 13-10 10-11 21-18 32-25z"/><path class="fil6" d="M1063 406c26-85 50-174 66-249l3-42c0-14 7-68-4-82-5-3-10-2-14 3-5 9-12 22-19 37-16 33-34 73-44 94-16 30-57 105-60 142 1 12 3 14 6 13s9-6 19-4c0-14 58-169 84-229 13-31 10-23 4 2l-17 75c0 14 2-2 0 9 0 6-5 9-8 15v2c-1 3-3 13-4 17l-23 114-15-3c6 13 19 19 26 28-12-2-22-9-35-14v1h-1c1 0 2 1 3 3 1 0 5 3 5 4-4 1-2 0-7 2-7 4-1 1-5 5 7 13 2 25-2 36-4 12-9 23-13 34 19-2 37-7 55-13z"/><path class="fil4" d="M1027 335c-1 0-1 0 0 0zm-6 50c4-11 9-23 2-36 4-4-2-1 5-5 5-2 3-1 7-2v-1c-2-1-4-3-5-3v-1l-3-2 1-1c13 5 23 12 35 14-7-9-20-15-26-28l15 3 23-114c1-4 3-14 4-17v-2c1-2 2-4 4-5 1-2 2-3 2-4v-1c1-1 2-3 2-5 2-11 0 5 0-9l17-75c6-25 9-33-4-2-26 60-84 215-84 229-10-2-16 3-19 4-1 1-1 2-1 4 9 3 5 5 11 11-6 14-8 3-18 22-11 21-23 42-34 63 17 1 35 0 53-3 4-11 9-22 13-34z"/><path class="fil6" d="M955 422c11-21 23-42 34-63 10-19 12-8 18-22-6-6-2-8-11-11-1 3-15 22-30 44-7 9-13 19-19 27-6 9-12 16-16 23h2c7 1 14 2 22 2zm186-369c5 35 25 165 24 289 37-20 76-23 119-25 4 0 7 0 11-1-54-91-100-189-154-295 0 1-1 1-1 2-4 5-9 6-13 7-4 0-8-1-11-1-7 1-13 2-17 12-3 7-2 23-4 32 8-16 14-30 19-37 2-3 5-5 8-5 2 0 5 1 6 2h1v1c3 1 6 4 8 7s3 7 4 12z"/><path class="fil4" d="M1141 21c54 106 100 204 154 295 17 0 34-1 52-3-26-33-52-66-78-97-8-9-12-1-19 3 7-33 6-21-10-52-21-40-53-89-73-134-2-5-5-11-7-16-1-4-3-8-6-11-3-4-7-7-14-6-5 1-9 5-1 17 1 1 1 2 2 4z"/><path class="fil6" d="M1240 167c16 31 17 19 10 52 7-4 11-12 19-3 26 31 52 64 78 97 10-1 21-2 32-4-30-36-60-72-88-107-8-9-11-12-14-18-38-49-72-102-110-151 20 45 52 94 73 134z"/><path class="fil4" d="M1167 33c38 49 72 102 110 151-1-3-3-6-4-10-7-22-16-51-29-73-4-7-13-3-18-10-16-25-32-47-42-61-5-7-19-22-30-24 3 3 5 7 6 11 2 5 5 11 7 16zm182 220c-7-8-27-16-34-24l-24-27c28 35 58 71 88 107 5-1 11-2 16-4-15-17-30-34-46-52z"/><path class="fil17" d="M1664 1155l3 3-3-3zm-276 253c29 14 57 24 83 30-24-6-52-15-83-30zm158 41c-17-15-51-16-75-11 44 11 74 10 75 11zm183-185c-1-1-1-2-2-3-15-37-36-72-58-99-1-1-1-2-2-4 23 29 45 66 62 106zm-458 53c34 36 72 68 117 91 29 14 57 24 83 30 27 7 52 10 75 11 62 2 112-12 147-22 26-8 44-14 52-10 8-34 9-57 10-56-1-4-1-7-2-10-1-8-2-16-4-23-2-11-5-22-9-33-6-47-26-130-48-201-2-6-4-12-6-17-6-2-12-4-17-6-81-37-169-52-208 51-12 33-19 69-70 73-92 7-121 21-127 49 0 8 1 16 1 25l6 48z"/><path class="fil13" d="M157 1223c39 31 84 54 123 83 3 2-9-6 9 7 23 25 18 40 41 65 3 4 6 7 9 11 6-9 12-17 17-24-61-61-118-113-171-158l-68-48c-3-1-5-3-7-4-7 5-12 11-18 17 28 23 54 43 65 51zm228-305zm-278 101c73-28 175-64 278-101l63-22c-15 2-51 2-70 7-30 7-55 27-84 33-43 10-86 19-129 31-8 2-15 15-24 18-17 5-35 10-53 16-10 3-22 9-34 15l42 2 11 1z"/><path class="fil6" d="M2081 1953c-16-2-34-1-49-1l-18 1c12 37 22 72 30 98 3-2 6-3 9-4 18-7 36-16 49-24-7-24-14-47-21-70z"/><path class="fil4" d="M1343 2019c17-22 7-38-41-26l-10 2c11 13 27 22 51 24zm-84-17c0-11-1-22-2-33-4 13-11 25-21 36 9-1 17 1 24 3l-1-6zm212-180c15 6 25 17 30 30h1c7 17 8 37 6 61-1 4-1 8-1 12l-1 1c7-3 18-16 19 2 0-29-6-65-7-93v-4c-8-3-16-6-22-11-2-1-4-3-6-4-11-4-26-14-34-7-23 18-21-13-33-2-3 4-6 6-10 7l1 2c24-3 43-1 57 5v1z"/></g></g></svg>