<svg xmlns="http://www.w3.org/2000/svg" width="220.815" height="328.452" viewBox="0 0 391 582" shape-rendering="geometricPrecision" text-rendering="geometricPrecision" image-rendering="optimizeQuality" fill-rule="evenodd" clip-rule="evenodd"><defs><clipPath id="id0"><path d="M145 185c16 33 41 65 64 80 17 11 36 11 53 0 23-15 49-47 64-80 14-29 19-61 13-90-3-20-11-38-23-54-41-54-118-55-160-1-12 16-20 35-24 55-5 29-1 61 13 90z"/></clipPath><clipPath id="id1"><path d="M24 327c19 32 49 61 74 74 18 10 38 8 54-6 21-18 44-53 56-88 11-31 12-64 3-94-6-19-16-37-29-52-48-51-127-43-163 17-11 18-17 38-19 58-2 31 6 63 24 91z"/></clipPath><clipPath id="id2"><path d="M175 395c8 37 26 75 45 95 14 16 33 20 53 13 26-9 60-35 83-64 21-26 33-56 35-87 1-20-2-41-10-59-28-64-105-83-160-39-16 12-28 29-37 48-12 28-15 61-9 93z"/></clipPath><clipPath id="id3"><path d="M145 185c16 33 41 65 64 80 17 11 36 11 53 0 23-15 49-47 64-80 14-29 19-61 13-90-3-20-11-38-23-54-41-54-118-55-160-1-12 16-20 35-24 55-5 29-1 61 13 90z"/></clipPath><clipPath id="id4"><path d="M24 327c19 32 49 61 74 74 18 10 38 8 54-6 21-18 44-53 56-88 11-31 12-64 3-94-6-19-16-37-29-52-48-51-127-43-163 17-11 18-17 38-19 58-2 31 6 63 24 91z"/></clipPath><clipPath id="id5"><path d="M175 395c8 37 26 75 45 95 14 16 33 20 53 13 26-9 60-35 83-64 21-26 33-56 35-87 1-20-2-41-10-59-28-64-105-83-160-39-16 12-28 29-37 48-12 28-15 61-9 93z"/></clipPath><style>.fil6{fill:none}.fil5{fill:#fefefe}.fil17{fill:#b15fbf}.fil7{fill:#d4395b}.fil8{fill:#d67ee6}.fil14{fill:#e082b4}.fil16{fill:#e087f0}.fil1{fill:#e494f2}.fil3{fill:#e6476a}.fil0{fill:#e6e6e6}.fil12{fill:#f299c8}.fil9{fill:#f3adff}.fil11{fill:#f5baff}.fil2{fill:#f7597b}.fil18{fill:#fadeff}.fil4{fill:#ff708f}.fil10{fill:#ffa3b7}.fil13{fill:#ffb5dc}.fil15{fill:#ffdbee}</style></defs><g id="Слой_x0020_1"><g id="_761373888"><path class="fil0" d="M237 504c9 1 14 5 14 10 0 4-3 9-8 12-13 10-41 15-43 19-3 9 58 19 53 37 5-17-59-27-56-37 1-4 31-9 46-19 11-8 10-21-6-22z"/><path class="fil1" d="M232 273c-1 5-3 6-7 9-2 3 7 6 10 6 4 0 7 0 5-2-3-5-2-11-2-13h-6z"/><path class="fil2" d="M145 185c16 33 41 65 64 80 17 11 36 11 53 0 23-15 49-47 64-80 14-29 19-61 13-90-3-20-11-38-23-54-41-54-118-55-160-1-12 16-20 35-24 55-5 29-1 61 13 90z"/><g clip-path="url(#id0)"><path id="1" class="fil3" d="M222 212c-12-37-38-67-71-79-6-3-13-4-19-5v3c6 2 11 4 17 6 12 6 23 14 33 24 13 15 23 33 29 52 1 4 2 7 3 11 2 9 3 18 3 27v4h2c1 0 2-1 2-1 3-2 5-4 8-6-1-12-3-24-7-36z"/><path class="fil4" d="M287 23c-7-5-15-10-24-13s-18-5-27-5c-21 0-40 6-55 18-14 11-25 28-30 47-6 21 1 41 13 57 13 15 33 26 54 30 19 3 48-1 71-13 22-12 38-32 32-62-3-12-7-23-13-34-6-10-13-18-21-25z"/><path class="fil5" d="M191 129zm5 0zm-1 0h1-1zm0 0zm0 0l-1-1c-2-3-5-5-8-7 1 0 6 3 8 5l1 1v2zm-9-8zm-1 0zm19-23zm0 0zm-11-18l1 1c4 6 2 12-1 17l-2 3v-4l-1-1c0-1 1-2 1-2v-5c0-2 1-5 1-7 0-1 1-1 1-2zm36-15c2-1 4 1 4 3 1 3-1 5-3 6-2 0-4-2-5-4 0-3 1-5 4-5zm-39-1c1 1 1 0 1 1l-1-1zm6-1zm-3-1zm-3-8l1 6c0 2 2 4 1 4s-1-1-1-1v-1c-1-3-1-5-1-8zm-13 3l6 9 8 8c1-2 1-5 2-6l2-3c0-1 0-1 1-2-1 1-4 7-4 11h1c-1 1-1 1-1 2-2 0-4-4-6-5l-1-1c0-1-1-2-2-3-1-2-4-6-5-9l-1-1zm0 0zm0 0zm0-1zm16 6l1-1c1-5-3-8-4-10-1 0-2 3-2 4s0 2-1 2c0 2 1 2 1 3l-3-3c-2 0-3-1-4-2h-1l-2-2c-1 0-2 0-2-1-1 0-1 0-2-1-2 3 0 11 1 14 1 2 2 3 3 5l3 3h2c-2 0-4 1-6 1-2 1-4 2-5 3-1 0-2 1-3 2h-1v1c-1 0-1 1-2 2 0 0-1 1-1 2 1 0 4-2 5-1-1 1-3 2-3 3-2 2-1 5-1 8 1 0 2-1 3-2v-1l3-3c1-3 2-7 4-10 2-2 4-2 6-3 3 0 8 1 9 3v1c0 1-1 1-1 1v3c-1 2-1 4-1 6-1 2-1 5-1 7 0 1 1 2 1 3-1 2 0 8 1 11 0 1 0 3 1 4v3c1 1 1 1 1 2h-2c-2-1-4-1-6-1 0 0-1 1-2 1 0 1 3 5 4 7 0 1 2 1 2 2l1 1 1 1c1 2 3 3 5 2 1 0 0 0 1-1h-2c-1-1-1-1-2-1h2c1 1 1 1 2 1 1 1 1 1 1 2 1 1 1 2 2 3-1 0-3-1-3-2-4-2-7-3-12-3-3 0-5 1-8 2-5 2-8 7-6 13s8 10 14 11c0 1 0 1 1 1-4 0-10 2-14 4-2 2-5 5-6 8l-1 2c-2 5 1 10 5 12 6 5 15 3 22 0l10-5c1-1 4-4 4-5s-1-3-2-3c-2-1-9 0-12 0-2 1-5 1-7 1-3 1-6 1-8 1 0-1 1-2 2-2 0 0 1 0 2-1 8-2 13-2 21-3 1 0 3-1 3-2 1-3-2-4-4-5-1 0-1 0-2-1 2 0 4 0 5-1 1 0 2-2 1-4-2-2-5-4-8-5l-9-4c-1-1-3-2-4-3-1 0-1 0-1-1 3 0 6 1 8 2 3 1 5 2 7 4l2 1h2c1 1 6 4 7 2 1-1 0-2 0-4 1 0 2 1 2 1v-1c1 1 3 3 4 1s0-7-1-9c0-1-5-11-4-13 1 0 2 3 3 4 1 3 2 5 3 9 1 2 1 3 2 5 0 1 1 4 3 3 1-1 2-3 2-4v-6c0-2-1-4-1-6 0-1 0-1-1-2-1-4-3-7-6-10-2-2-6-3-9-2-4 1-5 4-6 7v6l-1-3-1-1v-2c-1-1-1-2-2-3v-1c0-1 0-1-1-2 0-2-3-10-3-12 2-1 6-2 8-3 1-1 4-3 5-4l-3 3-6 3c-1 1-2 1-3 2l2 1c4 1 8 0 10-4 2-1 3-4 3-6v-1h-4c-3 0-5 0-8 1h1c3-7 3-13-2-18-1-2-1-1 1-5 2-5 6-10 10-14l3-3 1-1c2-2 5-4 7-5 6-2 12-3 19-1 5 1 11 5 13 11 3 4 3 9 1 15-1 1-1 3-2 4-2 2-4 4-7 5-5 1-11 0-15-3-2-2-4-5-3-8 0-1 1-4 2-5 0 2 0 4 2 5 1 1 3 2 5 1 1 0 3-1 3-3 4-6-5-12-13-8-1 1-2 2-3 4-2 2-2 6-1 10 1 5 5 8 10 10 5 1 11 1 15-2v3c-1 5 0 9 3 13l1 1h1c3 4 9 4 13 2 2 0 4-2 5-3 1-2 2-4 2-6s-1-5-2-6c-4-5-11-4-14 0 0 1-1 3-1 4 1 0 1 0 1 1s2 4 4 4c0 0 1 0 1 1 1 0 4-2 4-2 1-2 1-4 1-5-1 0-1-1-1-1-3-2-7 0-5 3 0 1 1 1 2 1h-1c-3-1-1-5 2-4 1 0 2 1 2 1 1 2 0 4-1 5s-2 1-3 1c-6-1-7-8-1-11 3-1 6-1 8 1 3 3 4 6 3 9-1 2-2 3-3 5-1 1-3 2-5 2-2 1-5 0-7 0-4-2-7-6-8-10v-4c0-2 1-5 2-7l2-2c1 0 1 0 1-1 6-8 5-20-2-27l-9-6-3-1c-3-1-7-1-10 0-4 0-8 2-11 4l-8 6-4 4c0 1-1 1-1 2l-2 2v-5s0-1-1 0c-2 0-3 2-4 2zm77 152h2-2zm6-1c0-1 4-2 4-3h3c1 0 1 1 2 2h-4c-3 1-2 1-4 1h-1zm-29-2c0-1 0 0 0 0zm11-3h4c2 0 3 1 4 2 0 0 1 1 1 2l-2-1c-2 0-6-2-7-3zm35-1zm1 0h-1 1zm-34-4c-1 1-4 3-5 3h-1c1 0 3-1 3-1l3-2zm0 0zm0 0zm-13-3zm23-4c-3 0-3-4-2-5 3-3 7 1 4 4 0 0-1 1-2 1zm-2-7h-1 1zm-32 0zm32 0zm2-3l2 3c-1 0-1-1-2-1v-2zm-2 3l1-1s-1 0-1 1zm1-1v-1 1zm-2-2c2 0 2 2 0 2h-1v-1c0-1 0-1 1-1zm6 0zm0-1v1-1zm0 0zm1 0h-1 1zm0 0zm0 0zm-7 4c-1 0-3-1-2-3s4-1 4 0l-1-1c-3-2-5 4-1 4zm7-4zm0-1s0 1 0 0zm0 0zm-2 1c-1 0-1-2 0-2 2 0 2 2 0 2zm2-2s0 1 0 0zm0 0zm0 0zm0 0zm0 0l-1-1 1 1zm-1-1zm0 0zm0 4h-1c-2 0-2-3-1-4h2c-1 0-2 0-2 2-1 1 0 2 2 2zm21 21v-1c3-4 4-7 4-12 0-4-2-8-6-10-2-1-5-1-7 0-5 2-5 8-2 10l2 2v1c-1 1-1 2-1 3 0 0 1-1 2-1 2-1 1-4-1-5-3-2-4-3-3-6 0-1 0-2 1-2l2 1h1c0 1 1 1 1 1 2 0 3-1 6 1 3 1 5 5 4 8 0 3-1 6-3 7 0 1 0 2-1 2-2 3-4 4-7 5l-1 1c0-1-1-3-2-3-3 0-7 3-9 4 0 0-4-1-5-1s0 0-1-2c-2-2-5-3-9-3 1-1 1 0 1-1l2-2c0-1 1-2 1-3h-7c0 1-1 1-1 1-1 1-2 2-2 3 0 0-6-4-6-5 1 0 2 1 5 1 4 0 6-2 8-5 1-3 1-6-1-10-1-2-3-5-5-7h-1c0-1 0-1-1-1 0-1-1-1-1-1-2-2-10-5-13-3-2 1 1 3 2 4l6 5c1 2 2 2 4 4l1 2 2 2c-2 0-5-3-7-5l-5-4-1-1h-1c-1-1-3-2-4-2s-1 1-2 2c0 2 3 7 3 8-1-1-5-8-8-7-3 0-1 4-1 6 1 6 4 14 4 19 0 1 0 1-1 2 0-1 0-1-1-1v-2c0-1-1-2-1-3v-1c-1-1-1-1-1-2-1-3-2-13-5-15-1 0-2-1-3 0-1 0-1 2-1 2-2 5-2 10-3 14 0 1 0 3 1 4 0 5 2 10 6 13s8 4 12 1c3-2 5-6 6-10 1-2 1-4 1-7l-2-6 2 1s0 1 1 1l4 4v4c0 1 1 4 1 4-1-1-2-6-2-8-2 1-3 4-2 7 1 1 2 3 4 4l1 1c1-1 1-1 1-2 1-3 1-4 1-7l3 2c1 1 4 3 6 4h2c3 2 6 2 7 2 2 1 1 2 5 1h8c2-1 3-1 5-2 0 1 0 1 1 2h2c1 0 1-1 1-1l2-1c-2 0-2 3-6 1v-1c2 0 5-2 7-3 1-2 2-3 4-5l2-3c1-3 2-6 3-10v-3c0-1 0-4-1-5-1-4-3-7-6-9 0-1-2-2-3-2-6-2-13-3-18 1l-2 1c-1 1-2 3-3 5v1l-1 2 1 2c-1 0-2-1-3 0-2 0-3 3-2 5 0 0 1 1 3 1-1 1-3 4 0 6s6 1 8-1c1-3-1-5-3-7v-1c2 0 4-2 3-5-1-1-3-2-5-1l-1 2c0-3 1-6 3-8 5-3 7-4 13-4 2 0 7 2 8 3 2 0 3 1 3 2 1 0 1 1 2 2l1 1c1 1 1 3 2 4 1 4 0 10-1 14-1 2-3 6-5 8 0 1-1 2-1 2zm9-81c0-1 0-1-1-2h4c1-1 2-1 3-1h2v1h-1c-1 1-2 1-2 1l-5 1zm16-9v-1h1c-1 0-1 1-1 1zm-1-4c0-1 2-2 2 0l-1 1-1-1zm-12-8c5-3 11-1 13 3 1 1 1 3 1 4 0-1-1-1-1-1-1 0-2 1-2 2 0 0 1 2 2 2l1-1v1c-1 0-2 0-2 1s0 1 1 1c-1 1-2 2-2 3-1-1-2-2-4-3-3-1-6-1-9 0-1 0-2 0-2 1h-2s4-1 6-6c2-2 2-4 0-6v-1zm-12-15zm0 0s0-1 1-1v-1 2h-1zm7-3c0-1 4-3 6-3s4 1 5 2h-4c-3 0-5 1-7 1zm-6 3v-2c1-1 2-2 1-4 0 0-1 2-1 3-1-1-1-2-2-4-1-1-1-2-3-3s-4-1-6 0c-1 0-2 0-2 1 1 0 3-2 7-1 0 0 1 0 1 1 1 0 0 0 0 0l1 1v-1c1 1 3 4 3 6v2s-1 3-1 2h-1v-1c-1 1 0 2-2 3 0 0 0 1-1 1l-2 2c-1 1-2 3-3 4l-2 1c-2 2-3 5-3 7v4c-1 0 0-3-4-5 0 1 0 1-1 1 1 3 4 7 5 8h4c1-1 1-3 1-6v-3s0-2 1-2v11c2 3 5-5 5-6 1-2 1-5 0-8 0-1-1-2-2-2 0 0 1-2 2-3l1-1c2-2 4-3 7-5 2-1 4-2 6-2 3-1 7-1 9 0v2c-1 2 0 3-1 4 0 0-1-1-2-1 0 1 1 1 1 1 4 0 5-4 5-6l1 1 3 1c1 1 1 1 2 1 4 3 6 6 8 10 3 6 2 12 0 18-1 1-2 2-2 3l-1 1-1 1c-2 2-6 5-10 5 1 0 2-1 2-2 2-2 1-5 0-7l-1-1c1-1 2-2 2-3h1c0-1 1-3 1-4 0-3-1-7-4-8-3-3-7-3-10-2s-1 1-3 1c-3-1-6-1-7 0-4 2-6 5-8 9v2c0 3 1 3 2 2l2-2 4-4 2-2c1 0 1 0 1-1 0 2-2 3-3 5l-4 4v1c-2 2 0 3 3 2 0 0 1-1 2-1 0 1-2 2-3 2 0 1-2 2-1 4 1 1 3 0 4 0 2-1 3-1 3 1-1 0-5 1-5 2-1 2 0 2 1 3 2 1 4 1 6 2h4c4 0 5-1 8-1 1 0 2 0 3-1 2 0 4-1 6-2 2-2 4-3 5-6 1 0 1 0 1-1 1-1 2-4 3-6 1-3 1-7 0-11-1-2-2-5-3-7s-3-4-4-5c-2-2-4-3-6-4-1-1-2-1-3-2h-1c-1 0-2 0-2-1-1 0-2-1-3-1-2-2-6-1-8 0-1 0-1 1-2 1 0-1 1-1 1-2-1 1-2 1-2 2-1 1 0 2-2 2 2-3 1-3 1-6v-4s1-1 0-1c0 0-3 4-2 7 0 2 0 5-2 6zM182 203c0 3 0 5 2 8 1 2 3 4 4 4l2 1c5 2 10 0 14-3l6-6 1-3 1-1 1-3v-1c1-1 2-4 3-5v-3c0-2 1-6-1-7-3-2-5 1-7 3-1 2-2 3-3 4-2 3-8 13-11 13v-2l6-9h1v-1l5-6h1c0-1 1-1 1-1 0-1 0-1 1-1 0-1 2-3 0-4 0-1 0-1-1-1 0 0-1-1-2 0h-3c-4 1-8 4-11 6l-4 4c-1 1-2 2-2 3l-1 1v1l-1 3c-1 1-2 4-2 6zm77-53c0 3 0 3 1 5 1 3 3 6 6 6 2 0 3-1 5-2 1-1 2-1 3-2s2-4 2-5v-1c0 4 2 7 3 10 2 1 4 4 6 4l1 1c3 0 4-1 6-2l1-1c2-2 3-5 3-7s-1-4-1-6l-5-10c-2-1-2-1-3-1h-1c-2 2 0 13 0 16v3c-2-1-2-7-2-9-1-2-1-8-2-10 0-1-2-1-3 1 0 1-1 2-1 2 0-2 0-4-2-4s-5 5-5 7l-4 6-1 1v-2s0-1 1-1c0-2 2-5 3-7 1-1 3-4 3-6 0 0-1-1-2-1s-3 2-4 2c-3 2-3 3-5 6 0 0-1 0-1 1-1 1-2 4-2 6z"/><path class="fil5" d="M237 159l-2 2c-1 1-1 0-1 1-2 6-11 4-14-3-2-3-2-6 2-8 1 0 1 0 1-1 1-1 1-2 1-2-7-1-11 3-14 8-2 5-1 10 2 14l2 2c1 1 4 3 7 3 3 1 7 0 9-1s4-3 6-6c1-2 1-5 1-9zm72-11c0 1-2-1-3-1-1-1-2-1-3-2 0 0-1 0-1-1-1 0-5-4-5-5-1-1-2-1-2-2-1 0-2-1-2-1-1 0-2 1-2 2s0 2 1 3c0 2 1 4 2 6l2 2c2 3 4 4 7 5 4 1 10 1 12-4v-7l-3-3-2-3c-1-1-2-1-4-2l-1-1-2-1c-2-1-8-3-9 0-1 2 5 5 6 6 2 2 5 4 7 6 0 0 2 2 2 3zm-70 14c0 1-1 2 0 2 1 1 2 1 4 1h9c1 0 2 1 2 1h3c-1 1-2 1-3 1h-3c-3 0-10 0-11 1-1 0-1 1-1 2s0 1 1 1l1 1c2 1 6 3 9 3 3 1 7 1 10-1 5-2 6-7 2-12-1-1-2-1-4-2-4-3-11-2-15 0-2 1-2 1-3 2h-1zm32-30c-1-1-1-1-3-1-3 1-5 2-8 2-1 1-1 1-2 1h-2c1-2 13-4 14-5v-2c-2-1-3-1-6-1h4c3 0 2-2 2-2l-1-1-6-2h-1l-1-1h3c-1 0-2 0-2-1-1-1 0-2 0-3h-2c-1 0-7 3-3 7 1 1 1 1 2 1 1 1 2 2 4 2-1 0-1 0-3 1-3 0-6 1-8 3-1 2-2 3-2 5-1 4 5 8 13 4 1 0 8-4 8-6v-1zm-119 16c1 0 2-1 4-1 4 0 4 0 7 1 2 1 5 3 7 4 1 1 3 4 3 5-3 0-6-1-9-2-1 0-2-1-3-1-2-1-5-3-7-5h-1l-1-1zm-12 13v-1c0-1 0-3 1-4v-1l1-1v-1c1-2 3-4 5-5 1 0 2-1 2-1 0-1-1-2-1-3-1-2 1-3 2-5l8-6c2-2 3-3 2-5-2-3-7-4-8-7-1-1-3-6-3-8 1 1 3 5 4 6v-2c-1 0-1-1-1-1 1 0 3 1 4 2 2 3 2 5 3 7 1 3 3 5 1 7-2 1-4 2-5 4-1 1-2 1-3 2s-2 2-2 3c-1 1-1 1-1 2v2l1 1h4c3-1 6-1 9 0 5 2 9 5 12 9 0 1 1 2 1 3l-1 1h-1c-4 0-11-3-15-5 0 0-1 0-1-1-1 0-2-1-3-1l-4-3c-1-1-1-1-3 0-1 1-2 1-2 2-1 0-1 1-1 1-5 5-5 15 1 19l1 1c4 2 8 3 12 1 0 0 0-1 1-1 4-3 5-10 1-14-4-2-9-2-11 2-1 1-1 2-1 3 0 3 2 3 2 4-1 0-1-1-1-1-2-3-1-6 0-8 2-2 6-2 8-2 7 2 9 11 4 16-1 0-1 1-2 1-1 1-2 1-3 1-4 2-8 1-11-1-4-3-6-7-6-12zm13-42zm0 0z"/><path class="fil5" d="M237 170c-1 0-2 2-3 3s-2 1-2 3h-3c-2 1-1 0-2 2-1 0-2-1-3-1 0 1-1 2-2 2-2 1-2-3-4-2-1 1-3 4-4 1-1-2 0-3-4-3-1 0-1-1-1-2 0-5-1-3-2-5-1 0 0-2 0-2 2-2-1-4-1-5 1-1 1-1 2-3 0-1-1-2 0-3h1s0-1 1-2c1-2 4-5 7-6h-1c-1-1-1-1-2 1-2 3-3 1-4 1-2 0-1 3-2 4l-1-1c-1 0-2 1-2 1 0 1 2 4 0 5-1 1-2 1-2 2 1 3 4 3 1 7-1 1-1 2 1 3h1c2 2 0 4 0 5s1 1 1 1c1 1 3 1 4 1 1 1 1 1 1 2s0 2 1 3 3 1 4-1c3-3 3 2 5 2s3-3 4-3l2 1c4 1 1-4 3-3h2c1 0 1 1 2 0v-1l-1-2c0-1 0-2 1-2 2 0 2 0 3-1 0 0 0-1-1-1v-1zm-6-34h1c0-2 0-3 1-4s3 0 4 1v-4c-2-5-6-8-11-3-1 0-1 0-1 1-2 2-3 5-3 8 0 2 0 10 3 11 2 0 4-9 5-12l1-3c1 1 0 4 0 5zm49-19c2 3 1 2 3 3 2 2 0 5-2 7-1 1-3 2-5 2-2-1-2-1-2-2l-2-2c-1 3 0 6 2 8 1 1 1 1 2 1 3 2 6 2 9 0 0 0 1-1 2-1 3-3 3-8 1-12l-1-1c-1-2-5-3-7-3zm-48-20c0-1 0-1 1-2s2 0 2 2c0 0 0 1-1 1s-2-1-2-1zm-1-1c0-1 0-2 1-3s4-1 5 0c2 2 1 6-2 6 1 0 3-3 1-4-2-2-4-2-5 1zm-2 0c0 2 0 3 2 4 3 4 9 1 9-4s-6-8-10-4c0 0-1 2-1 4z"/><path class="fil5" d="M226 103zm-1-4s1 1 1 2c0 2-2 2-3 1s0-3 2-3zm2 0zm0 0zm-1 4c-1 3-7 1-6-2 0-2 1-3 3-4 1 0 3 1 4 2-1-1-3-2-5 0s1 6 3 5c1 0 1 0 1-1zm-8-2c0 3 2 6 6 6s7-6 4-10c-4-4-10-1-10 4zm13 6c0-2 4-2 4 0 0 1-2 2-2 2-1 0-2-1-2-2zm-1-1zm4-1c2 0 4 3 2 5-2 3-6 1-6-2 0 0-1-2 0-2v2c2 4 7 1 5-2v-1h-1zm-1 9c2 0 3 0 4-2 2-2 2-5 1-7-1-1-2-2-3-2-4-3-9 2-7 7 0 1 1 2 2 3 0 0 1 1 3 1zm54 4l1 1v1c2 2 2 2 3 4v1c0 1 0 1 1 2 0 1 0 1-1 2 0 1-1 1 0 2 0 1 1 1 1 2-1 0-2 0-3 1-1 0 0 1-1 2-2 0-2-1-3 1-1 1-1 0-3 0-1-1-2 1-3 0 0 0-1-1-2-1h-1c-1-1-1-1-2-1 0-1 0-1-1-2s-1-2-2-3h-1v1l1 1s1 0 1 1c1 0 0 1 0 2h1c1 1 1 0 1 2v1c1 0 2-1 3 0 1 0 1 0 1 1 1 1 3-1 4-1 1 1 1 1 3 1 1-2 1-2 3-1 3 0 2-1 2-3 1-1 3 0 3-2 2-1-1-2-1-3s4-1 2-3-1-1-1-3v-1s-1 0-1-1c-2 0 0 0 0-3-1 0-3 1-4 0v-2s-1 0-1 1zm-49 40h2c2 0 4 0 6-1s5-2 5-5c1-2 1-2 1-3l-2 1c-2 0-8 6-10 7-1 1-2 1-2 1zm50-73v1c1 1 0 1 0 2v-3zm0 0zm-6-4c-1 0-2 2-3 4 0 1 0 0 1 3 0 2 1 3 3 3 0 1 0 1 1 1 2 1 7-3 4-7 0-1-1-1-2-2-1 0-2 1-3 2v2c0-1 0-2 1-2 0 0 2-1 3 0s2 4-1 5c-1 1-1 1-2 1-4 0-6-7-1-9 1-1 4-2 5-1 3 1 4 4 4 6 1 1 0 2 0 3v1h1v-2c0-1 1-1 0-1 0-2 0-2-1-4 0 0 0-1-1-1v-1l-1-1h-1c-2-1-4-1-6 0h-1zm-51 74l1-1 3-4c1-1 2-1 2-2s-1-1-1-2c0 0-3 3-3 4l-10 11 1 1 7-7zm-9 5c1 0 1 0 1-1l12-13c0-1 0-1-1-1h-1l-3 3c0 1-1 1-1 2l-8 9 1 1zm8 0c1-2 2-3 3-4l7-7h-2c-1 0-2 1-2 2-1 1-4 3-5 5l-3 3-3 4h2l3-3zm-2 3c1 1 2 0 2 0l6-6c2-2 4-4 6-5 0-1 1-1 1-1-1 0-1-1-2-1l-10 10c-1 0-3 3-3 3z"/><path class="fil5" d="M231 163c1 0 4-2 5-3s2-2 4-3l9-7h-1l-1-1c0 1-1 1-2 2h-1l-7 6-1 1-5 5zm2-19v-3c-1 0-1 0-2 2l-8 10c0 1-1 1-1 2-1 1-1 2-1 2l3-3c2-2 8-10 9-10zm-79 23c-1 0-2-1-2-2 0-3 5-3 4 0 0 1-1 2-2 2zm-3-3c0 1 0 2 1 3l-1 1c1 0 3 1 5 0l1-1c3-3-2-8-5-5-1 1-1 2-1 2z"/><path class="fil5" d="M222 155v-1l2-3 3-3 5-7-2-2c0 1-4 7-4 8-1 1-5 7-5 8h1zm21-16c-3 1-1 5 2 4s1-5-2-4zm-2 3c0-3 1-3-1-4-2-2-5 2-3 4 2 1 3 1 4 0z"/><path class="fil5" d="M236 139c1 0 1-2 3-2 0-2-2-4-4-2-2 1-2 3 1 4zm7 5c0 2 2 4 4 3s2-4 0-5c-1 2-3 2-4 2zm28-27s2 2 2 3c1 0 1 0 1 1l6 5h1c0-1-4-4-4-5l-5-4h-1zm-33 26l-1-1c-1-1-1-1-1-2-1 0-2 1-3 1-1 2 2 5 3 4 1 0 1-1 1-1 1-1 1 0 1-1zm4-4s1-1 2-1l1-1c0-2-1-3-3-2-1 0-1 1-2 2 0 1 1 0 2 2z"/><path class="fil5" d="M247 148h-1c-2-1-2-1-3-2-1 0-2 1-1 3 0 2 5 2 5-1zm28-24c1 1 3 2 3 3h2c-1-1-1-1-2-1-2-3-5-6-7-8-1 0-1 1-1 1l2 2 3 3zm-34 22s-1 0-2-2c-4 1-2 6 1 5 1-1 1-1 1-3zm6-4h1c1 1 1 2 1 3 3 1 4-4 0-4-1-1-2 0-2 1z"/><path class="fil5" d="M247 148c0 1 2 2 4 1s0-3 0-4l-1 1c-2 0-1 0-2 1-1 0-1 0-1 1zm-12-9c-1 0-2-1-2-3-2 0-3 1-2 3s3 2 4 0zm35 55h-1c-1-1 1-4 2-2 1 1 1 2-1 2zm-2-1c0 3 5 3 5 0s-5-3-5 0zm-94-68c0-2 3-2 3 0s-3 2-3 0zm-1 0c0 1 1 2 2 2 1 1 0 0 1 0s1-1 1-1c1-1 1 0 1-1l-1-1v-1c-2-1-4 0-4 2zm14-9c-2 0-2-2 0-2s2 2 0 2zm-2-1c0 1 0 1 1 2 2 1 1 1 2 0l1-1c1-1 0-3-1-3h-2s-1 1-1 2zm137 1c0-2 2-2 2 0 0 1 0 1-1 1s-1-1-1-1zm-1 0c0 1 0 1 1 1l1 1h1c2-1 2-5-1-5-1 0-2 2-2 3zm-73-6c0-2 3-2 3 0 0 1-3 1-3 0zm-1 0c0 1 2 3 4 1 1-1 0-4-2-4-1 0-2 1-2 3zm-10 24h1c2 1 1 3 2 3v-1c0-1 1-1 1-2-1-1-3-2-4 0zm2 9c0 2 2 3 4 3v-2l-2-2s-1 1-2 1zm-7-8h1c1 0 1 0 1-1 1 0 2 0 2-1l-1-1c-2 0-3 1-3 3zm37-23c1 0 0-1-1-1-2-1-2 2-1 3 1 0 2-1 2-2zm-24 26c1 1 2 1 2 3l2-1c0-1-1-2-1-2-1-1-2 0-3 0zm22-24c-1 0-2 1-1 2 0 0 1 1 2 1 1-1 1-3 0-3h-1zm-2 1c-3 1-1 6 1 2-1-1 0 0-1-2zm1-2s0-2-1-2c-1-1-3 2-1 3 2 0 2 0 2-1zm-20 1c0-1 2-1 2 0s-2 1-2 0zm-1 0c0 2 4 2 3 0 0-1-1-3-2-1-1 0-1 1-1 1zm24-4c0 1 0 0 1 1v1h2c1-2-2-4-3-2zm-83 20c-1 0-2-2 0-2 1 1 0 2 0 2zm-2-1c0 1 0 1 1 1 0 1 1 1 1 1 3-2 0-5-1-3-1 0-1 0-1 1zm-14-4h2v2h-2c-1-1 0-2 0-2zm1 3c2 0 2-4-1-4-1 0-1 2-1 3 1 1 1 1 2 1z"/><path class="fil5" d="M267 117c0 1 1 2 1 2 2 0 3-1 2-2l-1-1-1 1h-1zm1-7c1 0 0-1 3-1 0-1-1-2-2-2-1 1-2 2-1 3zm5 1l-2 2s1 1 2 1c1-1 2-3 0-3zm-3 5s0 1 1 1c2 0 2-2 1-3-1 0-1 0-1 1-1 0-1 0-1 1zm-6 3c0 1 1 2 2 1h1v-2c-1 0-2 1-3 1zm41-28c1 1 1 0 2 1h1c0 1 1 2 2 2l-1-1c0-1-1-4-3-2h-1zm-34 17v1c1 0 1 0 1 1 2 0 2-4-1-2zm-2 7c1 0 2-1 2-2h-2v2zm-93 14v-1c1 0 0 1 1 1h-1zm-1 0c1 2 2 0 2 0 0-1-2-2-2 0zm9-18h1v1h-1v-1zm0 0c0 1 0 1 1 1h1s0-2-1-2-1 1-1 1zm66 3v-1c2 1 0 2 0 1zm-1 0c0 1 2 1 2 0 0-2-2-2-2 0zm-98 55c0-1 0 0 0 0v-1l1 1h-1zm-1 0c0 2 2 1 2 0s-2-1-2 0zm142 43v-1z"/></g><path class="fil6" d="M145 185c16 33 41 65 64 80 17 11 36 11 53 0 23-15 49-47 64-80 14-29 19-61 13-90-3-20-11-38-23-54-41-54-118-55-160-1-12 16-20 35-24 55-5 29-1 61 13 90z"/><path class="fil7" d="M244 256c-59 11-121-75-112-161-5 30 0 61 13 90 16 33 41 65 64 80 7 5 15 7 23 8h6c8 0 16-3 24-8 23-15 49-47 64-80 8-17 13-35 15-53-7 47-48 115-97 124z"/><path class="fil8" d="M232 273c-1 2-1 3-1 4-1 3-4 6-4 6 1 0 5-5 6-6 2-3 0 2 0 3v5s1-2 2-5c0-2 0-7 1-3v4l2 4c0 1 0-2-1-5 0-2 0-5 1-5v-2h-6z"/><path class="fil9" d="M226 283l1 1c3 2 7 4 11 3-1 1-3 1-3 1-2 0-6-2-9-4v-1z"/><path class="fil8" d="M265 263c-29 14-50 7-68-7l12 9c7 5 15 7 23 8h6c8 0 16-3 24-8 1-1 2-1 3-2z"/><path class="fil10" d="M300 74c-7-10-22-23-27-31-5-7 7-7 12-5 12 6 23 20 29 34 2 4 2 6 0 7-3 4-9 2-12-2-1-1-1-2-2-3zm19 14v9c0 4-2 4-3 4-2 0-5-9-6-10s-2-4-1-6c0-2 9-6 10 3z"/><path class="fil11" d="M188 235c-6-7-15-17-22-28-12-17-22-38-26-55-3-16 0-20 1-16 4 14 12 36 21 54 12 25 26 45 26 45z"/><path class="fil10" d="M287 228c5-7 15-17 22-28 11-18 21-39 25-55s0-21-1-17c-4 15-12 36-21 54-12 25-25 46-25 46zM141 79c22-80 158-100 192 5-6-24-20-47-38-60-17-12-37-19-57-19-48-1-84 27-96 67 0 2-1 5-1 7z"/><path class="fil12" d="M122 407c-1 6-2 7-6 10-2 3 8 5 11 5s6-1 5-3c-4-4-4-10-4-12h-6z"/><path class="fil13" d="M24 327c19 32 49 61 74 74 18 10 38 8 54-6 21-18 44-53 56-88 11-31 12-64 3-94-6-19-16-37-29-52-48-51-127-43-163 17-11 18-17 38-19 58-2 31 6 63 24 91z"/><g clip-path="url(#id1)"><path id="1" class="fil5" d="M40 311c1-4 6-7 10-9 6-3 11-3 18-2-1 12-11 17-20 15-3 0-7-2-8-4zm86-6c1-1 2-2 3-4 1-1 1-2 2-3l-2 8-3-1zm-88 5l-1-1c-4-5-5-14-4-21 1-4 2-7 4-10 2-2 5-6 7-7 2 1 3 2 4 3 8 6 19 13 20 24-11-1-17 0-25 6-1 1-4 4-5 6zm79-4c-2-3 2-12 4-15 1 0 1 1 2 1 0 2-2 6-2 8-1 2-2 6-4 6zm79-32c0-3 1-7 2-9 2-6 2-7 5-5 0 2-2 6-2 8-1 2-2 6-5 6zM52 260c-3-1-8-6-11-8-7-6-11-17-5-25s19-7 25-1c3 3 5 7 5 12 0 6-2 10-5 14-1 1-7 6-9 8zm-12 8c-2 2-5 4-8 6-2 3-5 4-7 8-5 7-6 19 0 27 1 1 3 3 4 3 2 2 4 3 6 5 2 0 1 0 2 2 2 7 10 9 19 9 8-1 16-5 20-8 5-4 9-10 12-17s5-14 7-22c1-5 4-20 6-23l-3 15c-1 5-1 10-2 15-1 8-3 14-5 21-1 2-2 5-2 6 2 0 4-6 5-8 3-11 6-21 10-31 5-12 12-27 20-34-1 0-9 13-11 18-3 6-6 13-8 20-5 12-12 34-5 47 3 5 10 11 18 10 12-1 20-15 17-25-1-2-2-3-2-5 2-6 3-12 6-16 1-3 4-8 6-9-1 4-3 9-2 12 0 3 4 4 8-1 3-4 8-16 10-17l-5 16c1 0 2 0 3-1 3-1 2-1 5-9 1-3 5-9 7-10l-5 16c1 0 2-1 3-1 4-1 2-1 5-9 2-3 5-10 7-10 0 3-5 13 1 14 4 0 7-5 8-7 1-1 1-2 2-3 1 2 1 5 4 4 3 0 4-3 5-4 2 1 3 3 6 0 2-2 9-15 8-17-3 0-5 15-10 16l4-17c-1 1-2 1-3 1-3 2-1 2-3 3-3-1-5-1-7 2-1 2-2 4-3 7-1 2-7 12-9 12-1-3 5-14 1-15-4-2-8 7-10 9v-1c0-1 0-2-1-3-3-3-6 5-8 6-1-1-1-2-3-2-4-1-6 5-7 8s-7 12-9 13c-1-4 4-12 2-15-3-1-5 1-7 3l-2 2c0 1-1 2-2 3l6-23c-4 1-3 1-5 9-2 7-5 15-8 22-1 2-3 8-6 8l5-17c-2 0-3 1-4 2-2 0-2 0-2 2-3-1-4-1-7 1-4 3-7 15-3 17l2 1c-3 3-5 9-4 13 0 1 0 1 1 2 1-1 1-2 1-4 0-8 5-15 15-13l-7 22c2 0 4-1 6-2 1 0 1-3 2-5 0-3 1-8 2-11 6 8-5 28-18 24-5-2-8-6-10-12-7-22 8-60 20-78 1-2 4-6 3-8-5 0-14 16-17 20-4 8-7 17-11 26-1-3 3-23 5-28 0-2 2-7 2-9-4-1-11 23-12 26-3 11-5 19-10 28-5 8-11 16-18 20-9 5-25 8-27-2 5 1 8 2 14 1 4 0 8-1 12-3 19-9 17-31 3-43l-4-4c-1-1-2-2-4-3-1-1-3-3-4-3 2-2 5-3 7-5 8-5 15-11 13-22-4-27-53-24-54 3 0 12 5 17 12 24 2 2 4 3 6 5z"/></g><path class="fil6" d="M24 327c19 32 49 61 74 74 18 10 38 8 54-6 21-18 44-53 56-88 11-31 12-64 3-94-6-19-16-37-29-52-48-51-127-43-163 17-11 18-17 38-19 58-2 31 6 63 24 91z"/><path class="fil12" d="M133 389C73 406 1 326 0 237c-2 31 7 62 24 90 19 32 49 61 74 74 8 4 16 6 24 6h6c8-2 16-6 24-12 21-18 44-53 56-88 6-18 10-37 9-56-2 49-35 123-84 138z"/><path class="fil14" d="M122 407c0 2-1 3-1 4-1 3-3 7-3 7 1 0 4-6 5-7 2-4 1 2 1 3v6l2-6c0-2-1-7 0-3 1 1 1 2 1 4 1 2 2 3 3 4 0 0-1-2-2-5v-7h-6z"/><path class="fil15" d="M117 418l1 1c3 2 8 3 11 2 1-1 1-1 2-1 0 0-1 1-2 1l-2 1c-2 0-7-1-9-3-1 0-1-1-1-1z"/><path class="fil14" d="M154 393c-27 17-49 12-69 0 4 3 8 6 13 8 8 4 16 6 24 6h6c8-2 16-6 24-12 1-1 2-1 2-2z"/><path class="fil15" d="M169 197c-8-9-25-22-31-29-5-7 7-8 12-6 13 4 25 17 33 31 2 4 2 6 1 7-3 4-9 3-12 0l-3-3zm21 11c0 2 0 3 1 4v6c0 4-1 5-2 5-3 0-7-9-8-10-1-2-2-4-2-6s9-7 11 1zM73 373c-7-6-18-15-26-25-14-17-26-38-32-54-5-16-2-21-1-17 6 15 16 35 27 53 16 24 32 43 32 43z"/><path class="fil15" d="M7 220c14-85 150-120 196-17-8-24-25-46-45-57-18-10-39-15-60-13-49 5-83 37-90 79 0 3-1 5-1 8z"/><path class="fil16" d="M240 504c-2 5-4 5-8 8-3 1 6 7 8 8 4 1 7 1 6-1-2-5 0-11 0-13-2-1-4-1-6-2z"/><path class="fil16" d="M175 395c8 37 26 75 45 95 14 16 33 20 53 13 26-9 60-35 83-64 21-26 33-56 35-87 1-20-2-41-10-59-28-64-105-83-160-39-16 12-28 29-37 48-12 28-15 61-9 93z"/><g clip-path="url(#id2)"><path id="1" class="fil9" d="M364 271c-14-16-32-28-52-33-49-12-91 7-112 44-23 41 8 89 53 108 41 16 134 16 134-50 0-25-8-52-23-69z"/><path class="fil5" d="M254 408c0 3-6 32-10 35-3-2 0-15 1-19 2-4 6-14 9-16zm6 9c0-2 4-7 5-8 0 2-1 4-2 5s-2 3-3 3zm52 16c1-1 1-1 2-1-1 0-1-1-1-2h1c1 0 1 1 1 2 1-1 1-2 3-1l-1 2h2l-1 1c3-1 8-7 10-10l1-1 1-1c-1 4-2 8-2 12 0 3 1 8 3 9-1-17 8-24 9-27-2-1-6 0-7 1-2 0-2 1-5 5 0 1-8 10-10 7-1-2 7-13 17-16-6-1-13 2-17 4-3 1-10 6-13 10 0-9 10-18 10-20-4-1-8 0-11 2-2 2-5 5-7 8v-1c0-1 3-8 3-13-1-1-3-1-4 0-4 0-5 2-9 6 2-10 2-11-7-9-3 0-4 1-5 1-1 1 0 1 0 0-1-2 1-4-1-6-3-2-12 3-14 5 0-4 4-20 2-22-1-1-6 1-8 1 1 6-1 12-4 17-1 3-5 13-7 14-1-1-1-1-1-2 0-8 6-18 6-19-2 0-5 1-7 1-1 1-1 2-4 5-1 2-9 11-10 7 0-3 8-12 14-15 1 0 3 0 3-1-15-3-28 18-22 22 6 3 15-11 17-13-1 4-3 15 1 18 2 2 3-1 4-2 5-7 8-16 11-24 1 2 0 12 0 15-1 4-1 3-4 6-4 7-8 15-9 23-1 4-2 13 2 14 4-2 10-21 12-26l3-15c1-3 1-3 4-5 1 0 4-2 6-2 0 3-1 6-2 8s-1 2-2 3c-14 12 0 19 8-2 1-3 0-2 2-3 1-1 4-2 6-1 1 4-2 12-4 16-1 2-3 4-3 5 2 0 4-1 6-2 3-1 2-2 4-5 3-5 5-8 8-10 3 5-5 18-5 20 2 1 5 0 6-1s1-2 2-3 1-2 2-3c1-2 3-3 4-5 3-2 3-2 5-4-1 3-8 18-3 21 1 0 10-11 16-13-2 2-3 3-5 6-1 2-3 7-2 9zm-23-79l1 1v1h1v-1c1 0 2 1 2 2h1v1c-1 0-1 1-2-1 0 0 0-1-1-1 0 2 1 2 0 3-1 0 0 1 0 0-1 0-1-1-1-1 0 2 0 2-2 2v2l-1-2c-1-3 1-4 2-3h1l-1-1v-2zm-7-31c-1-2-2-6-1-9 1-4 3-7 5-9 2-4 10-10 15-7 2 1 3 5 0 8-3 6-10 11-16 15-1 0-2 1-3 2zm-3 2c-1 0-4 2-5 3-4 3-9 6-13 11s-6 11-5 18c1 1 1 2 1 3l1 2c1-3-1-4 4-11 3-6 9-11 14-15 1-1 7-5 8-5 5 4 9 9 7 17-3 10-13 20-21 20s-8-10-1-16c1-1 3-2 4-2 3-1 3 1 4 2 2 1 9-3 9-5 0-1-1-2-2-3-8-6-21 8-22 18 0 5 4 10 10 11 15 3 36-19 20-38l-6-6c2-1 25-13 21-26-3-11-19-16-29-2-3 6-4 13-2 19 1 2 3 4 3 5z"/><path class="fil5" d="M201 388c0 2-3 19-6 19-3-2 5-17 6-19zm-7-38c7 2 5 9 3 15-1 5-5 11-8 16-3 6-11 15-18 9-1-1-2-2-2-3 0-2 0-3-1-4-3 2-5 11 1 14 5 3 11-2 14-4 8-8 13-19 17-31 2 2 2 14 2 18s0 3-2 6c-3 4-8 15-7 20 1 3 3 3 5 2 5-5 8-20 9-27 1-3 0-4 2-6 1-2 2-4 4-5 2-4 5-6 8-9-1 2-2 5-3 7-1 3-1 5-2 8-2 8-3 18-1 26 0 4 2 8 6 10-7-9 1-38 7-49 1-1 4-5 4-6-2-1-6 0-8 0-5 1-15 16-16 16 0-6-1-12-2-17-1-2-2-7-3-8-2 0-8 1-9 2zm157 47c0 1 0 2-1 4-2 8-7 20-7 28 4 0 4-3 4-4 1-2 1-4 2-6 3-7 5-12 8-18 3-5 6-8-2-6-1 0-3 1-4 2zm-65-2c2 2 9-4 23 4 3 1 5 3 7 4-1-4-10-9-14-11-2-1-8-2-10-2-1 1-6 3-6 5zm56 41c-4 1-4 9-1 8 4-1 5-9 1-8zm-52-80v-1l-1-1v2l1 1h-1c-1-1-3 0-2 3l1 2v-2c2 0 2 0 2-2 0 0 0 1 1 1 0 1-1 0 0 0 1-1 0-1 0-3 1 0 1 1 1 1 1 2 1 1 2 1v-1h-1c0-1-1-2-2-2v1h-1zm22 77c0 3 5 3 6 1l1-1h-2l1-2c-2-1-2 0-3 1 0-1 0-2-1-2h-1c0 1 0 2 1 2-1 0-1 0-2 1z"/></g><path class="fil6" d="M175 395c8 37 26 75 45 95 14 16 33 20 53 13 26-9 60-35 83-64 21-26 33-56 35-87 1-20-2-41-10-59-28-64-105-83-160-39-16 12-28 29-37 48-12 28-15 61-9 93z"/><path class="fil17" d="M257 490c-62-3-102-104-73-187-12 28-15 60-9 92 8 37 26 75 45 95 6 7 13 11 20 14 2 1 4 1 6 2 9 1 18 0 27-3 26-9 60-35 83-64 12-15 21-32 27-49-18 45-75 103-126 100z"/><path class="fil17" d="M240 504c0 1-1 2-1 3-2 3-6 6-6 6 2 0 6-4 7-5 3-2 1 2 0 3l-2 6c1 0 2-3 4-5 1-2 2-7 2-3-1 1-1 3-1 4 0 2 1 4 1 5 0 0 0-2 1-5 0-3 1-5 1-5v-2c-2-1-4-1-6-2z"/><path class="fil9" d="M232 512c0 1 1 1 1 1 2 4 6 6 10 6h1c1 0 0 1-1 1s-2 0-3-1c-2 0-6-2-7-5-1-1-1-1-1-2z"/><path class="fil17" d="M276 502c-32 7-51-5-66-24 3 5 7 9 10 12 6 7 13 11 20 14 2 1 4 1 6 2 9 1 18 0 27-3 1 0 2-1 3-1z"/><path class="fil18" d="M357 322c-5-11-17-28-20-37-2-9 9-6 14-3 10 9 17 26 20 41 1 5 0 7-1 8-4 3-10-1-12-5 0-2-1-3-1-4zm15 18v4c-1 2-1 4-2 6-1 3-3 3-4 3-2-1-3-10-3-11-1-2-1-5 0-7 0-2 10-3 9 5z"/><path class="fil9" d="M206 456c-4-9-11-21-16-33-7-21-11-44-11-62 0-16 4-20 4-16 1 16 4 39 8 59 6 28 15 52 15 52zm100 16c7-6 19-13 29-22 15-15 30-34 38-49s6-20 4-17c-8 14-21 33-34 49-19 22-37 39-37 39z"/><path class="fil18" d="M196 289c42-75 182-62 191 51 0-25-8-52-23-69-14-16-32-28-52-33-49-12-91 7-112 44-1 2-3 5-4 7z"/><path class="fil0" d="M122 407c9 1 14 10 14 20 0 8-3 18-8 25-13 19-41 28-43 37-3 18 58 37 53 73 5-34-59-54-56-72 1-9 31-20 46-39 11-15 10-41-6-44z"/><path class="fil12" d="M172 362c0-12 1-24 4-36 2-8 5-16 8-23v-1c6-11 12-22 20-32l5-5 1-1 7-7c1-4 0-10 0-14-1-6-1-11-1-11-2 23-13 32-20 41-11 12-21 27-26 44-6 17-9 36-9 56 4-4 8-7 11-11z"/><path class="fil14" d="M172 362c-3 4-7 7-11 11 0 4 1 14-8 21 7-5 16-16 19-21v-11z"/><path class="fil3" d="M286 221c-20-1-47 5-59 12 1 5 1 10 2 15 18-13 39-18 60-18h1l8-8c-7-1-9-1-12-1z"/><path class="fil7" d="M214 224c2 9 3 18 3 27v4h2c1 0 2-1 2-1 3-2 5-4 8-6-1-2-1-4-1-6-2 1-4 2-6 4 0-8-1-17-4-27-8-26-25-57-49-69 4 3 9 7 13 11 13 15 23 33 29 52 1 4 2 7 3 11z"/><path class="fil7" d="M266 228c-12 2-27 7-38 14 0 2 0 4 1 6 18-13 39-18 60-18h9c-5-2-25-3-32-2zm-47 27h-2v2c1-1 2-1 2-2z"/></g><g id="_746076560"><path class="fil0" d="M237 504c9 1 14 5 14 10 0 4-3 9-8 12-13 10-41 15-43 19-3 9 58 19 53 37 5-17-59-27-56-37 1-4 31-9 46-19 11-8 10-21-6-22z"/><path class="fil1" d="M232 273c-1 5-3 6-7 9-2 3 7 6 10 6 4 0 7 0 5-2-3-5-2-11-2-13h-6z"/><path class="fil2" d="M145 185c16 33 41 65 64 80 17 11 36 11 53 0 23-15 49-47 64-80 14-29 19-61 13-90-3-20-11-38-23-54-41-54-118-55-160-1-12 16-20 35-24 55-5 29-1 61 13 90z"/><g clip-path="url(#id3)"><path id="1" class="fil3" d="M222 212c-12-37-38-67-71-79-6-3-13-4-19-5v3c6 2 11 4 17 6 12 6 23 14 33 24 13 15 23 33 29 52 1 4 2 7 3 11 2 9 3 18 3 27v4h2c1 0 2-1 2-1 3-2 5-4 8-6-1-12-3-24-7-36z"/><path class="fil4" d="M287 23c-7-5-15-10-24-13s-18-5-27-5c-21 0-40 6-55 18-14 11-25 28-30 47-6 21 1 41 13 57 13 15 33 26 54 30 19 3 48-1 71-13 22-12 38-32 32-62-3-12-7-23-13-34-6-10-13-18-21-25z"/><path class="fil5" d="M191 129zm5 0zm-1 0h1-1zm0 0zm0 0l-1-1c-2-3-5-5-8-7 1 0 6 3 8 5l1 1v2zm-9-8zm-1 0zm19-23zm0 0zm-11-18l1 1c4 6 2 12-1 17l-2 3v-4l-1-1c0-1 1-2 1-2v-5c0-2 1-5 1-7 0-1 1-1 1-2zm36-15c2-1 4 1 4 3 1 3-1 5-3 6-2 0-4-2-5-4 0-3 1-5 4-5zm-39-1c1 1 1 0 1 1l-1-1zm6-1zm-3-1zm-3-8l1 6c0 2 2 4 1 4s-1-1-1-1v-1c-1-3-1-5-1-8zm-13 3l6 9 8 8c1-2 1-5 2-6l2-3c0-1 0-1 1-2-1 1-4 7-4 11h1c-1 1-1 1-1 2-2 0-4-4-6-5l-1-1c0-1-1-2-2-3-1-2-4-6-5-9l-1-1zm0 0zm0 0zm0-1zm16 6l1-1c1-5-3-8-4-10-1 0-2 3-2 4s0 2-1 2c0 2 1 2 1 3l-3-3c-2 0-3-1-4-2h-1l-2-2c-1 0-2 0-2-1-1 0-1 0-2-1-2 3 0 11 1 14 1 2 2 3 3 5l3 3h2c-2 0-4 1-6 1-2 1-4 2-5 3-1 0-2 1-3 2h-1v1c-1 0-1 1-2 2 0 0-1 1-1 2 1 0 4-2 5-1-1 1-3 2-3 3-2 2-1 5-1 8 1 0 2-1 3-2v-1l3-3c1-3 2-7 4-10 2-2 4-2 6-3 3 0 8 1 9 3v1c0 1-1 1-1 1v3c-1 2-1 4-1 6-1 2-1 5-1 7 0 1 1 2 1 3-1 2 0 8 1 11 0 1 0 3 1 4v3c1 1 1 1 1 2h-2c-2-1-4-1-6-1 0 0-1 1-2 1 0 1 3 5 4 7 0 1 2 1 2 2l1 1 1 1c1 2 3 3 5 2 1 0 0 0 1-1h-2c-1-1-1-1-2-1h2c1 1 1 1 2 1 1 1 1 1 1 2 1 1 1 2 2 3-1 0-3-1-3-2-4-2-7-3-12-3-3 0-5 1-8 2-5 2-8 7-6 13s8 10 14 11c0 1 0 1 1 1-4 0-10 2-14 4-2 2-5 5-6 8l-1 2c-2 5 1 10 5 12 6 5 15 3 22 0l10-5c1-1 4-4 4-5s-1-3-2-3c-2-1-9 0-12 0-2 1-5 1-7 1-3 1-6 1-8 1 0-1 1-2 2-2 0 0 1 0 2-1 8-2 13-2 21-3 1 0 3-1 3-2 1-3-2-4-4-5-1 0-1 0-2-1 2 0 4 0 5-1 1 0 2-2 1-4-2-2-5-4-8-5l-9-4c-1-1-3-2-4-3-1 0-1 0-1-1 3 0 6 1 8 2 3 1 5 2 7 4l2 1h2c1 1 6 4 7 2 1-1 0-2 0-4 1 0 2 1 2 1v-1c1 1 3 3 4 1s0-7-1-9c0-1-5-11-4-13 1 0 2 3 3 4 1 3 2 5 3 9 1 2 1 3 2 5 0 1 1 4 3 3 1-1 2-3 2-4v-6c0-2-1-4-1-6 0-1 0-1-1-2-1-4-3-7-6-10-2-2-6-3-9-2-4 1-5 4-6 7v6l-1-3-1-1v-2c-1-1-1-2-2-3v-1c0-1 0-1-1-2 0-2-3-10-3-12 2-1 6-2 8-3 1-1 4-3 5-4l-3 3-6 3c-1 1-2 1-3 2l2 1c4 1 8 0 10-4 2-1 3-4 3-6v-1h-4c-3 0-5 0-8 1h1c3-7 3-13-2-18-1-2-1-1 1-5 2-5 6-10 10-14l3-3 1-1c2-2 5-4 7-5 6-2 12-3 19-1 5 1 11 5 13 11 3 4 3 9 1 15-1 1-1 3-2 4-2 2-4 4-7 5-5 1-11 0-15-3-2-2-4-5-3-8 0-1 1-4 2-5 0 2 0 4 2 5 1 1 3 2 5 1 1 0 3-1 3-3 4-6-5-12-13-8-1 1-2 2-3 4-2 2-2 6-1 10 1 5 5 8 10 10 5 1 11 1 15-2v3c-1 5 0 9 3 13l1 1h1c3 4 9 4 13 2 2 0 4-2 5-3 1-2 2-4 2-6s-1-5-2-6c-4-5-11-4-14 0 0 1-1 3-1 4 1 0 1 0 1 1s2 4 4 4c0 0 1 0 1 1 1 0 4-2 4-2 1-2 1-4 1-5-1 0-1-1-1-1-3-2-7 0-5 3 0 1 1 1 2 1h-1c-3-1-1-5 2-4 1 0 2 1 2 1 1 2 0 4-1 5s-2 1-3 1c-6-1-7-8-1-11 3-1 6-1 8 1 3 3 4 6 3 9-1 2-2 3-3 5-1 1-3 2-5 2-2 1-5 0-7 0-4-2-7-6-8-10v-4c0-2 1-5 2-7l2-2c1 0 1 0 1-1 6-8 5-20-2-27l-9-6-3-1c-3-1-7-1-10 0-4 0-8 2-11 4l-8 6-4 4c0 1-1 1-1 2l-2 2v-5s0-1-1 0c-2 0-3 2-4 2zm77 152h2-2zm6-1c0-1 4-2 4-3h3c1 0 1 1 2 2h-4c-3 1-2 1-4 1h-1zm-29-2c0-1 0 0 0 0zm11-3h4c2 0 3 1 4 2 0 0 1 1 1 2l-2-1c-2 0-6-2-7-3zm35-1zm1 0h-1 1zm-34-4c-1 1-4 3-5 3h-1c1 0 3-1 3-1l3-2zm0 0zm0 0zm-13-3zm23-4c-3 0-3-4-2-5 3-3 7 1 4 4 0 0-1 1-2 1zm-2-7h-1 1zm-32 0zm32 0zm2-3l2 3c-1 0-1-1-2-1v-2zm-2 3l1-1s-1 0-1 1zm1-1v-1 1zm-2-2c2 0 2 2 0 2h-1v-1c0-1 0-1 1-1zm6 0zm0-1v1-1zm0 0zm1 0h-1 1zm0 0zm0 0zm-7 4c-1 0-3-1-2-3s4-1 4 0l-1-1c-3-2-5 4-1 4zm7-4zm0-1s0 1 0 0zm0 0zm-2 1c-1 0-1-2 0-2 2 0 2 2 0 2zm2-2s0 1 0 0zm0 0zm0 0zm0 0zm0 0l-1-1 1 1zm-1-1zm0 0zm0 4h-1c-2 0-2-3-1-4h2c-1 0-2 0-2 2-1 1 0 2 2 2zm21 21v-1c3-4 4-7 4-12 0-4-2-8-6-10-2-1-5-1-7 0-5 2-5 8-2 10l2 2v1c-1 1-1 2-1 3 0 0 1-1 2-1 2-1 1-4-1-5-3-2-4-3-3-6 0-1 0-2 1-2l2 1h1c0 1 1 1 1 1 2 0 3-1 6 1 3 1 5 5 4 8 0 3-1 6-3 7 0 1 0 2-1 2-2 3-4 4-7 5l-1 1c0-1-1-3-2-3-3 0-7 3-9 4 0 0-4-1-5-1s0 0-1-2c-2-2-5-3-9-3 1-1 1 0 1-1l2-2c0-1 1-2 1-3h-7c0 1-1 1-1 1-1 1-2 2-2 3 0 0-6-4-6-5 1 0 2 1 5 1 4 0 6-2 8-5 1-3 1-6-1-10-1-2-3-5-5-7h-1c0-1 0-1-1-1 0-1-1-1-1-1-2-2-10-5-13-3-2 1 1 3 2 4l6 5c1 2 2 2 4 4l1 2 2 2c-2 0-5-3-7-5l-5-4-1-1h-1c-1-1-3-2-4-2s-1 1-2 2c0 2 3 7 3 8-1-1-5-8-8-7-3 0-1 4-1 6 1 6 4 14 4 19 0 1 0 1-1 2 0-1 0-1-1-1v-2c0-1-1-2-1-3v-1c-1-1-1-1-1-2-1-3-2-13-5-15-1 0-2-1-3 0-1 0-1 2-1 2-2 5-2 10-3 14 0 1 0 3 1 4 0 5 2 10 6 13s8 4 12 1c3-2 5-6 6-10 1-2 1-4 1-7l-2-6 2 1s0 1 1 1l4 4v4c0 1 1 4 1 4-1-1-2-6-2-8-2 1-3 4-2 7 1 1 2 3 4 4l1 1c1-1 1-1 1-2 1-3 1-4 1-7l3 2c1 1 4 3 6 4h2c3 2 6 2 7 2 2 1 1 2 5 1h8c2-1 3-1 5-2 0 1 0 1 1 2h2c1 0 1-1 1-1l2-1c-2 0-2 3-6 1v-1c2 0 5-2 7-3 1-2 2-3 4-5l2-3c1-3 2-6 3-10v-3c0-1 0-4-1-5-1-4-3-7-6-9 0-1-2-2-3-2-6-2-13-3-18 1l-2 1c-1 1-2 3-3 5v1l-1 2 1 2c-1 0-2-1-3 0-2 0-3 3-2 5 0 0 1 1 3 1-1 1-3 4 0 6s6 1 8-1c1-3-1-5-3-7v-1c2 0 4-2 3-5-1-1-3-2-5-1l-1 2c0-3 1-6 3-8 5-3 7-4 13-4 2 0 7 2 8 3 2 0 3 1 3 2 1 0 1 1 2 2l1 1c1 1 1 3 2 4 1 4 0 10-1 14-1 2-3 6-5 8 0 1-1 2-1 2zm9-81c0-1 0-1-1-2h4c1-1 2-1 3-1h2v1h-1c-1 1-2 1-2 1l-5 1zm16-9v-1h1c-1 0-1 1-1 1zm-1-4c0-1 2-2 2 0l-1 1-1-1zm-12-8c5-3 11-1 13 3 1 1 1 3 1 4 0-1-1-1-1-1-1 0-2 1-2 2 0 0 1 2 2 2l1-1v1c-1 0-2 0-2 1s0 1 1 1c-1 1-2 2-2 3-1-1-2-2-4-3-3-1-6-1-9 0-1 0-2 0-2 1h-2s4-1 6-6c2-2 2-4 0-6v-1zm-12-15zm0 0s0-1 1-1v-1 2h-1zm7-3c0-1 4-3 6-3s4 1 5 2h-4c-3 0-5 1-7 1zm-6 3v-2c1-1 2-2 1-4 0 0-1 2-1 3-1-1-1-2-2-4-1-1-1-2-3-3s-4-1-6 0c-1 0-2 0-2 1 1 0 3-2 7-1 0 0 1 0 1 1 1 0 0 0 0 0l1 1v-1c1 1 3 4 3 6v2s-1 3-1 2h-1v-1c-1 1 0 2-2 3 0 0 0 1-1 1l-2 2c-1 1-2 3-3 4l-2 1c-2 2-3 5-3 7v4c-1 0 0-3-4-5 0 1 0 1-1 1 1 3 4 7 5 8h4c1-1 1-3 1-6v-3s0-2 1-2v11c2 3 5-5 5-6 1-2 1-5 0-8 0-1-1-2-2-2 0 0 1-2 2-3l1-1c2-2 4-3 7-5 2-1 4-2 6-2 3-1 7-1 9 0v2c-1 2 0 3-1 4 0 0-1-1-2-1 0 1 1 1 1 1 4 0 5-4 5-6l1 1 3 1c1 1 1 1 2 1 4 3 6 6 8 10 3 6 2 12 0 18-1 1-2 2-2 3l-1 1-1 1c-2 2-6 5-10 5 1 0 2-1 2-2 2-2 1-5 0-7l-1-1c1-1 2-2 2-3h1c0-1 1-3 1-4 0-3-1-7-4-8-3-3-7-3-10-2s-1 1-3 1c-3-1-6-1-7 0-4 2-6 5-8 9v2c0 3 1 3 2 2l2-2 4-4 2-2c1 0 1 0 1-1 0 2-2 3-3 5l-4 4v1c-2 2 0 3 3 2 0 0 1-1 2-1 0 1-2 2-3 2 0 1-2 2-1 4 1 1 3 0 4 0 2-1 3-1 3 1-1 0-5 1-5 2-1 2 0 2 1 3 2 1 4 1 6 2h4c4 0 5-1 8-1 1 0 2 0 3-1 2 0 4-1 6-2 2-2 4-3 5-6 1 0 1 0 1-1 1-1 2-4 3-6 1-3 1-7 0-11-1-2-2-5-3-7s-3-4-4-5c-2-2-4-3-6-4-1-1-2-1-3-2h-1c-1 0-2 0-2-1-1 0-2-1-3-1-2-2-6-1-8 0-1 0-1 1-2 1 0-1 1-1 1-2-1 1-2 1-2 2-1 1 0 2-2 2 2-3 1-3 1-6v-4s1-1 0-1c0 0-3 4-2 7 0 2 0 5-2 6zM182 203c0 3 0 5 2 8 1 2 3 4 4 4l2 1c5 2 10 0 14-3l6-6 1-3 1-1 1-3v-1c1-1 2-4 3-5v-3c0-2 1-6-1-7-3-2-5 1-7 3-1 2-2 3-3 4-2 3-8 13-11 13v-2l6-9h1v-1l5-6h1c0-1 1-1 1-1 0-1 0-1 1-1 0-1 2-3 0-4 0-1 0-1-1-1 0 0-1-1-2 0h-3c-4 1-8 4-11 6l-4 4c-1 1-2 2-2 3l-1 1v1l-1 3c-1 1-2 4-2 6zm77-53c0 3 0 3 1 5 1 3 3 6 6 6 2 0 3-1 5-2 1-1 2-1 3-2s2-4 2-5v-1c0 4 2 7 3 10 2 1 4 4 6 4l1 1c3 0 4-1 6-2l1-1c2-2 3-5 3-7s-1-4-1-6l-5-10c-2-1-2-1-3-1h-1c-2 2 0 13 0 16v3c-2-1-2-7-2-9-1-2-1-8-2-10 0-1-2-1-3 1 0 1-1 2-1 2 0-2 0-4-2-4s-5 5-5 7l-4 6-1 1v-2s0-1 1-1c0-2 2-5 3-7 1-1 3-4 3-6 0 0-1-1-2-1s-3 2-4 2c-3 2-3 3-5 6 0 0-1 0-1 1-1 1-2 4-2 6z"/><path class="fil5" d="M237 159l-2 2c-1 1-1 0-1 1-2 6-11 4-14-3-2-3-2-6 2-8 1 0 1 0 1-1 1-1 1-2 1-2-7-1-11 3-14 8-2 5-1 10 2 14l2 2c1 1 4 3 7 3 3 1 7 0 9-1s4-3 6-6c1-2 1-5 1-9zm72-11c0 1-2-1-3-1-1-1-2-1-3-2 0 0-1 0-1-1-1 0-5-4-5-5-1-1-2-1-2-2-1 0-2-1-2-1-1 0-2 1-2 2s0 2 1 3c0 2 1 4 2 6l2 2c2 3 4 4 7 5 4 1 10 1 12-4v-7l-3-3-2-3c-1-1-2-1-4-2l-1-1-2-1c-2-1-8-3-9 0-1 2 5 5 6 6 2 2 5 4 7 6 0 0 2 2 2 3zm-70 14c0 1-1 2 0 2 1 1 2 1 4 1h9c1 0 2 1 2 1h3c-1 1-2 1-3 1h-3c-3 0-10 0-11 1-1 0-1 1-1 2s0 1 1 1l1 1c2 1 6 3 9 3 3 1 7 1 10-1 5-2 6-7 2-12-1-1-2-1-4-2-4-3-11-2-15 0-2 1-2 1-3 2h-1zm32-30c-1-1-1-1-3-1-3 1-5 2-8 2-1 1-1 1-2 1h-2c1-2 13-4 14-5v-2c-2-1-3-1-6-1h4c3 0 2-2 2-2l-1-1-6-2h-1l-1-1h3c-1 0-2 0-2-1-1-1 0-2 0-3h-2c-1 0-7 3-3 7 1 1 1 1 2 1 1 1 2 2 4 2-1 0-1 0-3 1-3 0-6 1-8 3-1 2-2 3-2 5-1 4 5 8 13 4 1 0 8-4 8-6v-1zm-119 16c1 0 2-1 4-1 4 0 4 0 7 1 2 1 5 3 7 4 1 1 3 4 3 5-3 0-6-1-9-2-1 0-2-1-3-1-2-1-5-3-7-5h-1l-1-1zm-12 13v-1c0-1 0-3 1-4v-1l1-1v-1c1-2 3-4 5-5 1 0 2-1 2-1 0-1-1-2-1-3-1-2 1-3 2-5l8-6c2-2 3-3 2-5-2-3-7-4-8-7-1-1-3-6-3-8 1 1 3 5 4 6v-2c-1 0-1-1-1-1 1 0 3 1 4 2 2 3 2 5 3 7 1 3 3 5 1 7-2 1-4 2-5 4-1 1-2 1-3 2s-2 2-2 3c-1 1-1 1-1 2v2l1 1h4c3-1 6-1 9 0 5 2 9 5 12 9 0 1 1 2 1 3l-1 1h-1c-4 0-11-3-15-5 0 0-1 0-1-1-1 0-2-1-3-1l-4-3c-1-1-1-1-3 0-1 1-2 1-2 2-1 0-1 1-1 1-5 5-5 15 1 19l1 1c4 2 8 3 12 1 0 0 0-1 1-1 4-3 5-10 1-14-4-2-9-2-11 2-1 1-1 2-1 3 0 3 2 3 2 4-1 0-1-1-1-1-2-3-1-6 0-8 2-2 6-2 8-2 7 2 9 11 4 16-1 0-1 1-2 1-1 1-2 1-3 1-4 2-8 1-11-1-4-3-6-7-6-12zm13-42zm0 0z"/><path class="fil5" d="M237 170c-1 0-2 2-3 3s-2 1-2 3h-3c-2 1-1 0-2 2-1 0-2-1-3-1 0 1-1 2-2 2-2 1-2-3-4-2-1 1-3 4-4 1-1-2 0-3-4-3-1 0-1-1-1-2 0-5-1-3-2-5-1 0 0-2 0-2 2-2-1-4-1-5 1-1 1-1 2-3 0-1-1-2 0-3h1s0-1 1-2c1-2 4-5 7-6h-1c-1-1-1-1-2 1-2 3-3 1-4 1-2 0-1 3-2 4l-1-1c-1 0-2 1-2 1 0 1 2 4 0 5-1 1-2 1-2 2 1 3 4 3 1 7-1 1-1 2 1 3h1c2 2 0 4 0 5s1 1 1 1c1 1 3 1 4 1 1 1 1 1 1 2s0 2 1 3 3 1 4-1c3-3 3 2 5 2s3-3 4-3l2 1c4 1 1-4 3-3h2c1 0 1 1 2 0v-1l-1-2c0-1 0-2 1-2 2 0 2 0 3-1 0 0 0-1-1-1v-1zm-6-34h1c0-2 0-3 1-4s3 0 4 1v-4c-2-5-6-8-11-3-1 0-1 0-1 1-2 2-3 5-3 8 0 2 0 10 3 11 2 0 4-9 5-12l1-3c1 1 0 4 0 5zm49-19c2 3 1 2 3 3 2 2 0 5-2 7-1 1-3 2-5 2-2-1-2-1-2-2l-2-2c-1 3 0 6 2 8 1 1 1 1 2 1 3 2 6 2 9 0 0 0 1-1 2-1 3-3 3-8 1-12l-1-1c-1-2-5-3-7-3zm-48-20c0-1 0-1 1-2s2 0 2 2c0 0 0 1-1 1s-2-1-2-1zm-1-1c0-1 0-2 1-3s4-1 5 0c2 2 1 6-2 6 1 0 3-3 1-4-2-2-4-2-5 1zm-2 0c0 2 0 3 2 4 3 4 9 1 9-4s-6-8-10-4c0 0-1 2-1 4z"/><path class="fil5" d="M226 103zm-1-4s1 1 1 2c0 2-2 2-3 1s0-3 2-3zm2 0zm0 0zm-1 4c-1 3-7 1-6-2 0-2 1-3 3-4 1 0 3 1 4 2-1-1-3-2-5 0s1 6 3 5c1 0 1 0 1-1zm-8-2c0 3 2 6 6 6s7-6 4-10c-4-4-10-1-10 4zm13 6c0-2 4-2 4 0 0 1-2 2-2 2-1 0-2-1-2-2zm-1-1zm4-1c2 0 4 3 2 5-2 3-6 1-6-2 0 0-1-2 0-2v2c2 4 7 1 5-2v-1h-1zm-1 9c2 0 3 0 4-2 2-2 2-5 1-7-1-1-2-2-3-2-4-3-9 2-7 7 0 1 1 2 2 3 0 0 1 1 3 1zm54 4l1 1v1c2 2 2 2 3 4v1c0 1 0 1 1 2 0 1 0 1-1 2 0 1-1 1 0 2 0 1 1 1 1 2-1 0-2 0-3 1-1 0 0 1-1 2-2 0-2-1-3 1-1 1-1 0-3 0-1-1-2 1-3 0 0 0-1-1-2-1h-1c-1-1-1-1-2-1 0-1 0-1-1-2s-1-2-2-3h-1v1l1 1s1 0 1 1c1 0 0 1 0 2h1c1 1 1 0 1 2v1c1 0 2-1 3 0 1 0 1 0 1 1 1 1 3-1 4-1 1 1 1 1 3 1 1-2 1-2 3-1 3 0 2-1 2-3 1-1 3 0 3-2 2-1-1-2-1-3s4-1 2-3-1-1-1-3v-1s-1 0-1-1c-2 0 0 0 0-3-1 0-3 1-4 0v-2s-1 0-1 1zm-49 40h2c2 0 4 0 6-1s5-2 5-5c1-2 1-2 1-3l-2 1c-2 0-8 6-10 7-1 1-2 1-2 1zm50-73v1c1 1 0 1 0 2v-3zm0 0zm-6-4c-1 0-2 2-3 4 0 1 0 0 1 3 0 2 1 3 3 3 0 1 0 1 1 1 2 1 7-3 4-7 0-1-1-1-2-2-1 0-2 1-3 2v2c0-1 0-2 1-2 0 0 2-1 3 0s2 4-1 5c-1 1-1 1-2 1-4 0-6-7-1-9 1-1 4-2 5-1 3 1 4 4 4 6 1 1 0 2 0 3v1h1v-2c0-1 1-1 0-1 0-2 0-2-1-4 0 0 0-1-1-1v-1l-1-1h-1c-2-1-4-1-6 0h-1zm-51 74l1-1 3-4c1-1 2-1 2-2s-1-1-1-2c0 0-3 3-3 4l-10 11 1 1 7-7zm-9 5c1 0 1 0 1-1l12-13c0-1 0-1-1-1h-1l-3 3c0 1-1 1-1 2l-8 9 1 1zm8 0c1-2 2-3 3-4l7-7h-2c-1 0-2 1-2 2-1 1-4 3-5 5l-3 3-3 4h2l3-3zm-2 3c1 1 2 0 2 0l6-6c2-2 4-4 6-5 0-1 1-1 1-1-1 0-1-1-2-1l-10 10c-1 0-3 3-3 3z"/><path class="fil5" d="M231 163c1 0 4-2 5-3s2-2 4-3l9-7h-1l-1-1c0 1-1 1-2 2h-1l-7 6-1 1-5 5zm2-19v-3c-1 0-1 0-2 2l-8 10c0 1-1 1-1 2-1 1-1 2-1 2l3-3c2-2 8-10 9-10zm-79 23c-1 0-2-1-2-2 0-3 5-3 4 0 0 1-1 2-2 2zm-3-3c0 1 0 2 1 3l-1 1c1 0 3 1 5 0l1-1c3-3-2-8-5-5-1 1-1 2-1 2z"/><path class="fil5" d="M222 155v-1l2-3 3-3 5-7-2-2c0 1-4 7-4 8-1 1-5 7-5 8h1zm21-16c-3 1-1 5 2 4s1-5-2-4zm-2 3c0-3 1-3-1-4-2-2-5 2-3 4 2 1 3 1 4 0z"/><path class="fil5" d="M236 139c1 0 1-2 3-2 0-2-2-4-4-2-2 1-2 3 1 4zm7 5c0 2 2 4 4 3s2-4 0-5c-1 2-3 2-4 2zm28-27s2 2 2 3c1 0 1 0 1 1l6 5h1c0-1-4-4-4-5l-5-4h-1zm-33 26l-1-1c-1-1-1-1-1-2-1 0-2 1-3 1-1 2 2 5 3 4 1 0 1-1 1-1 1-1 1 0 1-1zm4-4s1-1 2-1l1-1c0-2-1-3-3-2-1 0-1 1-2 2 0 1 1 0 2 2z"/><path class="fil5" d="M247 148h-1c-2-1-2-1-3-2-1 0-2 1-1 3 0 2 5 2 5-1zm28-24c1 1 3 2 3 3h2c-1-1-1-1-2-1-2-3-5-6-7-8-1 0-1 1-1 1l2 2 3 3zm-34 22s-1 0-2-2c-4 1-2 6 1 5 1-1 1-1 1-3zm6-4h1c1 1 1 2 1 3 3 1 4-4 0-4-1-1-2 0-2 1z"/><path class="fil5" d="M247 148c0 1 2 2 4 1s0-3 0-4l-1 1c-2 0-1 0-2 1-1 0-1 0-1 1zm-12-9c-1 0-2-1-2-3-2 0-3 1-2 3s3 2 4 0zm35 55h-1c-1-1 1-4 2-2 1 1 1 2-1 2zm-2-1c0 3 5 3 5 0s-5-3-5 0zm-94-68c0-2 3-2 3 0s-3 2-3 0zm-1 0c0 1 1 2 2 2 1 1 0 0 1 0s1-1 1-1c1-1 1 0 1-1l-1-1v-1c-2-1-4 0-4 2zm14-9c-2 0-2-2 0-2s2 2 0 2zm-2-1c0 1 0 1 1 2 2 1 1 1 2 0l1-1c1-1 0-3-1-3h-2s-1 1-1 2zm137 1c0-2 2-2 2 0 0 1 0 1-1 1s-1-1-1-1zm-1 0c0 1 0 1 1 1l1 1h1c2-1 2-5-1-5-1 0-2 2-2 3zm-73-6c0-2 3-2 3 0 0 1-3 1-3 0zm-1 0c0 1 2 3 4 1 1-1 0-4-2-4-1 0-2 1-2 3zm-10 24h1c2 1 1 3 2 3v-1c0-1 1-1 1-2-1-1-3-2-4 0zm2 9c0 2 2 3 4 3v-2l-2-2s-1 1-2 1zm-7-8h1c1 0 1 0 1-1 1 0 2 0 2-1l-1-1c-2 0-3 1-3 3zm37-23c1 0 0-1-1-1-2-1-2 2-1 3 1 0 2-1 2-2zm-24 26c1 1 2 1 2 3l2-1c0-1-1-2-1-2-1-1-2 0-3 0zm22-24c-1 0-2 1-1 2 0 0 1 1 2 1 1-1 1-3 0-3h-1zm-2 1c-3 1-1 6 1 2-1-1 0 0-1-2zm1-2s0-2-1-2c-1-1-3 2-1 3 2 0 2 0 2-1zm-20 1c0-1 2-1 2 0s-2 1-2 0zm-1 0c0 2 4 2 3 0 0-1-1-3-2-1-1 0-1 1-1 1zm24-4c0 1 0 0 1 1v1h2c1-2-2-4-3-2zm-83 20c-1 0-2-2 0-2 1 1 0 2 0 2zm-2-1c0 1 0 1 1 1 0 1 1 1 1 1 3-2 0-5-1-3-1 0-1 0-1 1zm-14-4h2v2h-2c-1-1 0-2 0-2zm1 3c2 0 2-4-1-4-1 0-1 2-1 3 1 1 1 1 2 1z"/><path class="fil5" d="M267 117c0 1 1 2 1 2 2 0 3-1 2-2l-1-1-1 1h-1zm1-7c1 0 0-1 3-1 0-1-1-2-2-2-1 1-2 2-1 3zm5 1l-2 2s1 1 2 1c1-1 2-3 0-3zm-3 5s0 1 1 1c2 0 2-2 1-3-1 0-1 0-1 1-1 0-1 0-1 1zm-6 3c0 1 1 2 2 1h1v-2c-1 0-2 1-3 1zm41-28c1 1 1 0 2 1h1c0 1 1 2 2 2l-1-1c0-1-1-4-3-2h-1zm-34 17v1c1 0 1 0 1 1 2 0 2-4-1-2zm-2 7c1 0 2-1 2-2h-2v2zm-93 14v-1c1 0 0 1 1 1h-1zm-1 0c1 2 2 0 2 0 0-1-2-2-2 0zm9-18h1v1h-1v-1zm0 0c0 1 0 1 1 1h1s0-2-1-2-1 1-1 1zm66 3v-1c2 1 0 2 0 1zm-1 0c0 1 2 1 2 0 0-2-2-2-2 0zm-98 55c0-1 0 0 0 0v-1l1 1h-1zm-1 0c0 2 2 1 2 0s-2-1-2 0zm142 43v-1z"/></g><path class="fil6" d="M145 185c16 33 41 65 64 80 17 11 36 11 53 0 23-15 49-47 64-80 14-29 19-61 13-90-3-20-11-38-23-54-41-54-118-55-160-1-12 16-20 35-24 55-5 29-1 61 13 90z"/><path class="fil7" d="M244 256c-59 11-121-75-112-161-5 30 0 61 13 90 16 33 41 65 64 80 7 5 15 7 23 8h6c8 0 16-3 24-8 23-15 49-47 64-80 8-17 13-35 15-53-7 47-48 115-97 124z"/><path class="fil8" d="M232 273c-1 2-1 3-1 4-1 3-4 6-4 6 1 0 5-5 6-6 2-3 0 2 0 3v5s1-2 2-5c0-2 0-7 1-3v4l2 4c0 1 0-2-1-5 0-2 0-5 1-5v-2h-6z"/><path class="fil9" d="M226 283l1 1c3 2 7 4 11 3-1 1-3 1-3 1-2 0-6-2-9-4v-1z"/><path class="fil8" d="M265 263c-29 14-50 7-68-7l12 9c7 5 15 7 23 8h6c8 0 16-3 24-8 1-1 2-1 3-2z"/><path class="fil10" d="M300 74c-7-10-22-23-27-31-5-7 7-7 12-5 12 6 23 20 29 34 2 4 2 6 0 7-3 4-9 2-12-2-1-1-1-2-2-3zm19 14v9c0 4-2 4-3 4-2 0-5-9-6-10s-2-4-1-6c0-2 9-6 10 3z"/><path class="fil11" d="M188 235c-6-7-15-17-22-28-12-17-22-38-26-55-3-16 0-20 1-16 4 14 12 36 21 54 12 25 26 45 26 45z"/><path class="fil10" d="M287 228c5-7 15-17 22-28 11-18 21-39 25-55s0-21-1-17c-4 15-12 36-21 54-12 25-25 46-25 46zM141 79c22-80 158-100 192 5-6-24-20-47-38-60-17-12-37-19-57-19-48-1-84 27-96 67 0 2-1 5-1 7z"/><path class="fil12" d="M122 407c-1 6-2 7-6 10-2 3 8 5 11 5s6-1 5-3c-4-4-4-10-4-12h-6z"/><path class="fil13" d="M24 327c19 32 49 61 74 74 18 10 38 8 54-6 21-18 44-53 56-88 11-31 12-64 3-94-6-19-16-37-29-52-48-51-127-43-163 17-11 18-17 38-19 58-2 31 6 63 24 91z"/><g clip-path="url(#id4)"><path id="1" class="fil5" d="M40 311c1-4 6-7 10-9 6-3 11-3 18-2-1 12-11 17-20 15-3 0-7-2-8-4zm86-6c1-1 2-2 3-4 1-1 1-2 2-3l-2 8-3-1zm-88 5l-1-1c-4-5-5-14-4-21 1-4 2-7 4-10 2-2 5-6 7-7 2 1 3 2 4 3 8 6 19 13 20 24-11-1-17 0-25 6-1 1-4 4-5 6zm79-4c-2-3 2-12 4-15 1 0 1 1 2 1 0 2-2 6-2 8-1 2-2 6-4 6zm79-32c0-3 1-7 2-9 2-6 2-7 5-5 0 2-2 6-2 8-1 2-2 6-5 6zM52 260c-3-1-8-6-11-8-7-6-11-17-5-25s19-7 25-1c3 3 5 7 5 12 0 6-2 10-5 14-1 1-7 6-9 8zm-12 8c-2 2-5 4-8 6-2 3-5 4-7 8-5 7-6 19 0 27 1 1 3 3 4 3 2 2 4 3 6 5 2 0 1 0 2 2 2 7 10 9 19 9 8-1 16-5 20-8 5-4 9-10 12-17s5-14 7-22c1-5 4-20 6-23l-3 15c-1 5-1 10-2 15-1 8-3 14-5 21-1 2-2 5-2 6 2 0 4-6 5-8 3-11 6-21 10-31 5-12 12-27 20-34-1 0-9 13-11 18-3 6-6 13-8 20-5 12-12 34-5 47 3 5 10 11 18 10 12-1 20-15 17-25-1-2-2-3-2-5 2-6 3-12 6-16 1-3 4-8 6-9-1 4-3 9-2 12 0 3 4 4 8-1 3-4 8-16 10-17l-5 16c1 0 2 0 3-1 3-1 2-1 5-9 1-3 5-9 7-10l-5 16c1 0 2-1 3-1 4-1 2-1 5-9 2-3 5-10 7-10 0 3-5 13 1 14 4 0 7-5 8-7 1-1 1-2 2-3 1 2 1 5 4 4 3 0 4-3 5-4 2 1 3 3 6 0 2-2 9-15 8-17-3 0-5 15-10 16l4-17c-1 1-2 1-3 1-3 2-1 2-3 3-3-1-5-1-7 2-1 2-2 4-3 7-1 2-7 12-9 12-1-3 5-14 1-15-4-2-8 7-10 9v-1c0-1 0-2-1-3-3-3-6 5-8 6-1-1-1-2-3-2-4-1-6 5-7 8s-7 12-9 13c-1-4 4-12 2-15-3-1-5 1-7 3l-2 2c0 1-1 2-2 3l6-23c-4 1-3 1-5 9-2 7-5 15-8 22-1 2-3 8-6 8l5-17c-2 0-3 1-4 2-2 0-2 0-2 2-3-1-4-1-7 1-4 3-7 15-3 17l2 1c-3 3-5 9-4 13 0 1 0 1 1 2 1-1 1-2 1-4 0-8 5-15 15-13l-7 22c2 0 4-1 6-2 1 0 1-3 2-5 0-3 1-8 2-11 6 8-5 28-18 24-5-2-8-6-10-12-7-22 8-60 20-78 1-2 4-6 3-8-5 0-14 16-17 20-4 8-7 17-11 26-1-3 3-23 5-28 0-2 2-7 2-9-4-1-11 23-12 26-3 11-5 19-10 28-5 8-11 16-18 20-9 5-25 8-27-2 5 1 8 2 14 1 4 0 8-1 12-3 19-9 17-31 3-43l-4-4c-1-1-2-2-4-3-1-1-3-3-4-3 2-2 5-3 7-5 8-5 15-11 13-22-4-27-53-24-54 3 0 12 5 17 12 24 2 2 4 3 6 5z"/></g><path class="fil6" d="M24 327c19 32 49 61 74 74 18 10 38 8 54-6 21-18 44-53 56-88 11-31 12-64 3-94-6-19-16-37-29-52-48-51-127-43-163 17-11 18-17 38-19 58-2 31 6 63 24 91z"/><path class="fil12" d="M133 389C73 406 1 326 0 237c-2 31 7 62 24 90 19 32 49 61 74 74 8 4 16 6 24 6h6c8-2 16-6 24-12 21-18 44-53 56-88 6-18 10-37 9-56-2 49-35 123-84 138z"/><path class="fil14" d="M122 407c0 2-1 3-1 4-1 3-3 7-3 7 1 0 4-6 5-7 2-4 1 2 1 3v6l2-6c0-2-1-7 0-3 1 1 1 2 1 4 1 2 2 3 3 4 0 0-1-2-2-5v-7h-6z"/><path class="fil15" d="M117 418l1 1c3 2 8 3 11 2 1-1 1-1 2-1 0 0-1 1-2 1l-2 1c-2 0-7-1-9-3-1 0-1-1-1-1z"/><path class="fil14" d="M154 393c-27 17-49 12-69 0 4 3 8 6 13 8 8 4 16 6 24 6h6c8-2 16-6 24-12 1-1 2-1 2-2z"/><path class="fil15" d="M169 197c-8-9-25-22-31-29-5-7 7-8 12-6 13 4 25 17 33 31 2 4 2 6 1 7-3 4-9 3-12 0l-3-3zm21 11c0 2 0 3 1 4v6c0 4-1 5-2 5-3 0-7-9-8-10-1-2-2-4-2-6s9-7 11 1zM73 373c-7-6-18-15-26-25-14-17-26-38-32-54-5-16-2-21-1-17 6 15 16 35 27 53 16 24 32 43 32 43z"/><path class="fil15" d="M7 220c14-85 150-120 196-17-8-24-25-46-45-57-18-10-39-15-60-13-49 5-83 37-90 79 0 3-1 5-1 8z"/><path class="fil16" d="M240 504c-2 5-4 5-8 8-3 1 6 7 8 8 4 1 7 1 6-1-2-5 0-11 0-13-2-1-4-1-6-2z"/><path class="fil16" d="M175 395c8 37 26 75 45 95 14 16 33 20 53 13 26-9 60-35 83-64 21-26 33-56 35-87 1-20-2-41-10-59-28-64-105-83-160-39-16 12-28 29-37 48-12 28-15 61-9 93z"/><g clip-path="url(#id5)"><path id="1" class="fil9" d="M364 271c-14-16-32-28-52-33-49-12-91 7-112 44-23 41 8 89 53 108 41 16 134 16 134-50 0-25-8-52-23-69z"/><path class="fil5" d="M254 408c0 3-6 32-10 35-3-2 0-15 1-19 2-4 6-14 9-16zm6 9c0-2 4-7 5-8 0 2-1 4-2 5s-2 3-3 3zm52 16c1-1 1-1 2-1-1 0-1-1-1-2h1c1 0 1 1 1 2 1-1 1-2 3-1l-1 2h2l-1 1c3-1 8-7 10-10l1-1 1-1c-1 4-2 8-2 12 0 3 1 8 3 9-1-17 8-24 9-27-2-1-6 0-7 1-2 0-2 1-5 5 0 1-8 10-10 7-1-2 7-13 17-16-6-1-13 2-17 4-3 1-10 6-13 10 0-9 10-18 10-20-4-1-8 0-11 2-2 2-5 5-7 8v-1c0-1 3-8 3-13-1-1-3-1-4 0-4 0-5 2-9 6 2-10 2-11-7-9-3 0-4 1-5 1-1 1 0 1 0 0-1-2 1-4-1-6-3-2-12 3-14 5 0-4 4-20 2-22-1-1-6 1-8 1 1 6-1 12-4 17-1 3-5 13-7 14-1-1-1-1-1-2 0-8 6-18 6-19-2 0-5 1-7 1-1 1-1 2-4 5-1 2-9 11-10 7 0-3 8-12 14-15 1 0 3 0 3-1-15-3-28 18-22 22 6 3 15-11 17-13-1 4-3 15 1 18 2 2 3-1 4-2 5-7 8-16 11-24 1 2 0 12 0 15-1 4-1 3-4 6-4 7-8 15-9 23-1 4-2 13 2 14 4-2 10-21 12-26l3-15c1-3 1-3 4-5 1 0 4-2 6-2 0 3-1 6-2 8s-1 2-2 3c-14 12 0 19 8-2 1-3 0-2 2-3 1-1 4-2 6-1 1 4-2 12-4 16-1 2-3 4-3 5 2 0 4-1 6-2 3-1 2-2 4-5 3-5 5-8 8-10 3 5-5 18-5 20 2 1 5 0 6-1s1-2 2-3 1-2 2-3c1-2 3-3 4-5 3-2 3-2 5-4-1 3-8 18-3 21 1 0 10-11 16-13-2 2-3 3-5 6-1 2-3 7-2 9zm-23-79l1 1v1h1v-1c1 0 2 1 2 2h1v1c-1 0-1 1-2-1 0 0 0-1-1-1 0 2 1 2 0 3-1 0 0 1 0 0-1 0-1-1-1-1 0 2 0 2-2 2v2l-1-2c-1-3 1-4 2-3h1l-1-1v-2zm-7-31c-1-2-2-6-1-9 1-4 3-7 5-9 2-4 10-10 15-7 2 1 3 5 0 8-3 6-10 11-16 15-1 0-2 1-3 2zm-3 2c-1 0-4 2-5 3-4 3-9 6-13 11s-6 11-5 18c1 1 1 2 1 3l1 2c1-3-1-4 4-11 3-6 9-11 14-15 1-1 7-5 8-5 5 4 9 9 7 17-3 10-13 20-21 20s-8-10-1-16c1-1 3-2 4-2 3-1 3 1 4 2 2 1 9-3 9-5 0-1-1-2-2-3-8-6-21 8-22 18 0 5 4 10 10 11 15 3 36-19 20-38l-6-6c2-1 25-13 21-26-3-11-19-16-29-2-3 6-4 13-2 19 1 2 3 4 3 5z"/><path class="fil5" d="M201 388c0 2-3 19-6 19-3-2 5-17 6-19zm-7-38c7 2 5 9 3 15-1 5-5 11-8 16-3 6-11 15-18 9-1-1-2-2-2-3 0-2 0-3-1-4-3 2-5 11 1 14 5 3 11-2 14-4 8-8 13-19 17-31 2 2 2 14 2 18s0 3-2 6c-3 4-8 15-7 20 1 3 3 3 5 2 5-5 8-20 9-27 1-3 0-4 2-6 1-2 2-4 4-5 2-4 5-6 8-9-1 2-2 5-3 7-1 3-1 5-2 8-2 8-3 18-1 26 0 4 2 8 6 10-7-9 1-38 7-49 1-1 4-5 4-6-2-1-6 0-8 0-5 1-15 16-16 16 0-6-1-12-2-17-1-2-2-7-3-8-2 0-8 1-9 2zm157 47c0 1 0 2-1 4-2 8-7 20-7 28 4 0 4-3 4-4 1-2 1-4 2-6 3-7 5-12 8-18 3-5 6-8-2-6-1 0-3 1-4 2zm-65-2c2 2 9-4 23 4 3 1 5 3 7 4-1-4-10-9-14-11-2-1-8-2-10-2-1 1-6 3-6 5zm56 41c-4 1-4 9-1 8 4-1 5-9 1-8zm-52-80v-1l-1-1v2l1 1h-1c-1-1-3 0-2 3l1 2v-2c2 0 2 0 2-2 0 0 0 1 1 1 0 1-1 0 0 0 1-1 0-1 0-3 1 0 1 1 1 1 1 2 1 1 2 1v-1h-1c0-1-1-2-2-2v1h-1zm22 77c0 3 5 3 6 1l1-1h-2l1-2c-2-1-2 0-3 1 0-1 0-2-1-2h-1c0 1 0 2 1 2-1 0-1 0-2 1z"/></g><path class="fil6" d="M175 395c8 37 26 75 45 95 14 16 33 20 53 13 26-9 60-35 83-64 21-26 33-56 35-87 1-20-2-41-10-59-28-64-105-83-160-39-16 12-28 29-37 48-12 28-15 61-9 93z"/><path class="fil17" d="M257 490c-62-3-102-104-73-187-12 28-15 60-9 92 8 37 26 75 45 95 6 7 13 11 20 14 2 1 4 1 6 2 9 1 18 0 27-3 26-9 60-35 83-64 12-15 21-32 27-49-18 45-75 103-126 100z"/><path class="fil17" d="M240 504c0 1-1 2-1 3-2 3-6 6-6 6 2 0 6-4 7-5 3-2 1 2 0 3l-2 6c1 0 2-3 4-5 1-2 2-7 2-3-1 1-1 3-1 4 0 2 1 4 1 5 0 0 0-2 1-5 0-3 1-5 1-5v-2c-2-1-4-1-6-2z"/><path class="fil9" d="M232 512c0 1 1 1 1 1 2 4 6 6 10 6h1c1 0 0 1-1 1s-2 0-3-1c-2 0-6-2-7-5-1-1-1-1-1-2z"/><path class="fil17" d="M276 502c-32 7-51-5-66-24 3 5 7 9 10 12 6 7 13 11 20 14 2 1 4 1 6 2 9 1 18 0 27-3 1 0 2-1 3-1z"/><path class="fil18" d="M357 322c-5-11-17-28-20-37-2-9 9-6 14-3 10 9 17 26 20 41 1 5 0 7-1 8-4 3-10-1-12-5 0-2-1-3-1-4zm15 18v4c-1 2-1 4-2 6-1 3-3 3-4 3-2-1-3-10-3-11-1-2-1-5 0-7 0-2 10-3 9 5z"/><path class="fil9" d="M206 456c-4-9-11-21-16-33-7-21-11-44-11-62 0-16 4-20 4-16 1 16 4 39 8 59 6 28 15 52 15 52zm100 16c7-6 19-13 29-22 15-15 30-34 38-49s6-20 4-17c-8 14-21 33-34 49-19 22-37 39-37 39z"/><path class="fil18" d="M196 289c42-75 182-62 191 51 0-25-8-52-23-69-14-16-32-28-52-33-49-12-91 7-112 44-1 2-3 5-4 7z"/><path class="fil0" d="M122 407c9 1 14 10 14 20 0 8-3 18-8 25-13 19-41 28-43 37-3 18 58 37 53 73 5-34-59-54-56-72 1-9 31-20 46-39 11-15 10-41-6-44z"/><path class="fil12" d="M172 362c0-12 1-24 4-36 2-8 5-16 8-23v-1c6-11 12-22 20-32l5-5 1-1 7-7c1-4 0-10 0-14-1-6-1-11-1-11-2 23-13 32-20 41-11 12-21 27-26 44-6 17-9 36-9 56 4-4 8-7 11-11z"/><path class="fil14" d="M172 362c-3 4-7 7-11 11 0 4 1 14-8 21 7-5 16-16 19-21v-11z"/><path class="fil3" d="M286 221c-20-1-47 5-59 12 1 5 1 10 2 15 18-13 39-18 60-18h1l8-8c-7-1-9-1-12-1z"/><path class="fil7" d="M214 224c2 9 3 18 3 27v4h2c1 0 2-1 2-1 3-2 5-4 8-6-1-2-1-4-1-6-2 1-4 2-6 4 0-8-1-17-4-27-8-26-25-57-49-69 4 3 9 7 13 11 13 15 23 33 29 52 1 4 2 7 3 11z"/><path class="fil7" d="M266 228c-12 2-27 7-38 14 0 2 0 4 1 6 18-13 39-18 60-18h9c-5-2-25-3-32-2zm-47 27h-2v2c1-1 2-1 2-2z"/></g></g></svg>